<svg width="21" height="23" viewBox="0 0 21 23" fill="none" xmlns="http://www.w3.org/2000/svg">
<path d="M16.7401 6.2468C17.0552 6.2468 17.1439 5.8208 16.8599 5.69211L5.77059 0.775354C5.09609 0.473603 4.30178 0.775354 4.00003 1.45429L0.117212 10.1607C-0.184539 10.8352 0.117211 11.6295 0.79615 11.9312L3.03265 12.8986C3.31222 13.0229 3.63172 12.8187 3.63172 12.5126V8.81611C3.63172 7.40055 4.78103 6.25124 6.19659 6.25124H16.7401V6.2468Z" fill="white"/>
<path d="M19.6422 7.4538H6.1921C5.44217 7.4538 4.83423 8.06173 4.83423 8.81167V18.3124C4.83423 19.0623 5.44217 19.6702 6.1921 19.6702H7.99817C7.95379 19.404 7.93161 19.1333 7.93161 18.8582C7.93161 18.5476 7.96267 18.2458 8.01592 17.9485H6.56042V13.4001H19.2783V17.9441H17.8184C17.8716 18.2414 17.9027 18.5431 17.9027 18.8537C17.9027 19.1289 17.8805 19.3996 17.8361 19.6658H19.6422C20.3921 19.6658 21.0001 19.0579 21.0001 18.3079V8.81167C21.0001 8.06173 20.3921 7.4538 19.6422 7.4538ZM19.2783 10.6H6.56042V9.17555H19.2783V10.6Z" fill="white"/>
<path d="M12.9195 15.3659C10.9936 15.3659 9.43164 16.9279 9.43164 18.8537C9.43164 20.7796 10.9936 22.3416 12.9195 22.3416C14.8454 22.3416 16.4074 20.7796 16.4074 18.8537C16.4074 16.9279 14.8454 15.3659 12.9195 15.3659ZM13.9224 20.2294C13.7715 20.4157 13.5718 20.54 13.3411 20.6021C13.239 20.6287 13.1946 20.682 13.1991 20.7885C13.2035 20.8906 13.1991 20.9926 13.1991 21.0991C13.1991 21.1923 13.1503 21.2411 13.0615 21.2411C12.9506 21.2456 12.8396 21.2456 12.7287 21.2411C12.6311 21.2411 12.5867 21.1834 12.5867 21.0902C12.5867 21.0148 12.5867 20.9394 12.5867 20.8639C12.5867 20.6997 12.5778 20.6909 12.4181 20.6642C12.214 20.6332 12.0143 20.5844 11.8279 20.4956C11.6815 20.4246 11.6637 20.3891 11.7081 20.2338C11.7391 20.1184 11.7702 20.0031 11.8057 19.8921C11.8456 19.759 11.8811 19.7457 12.0054 19.8078C12.214 19.9143 12.4314 19.9764 12.6621 20.0031C12.8086 20.0208 12.955 20.0075 13.0926 19.9454C13.35 19.8344 13.3899 19.5371 13.1725 19.3596C13.097 19.2975 13.0171 19.2531 12.9284 19.2176C12.7021 19.12 12.4669 19.0446 12.2583 18.9159C11.9122 18.7117 11.6948 18.4277 11.7214 18.0062C11.748 17.5314 12.0187 17.2385 12.4536 17.0787C12.6311 17.0122 12.6355 17.0166 12.6355 16.8302C12.6355 16.7681 12.6355 16.7015 12.6355 16.6394C12.64 16.4974 12.6621 16.4752 12.8041 16.4708C12.8485 16.4708 12.8929 16.4708 12.9328 16.4708C13.2346 16.4708 13.2346 16.4708 13.2346 16.7725C13.2346 16.9855 13.2346 16.9855 13.4476 17.0166C13.6073 17.0432 13.7626 17.0876 13.9135 17.1542C13.9978 17.1897 14.0289 17.2474 14.0023 17.3361C13.9668 17.4648 13.9313 17.5979 13.8869 17.7222C13.847 17.842 13.807 17.8597 13.6916 17.8065C13.4565 17.6911 13.2124 17.6467 12.955 17.66C12.8885 17.6645 12.8219 17.6734 12.7598 17.7C12.5379 17.7976 12.498 18.0461 12.6888 18.197C12.7864 18.2724 12.8929 18.3301 13.0083 18.3789C13.208 18.4588 13.4032 18.5387 13.594 18.6452C14.1798 18.9691 14.344 19.7191 13.9224 20.2294Z" fill="white"/>
</svg>
