<svg width="15" height="14" viewBox="0 0 15 14" fill="none" xmlns="http://www.w3.org/2000/svg">
<path d="M8.23886 6.73004L13.7439 1.44134C13.9086 1.28348 14.0013 1.06917 14.0017 0.845556C14.0021 0.621945 13.9101 0.407349 13.7459 0.248977C13.5817 0.090605 13.3589 0.00142988 13.1263 0.00106921C12.8938 0.00070855 12.6706 0.0891918 12.5059 0.247054L7.00085 5.54056L1.49582 0.247054C1.33112 0.0891918 1.10795 0.00070855 0.875404 0.00106921C0.642858 0.00142988 0.419985 0.090605 0.255815 0.248977C0.0916451 0.407349 -0.000373933 0.621945 1.14214e-06 0.845556C0.000376217 1.06917 0.0931147 1.28348 0.257815 1.44134L5.76285 6.73004L0.257815 12.0245C0.176526 12.1027 0.112045 12.1955 0.0680515 12.2976C0.0240583 12.3997 0.00141535 12.5092 0.00141535 12.6197C0.00141535 12.7303 0.0240583 12.8397 0.0680515 12.9419C0.112045 13.044 0.176526 13.1368 0.257815 13.2149C0.339104 13.2931 0.435607 13.3551 0.541816 13.3974C0.648025 13.4397 0.761859 13.4615 0.876819 13.4615C0.991778 13.4615 1.10561 13.4397 1.21182 13.3974C1.31803 13.3551 1.41453 13.2931 1.49582 13.2149L7.00085 7.92144L12.5059 13.2149C12.6701 13.3728 12.8927 13.4615 13.1249 13.4615C13.3571 13.4615 13.5797 13.3728 13.7439 13.2149C13.9081 13.0571 14.0003 12.843 14.0003 12.6197C14.0003 12.3965 13.9081 12.1824 13.7439 12.0245L8.23886 6.73004Z" fill="#222222"/>
</svg>
