<svg width="26" height="26" viewBox="0 0 26 26" fill="none" xmlns="http://www.w3.org/2000/svg">
<path d="M21.5722 4.35786H19.3043V2.84923C19.3043 2.624 19.2148 2.40799 19.0555 2.24873C18.8963 2.08947 18.6803 2 18.455 2C18.2289 1.99998 18.0118 2.08913 17.851 2.24812C17.6901 2.4071 17.5985 2.62308 17.5958 2.84923V4.33787H8.39419V2.84923C8.39156 2.62308 8.29987 2.4071 8.13902 2.24812C7.97817 2.08913 7.76113 1.99998 7.53497 2C7.30974 2 7.09373 2.08947 6.93447 2.24873C6.77521 2.40799 6.68574 2.624 6.68574 2.84923V4.33787H4.4178C3.77656 4.33787 3.16158 4.5926 2.70816 5.04603C2.25473 5.49945 2 6.11444 2 6.75568V21.5822C2 22.2234 2.25473 22.8384 2.70816 23.2918C3.16158 23.7453 3.77656 24 4.4178 24H21.5722C21.8893 24 22.2032 23.9374 22.496 23.8158C22.7887 23.6941 23.0546 23.5159 23.2783 23.2912C23.502 23.0666 23.6792 22.8 23.7996 22.5067C23.92 22.2134 23.9813 21.8992 23.98 21.5822V6.77566C23.9813 6.45862 23.92 6.14444 23.7996 5.85116C23.6792 5.55788 23.502 5.29126 23.2783 5.06662C23.0546 4.84197 22.7887 4.66372 22.496 4.54209C22.2032 4.42046 21.8893 4.35785 21.5722 4.35786ZM3.70845 11.5213H22.2716V21.5822C22.2729 21.6749 22.2558 21.7669 22.2212 21.8529C22.1867 21.9389 22.1354 22.0172 22.0703 22.0832C22.0052 22.1492 21.9277 22.2016 21.8422 22.2374C21.7567 22.2731 21.6649 22.2916 21.5722 22.2916H4.4178C4.22967 22.2916 4.04924 22.2168 3.91621 22.0838C3.78318 21.9508 3.70845 21.7703 3.70845 21.5822V11.5213ZM7.53497 8.40417C7.76113 8.40419 7.97817 8.31504 8.13902 8.15606C8.29987 7.99708 8.39156 7.78109 8.39419 7.55495V6.0663H17.5958V7.55495C17.5985 7.78109 17.6901 7.99708 17.851 8.15606C18.0118 8.31504 18.2289 8.40419 18.455 8.40417C18.6803 8.40417 18.8963 8.31471 19.0555 8.15545C19.2148 7.99618 19.3043 7.78018 19.3043 7.55495V6.0663H21.5722C21.6649 6.06629 21.7567 6.08471 21.8422 6.12048C21.9277 6.15625 22.0052 6.20866 22.0703 6.27466C22.1354 6.34067 22.1867 6.41895 22.2212 6.50495C22.2558 6.59096 22.2729 6.68298 22.2716 6.77566V9.77293H3.70845V6.77566C3.70845 6.58753 3.78318 6.4071 3.91621 6.27407C4.04924 6.14104 4.22967 6.0663 4.4178 6.0663H6.68574V7.55495C6.68574 7.78018 6.77521 7.99618 6.93447 8.15545C7.09373 8.31471 7.30974 8.40417 7.53497 8.40417Z" fill="#FF8976"/>
<path d="M9.30867 19.3642C9.28835 19.4563 9.28835 19.5518 9.30867 19.6439C9.32004 19.7485 9.35052 19.8501 9.39859 19.9436C9.4443 20.0418 9.50879 20.13 9.58842 20.2034C9.73702 20.3673 9.93869 20.4734 10.1579 20.5031H10.2278C10.2907 20.5135 10.3548 20.5135 10.4177 20.5031C10.5086 20.4786 10.5914 20.4304 10.6574 20.3632L12.9853 18.0354L15.3032 20.3632C15.3703 20.4313 15.4524 20.4826 15.543 20.5131C15.6092 20.5236 15.6766 20.5236 15.7428 20.5131H15.8227C16.0364 20.4961 16.2359 20.3999 16.3822 20.2434C16.5442 20.0892 16.6497 19.8851 16.682 19.6639C16.7022 19.5684 16.7022 19.4697 16.682 19.3741C16.6595 19.2824 16.6109 19.1991 16.5421 19.1344L14.2242 16.8364L16.5521 14.5086C16.6245 14.4451 16.6767 14.3617 16.7019 14.2688C16.7275 14.1773 16.7275 14.0805 16.7019 13.989C16.6799 13.7776 16.5802 13.5818 16.4222 13.4395C16.2706 13.2796 16.0704 13.1742 15.8527 13.1398C15.7578 13.1148 15.6579 13.1148 15.563 13.1398C15.4729 13.1663 15.3906 13.2143 15.3232 13.2797L13.0053 15.6076L10.6774 13.2797C10.6115 13.215 10.5334 13.1641 10.4476 13.1298C10.3521 13.1099 10.2534 13.1099 10.1579 13.1298C9.94558 13.1563 9.7502 13.2593 9.6084 13.4196C9.45033 13.5685 9.34511 13.7649 9.30867 13.979C9.29246 14.0737 9.29847 14.1707 9.32621 14.2626C9.35395 14.3545 9.40267 14.4387 9.46852 14.5086L11.7764 16.8364L9.44854 19.1543C9.38993 19.2155 9.34258 19.2865 9.30867 19.3642Z" fill="#FF8976"/>
</svg>
