<svg width="16" height="16" viewBox="0 0 16 16" fill="none" xmlns="http://www.w3.org/2000/svg">
<path d="M7.99921 -0.000396729C6.41696 -0.000396729 4.87024 0.468796 3.55465 1.34785C2.23905 2.2269 1.21367 3.47633 0.608174 4.93814C0.00267283 6.39994 -0.155754 8.00848 0.152928 9.56032C0.46161 11.1122 1.22353 12.5376 2.34235 13.6565C3.46117 14.7753 4.88663 15.5372 6.43848 15.8459C7.99033 16.1546 9.59886 15.9961 11.0607 15.3906C12.5225 14.7851 13.7719 13.7598 14.651 12.4442C15.53 11.1286 15.9992 9.58185 15.9992 7.9996C15.9968 5.8786 15.1532 3.84515 13.6534 2.34538C12.1537 0.845606 10.1202 0.00198538 7.99921 -0.000396729Z" fill="#FF8976"/>
<path d="M8.00002 3.33931C7.78578 3.33892 7.57625 3.40207 7.39791 3.52079C7.21958 3.6395 7.08046 3.80844 6.99815 4.00624C6.91585 4.20404 6.89405 4.42181 6.93553 4.63199C6.97701 4.84218 7.0799 5.03534 7.23118 5.18704C7.38246 5.33874 7.57532 5.44216 7.78539 5.48422C7.99546 5.52629 8.21329 5.5051 8.41132 5.42334C8.60934 5.34159 8.77866 5.20293 8.89787 5.02492C9.01708 4.84692 9.08082 4.63755 9.08102 4.42331C9.08102 4.13633 8.96723 3.86107 8.76459 3.65787C8.56195 3.45466 8.28699 3.34011 8.00002 3.33931Z" fill="white"/>
<path d="M7.99998 6.64999C7.77684 6.64999 7.56282 6.73857 7.40494 6.89626C7.24706 7.05395 7.15822 7.26786 7.15796 7.49099V11.835C7.15796 12.058 7.24656 12.272 7.40429 12.4297C7.56201 12.5874 7.77593 12.676 7.99898 12.676C8.22203 12.676 8.43595 12.5874 8.59367 12.4297C8.75139 12.272 8.83999 12.058 8.83999 11.835V7.48599C8.83867 7.26399 8.74962 7.05151 8.59226 6.8949C8.4349 6.73829 8.222 6.65025 7.99998 6.64999Z" fill="white"/>
</svg>
