<svg width="26" height="26" viewBox="0 0 26 26" fill="none" xmlns="http://www.w3.org/2000/svg">
<path d="M24.11 9.53996C23.937 9.04717 23.5781 8.6416 23.11 8.40995C22.3091 8.03347 21.4413 7.82012 20.5571 7.78235C19.6729 7.74458 18.7901 7.88314 17.96 8.18995L16.33 8.77995L11.48 6.39996C11.2717 6.31492 11.0383 6.31492 10.83 6.39996L7.91001 7.46996C7.76813 7.51986 7.64271 7.60783 7.54747 7.72424C7.45223 7.84064 7.39083 7.981 7.37001 8.12996C7.35023 8.28005 7.37138 8.43271 7.43123 8.57177C7.49108 8.71083 7.58741 8.83113 7.71001 8.91995L10.51 10.92L6.65001 12.32L5.14001 11.1C5.0313 11.0073 4.89977 10.9455 4.7591 10.9209C4.61842 10.8963 4.47371 10.9098 4.34001 10.96L2.78001 11.53C2.67721 11.5671 2.58277 11.6243 2.50211 11.6981C2.42146 11.7719 2.35617 11.8609 2.31001 11.96C2.23032 12.1624 2.23032 12.3875 2.31001 12.59L3.31001 15.32C3.47413 15.7802 3.72851 16.203 4.05821 16.5636C4.38791 16.9242 4.7863 17.2154 5.23001 17.42C5.67297 17.6286 6.15287 17.7475 6.64201 17.7699C7.13116 17.7922 7.61989 17.7174 8.08001 17.55L11.53 16.29L10.8 19.15C10.7766 19.2704 10.7799 19.3944 10.8096 19.5134C10.8393 19.6324 10.8947 19.7435 10.9719 19.8388C11.0491 19.9341 11.1462 20.0113 11.2565 20.0651C11.3667 20.1189 11.4874 20.1478 11.61 20.15C11.7027 20.1651 11.7973 20.1651 11.89 20.15L14.78 19C14.8859 18.9606 14.9829 18.9005 15.0653 18.8233C15.1477 18.746 15.2139 18.6531 15.26 18.55L17.18 14.15L22.92 12.07C23.4095 11.8873 23.8081 11.5203 24.0305 11.0474C24.2529 10.5746 24.2815 10.0335 24.11 9.53996ZM12.39 10.2L10 8.44996L11.06 7.99995L14.14 9.52995L12.39 10.2ZM13.49 15.15C13.5304 15.0045 13.5293 14.8506 13.4869 14.7057C13.4445 14.5608 13.3625 14.4307 13.25 14.33C13.0959 14.1928 12.8963 14.1179 12.69 14.12C12.5942 14.1161 12.4986 14.1331 12.41 14.17L7.49001 16C6.97152 16.1872 6.40004 16.1621 5.90001 15.93C5.65291 15.8157 5.43103 15.6535 5.24732 15.4526C5.06361 15.2517 4.92175 15.0162 4.83001 14.76L4.13001 12.81L4.46001 12.69L6.00001 13.88C6.11309 13.9682 6.24666 14.0264 6.38829 14.0491C6.52992 14.0719 6.67499 14.0584 6.81001 14.01L18.5 9.74995C19.1254 9.51807 19.7908 9.41365 20.4572 9.44284C21.1235 9.47204 21.7773 9.63426 22.38 9.91995C22.4199 9.93828 22.4555 9.96461 22.4847 9.99729C22.514 10.03 22.5362 10.0683 22.55 10.11C22.5676 10.151 22.5767 10.1953 22.5767 10.24C22.5767 10.2846 22.5676 10.3289 22.55 10.37C22.5107 10.4511 22.4432 10.5151 22.36 10.55L16.29 12.76C16.1858 12.7973 16.0903 12.8556 16.0094 12.9313C15.9286 13.0069 15.8641 13.0984 15.82 13.2L13.89 17.6L12.78 18L13.49 15.15Z" fill="#FF8976"/>
</svg>
