<svg width="18" height="24" viewBox="0 0 18 24" fill="none" xmlns="http://www.w3.org/2000/svg">
<path d="M13.4604 4.5375V3.894C13.4604 3.3525 13.0224 2.9145 12.4801 2.9145H11.0349C11.1721 2.63475 11.2501 2.3325 11.2501 2.0085C11.2501 0.903 10.3516 0 9.2461 0C8.14135 0 7.2421 0.9045 7.2421 2.01075C7.2421 2.3355 7.3201 2.6355 7.45735 2.91525H5.52085C4.97935 2.91525 4.54135 3.35325 4.54135 3.89475V4.5375H2.07385C1.1971 4.5375 0.485352 5.2485 0.485352 6.12525V22.4115C0.485352 23.289 1.19635 24 2.07385 24H15.9279C16.8054 24 17.5156 23.289 17.5156 22.4115V6.12525C17.5156 5.2485 16.8039 4.5375 15.9279 4.5375H13.4604ZM8.0521 2.00925C8.0521 1.35 8.58835 0.81 9.2461 0.81C9.90385 0.81 10.4401 1.35075 10.4401 2.01075C10.4401 2.37075 10.2804 2.697 10.0299 2.91525H8.4631C8.2111 2.697 8.0521 2.36925 8.0521 2.00925ZM15.8934 21.5535C15.8934 22.008 15.5244 22.3785 15.0691 22.3785H2.93185C2.4766 22.3785 2.1076 22.0095 2.1076 21.5535V6.98325C2.1076 6.528 2.4766 6.159 2.93185 6.159H4.5406C4.5406 6.60675 4.9036 6.96975 5.35135 6.96975H12.6489C13.0974 6.96975 13.4604 6.60675 13.4604 6.159H15.0699C15.5244 6.159 15.8941 6.52725 15.8941 6.98325V21.5535H15.8934Z" fill="black"/>
<path d="M8.34764 14.679L7.35914 13.689C7.24814 13.578 7.09664 13.515 6.93914 13.515C6.78164 13.515 6.63089 13.578 6.51914 13.689L6.21239 13.9957C5.98064 14.2275 5.98064 14.6032 6.21239 14.835L7.94864 16.5727C8.06189 16.6852 8.21714 16.7482 8.37689 16.7452C8.53739 16.743 8.69039 16.6762 8.80064 16.5592L11.8164 13.3612C12.0414 13.1235 12.0309 12.7485 11.7924 12.5227L11.4774 12.2257C11.3634 12.117 11.2111 12.0592 11.0529 12.0637C10.8961 12.0682 10.7469 12.1357 10.6381 12.2497L8.34764 14.679Z" fill="black"/>
<path d="M9.00006 8.17726C5.73306 8.17726 3.07581 10.8383 3.07581 14.1098C3.07581 17.379 5.73306 20.0408 9.00006 20.0408C12.2663 20.0408 14.9251 17.379 14.9251 14.1098C14.9251 10.8383 12.2678 8.17726 9.00006 8.17726ZM9.00006 18.4208C6.62631 18.4208 4.69581 16.4873 4.69581 14.1098C4.69581 11.7323 6.62631 9.79801 9.00006 9.79801C11.3731 9.79801 13.3051 11.7315 13.3051 14.1098C13.3051 16.4865 11.3731 18.4208 9.00006 18.4208Z" fill="black"/>
</svg>
