<svg width="18" height="24" viewBox="0 0 18 24" fill="none" xmlns="http://www.w3.org/2000/svg">
<path d="M12.975 4.5375V3.894C12.975 3.3525 12.537 2.9145 11.9948 2.9145H10.5495C10.6868 2.63475 10.7648 2.3325 10.7648 2.0085C10.7648 0.903 9.86625 0 8.76075 0C7.656 0 6.75675 0.9045 6.75675 2.01075C6.75675 2.3355 6.83475 2.6355 6.972 2.91525H5.0355C4.494 2.91525 4.056 3.35325 4.056 3.89475V4.5375H1.5885C0.71175 4.5375 0 5.2485 0 6.12525V22.4115C0 23.289 0.711 24 1.5885 24H15.4425C16.32 24 17.0303 23.289 17.0303 22.4115V6.12525C17.0303 5.2485 16.3185 4.5375 15.4425 4.5375H12.975ZM7.56675 2.00925C7.56675 1.35 8.103 0.81 8.76075 0.81C9.4185 0.81 9.95475 1.35075 9.95475 2.01075C9.95475 2.37075 9.795 2.697 9.5445 2.91525H7.97775C7.72575 2.697 7.56675 2.36925 7.56675 2.00925ZM15.408 21.5535C15.408 22.008 15.039 22.3785 14.5837 22.3785H2.4465C1.99125 22.3785 1.62225 22.0095 1.62225 21.5535V6.98325C1.62225 6.528 1.99125 6.159 2.4465 6.159H4.05525C4.05525 6.60675 4.41825 6.96975 4.866 6.96975H12.1635C12.612 6.96975 12.975 6.60675 12.975 6.159H14.5845C15.039 6.159 15.4088 6.52725 15.4088 6.98325V21.5535H15.408Z" fill="white"/>
<path d="M7.86229 14.679L6.87379 13.689C6.76279 13.578 6.61129 13.515 6.45379 13.515C6.29629 13.515 6.14554 13.578 6.03379 13.689L5.72704 13.9957C5.49529 14.2275 5.49529 14.6032 5.72704 14.835L7.46328 16.5727C7.57653 16.6852 7.73179 16.7482 7.89154 16.7452C8.05204 16.743 8.20504 16.6762 8.31529 16.5592L11.331 13.3612C11.556 13.1235 11.5455 12.7485 11.307 12.5227L10.992 12.2257C10.878 12.117 10.7258 12.0592 10.5675 12.0637C10.4108 12.0682 10.2615 12.1357 10.1528 12.2497L7.86229 14.679Z" fill="white"/>
<path d="M8.5147 8.17725C5.2477 8.17725 2.59045 10.8382 2.59045 14.1097C2.59045 17.379 5.2477 20.0407 8.5147 20.0407C11.781 20.0407 14.4397 17.379 14.4397 14.1097C14.4397 10.8382 11.7825 8.17725 8.5147 8.17725ZM8.5147 18.4207C6.14095 18.4207 4.21045 16.4872 4.21045 14.1097C4.21045 11.7322 6.14095 9.798 8.5147 9.798C10.8877 9.798 12.8197 11.7315 12.8197 14.1097C12.8197 16.4865 10.8877 18.4207 8.5147 18.4207Z" fill="white"/>
</svg>
