<svg width="26" height="26" viewBox="0 0 26 26" fill="none" xmlns="http://www.w3.org/2000/svg">
<path fill-rule="evenodd" clip-rule="evenodd" d="M23.9999 18.45V6.39546C23.9999 5.07438 22.9411 4 21.6307 4H4.36915C3.05875 4 1.99992 5.07438 1.99992 6.39546V18.45C1.99992 19.8583 3.13643 21 4.53839 21H21.4615C22.8634 21 23.9999 19.8583 23.9999 18.45ZM22.3076 7.5451C22.043 7.45113 21.7582 7.4 21.4615 7.4H4.53839C4.24169 7.4 3.95689 7.45113 3.69223 7.5451V6.39546C3.69223 6.00946 3.99721 5.7 4.36915 5.7H21.6307C22.0026 5.7 22.3076 6.00946 22.3076 6.39546V7.5451ZM22.3076 9.95V18.45C22.3076 18.9194 21.9288 19.3 21.4615 19.3H4.53839C4.07107 19.3 3.69223 18.9194 3.69223 18.45V9.95C3.69223 9.48056 4.07107 9.1 4.53839 9.1H21.4615C21.9288 9.1 22.3076 9.48056 22.3076 9.95Z" fill="#FF8976"/>
<path d="M14.6276 11.0001H13.8333C13.8333 10.5398 13.4603 10.1667 13 10.1667C12.5398 10.1667 12.1667 10.5398 12.1667 11.0001C11.2516 11.0064 10.5116 11.7501 10.5116 12.6667V13.5008C10.5116 14.4213 11.2578 15.1675 12.1783 15.1675H13.8334V16.0001H12.0894C11.9555 15.7349 11.6838 15.55 11.3661 15.542C10.906 15.5303 10.5236 15.8938 10.5119 16.3539L10.5003 16.8123C10.4884 17.2807 10.8648 17.6667 11.3334 17.6667H12.1667C12.1706 18.1236 12.5422 18.4928 13 18.4928C13.4578 18.4928 13.8294 18.1236 13.8334 17.6667C14.7538 17.6667 15.5 16.9206 15.5 16.0001V15.1675C15.5 14.247 14.7538 13.5008 13.8334 13.5008H12.1783V12.6667H13.9292C14.0779 12.8947 14.3352 13.0453 14.6276 13.0453C15.0878 13.0453 15.4609 12.6722 15.4609 12.212V11.8334C15.4609 11.3732 15.0878 11.0001 14.6276 11.0001Z" fill="#FF8976"/>
</svg>
