<svg width="18" height="18" viewBox="0 0 18 18" fill="none" xmlns="http://www.w3.org/2000/svg">
<path fill-rule="evenodd" clip-rule="evenodd" d="M16.6155 12.7732V4.42774C16.6155 3.51315 15.8825 2.76934 14.9753 2.76934H3.025C2.1178 2.76934 1.38477 3.51315 1.38477 4.42774V12.7732C1.38477 13.7482 2.17158 14.5386 3.14216 14.5386H14.8581C15.8287 14.5386 16.6155 13.7482 16.6155 12.7732ZM15.4439 5.22364C15.2607 5.15859 15.0635 5.12319 14.8581 5.12319H3.14216C2.93676 5.12319 2.73959 5.15859 2.55636 5.22364V4.42774C2.55636 4.16051 2.76751 3.94627 3.025 3.94627H14.9753C15.2328 3.94627 15.4439 4.16051 15.4439 4.42774V5.22364ZM15.4439 6.88858V12.7732C15.4439 13.0982 15.1817 13.3617 14.8581 13.3617H3.14216C2.81863 13.3617 2.55636 13.0982 2.55636 12.7732V6.88858C2.55636 6.56358 2.81863 6.30011 3.14216 6.30011H14.8581C15.1817 6.30011 15.4439 6.56358 15.4439 6.88858Z" fill="#6FC991"/>
<path d="M10.1271 7.6155H9.57722C9.57722 7.29687 9.31893 7.03857 9.0003 7.03857C8.68167 7.03857 8.42338 7.29687 8.42338 7.61553C7.78983 7.61985 7.27758 8.13477 7.27758 8.76934V9.34679C7.27758 9.98404 7.79417 10.5006 8.43142 10.5006H9.57723V11.077H8.36985C8.27718 10.8935 8.08909 10.7655 7.86912 10.7599C7.55059 10.7518 7.28584 11.0035 7.27776 11.322L7.26972 11.6393C7.2615 11.9636 7.52211 12.2309 7.84646 12.2309H8.4234C8.42611 12.5472 8.68336 12.8028 9.0003 12.8028C9.31724 12.8028 9.57449 12.5472 9.57723 12.2309C10.2145 12.2309 10.7311 11.7143 10.7311 11.077V10.5006C10.7311 9.86339 10.2145 9.34679 9.57723 9.34679H8.43142V8.76934H9.64358C9.74654 8.92713 9.92464 9.03141 10.1271 9.03141C10.4457 9.03141 10.704 8.77311 10.704 8.45449V8.19242C10.704 7.87379 10.4457 7.6155 10.1271 7.6155Z" fill="#6FC991"/>
</svg>
