<svg width="500" height="500" viewBox="0 0 500 500" fill="none" xmlns="http://www.w3.org/2000/svg">
<g clip-path="url(#clip0)">
<path fill-rule="evenodd" clip-rule="evenodd" d="M260.522 171.924C304.61 152.105 333.025 103.725 381.058 97.8851C435.838 91.2255 506.754 92.1919 537.866 138.208C570.109 185.896 523.922 248.069 521.403 305.462C519.694 344.397 535.044 381.772 525.522 419.503C514.327 463.865 499.46 510.431 462.834 537.548C423.996 566.302 373.099 569.221 324.7 568.183C271.252 567.037 211.402 568.274 172.398 531.32C133.437 494.407 138.28 433.367 127.015 380.89C115.485 327.181 76.4871 267.626 105.906 221.58C135.825 174.751 209.924 194.671 260.522 171.924Z" fill="#E5FAFF"/>
<path fill-rule="evenodd" clip-rule="evenodd" d="M263.888 148.697C314.103 126.121 346.471 71.0224 401.18 64.3672C463.572 56.7773 544.341 57.8703 579.771 110.27C616.489 164.576 563.878 235.384 561.003 300.744C559.053 345.083 576.531 387.645 565.682 430.615C552.927 481.136 535.99 534.168 494.271 565.053C450.034 597.802 392.064 601.133 336.94 599.956C276.067 598.656 207.9 600.071 163.48 557.992C119.11 515.959 124.632 446.445 111.807 386.684C98.681 325.521 54.2708 257.703 87.7822 205.262C121.863 151.929 206.256 174.606 263.888 148.697Z" stroke="#E5FAFF" stroke-width="2"/>
<path fill-rule="evenodd" clip-rule="evenodd" d="M263.184 119.837C324.893 91.5005 366.719 26.8975 433.042 16.5276C508.681 4.70125 606.047 1.86915 646.133 59.962C687.677 120.167 620.641 203.745 613.871 278.584C609.279 329.354 628.209 377.111 612.953 426.765C595.015 485.146 571.906 546.607 520.026 584.01C465.014 623.672 394.925 630.406 328.496 631.847C255.138 633.438 172.847 638.499 121.395 592.655C70.0015 546.861 80.1746 467.142 67.725 399.494C54.9835 330.26 4.84431 255.001 47.9143 193.378C91.716 130.708 192.362 152.359 263.184 119.837Z" stroke="#E5FAFF" stroke-width="2"/>
<path d="M265.163 423.383C243.392 423.383 221.717 418.644 205.152 409.069C189.061 399.779 180.164 387.361 180.164 374.184C180.164 361.007 189.061 348.589 205.152 339.299C238.281 320.15 292.139 320.15 325.173 339.299C341.264 348.589 350.161 361.007 350.161 374.184C350.161 387.361 341.264 399.779 325.173 409.069C308.609 418.644 286.838 423.383 265.163 423.383ZM265.163 325.554C243.582 325.554 221.906 330.293 205.436 339.868C189.535 349.063 180.826 361.292 180.826 374.184C180.826 387.171 189.535 399.305 205.436 408.5C238.376 427.554 291.95 427.554 324.889 408.5C340.791 399.305 349.499 387.076 349.499 374.184C349.499 361.197 340.791 349.063 324.889 339.868C308.419 330.293 286.744 325.554 265.163 325.554Z" fill="white"/>
<path opacity="0.5" d="M265.163 409.259C298.671 409.259 325.835 393.555 325.835 374.184C325.835 354.813 298.671 339.109 265.163 339.109C231.654 339.109 204.49 354.813 204.49 374.184C204.49 393.555 231.654 409.259 265.163 409.259Z" fill="#13247A"/>
<path d="M303.781 237.867L241.689 201.845C240.647 201.276 239.796 201.181 239.038 201.56L234.779 204.025L237.524 205.731V351.528C237.524 354.561 239.322 358.069 241.594 359.396L303.024 394.945L302.172 398.073L306.432 395.608C307.284 395.134 307.851 393.997 307.851 392.29V245.64C307.851 242.607 306.053 239.1 303.781 237.867Z" fill="url(#paint0_linear)"/>
<path d="M299.522 397.883L237.335 361.955C235.063 360.628 233.264 357.121 233.264 354.087V207.438C233.264 204.404 235.063 203.077 237.335 204.309L299.522 240.237C301.794 241.564 303.592 245.072 303.592 248.105V394.755C303.592 397.788 301.699 399.21 299.522 397.883Z" fill="url(#paint1_linear)"/>
<path d="M303.592 394.85L233.264 354.182V207.343L303.592 248.105V394.85Z" fill="#0F65B2"/>
<path opacity="0.4" d="M292.328 397.693L229.573 361.386C227.206 360.059 225.786 357.5 225.786 354.75V216.727C225.786 214.831 227.869 213.599 229.573 214.547L292.328 250.854C294.694 252.181 296.114 254.74 296.114 257.49V395.608C296.114 397.504 294.032 398.641 292.328 397.693Z" fill="white"/>
<path d="M293.559 398.357C293.086 398.357 292.612 398.262 292.139 397.978L229.384 361.671C226.923 360.249 225.408 357.595 225.408 354.846V216.728C225.408 215.685 225.882 214.832 226.828 214.358C227.68 213.884 228.721 213.884 229.573 214.358L292.423 250.665C294.884 252.087 296.398 254.741 296.398 257.49V395.608C296.398 396.651 295.925 397.504 294.979 397.978C294.505 398.168 294.032 398.357 293.559 398.357ZM228.248 214.453C227.869 214.453 227.491 214.547 227.112 214.737C226.449 215.116 225.976 215.874 225.976 216.633V354.751C225.976 357.405 227.396 359.775 229.668 361.102L292.423 397.409C293.086 397.788 293.937 397.788 294.695 397.409C295.357 397.03 295.83 396.272 295.83 395.513V257.49C295.83 254.836 294.411 252.466 292.139 251.139L229.384 214.832C229.005 214.547 228.627 214.453 228.248 214.453Z" fill="white"/>
<path d="M273.019 228.482L263.743 223.079C263.459 222.889 263.175 222.415 263.175 221.941C263.175 221.562 263.459 221.373 263.743 221.467L273.019 226.871C273.303 227.06 273.587 227.534 273.587 228.008C273.587 228.482 273.398 228.672 273.019 228.482Z" fill="#0063AD"/>
<path opacity="0.2" d="M276.9 311.808C278.13 312.567 279.171 311.808 279.171 310.102V259.101C279.171 257.395 278.13 255.404 276.9 254.646L225.976 225.164C225.881 225.733 225.787 226.397 225.787 226.966V282.137L276.9 311.808Z" fill="#041860"/>
<path d="M238.659 292.944V294.176C237.618 293.702 236.198 293.418 234.589 293.607C228.815 293.987 222.095 298.632 219.634 303.845C218.972 305.267 218.593 306.594 218.688 307.827L217.552 307.448L218.782 309.344C219.823 310.955 221.906 311.903 224.84 311.619C230.614 311.24 237.334 306.594 239.795 301.381C241.026 298.821 241.026 296.546 239.985 294.935L238.659 292.944Z" fill="#F4A856"/>
<path d="M238.47 299.39C235.915 304.604 229.289 309.154 223.515 309.628C217.741 310.007 215.091 306.215 217.646 301.001C220.202 295.788 226.828 291.237 232.602 290.763C238.376 290.289 240.931 294.176 238.47 299.39Z" fill="#FCCC6B"/>
<path d="M238.47 299.39C235.915 304.604 229.289 309.154 223.515 309.628C217.741 310.007 215.091 306.215 217.646 301.001C220.202 295.788 226.828 291.237 232.602 290.763C238.376 290.289 240.931 294.176 238.47 299.39Z" fill="url(#paint2_radial)"/>
<path d="M231.655 305.362C229.383 306.974 226.639 308.016 224.178 308.206C221.811 308.396 219.918 307.732 218.972 306.31C218.025 304.888 218.025 302.897 219.066 300.812C221.149 296.451 226.828 292.565 231.75 292.185C234.116 291.996 236.009 292.659 236.956 294.081C237.902 295.503 237.902 297.494 236.861 299.579C235.82 301.76 233.927 303.751 231.655 305.362ZM224.556 295.124C222.284 296.641 220.391 298.632 219.35 300.812C218.309 302.897 218.309 304.793 219.161 306.12C220.107 307.448 221.811 308.111 224.178 307.922C229.005 307.542 234.589 303.751 236.672 299.39C237.713 297.304 237.713 295.408 236.861 294.081C235.915 292.754 234.211 292.091 231.844 292.28C229.478 292.565 226.828 293.607 224.556 295.124Z" fill="#F4A856"/>
<path d="M236.767 299.485C234.684 303.845 229.005 307.732 224.178 308.016C219.35 308.395 217.173 305.078 219.256 300.717C221.338 296.356 227.017 292.47 231.845 292.185C236.672 291.901 238.849 295.124 236.767 299.485Z" fill="url(#paint3_radial)"/>
<path d="M219.54 301.191C221.622 296.83 227.301 292.944 232.129 292.659C234.4 292.47 236.104 293.133 237.051 294.271C236.199 292.849 234.4 291.996 231.845 292.185C227.017 292.565 221.338 296.356 219.256 300.717C218.12 302.992 218.215 304.983 219.256 306.31C218.498 305.078 218.593 303.277 219.54 301.191Z" fill="#F4A856"/>
<path d="M238.186 299.011C235.631 304.224 229.005 308.775 223.231 309.249C220.486 309.438 218.404 308.68 217.363 307.258C218.404 308.964 220.486 309.912 223.515 309.723C229.289 309.343 236.009 304.698 238.47 299.485C239.795 296.736 239.701 294.46 238.47 292.849C239.417 294.271 239.417 296.451 238.186 299.011Z" fill="#FCE586"/>
<path d="M236.672 305.552C237.997 304.225 239.038 302.803 239.701 301.286C240.931 298.726 240.931 296.451 239.89 294.84L238.565 292.944C238.565 292.944 238.565 292.849 238.47 292.849L238.375 292.754C237.24 291.332 235.252 290.479 232.412 290.669C229.194 290.953 225.597 292.47 222.663 294.745L233.075 305.552H236.672V305.552Z" fill="#F4A856"/>
<path d="M270.274 258.912L196.35 216.159C195.782 215.78 195.214 215.78 194.835 216.064L193.699 216.728C193.699 216.728 193.983 216.728 194.173 216.822C194.078 217.107 193.983 217.486 193.983 217.96V268.96C193.983 270.667 195.025 272.657 196.255 273.416L270.274 316.074C270.369 316.169 270.558 316.169 270.653 316.264V316.832L271.789 316.169C272.262 315.884 272.546 315.221 272.546 314.273V263.367C272.546 261.661 271.599 259.67 270.274 258.912Z" fill="white"/>
<path d="M269.233 316.643L195.308 273.985C194.078 273.226 193.037 271.235 193.037 269.529V218.529C193.037 216.822 194.078 216.064 195.308 216.822L269.233 259.576C270.463 260.334 271.504 262.325 271.504 264.031V315.031C271.504 316.643 270.463 317.401 269.233 316.643Z" fill="url(#paint4_linear)"/>
<path d="M247.178 262.23V254.93L248.693 255.784C248.977 255.973 249.261 256.163 249.45 256.352C249.639 256.542 249.829 256.732 250.018 257.016C250.207 257.206 250.302 257.49 250.397 257.774C250.491 258.059 250.491 258.438 250.491 258.722C250.491 259.575 250.207 259.955 249.545 259.67C249.923 259.955 250.207 260.334 250.397 260.713C250.586 261.092 250.681 261.566 250.681 262.135C250.681 262.799 250.491 263.273 250.207 263.462C249.923 263.652 249.45 263.557 248.882 263.273L247.178 262.23ZM248.314 258.533L248.693 258.722C249.072 258.912 249.261 259.007 249.356 258.912C249.45 258.817 249.545 258.533 249.545 258.154C249.545 257.964 249.545 257.774 249.45 257.585C249.45 257.395 249.356 257.3 249.261 257.206C249.166 257.111 249.072 257.016 248.977 256.921C248.882 256.826 248.693 256.732 248.504 256.637L248.314 256.542V258.533V258.533ZM248.314 261.945L248.693 262.23C249.072 262.419 249.261 262.514 249.45 262.325C249.545 262.23 249.639 261.945 249.639 261.566C249.639 261.092 249.545 260.808 249.45 260.523C249.261 260.239 249.072 259.955 248.693 259.765L248.314 259.575V261.945V261.945Z" fill="white"/>
<path d="M251.154 264.505L252.479 257.964L253.709 258.628L254.94 266.685L253.899 266.022L253.615 264.221L252.479 263.557L252.195 265.074L251.154 264.505ZM252.668 262.799L253.52 263.273L253.142 260.05L252.668 262.799Z" fill="white"/>
<path d="M255.508 266.97V259.67L256.265 260.144L257.78 265.168V261.092L258.726 261.661V268.96L257.969 268.486L256.455 263.273V267.633L255.508 266.97Z" fill="white"/>
<path d="M259.767 269.434V262.135L260.903 262.799V265.927L262.134 263.462L263.269 264.126L262.039 266.685L263.364 271.52L262.228 270.856L261.187 266.78L260.998 267.159V270.098L259.767 269.434Z" fill="white"/>
<path d="M213.387 273.89L199.379 265.737V263.841L213.387 271.994V273.89Z" fill="white"/>
<path d="M230.614 283.843L216.606 275.691V273.795L230.614 281.947V283.843Z" fill="white"/>
<path d="M247.936 293.797L233.832 285.645V283.749L247.936 291.901V293.797Z" fill="white"/>
<path d="M265.163 303.751L251.154 295.598V293.797L265.163 301.855V303.751Z" fill="white"/>
<path opacity="0.2" d="M269.233 259.576L195.308 216.822C194.078 216.064 193.037 216.822 193.037 218.529V269.529C193.037 269.814 193.037 270.193 193.131 270.477C197.107 267.633 213.009 258.817 243.582 275.691C254.656 281.853 264.027 280.999 271.504 277.018V263.936C271.504 262.23 270.463 260.239 269.233 259.576Z" fill="white"/>
<path opacity="0.2" d="M223.61 256.921C234.022 255.594 242.635 252.371 249.829 248.39L195.308 216.822C194.078 216.064 193.037 216.822 193.037 218.529V267.349C198.432 263.083 207.803 259.007 223.61 256.921Z" fill="white"/>
<path d="M240.458 380.346L239.796 381.389C239.228 380.346 238.186 379.398 236.767 378.545C231.75 375.606 223.704 375.606 218.688 378.45C217.268 379.208 216.321 380.156 215.659 381.199L214.902 380.251V382.526C214.807 384.422 216.037 386.413 218.593 387.93C223.61 390.868 231.655 390.868 236.672 388.024C239.133 386.602 240.458 384.706 240.458 382.811V380.346Z" fill="#F4A856"/>
<path d="M236.672 385.56C231.655 388.404 223.515 388.404 218.593 385.465C213.576 382.526 213.671 377.881 218.593 374.943C223.61 372.099 231.75 372.099 236.672 375.037C241.689 377.976 241.689 382.716 236.672 385.56Z" fill="#FCCC6B"/>
<path d="M236.672 385.56C231.655 388.404 223.515 388.404 218.593 385.465C213.576 382.526 213.671 377.881 218.593 374.943C223.61 372.099 231.75 372.099 236.672 375.037C241.689 377.976 241.689 382.716 236.672 385.56Z" fill="url(#paint5_radial)"/>
<path d="M227.68 386.602C224.84 386.602 222.095 385.939 219.918 384.706C217.836 383.474 216.7 381.863 216.7 380.156C216.7 378.45 217.836 376.838 219.918 375.701C224.178 373.236 230.993 373.331 235.252 375.796C237.335 377.028 238.471 378.64 238.471 380.346C238.471 382.052 237.335 383.664 235.252 384.801C233.17 386.034 230.425 386.602 227.68 386.602ZM227.585 374.184C224.84 374.184 222.19 374.753 220.108 375.985C218.12 377.123 216.984 378.64 216.984 380.251C216.984 381.863 218.025 383.379 220.013 384.612C224.178 387.076 230.898 387.076 235.158 384.706C237.145 383.569 238.281 382.052 238.281 380.441C238.281 378.829 237.24 377.312 235.252 376.08C233.075 374.753 230.33 374.184 227.585 374.184Z" fill="#F4A856"/>
<path d="M235.157 384.706C230.993 387.076 224.178 387.076 219.918 384.612C215.753 382.147 215.753 378.26 219.918 375.796C224.083 373.426 230.898 373.426 235.157 375.89C239.417 378.355 239.417 382.337 235.157 384.706Z" fill="url(#paint6_radial)"/>
<path d="M220.013 376.364C224.178 373.994 230.993 373.994 235.252 376.459C237.24 377.597 238.281 379.113 238.376 380.63C238.47 378.924 237.429 377.218 235.252 375.985C231.087 373.52 224.272 373.52 220.013 375.89C217.836 377.123 216.7 378.829 216.889 380.535C216.984 379.019 218.025 377.502 220.013 376.364Z" fill="#F4A856"/>
<path d="M236.672 385.086C231.655 387.93 223.515 387.93 218.593 384.991C216.227 383.569 214.996 381.768 214.902 379.967C214.807 381.957 216.037 383.948 218.593 385.465C223.61 388.404 231.655 388.404 236.672 385.56C239.322 384.043 240.553 382.052 240.458 380.061C240.269 381.863 239.038 383.664 236.672 385.086Z" fill="#FCE586"/>
<path d="M242.635 377.218L241.973 378.26C241.405 377.218 240.364 376.27 238.944 375.416C233.927 372.478 225.882 372.478 220.865 375.322C219.445 376.08 218.499 377.028 217.836 378.071L217.079 377.123V379.398C216.984 381.294 218.215 383.285 220.77 384.801C225.787 387.74 233.832 387.74 238.849 384.896C241.31 383.474 242.635 381.578 242.635 379.682V377.218Z" fill="#F4A856"/>
<path d="M238.849 382.431C233.832 385.275 225.692 385.275 220.77 382.337C215.754 379.398 215.848 374.753 220.77 371.814C225.787 368.97 233.927 368.97 238.849 371.909C243.866 374.848 243.866 379.493 238.849 382.431Z" fill="#FCCC6B"/>
<path d="M238.849 382.431C233.832 385.275 225.692 385.275 220.77 382.337C215.754 379.398 215.848 374.753 220.77 371.814C225.787 368.97 233.927 368.97 238.849 371.909C243.866 374.848 243.866 379.493 238.849 382.431Z" fill="url(#paint7_radial)"/>
<path d="M229.857 383.474C227.017 383.474 224.272 382.811 222.095 381.578C220.013 380.346 218.877 378.734 218.877 377.028C218.877 375.322 220.013 373.71 222.095 372.573C226.355 370.108 233.17 370.203 237.429 372.667C239.512 373.9 240.647 375.511 240.647 377.218C240.647 378.924 239.512 380.535 237.429 381.673C235.347 382.811 232.602 383.474 229.857 383.474ZM229.762 371.056C227.017 371.056 224.367 371.625 222.285 372.857C220.297 373.994 219.161 375.511 219.161 377.123C219.161 378.734 220.202 380.251 222.19 381.483C226.355 383.948 233.075 383.948 237.335 381.578C239.322 380.441 240.458 378.924 240.458 377.312C240.458 375.701 239.417 374.184 237.429 372.952C235.252 371.625 232.507 371.056 229.762 371.056Z" fill="#F4A856"/>
<path d="M237.429 381.578C233.265 383.948 226.449 383.948 222.19 381.483C218.025 379.019 218.025 375.132 222.19 372.667C226.355 370.297 233.17 370.297 237.429 372.762C241.594 375.227 241.594 379.113 237.429 381.578Z" fill="url(#paint8_radial)"/>
<path d="M222.19 373.236C226.355 370.866 233.17 370.866 237.429 373.331C239.417 374.468 240.458 375.985 240.553 377.502C240.647 375.796 239.606 374.089 237.429 372.857C233.264 370.392 226.449 370.392 222.19 372.762C220.013 373.995 218.877 375.701 219.066 377.407C219.161 375.796 220.202 374.374 222.19 373.236Z" fill="#F4A856"/>
<path d="M238.849 381.957C233.832 384.801 225.692 384.801 220.77 381.863C218.404 380.441 217.173 378.64 217.079 376.838C216.984 378.829 218.215 380.82 220.77 382.337C225.787 385.275 233.832 385.275 238.849 382.431C241.499 380.915 242.73 378.924 242.635 376.933C242.541 378.734 241.215 380.535 238.849 381.957Z" fill="#FCE586"/>
<path d="M259.484 392.764L258.821 393.807C258.253 392.764 257.212 391.816 255.792 390.963C250.775 388.024 242.73 388.024 237.713 390.868C236.293 391.627 235.347 392.575 234.684 393.617L233.927 392.669V394.944C233.832 396.84 235.063 398.831 237.619 400.348C242.635 403.287 250.681 403.287 255.697 400.443C258.158 399.021 259.484 397.125 259.484 395.229V392.764Z" fill="#F4A856"/>
<path d="M259.484 392.796C259.502 388.712 253.796 385.376 246.739 385.344C239.682 385.312 233.946 388.597 233.928 392.681C233.909 396.764 239.616 400.1 246.673 400.132C253.73 400.164 259.466 396.879 259.484 392.796Z" fill="#FCCC6B"/>
<path d="M255.697 398.071C250.681 400.915 242.541 400.915 237.619 397.977C232.602 395.038 232.697 390.393 237.619 387.454C242.635 384.61 250.775 384.61 255.697 387.549C260.809 390.488 260.714 395.133 255.697 398.071Z" fill="url(#paint9_radial)"/>
<path d="M246.705 399.116C243.866 399.116 241.121 398.452 238.944 397.22C236.861 395.987 235.726 394.376 235.726 392.669C235.726 390.963 236.861 389.351 238.944 388.214C243.203 385.749 250.018 385.844 254.278 388.309C256.36 389.541 257.496 391.153 257.496 392.859C257.496 394.565 256.36 396.177 254.278 397.314C252.195 398.452 249.45 399.116 246.705 399.116ZM246.611 386.602C243.866 386.602 241.216 387.171 239.133 388.404C237.145 389.541 236.01 391.058 236.01 392.669C236.01 394.281 237.051 395.798 239.039 397.03C243.203 399.495 249.924 399.495 254.183 397.125C256.171 395.987 257.307 394.47 257.307 392.859C257.307 391.247 256.265 389.731 254.278 388.498C252.195 387.266 249.356 386.602 246.611 386.602Z" fill="#F4A856"/>
<path d="M254.278 397.22C250.113 399.589 243.298 399.589 239.038 397.125C234.874 394.66 234.874 390.773 239.038 388.309C243.203 385.939 250.018 385.939 254.278 388.404C258.537 390.868 258.442 394.755 254.278 397.22Z" fill="url(#paint10_radial)"/>
<path d="M239.133 388.877C243.298 386.508 250.113 386.508 254.372 388.972C256.36 390.11 257.401 391.627 257.496 393.143C257.591 391.437 256.549 389.731 254.372 388.498C250.208 386.034 243.393 386.034 239.133 388.404C236.956 389.636 235.82 391.342 236.01 393.049C236.104 391.437 237.145 390.015 239.133 388.877Z" fill="#F4A856"/>
<path d="M255.697 397.504C250.681 400.348 242.541 400.348 237.619 397.409C235.252 395.987 234.022 394.186 233.927 392.385C233.832 394.376 235.063 396.366 237.619 397.883C242.635 400.822 250.681 400.822 255.697 397.978C258.348 396.461 259.578 394.471 259.484 392.48C259.389 394.376 258.158 396.177 255.697 397.504Z" fill="#FCE586"/>
<path d="M233.927 397.22L233.264 398.262C232.696 397.22 231.655 396.272 230.235 395.418C225.219 392.48 217.173 392.48 212.157 395.324C210.737 396.082 209.79 397.03 209.128 398.073L208.37 397.125V399.4C208.276 401.296 209.506 403.287 212.062 404.803C217.079 407.742 225.124 407.742 230.141 404.898C232.602 403.476 233.927 401.58 233.927 399.684V397.22Z" fill="#F4A856"/>
<path d="M233.871 397.279C233.89 393.195 228.184 389.859 221.126 389.827C214.069 389.795 208.333 393.08 208.315 397.164C208.297 401.247 214.003 404.584 221.06 404.615C228.117 404.647 233.853 401.362 233.871 397.279Z" fill="#FCCC6B"/>
<path d="M230.141 402.433C225.125 405.277 216.985 405.277 212.063 402.339C207.046 399.4 207.141 394.755 212.063 391.816C217.079 388.972 225.219 388.972 230.141 391.911C235.158 394.945 235.158 399.59 230.141 402.433Z" fill="url(#paint11_radial)"/>
<path d="M221.149 403.571C218.309 403.571 215.564 402.907 213.387 401.675C211.305 400.443 210.169 398.831 210.169 397.125C210.169 395.418 211.305 393.807 213.387 392.669C217.647 390.205 224.462 390.299 228.721 392.764C230.803 393.997 231.939 395.608 231.939 397.314C231.939 399.021 230.803 400.632 228.721 401.77C226.639 402.907 223.894 403.571 221.149 403.571ZM221.054 391.058C218.309 391.058 215.659 391.627 213.577 392.859C211.589 393.997 210.453 395.513 210.453 397.125C210.453 398.736 211.494 400.253 213.482 401.485C217.647 403.95 224.367 403.95 228.626 401.58C230.614 400.443 231.75 398.926 231.75 397.314C231.75 395.703 230.709 394.186 228.626 392.954C226.544 391.721 223.799 391.058 221.054 391.058Z" fill="#F4A856"/>
<path d="M228.626 401.675C224.462 404.045 217.647 404.045 213.387 401.58C209.222 399.116 209.222 395.229 213.387 392.764C217.552 390.394 224.367 390.394 228.626 392.859C232.886 395.324 232.886 399.21 228.626 401.675Z" fill="url(#paint12_radial)"/>
<path d="M213.482 393.333C217.647 390.963 224.462 390.963 228.721 393.428C230.709 394.565 231.75 396.082 231.845 397.599C231.939 395.892 230.898 394.186 228.721 392.954C224.556 390.489 217.741 390.489 213.482 392.859C211.305 394.091 210.169 395.798 210.358 397.504C210.453 395.892 211.494 394.47 213.482 393.333Z" fill="#F4A856"/>
<path d="M230.141 401.959C225.124 404.803 216.984 404.803 212.062 401.865C209.696 400.443 208.465 398.642 208.37 396.84C208.276 398.831 209.506 400.822 212.062 402.339C217.079 405.277 225.124 405.277 230.141 402.433C232.791 400.917 234.022 398.926 233.927 396.935C233.738 398.831 232.507 400.632 230.141 401.959Z" fill="#FCE586"/>
<path d="M246.042 392.575L245.38 393.617C244.812 392.575 243.771 391.627 242.351 390.773C237.334 387.835 229.289 387.835 224.272 390.679C222.852 391.437 221.906 392.385 221.243 393.428L220.486 392.48V394.755C220.391 396.651 221.622 398.642 224.177 400.158C229.194 403.097 237.24 403.097 242.256 400.253C244.717 398.831 246.042 396.935 246.042 395.039V392.575Z" fill="#F4A856"/>
<path d="M245.969 392.566C245.988 388.482 240.282 385.146 233.224 385.114C226.167 385.082 220.431 388.367 220.413 392.451C220.395 396.534 226.101 399.87 233.158 399.902C240.215 399.934 245.951 396.649 245.969 392.566Z" fill="#FCCC6B"/>
<path d="M242.258 397.788C237.241 400.632 229.101 400.632 224.179 397.694C219.162 394.755 219.162 390.11 224.179 387.171C229.196 384.327 237.336 384.327 242.258 387.266C247.274 390.205 247.274 394.85 242.258 397.788Z" fill="url(#paint13_radial)"/>
<path d="M233.264 398.831C230.424 398.831 227.68 398.168 225.503 396.935C223.42 395.703 222.284 394.091 222.284 392.385C222.284 390.679 223.42 389.067 225.503 387.93C229.762 385.465 236.577 385.56 240.836 388.024C242.919 389.257 244.055 390.868 244.055 392.575C244.055 394.281 242.919 395.892 240.836 397.03C238.754 398.168 236.009 398.831 233.264 398.831ZM233.169 386.413C230.424 386.413 227.774 386.982 225.692 388.214C223.704 389.352 222.568 390.868 222.568 392.48C222.568 394.091 223.609 395.608 225.597 396.84C229.762 399.305 236.482 399.305 240.742 396.935C242.729 395.798 243.865 394.281 243.865 392.669C243.865 391.058 242.824 389.541 240.836 388.309C238.659 386.982 235.914 386.413 233.169 386.413Z" fill="#F4A856"/>
<path d="M240.742 396.935C236.577 399.305 229.762 399.305 225.503 396.84C221.338 394.376 221.338 390.489 225.503 388.024C229.667 385.654 236.483 385.654 240.742 388.119C245.001 390.584 245.001 394.471 240.742 396.935Z" fill="url(#paint14_radial)"/>
<path d="M225.597 388.593C229.762 386.223 236.577 386.223 240.836 388.688C242.824 389.826 243.865 391.342 243.96 392.859C244.055 391.153 243.013 389.446 240.836 388.214C236.672 385.749 229.857 385.749 225.597 388.119C223.42 389.352 222.284 391.058 222.474 392.764C222.568 391.153 223.609 389.731 225.597 388.593Z" fill="#F4A856"/>
<path d="M242.256 397.314C237.24 400.158 229.099 400.158 224.177 397.22C221.811 395.798 220.581 393.997 220.486 392.195C220.391 394.186 221.622 396.177 224.177 397.694C229.194 400.632 237.24 400.632 242.256 397.788C244.907 396.272 246.137 394.281 246.042 392.29C245.853 394.091 244.623 395.892 242.256 397.314Z" fill="#FCE586"/>
<path d="M249.355 390.015L248.693 391.058C248.125 390.015 247.084 389.067 245.664 388.214C240.647 385.275 232.602 385.275 227.585 388.119C226.165 388.878 225.219 389.826 224.556 390.868L223.799 389.92V392.195C223.704 394.091 224.935 396.082 227.49 397.599C232.507 400.537 240.553 400.538 245.569 397.694C248.03 396.272 249.355 394.376 249.355 392.48V390.015Z" fill="#F4A856"/>
<path d="M245.569 395.229C240.553 398.073 232.413 398.073 227.491 395.134C222.474 392.195 222.474 387.55 227.491 384.612C232.507 381.768 240.647 381.768 245.569 384.707C250.586 387.645 250.586 392.29 245.569 395.229Z" fill="#FCCC6B"/>
<path d="M245.569 395.229C240.553 398.073 232.413 398.073 227.491 395.134C222.474 392.195 222.474 387.55 227.491 384.612C232.507 381.768 240.647 381.768 245.569 384.707C250.586 387.645 250.586 392.29 245.569 395.229Z" fill="url(#paint15_radial)"/>
<path d="M236.577 396.272C233.738 396.272 230.993 395.608 228.816 394.376C226.733 393.143 225.597 391.532 225.597 389.826C225.597 388.119 226.733 386.508 228.816 385.37C233.075 382.905 239.89 383 244.149 385.465C246.232 386.697 247.368 388.309 247.368 390.015C247.368 391.721 246.232 393.333 244.149 394.471C242.067 395.608 239.322 396.272 236.577 396.272ZM236.482 383.853C233.738 383.853 231.087 384.422 229.005 385.654C227.017 386.792 225.881 388.309 225.881 389.92C225.881 391.532 226.922 393.049 228.91 394.281C233.075 396.746 239.795 396.746 244.055 394.376C246.042 393.238 247.178 391.721 247.178 390.11C247.178 388.498 246.137 386.982 244.149 385.749C241.972 384.422 239.227 383.853 236.482 383.853Z" fill="#F4A856"/>
<path d="M244.055 394.376C239.89 396.746 233.075 396.746 228.815 394.281C224.651 391.816 224.651 387.93 228.815 385.465C232.98 383.095 239.795 383.095 244.055 385.56C248.314 388.024 248.314 391.911 244.055 394.376Z" fill="url(#paint16_radial)"/>
<path d="M228.91 386.034C233.075 383.664 239.89 383.664 244.149 386.128C246.137 387.266 247.178 388.783 247.273 390.299C247.368 388.593 246.326 386.887 244.149 385.654C239.985 383.19 233.17 383.19 228.91 385.56C226.733 386.792 225.597 388.498 225.787 390.205C225.881 388.593 226.922 387.171 228.91 386.034Z" fill="#F4A856"/>
<path d="M245.569 394.755C240.553 397.599 232.412 397.599 227.49 394.66C225.124 393.238 223.894 391.437 223.799 389.636C223.704 391.627 224.935 393.617 227.49 395.134C232.507 398.073 240.553 398.073 245.569 395.229C248.22 393.712 249.45 391.721 249.355 389.731C249.166 391.532 247.936 393.333 245.569 394.755Z" fill="#FCE586"/>
<path d="M251.059 385.086L250.397 386.128C249.829 385.086 248.788 384.138 247.368 383.285C242.351 380.346 234.306 380.346 229.289 383.19C227.869 383.948 226.923 384.896 226.26 385.939L225.503 384.991V387.266C225.408 389.162 226.639 391.153 229.194 392.669C234.211 395.608 242.256 395.608 247.273 392.764C249.734 391.342 251.059 389.446 251.059 387.55V385.086Z" fill="#F4A856"/>
<path d="M251.045 385.026C251.064 380.943 245.357 377.606 238.3 377.575C231.243 377.543 225.507 380.828 225.489 384.911C225.471 388.995 231.177 392.331 238.234 392.363C245.291 392.395 251.027 389.11 251.045 385.026Z" fill="#FCCC6B"/>
<path d="M247.273 390.299C242.256 393.142 234.116 393.142 229.194 390.204C224.177 387.265 224.272 382.62 229.194 379.681C234.211 376.838 242.351 376.838 247.273 379.776C252.289 382.715 252.289 387.36 247.273 390.299Z" fill="url(#paint17_radial)"/>
<path d="M238.281 391.342C235.441 391.342 232.696 390.679 230.519 389.446C228.437 388.214 227.301 386.602 227.301 384.896C227.301 383.19 228.437 381.578 230.519 380.441C234.779 377.976 241.594 378.071 245.853 380.535C247.936 381.768 249.071 383.379 249.071 385.086C249.071 386.792 247.936 388.404 245.853 389.541C243.771 390.679 241.026 391.342 238.281 391.342ZM238.186 378.924C235.441 378.924 232.791 379.493 230.709 380.725C228.721 381.863 227.585 383.379 227.585 384.991C227.585 386.602 228.626 388.119 230.614 389.352C234.779 391.816 241.499 391.816 245.759 389.446C247.746 388.309 248.882 386.792 248.882 385.18C248.882 383.569 247.841 382.052 245.853 380.82C243.771 379.493 240.931 378.924 238.186 378.924Z" fill="#F4A856"/>
<path d="M245.853 389.446C241.689 391.816 234.874 391.816 230.614 389.352C226.449 386.887 226.449 383 230.614 380.535C234.779 378.166 241.594 378.166 245.853 380.63C250.113 383.095 250.018 386.982 245.853 389.446Z" fill="url(#paint18_radial)"/>
<path d="M230.709 381.104C234.873 378.734 241.688 378.734 245.948 381.199C247.936 382.337 248.977 383.853 249.071 385.37C249.166 383.664 248.125 381.957 245.948 380.725C241.783 378.26 234.968 378.26 230.709 380.63C228.532 381.863 227.396 383.569 227.585 385.275C227.585 383.664 228.721 382.242 230.709 381.104Z" fill="#F4A856"/>
<path d="M247.273 389.825C242.256 392.669 234.116 392.669 229.194 389.731C226.828 388.309 225.597 386.508 225.503 384.706C225.408 386.697 226.639 388.688 229.194 390.205C234.211 393.143 242.256 393.143 247.273 390.299C249.923 388.783 251.154 386.792 251.059 384.801C250.965 386.602 249.734 388.404 247.273 389.825Z" fill="#FCE586"/>
<path d="M259.957 387.076L259.01 387.93C258.631 386.792 257.874 385.654 256.644 384.517C252.384 380.63 244.433 378.924 238.944 380.725C237.429 381.199 236.293 381.957 235.441 382.811L234.873 381.673L234.4 383.853C233.927 385.749 234.779 387.93 236.956 389.825C241.215 393.712 249.166 395.418 254.656 393.617C257.401 392.764 259.01 391.153 259.389 389.257L259.957 387.076Z" fill="#F4A856"/>
<path d="M255.129 391.437C249.639 393.238 241.689 391.532 237.429 387.645C233.17 383.759 234.116 379.208 239.606 377.407C245.096 375.606 253.047 377.312 257.306 381.199C261.66 385.086 260.619 389.636 255.129 391.437Z" fill="#FCCC6B"/>
<path d="M255.129 391.437C249.639 393.238 241.689 391.532 237.429 387.645C233.17 383.759 234.116 379.208 239.606 377.407C245.096 375.606 253.047 377.312 257.306 381.199C261.66 385.086 260.619 389.636 255.129 391.437Z" fill="url(#paint19_radial)"/>
<path d="M246.137 390.584C243.392 390.015 240.742 388.783 238.944 387.171C237.145 385.56 236.388 383.759 236.767 382.147C237.145 380.441 238.565 379.208 240.837 378.45C245.475 376.933 252.195 378.355 255.792 381.673C257.59 383.285 258.348 385.086 257.969 386.697C257.59 388.404 256.171 389.636 253.899 390.394C251.627 391.153 248.882 391.153 246.137 390.584ZM248.598 378.45C245.948 377.881 243.203 377.881 240.931 378.64C238.754 379.303 237.335 380.63 237.051 382.242C236.672 383.853 237.429 385.56 239.133 387.076C242.73 390.299 249.356 391.721 253.899 390.205C256.076 389.541 257.496 388.214 257.78 386.602C258.158 384.991 257.401 383.285 255.697 381.768C253.899 380.156 251.249 379.019 248.598 378.45Z" fill="#F4A856"/>
<path d="M253.899 390.299C249.261 391.816 242.635 390.394 239.038 387.076C235.441 383.853 236.293 379.967 240.837 378.45C245.475 376.933 252.1 378.355 255.697 381.673C259.389 384.991 258.537 388.783 253.899 390.299Z" fill="url(#paint20_radial)"/>
<path d="M240.742 379.019C245.38 377.502 252.006 378.924 255.603 382.242C257.306 383.759 258.064 385.465 257.78 386.982C258.253 385.37 257.59 383.474 255.697 381.768C252.101 378.545 245.475 377.123 240.837 378.545C238.376 379.303 237.051 380.82 236.767 382.431C237.24 380.915 238.565 379.682 240.742 379.019Z" fill="#F4A856"/>
<path d="M255.224 390.963C249.734 392.764 241.783 391.058 237.524 387.171C235.441 385.275 234.589 383.285 234.873 381.483C234.306 383.379 235.157 385.56 237.429 387.645C241.688 391.532 249.639 393.238 255.129 391.437C257.969 390.489 259.673 388.783 259.957 386.887C259.483 388.593 257.874 390.11 255.224 390.963Z" fill="#FCE586"/>
<path d="M240.363 333.137L239.227 333.706C239.227 332.474 238.754 331.147 237.997 329.725C235.063 324.701 228.058 320.719 222.284 320.719C220.675 320.719 219.35 321.003 218.309 321.572L218.12 320.34L216.984 322.331C215.943 323.942 216.132 326.312 217.552 328.872C220.486 333.896 227.49 337.877 233.264 337.877C236.198 337.877 238.186 336.834 239.133 335.223L240.363 333.137Z" fill="#F4A856"/>
<path d="M240.353 333.041C242.377 329.496 239.051 323.778 232.924 320.27C226.796 316.762 220.189 316.793 218.165 320.338C216.142 323.884 219.468 329.601 225.595 333.109C231.722 336.617 238.33 336.586 240.353 333.041Z" fill="#FCCC6B"/>
<path d="M234.495 335.792C228.721 335.792 221.717 331.81 218.782 326.786C215.848 321.762 218.214 317.686 223.988 317.686C229.762 317.686 236.766 321.667 239.701 326.691C242.635 331.715 240.363 335.792 234.495 335.792Z" fill="url(#paint21_radial)"/>
<path d="M226.165 332.284C223.704 330.862 221.622 328.966 220.391 326.881C219.161 324.795 218.972 322.899 219.823 321.383C220.675 319.866 222.474 319.108 224.84 319.108C229.762 319.108 235.725 322.52 238.092 326.691C239.322 328.777 239.511 330.673 238.659 332.189C237.808 333.706 236.009 334.465 233.643 334.465C231.276 334.465 228.626 333.611 226.165 332.284ZM232.223 321.383C229.857 320.055 227.206 319.202 224.84 319.202C222.568 319.202 220.865 319.961 220.013 321.383C219.256 322.805 219.445 324.7 220.581 326.691C223.042 330.862 228.91 334.18 233.737 334.18C236.009 334.18 237.713 333.422 238.565 332C239.322 330.578 239.133 328.682 237.997 326.691C236.766 324.606 234.589 322.71 232.223 321.383Z" fill="#F4A856"/>
<path d="M233.738 334.275C228.91 334.275 222.947 330.957 220.486 326.691C218.025 322.52 220.013 319.107 224.84 319.013C229.667 319.013 235.631 322.331 238.092 326.596C240.458 330.862 238.565 334.275 233.738 334.275Z" fill="url(#paint22_radial)"/>
<path d="M224.556 319.581C229.384 319.581 235.347 322.899 237.808 327.165C238.944 329.156 239.133 330.957 238.47 332.284C239.417 330.862 239.322 328.872 238.092 326.691C235.631 322.52 229.762 319.108 224.84 319.108C222.285 319.108 220.581 320.055 219.824 321.572C220.675 320.34 222.285 319.581 224.556 319.581Z" fill="#F4A856"/>
<path d="M234.779 335.318C229.005 335.318 222.001 331.336 219.066 326.312C217.647 323.942 217.457 321.762 218.309 320.15C217.268 321.857 217.363 324.132 218.877 326.786C221.811 331.81 228.816 335.792 234.59 335.792C237.618 335.792 239.701 334.654 240.553 332.853C239.512 334.37 237.524 335.318 234.779 335.318Z" fill="#FCE586"/>
<path d="M237.902 355.509L237.808 356.742C236.767 356.173 235.441 355.794 233.738 355.794C227.964 355.699 220.865 359.68 217.931 364.704C217.079 366.126 216.7 367.359 216.605 368.591L215.47 368.117L216.605 370.108C217.552 371.814 219.54 372.857 222.474 372.952C228.248 373.047 235.347 369.065 238.281 364.041C239.796 361.576 239.89 359.301 239.038 357.595L237.902 355.509Z" fill="#F4A856"/>
<path d="M237.24 361.955C234.306 366.885 227.207 370.866 221.433 370.866C215.659 370.771 213.387 366.695 216.322 361.766C219.256 356.836 226.355 352.855 232.129 352.855C237.903 352.855 240.174 356.931 237.24 361.955Z" fill="#FCCC6B"/>
<path d="M237.24 361.955C234.306 366.885 227.207 370.866 221.433 370.866C215.659 370.771 213.387 366.695 216.322 361.766C219.256 356.836 226.355 352.855 232.129 352.855C237.903 352.855 240.174 356.931 237.24 361.955Z" fill="url(#paint23_radial)"/>
<path d="M229.952 367.264C227.491 368.686 224.746 369.444 222.285 369.444C219.918 369.444 218.12 368.591 217.268 367.074C216.416 365.558 216.606 363.662 217.836 361.576C220.297 357.405 226.355 353.993 231.182 354.087C233.549 354.087 235.347 354.94 236.199 356.457C237.051 357.974 236.861 359.87 235.631 361.955C234.4 364.041 232.318 365.937 229.952 367.264ZM223.705 356.552C221.338 357.879 219.256 359.775 218.12 361.766C216.984 363.757 216.7 365.652 217.552 367.074C218.309 368.496 220.013 369.255 222.379 369.35C227.207 369.444 233.075 366.126 235.536 361.955C236.672 359.965 236.956 358.069 236.104 356.647C235.347 355.225 233.643 354.466 231.277 354.372C228.816 354.372 226.071 355.13 223.705 356.552Z" fill="#F4A856"/>
<path d="M235.536 361.955C233.075 366.126 227.112 369.444 222.285 369.444C217.457 369.35 215.47 365.937 218.025 361.766C220.486 357.595 226.449 354.277 231.277 354.277C236.104 354.277 237.997 357.784 235.536 361.955Z" fill="url(#paint24_radial)"/>
<path d="M218.215 362.145C220.676 357.974 226.639 354.656 231.466 354.656C233.738 354.656 235.441 355.509 236.199 356.742C235.441 355.225 233.738 354.277 231.182 354.182C226.355 354.087 220.392 357.5 217.931 361.671C216.605 363.851 216.511 365.842 217.457 367.264C216.889 365.937 217.079 364.136 218.215 362.145Z" fill="#F4A856"/>
<path d="M236.956 361.481C234.022 366.411 226.923 370.392 221.149 370.392C218.404 370.392 216.416 369.444 215.47 367.833C216.321 369.634 218.404 370.771 221.433 370.771C227.207 370.866 234.306 366.885 237.24 361.861C238.754 359.301 238.849 356.931 237.808 355.225C238.565 356.931 238.376 359.111 236.956 361.481Z" fill="#FCE586"/>
<path d="M448.763 354.899L409.775 332.235C402.025 327.772 394.744 327.068 389.225 330.238C383.706 333.409 380.652 340.103 380.652 349.027V351.846C380.887 352.081 381.24 352.198 381.474 352.433V349.027C381.474 340.455 384.293 333.996 389.577 331.06C394.744 328.007 401.79 328.712 409.188 333.057L448.175 355.721C448.41 355.838 448.645 355.721 448.763 355.603C448.997 355.251 448.997 355.016 448.763 354.899Z" fill="white"/>
<path d="M327.221 327.89V240.168C327.221 222.554 314.891 201.181 299.625 192.374C292.227 188.029 285.181 187.324 279.896 190.377C274.612 193.431 271.676 199.889 271.676 208.462V214.568C271.911 214.803 272.263 215.155 272.498 215.39V208.462C272.498 200.124 275.317 194.018 280.249 191.082C285.298 188.146 291.992 188.851 299.155 192.961C314.186 201.651 326.399 222.788 326.399 240.168V328.007C326.399 342.569 334.972 359.831 346.597 370.165C346.597 369.813 346.597 369.343 346.597 368.991C335.441 358.657 327.221 341.981 327.221 327.89Z" fill="white"/>
<path d="M346.715 369.695C346.715 369.695 336.85 359.596 332.975 351.259C329.1 342.921 327.104 335.17 327.104 328.359C326.986 321.431 326.986 262.363 326.986 262.363C326.986 262.363 327.456 237.82 326.399 233.945C325.225 230.187 322.759 209.519 302.56 194.722C282.362 179.926 272.263 195.897 272.38 204.234C272.498 212.572 272.38 217.974 272.38 217.974C272.38 217.974 283.419 226.899 287.647 239.699C291.874 252.499 292.226 250.267 292.344 263.068C292.461 275.868 292.461 340.455 292.461 340.455C292.461 340.455 291.522 351.846 294.34 360.536C297.159 369.226 302.208 379.09 308.315 385.431C314.304 391.772 323.228 399.288 331.449 398.583C339.669 397.879 345.188 394.826 346.832 381.791V369.695H346.715Z" fill="white"/>
<path d="M279.896 190.377L245.841 209.988L272.381 217.974L279.896 190.377Z" fill="white"/>
<path d="M380.77 351.846V355.838C378.891 354.429 369.966 348.323 361.511 348.675C351.999 349.027 348.829 357.717 348.829 357.717C348.829 357.717 346.597 364.176 346.715 367.229C346.715 367.699 346.715 368.404 346.832 368.991L346.715 368.873C346.715 369.226 346.715 369.695 346.715 370.048C346.832 370.048 346.832 370.165 346.95 370.165C347.067 373.101 347.067 376.389 347.067 376.389C347.067 376.389 347.184 382.143 346.362 386.018C344.836 392.947 339.082 396.822 338.612 397.409L373.607 377.328H373.724L373.841 377.211L374.076 377.094C379.126 373.923 381.944 367.699 381.944 359.361V352.433C381.357 352.198 381.005 352.081 380.77 351.846Z" fill="url(#paint25_linear)"/>
<path d="M353.526 350.906L389.342 330.238C389.342 330.238 395.449 327.068 402.847 329.769C410.245 332.47 448.88 355.604 448.88 355.604L414.355 375.449C414.355 375.449 374.194 350.554 369.497 349.38C359.75 346.914 353.526 350.906 353.526 350.906Z" fill="white"/>
<path d="M271.676 217.269C270.267 215.977 263.691 210.106 254.061 208.697C243.14 207.053 238.678 219.735 238.678 219.735C238.678 219.735 237.386 226.311 237.504 230.304C237.504 234.179 237.738 248.388 237.738 248.388L272.146 228.543C272.263 228.425 272.381 228.308 272.381 228.19V218.091C272.146 217.739 271.911 217.621 271.676 217.269Z" fill="url(#paint26_linear)"/>
<path d="M331.684 399.053C327.926 399.053 323.698 397.761 319.353 395.295C304.205 386.605 291.992 365.233 291.992 347.853V260.014C291.992 242.752 279.779 221.614 264.865 212.924C257.702 208.814 251.008 208.109 245.959 211.045C240.909 213.981 238.208 220.088 238.208 228.425V248.036C238.208 248.271 237.973 248.506 237.738 248.506C237.386 248.388 237.151 248.154 237.151 247.919V228.308C237.151 219.735 240.087 213.276 245.371 210.223C250.656 207.17 257.702 207.875 265.217 212.102C280.483 220.91 292.814 242.282 292.814 259.897V347.736C292.814 364.881 304.909 385.901 319.823 394.473C326.986 398.583 333.562 399.288 338.612 396.352C343.662 393.416 346.362 387.31 346.362 379.09V368.756C346.362 359.831 349.416 353.137 354.935 349.967C360.454 346.796 367.735 347.501 375.485 351.963L414.473 374.627C414.708 374.745 414.708 374.98 414.59 375.215C414.473 375.449 414.238 375.449 414.003 375.332L374.898 352.903C367.5 348.558 360.454 347.853 355.287 350.906C350.12 353.959 347.184 360.301 347.184 368.873V379.207C347.184 387.78 344.249 394.121 338.964 397.174C336.851 398.349 334.384 399.053 331.684 399.053Z" fill="url(#paint27_linear)"/>
<path d="M301.151 279.273V276.102L304.792 274.106V277.159L301.151 279.273Z" fill="#DDE1ED"/>
<path d="M311.368 267.53V264.477L318.296 260.484V263.537L311.368 267.53Z" fill="#DDE1ED"/>
<path d="M301.504 266.943V263.772L318.296 254.143V257.313L301.504 266.943Z" fill="#DDE1ED"/>
<path d="M307.375 275.633V272.579L321.349 264.477V267.647L307.375 275.633Z" fill="#DDE1ED"/>
<path d="M301.504 273.284V270.113L308.432 266.238V269.291L301.504 273.284Z" fill="#DDE1ED"/>
<path d="M305.614 309.453V312.506L301.386 314.972V311.802L305.614 309.453Z" fill="#DDE1ED"/>
<path d="M313.364 304.99V308.044L309.019 310.51V307.456L313.364 304.99Z" fill="#DDE1ED"/>
<path d="M317.944 296.535V299.589L301.504 309.101V305.93L317.944 296.535Z" fill="#DDE1ED"/>
<path d="M309.724 286.671V283.618L317.944 278.921V281.974L309.724 286.671Z" fill="#DDE1ED"/>
<path d="M301.386 291.486V288.433L305.614 285.967V289.137L301.386 291.486Z" fill="#DDE1ED"/>
<path d="M301.386 297.357V294.187L309.372 289.607V292.66L301.386 297.357Z" fill="#DDE1ED"/>
<path d="M312.66 290.781V287.728L317.944 284.675V287.728L312.66 290.781Z" fill="#DDE1ED"/>
<path d="M309.724 322.723V319.669L317.944 314.972V318.025L309.724 322.723Z" fill="#DDE1ED"/>
<path d="M301.386 327.655V324.484L305.614 322.135V325.189L301.386 327.655Z" fill="#DDE1ED"/>
<path d="M301.386 333.409V330.356L309.372 325.658V328.712L301.386 333.409Z" fill="#DDE1ED"/>
<path d="M312.66 326.833V323.779L317.944 320.726V323.897L312.66 326.833Z" fill="#DDE1ED"/>
<path d="M398.502 355.838L395.801 354.312L399.441 352.198L402.142 353.724L398.502 355.838Z" fill="#DDE1ED"/>
<path d="M403.669 347.031L400.968 345.504L407.896 341.512L410.597 343.038L403.669 347.031Z" fill="#DDE1ED"/>
<path d="M388.403 349.614L385.702 347.97L402.377 338.341L405.078 339.868L388.403 349.614Z" fill="#DDE1ED"/>
<path d="M404.726 352.315L402.025 350.671L415.999 342.686L418.7 344.212L404.726 352.315Z" fill="#DDE1ED"/>
<path d="M393.805 352.785L391.221 351.141L398.032 347.266L400.733 348.792L393.805 352.785Z" fill="#DDE1ED"/>
<path d="M281.242 253.276V273.54C281.242 273.977 281.523 274.383 282.054 274.727L298.884 284.437C300.101 285.124 302.225 285.062 303.598 284.25C304.379 283.782 304.785 283.219 304.754 282.657V262.393L281.242 253.276Z" fill="#59BDEF"/>
<path d="M298.884 264.173L282.054 254.462C280.836 253.775 280.993 252.526 282.398 251.746C283.803 250.934 285.926 250.84 287.112 251.559L303.942 261.269C305.16 261.956 305.004 263.205 303.599 263.986C302.225 264.797 300.102 264.86 298.884 264.173Z" fill="#88D7FF"/>
<path d="M300.57 262.862C299.758 262.862 299.103 262.206 299.103 261.394V252.402C299.103 249.342 296.854 245.439 294.2 243.909L290.329 241.692C289.298 241.098 288.393 240.974 287.8 241.286C287.206 241.629 286.863 242.504 286.863 243.659V252.651C286.863 253.463 286.207 254.119 285.395 254.119C284.583 254.119 283.99 253.494 283.99 252.683V243.69C283.99 241.411 284.833 239.662 286.363 238.788C287.893 237.882 289.829 238.039 291.796 239.163L295.668 241.38C299.227 243.44 302.038 248.28 302.038 252.402V261.394C302.038 262.206 301.382 262.862 300.57 262.862Z" fill="#59BDEF"/>
<path d="M366.262 333.472L343.844 320.553C343.274 320.268 342.609 320.078 341.945 319.983C341.945 319.983 341.945 319.983 341.85 319.983C341.755 319.983 341.565 319.983 341.47 319.983C341.375 319.983 341.375 319.983 341.28 319.983C341.185 319.983 340.995 319.983 340.9 320.078C340.805 320.078 340.805 320.078 340.71 320.078C340.615 320.078 340.425 320.173 340.33 320.173C340.235 320.173 340.235 320.173 340.14 320.173C339.95 320.268 339.855 320.268 339.665 320.363L323.041 330.147L307.178 339.361L305.658 339.551V340.976V341.166C305.753 341.546 306.038 341.926 306.608 342.306L328.931 355.13C329.501 355.415 330.166 355.605 330.831 355.7C330.831 355.7 330.831 355.7 330.926 355.7C331.021 355.7 331.211 355.7 331.305 355.7C331.4 355.7 331.4 355.7 331.495 355.7C331.59 355.7 331.78 355.7 331.875 355.605C331.97 355.605 331.97 355.605 332.065 355.605C332.16 355.605 332.35 355.51 332.445 355.51C332.54 355.51 332.54 355.51 332.635 355.51C332.825 355.415 332.92 355.415 333.11 355.32L366.452 336.036C367.022 335.751 367.212 335.371 367.212 334.897V333.567L366.262 333.472Z" fill="white"/>
<path d="M306.418 338.411L323.136 328.722L348.974 343.731L333.016 353.8C331.876 354.465 330.071 354.37 328.931 353.705L306.608 340.786C305.373 340.121 305.278 339.076 306.418 338.411Z" fill="url(#paint28_linear)"/>
<path d="M339.76 319.128L323.041 328.817L348.784 343.636L366.357 334.517C367.497 333.852 367.402 332.807 366.167 332.142L343.844 319.223C342.705 318.558 340.9 318.463 339.76 319.128Z" fill="url(#paint29_linear)"/>
<path d="M367.212 333.187C367.307 333.662 367.022 334.137 366.452 334.422L333.015 353.8C332.446 354.18 331.591 354.275 330.831 354.275L333.015 334.517L367.212 333.187Z" fill="url(#paint30_linear)"/>
<path d="M305.658 339.742C305.563 339.267 305.848 338.792 306.418 338.507L339.76 319.224C340.33 318.844 341.185 318.749 341.945 318.749L339.76 338.507L305.658 339.742Z" fill="url(#paint31_linear)"/>
<path d="M331.116 345.82C331.021 345.82 331.021 345.82 330.926 345.82H330.546C329.881 345.725 329.311 345.536 328.836 345.251L306.418 332.332C305.943 332.047 305.563 331.667 305.468 331.287H305.373L305.278 331.002V330.907C305.278 330.812 305.278 330.717 305.278 330.622C305.278 330.527 305.278 330.527 305.278 330.527C305.278 330.432 305.373 330.337 305.373 330.242C305.373 330.147 305.373 330.147 305.468 330.147C305.563 330.052 305.658 329.957 305.658 329.862L305.753 329.767C305.943 329.577 306.038 329.482 306.228 329.387L339.57 310.009C339.76 309.914 339.95 309.819 340.14 309.724H340.235C340.425 309.629 340.52 309.629 340.71 309.629H340.805C340.995 309.534 341.185 309.534 341.28 309.534H341.375C341.565 309.534 341.755 309.534 341.85 309.534H342.325C342.99 309.629 343.56 309.819 344.034 310.104L366.452 323.023C366.927 323.308 367.307 323.687 367.402 324.067H367.497L367.592 324.447V324.542C367.592 324.637 367.592 324.732 367.592 324.827C367.592 324.922 367.592 324.922 367.592 324.922C367.592 325.017 367.497 325.112 367.497 325.207C367.497 325.302 367.497 325.302 367.402 325.302C367.307 325.397 367.212 325.492 367.212 325.587L367.022 325.682C366.927 325.777 366.737 325.872 366.547 325.967L333.205 345.346C333.015 345.441 332.825 345.536 332.636 345.63H332.541C332.351 345.725 332.256 345.725 332.066 345.725H331.971C331.781 345.725 331.591 345.82 331.496 345.82H331.401C331.306 345.82 331.211 345.82 331.116 345.82ZM331.876 345.061L332.066 345.346L331.971 344.966C332.066 344.966 332.161 344.871 332.351 344.871L332.636 345.156L332.541 344.776C332.731 344.681 332.825 344.681 332.92 344.586L366.262 325.302C366.357 325.207 366.452 325.207 366.547 325.112L366.832 325.302L366.547 325.017C366.642 324.922 366.642 324.922 366.642 324.827C366.737 324.732 366.737 324.637 366.737 324.637C366.737 324.542 366.737 324.447 366.737 324.447C366.642 324.162 366.452 323.877 365.978 323.592L343.655 310.769C343.275 310.484 342.61 310.294 341.945 310.294H341.755C341.66 310.294 341.565 310.294 341.47 310.294H341.28C341.185 310.294 341.09 310.294 340.9 310.294L340.71 310.009L340.805 310.389C340.71 310.389 340.615 310.484 340.425 310.484L340.14 310.199L340.33 310.484C340.14 310.579 340.045 310.579 339.95 310.674L306.608 329.957C306.513 330.052 306.418 330.052 306.323 330.147C306.228 330.242 306.133 330.337 306.133 330.337C306.038 330.432 306.038 330.527 306.038 330.527C306.038 330.622 306.038 330.717 306.038 330.717C306.133 331.002 306.323 331.287 306.798 331.572L329.121 344.681C329.596 344.966 330.166 345.156 330.831 345.156H330.926C331.021 345.156 331.116 345.156 331.211 345.156H331.401C331.591 345.061 331.686 345.061 331.876 345.061Z" fill="white"/>
<path opacity="0.4" d="M366.831 325.397C366.926 325.302 366.926 325.207 367.021 325.207V325.112C367.021 325.017 367.116 324.922 367.116 324.922V324.827C367.116 324.732 367.116 324.637 367.116 324.637C367.021 324.257 366.736 323.877 366.166 323.497L343.843 310.388C343.274 310.103 342.609 309.913 341.944 309.818C341.944 309.818 341.944 309.818 341.849 309.818C341.754 309.818 341.564 309.818 341.469 309.818C341.374 309.818 341.374 309.818 341.279 309.818C341.184 309.818 340.994 309.818 340.899 309.913C340.804 309.913 340.804 309.913 340.709 309.913C340.614 309.913 340.424 310.008 340.329 310.008C340.234 310.008 340.234 310.008 340.139 310.008C339.949 310.103 339.854 310.103 339.664 310.198L328.645 316.752L323.04 319.982L306.417 329.671C306.227 329.766 306.132 329.861 306.037 329.956C306.037 329.956 306.037 330.051 305.942 330.051C305.847 330.146 305.847 330.241 305.752 330.241V330.336C305.752 330.431 305.657 330.526 305.657 330.526V330.621C305.657 330.716 305.657 330.811 305.657 330.811C305.752 331.191 306.037 331.571 306.607 331.951L329.025 344.87C329.595 345.155 330.26 345.345 330.925 345.44C330.925 345.44 330.925 345.44 331.02 345.44C331.115 345.44 331.305 345.44 331.4 345.44C331.495 345.44 331.495 345.44 331.59 345.44C331.685 345.44 331.875 345.44 331.97 345.345C332.065 345.345 332.065 345.345 332.16 345.345C332.255 345.345 332.445 345.25 332.54 345.25C332.635 345.25 332.635 345.25 332.729 345.25C332.919 345.155 333.014 345.155 333.204 345.06L366.451 325.682C366.546 325.587 366.641 325.492 366.831 325.397Z" fill="white"/>
<path d="M327.143 332.164L296.286 298.986L265.335 296.426C265.335 296.426 260.413 338.326 296.192 382.785C332.065 379.752 327.143 332.164 327.143 332.164Z" fill="url(#paint32_linear)"/>
<path d="M265.335 296.426L258.425 300.407L289.282 302.967L296.287 298.891L265.335 296.426Z" fill="url(#paint33_linear)"/>
<path d="M320.139 336.146L289.282 302.967L276.598 301.64L258.425 300.407C258.425 300.407 253.503 342.307 289.282 386.767C325.156 383.828 320.139 336.146 320.139 336.146Z" fill="url(#paint34_linear)"/>
<path d="M320.139 336.146L289.282 302.967L258.425 300.502C259.277 300.028 259.277 300.028 259.277 300.028L290.607 302.588L321.464 335.766C321.464 335.766 325.629 375.581 298.937 384.776C324.209 374.728 320.139 336.146 320.139 336.146Z" fill="white"/>
<path opacity="0.2" d="M316.447 336.62L288.714 306.759L277.261 305.621L260.886 304.484C260.886 304.484 256.437 342.213 288.619 382.122C320.896 379.468 316.447 336.62 316.447 336.62Z" fill="white"/>
<path d="M305.948 339.389L288.477 320.584L281.261 319.868L270.945 319.152C270.945 319.152 268.143 342.911 288.417 368.043C308.751 366.371 305.948 339.389 305.948 339.389Z" fill="#2852AE"/>
<path d="M346.475 296.389L344.311 294.225L349.6 288.935L344.23 283.646L346.475 281.482L353.928 288.935L346.475 296.389ZM345.112 294.225L346.394 295.508L352.967 288.935L346.394 282.363L345.112 283.646L350.402 288.935L345.112 294.225Z" fill="white"/>
<path opacity="0.5" d="M338.299 281.881L336.536 283.645L341.826 288.935L336.536 294.224L338.299 295.988L343.589 290.698L345.353 288.935L338.299 281.881Z" fill="#7BDAFF"/>
</g>
<defs>
<linearGradient id="paint0_linear" x1="234.803" y1="299.723" x2="424.57" y2="299.723" gradientUnits="userSpaceOnUse">
<stop stop-color="#3A9BD5"/>
<stop offset="0.522" stop-color="#3088C8"/>
<stop offset="1" stop-color="#297BBF"/>
</linearGradient>
<linearGradient id="paint1_linear" x1="219.295" y1="238.17" x2="347.59" y2="303.755" gradientUnits="userSpaceOnUse">
<stop stop-color="#59BDEF"/>
<stop offset="1" stop-color="#7BDAFF"/>
</linearGradient>
<radialGradient id="paint2_radial" cx="0" cy="0" r="1" gradientUnits="userSpaceOnUse" gradientTransform="translate(219.516 300.866) rotate(-51.5585) scale(18.3116 18.3054)">
<stop stop-color="#FCE586"/>
<stop offset="0.2273" stop-color="#FCDB7B"/>
<stop offset="0.6161" stop-color="#FCD06F"/>
<stop offset="1" stop-color="#FCCC6B"/>
</radialGradient>
<radialGradient id="paint3_radial" cx="0" cy="0" r="1" gradientUnits="userSpaceOnUse" gradientTransform="translate(237.855 304.116) rotate(-51.5585) scale(43.5601 43.5452)">
<stop stop-color="#FCE586"/>
<stop offset="0.2273" stop-color="#FCDB7B"/>
<stop offset="0.6161" stop-color="#FCD06F"/>
<stop offset="1" stop-color="#FCCC6B"/>
</radialGradient>
<linearGradient id="paint4_linear" x1="193.02" y1="266.746" x2="271.517" y2="266.746" gradientUnits="userSpaceOnUse">
<stop stop-color="#7BDAFF"/>
<stop offset="1" stop-color="#59BDEF"/>
</linearGradient>
<radialGradient id="paint5_radial" cx="0" cy="0" r="1" gradientUnits="userSpaceOnUse" gradientTransform="translate(220.198 376.038) rotate(-17.0983) scale(18.297 18.3198)">
<stop stop-color="#FCE586"/>
<stop offset="0.2273" stop-color="#FCDB7B"/>
<stop offset="0.6161" stop-color="#FCD06F"/>
<stop offset="1" stop-color="#FCCC6B"/>
</radialGradient>
<radialGradient id="paint6_radial" cx="0" cy="0" r="1" gradientUnits="userSpaceOnUse" gradientTransform="translate(233.486 389.106) rotate(-17.0983) scale(43.5257 43.5799)">
<stop stop-color="#FCE586"/>
<stop offset="0.2273" stop-color="#FCDB7B"/>
<stop offset="0.6161" stop-color="#FCD06F"/>
<stop offset="1" stop-color="#FCCC6B"/>
</radialGradient>
<radialGradient id="paint7_radial" cx="0" cy="0" r="1" gradientUnits="userSpaceOnUse" gradientTransform="translate(222.397 372.894) rotate(-17.0983) scale(18.2971 18.3199)">
<stop stop-color="#FCE586"/>
<stop offset="0.2273" stop-color="#FCDB7B"/>
<stop offset="0.6161" stop-color="#FCD06F"/>
<stop offset="1" stop-color="#FCCC6B"/>
</radialGradient>
<radialGradient id="paint8_radial" cx="0" cy="0" r="1" gradientUnits="userSpaceOnUse" gradientTransform="translate(235.686 385.963) rotate(-17.0983) scale(43.5257 43.58)">
<stop stop-color="#FCE586"/>
<stop offset="0.2273" stop-color="#FCDB7B"/>
<stop offset="0.6161" stop-color="#FCD06F"/>
<stop offset="1" stop-color="#FCCC6B"/>
</radialGradient>
<radialGradient id="paint9_radial" cx="0" cy="0" r="1" gradientUnits="userSpaceOnUse" gradientTransform="translate(239.279 388.516) rotate(-17.0983) scale(18.297 18.3198)">
<stop stop-color="#FCE586"/>
<stop offset="0.2273" stop-color="#FCDB7B"/>
<stop offset="0.6161" stop-color="#FCD06F"/>
<stop offset="1" stop-color="#FCCC6B"/>
</radialGradient>
<radialGradient id="paint10_radial" cx="0" cy="0" r="1" gradientUnits="userSpaceOnUse" gradientTransform="translate(252.567 401.586) rotate(-17.0983) scale(43.5257 43.58)">
<stop stop-color="#FCE586"/>
<stop offset="0.2273" stop-color="#FCDB7B"/>
<stop offset="0.6161" stop-color="#FCD06F"/>
<stop offset="1" stop-color="#FCCC6B"/>
</radialGradient>
<radialGradient id="paint11_radial" cx="0" cy="0" r="1" gradientUnits="userSpaceOnUse" gradientTransform="translate(213.661 392.968) rotate(-17.0983) scale(18.297 18.3198)">
<stop stop-color="#FCE586"/>
<stop offset="0.2273" stop-color="#FCDB7B"/>
<stop offset="0.6161" stop-color="#FCD06F"/>
<stop offset="1" stop-color="#FCCC6B"/>
</radialGradient>
<radialGradient id="paint12_radial" cx="0" cy="0" r="1" gradientUnits="userSpaceOnUse" gradientTransform="translate(226.949 406.036) rotate(-17.0983) scale(43.5257 43.58)">
<stop stop-color="#FCE586"/>
<stop offset="0.2273" stop-color="#FCDB7B"/>
<stop offset="0.6161" stop-color="#FCD06F"/>
<stop offset="1" stop-color="#FCCC6B"/>
</radialGradient>
<radialGradient id="paint13_radial" cx="0" cy="0" r="1" gradientUnits="userSpaceOnUse" gradientTransform="translate(225.782 388.25) rotate(-17.0983) scale(18.297 18.3198)">
<stop stop-color="#FCE586"/>
<stop offset="0.2273" stop-color="#FCDB7B"/>
<stop offset="0.6161" stop-color="#FCD06F"/>
<stop offset="1" stop-color="#FCCC6B"/>
</radialGradient>
<radialGradient id="paint14_radial" cx="0" cy="0" r="1" gradientUnits="userSpaceOnUse" gradientTransform="translate(239.069 401.318) rotate(-17.0983) scale(43.5258 43.5801)">
<stop stop-color="#FCE586"/>
<stop offset="0.2273" stop-color="#FCDB7B"/>
<stop offset="0.6161" stop-color="#FCD06F"/>
<stop offset="1" stop-color="#FCCC6B"/>
</radialGradient>
<radialGradient id="paint15_radial" cx="0" cy="0" r="1" gradientUnits="userSpaceOnUse" gradientTransform="translate(229.094 385.686) rotate(-17.0983) scale(18.297 18.3198)">
<stop stop-color="#FCE586"/>
<stop offset="0.2273" stop-color="#FCDB7B"/>
<stop offset="0.6161" stop-color="#FCD06F"/>
<stop offset="1" stop-color="#FCCC6B"/>
</radialGradient>
<radialGradient id="paint16_radial" cx="0" cy="0" r="1" gradientUnits="userSpaceOnUse" gradientTransform="translate(242.382 398.754) rotate(-17.0983) scale(43.5258 43.5801)">
<stop stop-color="#FCE586"/>
<stop offset="0.2273" stop-color="#FCDB7B"/>
<stop offset="0.6161" stop-color="#FCD06F"/>
<stop offset="1" stop-color="#FCCC6B"/>
</radialGradient>
<radialGradient id="paint17_radial" cx="0" cy="0" r="1" gradientUnits="userSpaceOnUse" gradientTransform="translate(230.849 380.753) rotate(-17.0983) scale(18.297 18.3198)">
<stop stop-color="#FCE586"/>
<stop offset="0.2273" stop-color="#FCDB7B"/>
<stop offset="0.6161" stop-color="#FCD06F"/>
<stop offset="1" stop-color="#FCCC6B"/>
</radialGradient>
<radialGradient id="paint18_radial" cx="0" cy="0" r="1" gradientUnits="userSpaceOnUse" gradientTransform="translate(244.138 393.822) rotate(-17.0983) scale(43.5257 43.58)">
<stop stop-color="#FCE586"/>
<stop offset="0.2273" stop-color="#FCDB7B"/>
<stop offset="0.6161" stop-color="#FCD06F"/>
<stop offset="1" stop-color="#FCCC6B"/>
</radialGradient>
<radialGradient id="paint19_radial" cx="0" cy="0" r="1" gradientUnits="userSpaceOnUse" gradientTransform="translate(241.006 378.74) rotate(-5.26923) scale(18.2948 18.3219)">
<stop stop-color="#FCE586"/>
<stop offset="0.2273" stop-color="#FCDB7B"/>
<stop offset="0.6161" stop-color="#FCD06F"/>
<stop offset="1" stop-color="#FCCC6B"/>
</radialGradient>
<radialGradient id="paint20_radial" cx="0" cy="0" r="1" gradientUnits="userSpaceOnUse" gradientTransform="translate(251.342 394.255) rotate(-5.26923) scale(43.5206 43.5851)">
<stop stop-color="#FCE586"/>
<stop offset="0.2273" stop-color="#FCDB7B"/>
<stop offset="0.6161" stop-color="#FCD06F"/>
<stop offset="1" stop-color="#FCCC6B"/>
</radialGradient>
<radialGradient id="paint21_radial" cx="0" cy="0" r="1" gradientUnits="userSpaceOnUse" gradientTransform="translate(224.901 319.382) rotate(12.4394) scale(18.296 18.321)">
<stop stop-color="#FCE586"/>
<stop offset="0.2273" stop-color="#FCDB7B"/>
<stop offset="0.6161" stop-color="#FCD06F"/>
<stop offset="1" stop-color="#FCCC6B"/>
</radialGradient>
<radialGradient id="paint22_radial" cx="0" cy="0" r="1" gradientUnits="userSpaceOnUse" gradientTransform="translate(230.043 337.309) rotate(12.4394) scale(43.523 43.5825)">
<stop stop-color="#FCE586"/>
<stop offset="0.2273" stop-color="#FCDB7B"/>
<stop offset="0.6161" stop-color="#FCD06F"/>
<stop offset="1" stop-color="#FCCC6B"/>
</radialGradient>
<radialGradient id="paint23_radial" cx="0" cy="0" r="1" gradientUnits="userSpaceOnUse" gradientTransform="translate(218.212 361.788) rotate(-46.6598) scale(18.3093 18.3077)">
<stop stop-color="#FCE586"/>
<stop offset="0.2273" stop-color="#FCDB7B"/>
<stop offset="0.6161" stop-color="#FCD06F"/>
<stop offset="1" stop-color="#FCCC6B"/>
</radialGradient>
<radialGradient id="paint24_radial" cx="0" cy="0" r="1" gradientUnits="userSpaceOnUse" gradientTransform="translate(236.207 366.595) rotate(-46.6598) scale(43.5546 43.5508)">
<stop stop-color="#FCE586"/>
<stop offset="0.2273" stop-color="#FCDB7B"/>
<stop offset="0.6161" stop-color="#FCD06F"/>
<stop offset="1" stop-color="#FCCC6B"/>
</radialGradient>
<linearGradient id="paint25_linear" x1="375.969" y1="358.192" x2="336.897" y2="379.218" gradientUnits="userSpaceOnUse">
<stop stop-color="#59BDEF"/>
<stop offset="1" stop-color="#7BDAFF"/>
</linearGradient>
<linearGradient id="paint26_linear" x1="255.684" y1="224.52" x2="210.793" y2="239.606" gradientUnits="userSpaceOnUse">
<stop stop-color="#59BDEF"/>
<stop offset="1" stop-color="#7BDAFF"/>
</linearGradient>
<linearGradient id="paint27_linear" x1="237.151" y1="303.679" x2="414.486" y2="303.679" gradientUnits="userSpaceOnUse">
<stop stop-color="#59BDEF"/>
<stop offset="1" stop-color="#7BDAFF"/>
</linearGradient>
<linearGradient id="paint28_linear" x1="330.736" y1="366.642" x2="330.674" y2="338.942" gradientUnits="userSpaceOnUse">
<stop offset="0.7677" stop-color="#59BDEF"/>
<stop offset="0.8452" stop-color="#55B8EB"/>
<stop offset="0.9318" stop-color="#49ABE1"/>
<stop offset="1" stop-color="#3A9BD5"/>
</linearGradient>
<linearGradient id="paint29_linear" x1="388.585" y1="333.086" x2="340.663" y2="332.941" gradientUnits="userSpaceOnUse">
<stop offset="0.7677" stop-color="#59BDEF"/>
<stop offset="0.8452" stop-color="#55B8EB"/>
<stop offset="0.9318" stop-color="#49ABE1"/>
<stop offset="1" stop-color="#3A9BD5"/>
</linearGradient>
<linearGradient id="paint30_linear" x1="376.199" y1="359.421" x2="356.519" y2="325.439" gradientUnits="userSpaceOnUse">
<stop offset="0.7677" stop-color="#3A9BD5"/>
<stop offset="0.8386" stop-color="#3896D2"/>
<stop offset="0.9179" stop-color="#3189C9"/>
<stop offset="1" stop-color="#2573BA"/>
</linearGradient>
<linearGradient id="paint31_linear" x1="332.002" y1="319.063" x2="325.975" y2="349.765" gradientUnits="userSpaceOnUse">
<stop stop-color="#7BDAFF"/>
<stop offset="1" stop-color="#59BDEF"/>
</linearGradient>
<linearGradient id="paint32_linear" x1="287.313" y1="331.559" x2="380.163" y2="360.008" gradientUnits="userSpaceOnUse">
<stop stop-color="#2573BA"/>
<stop offset="0.907" stop-color="#0364AE"/>
<stop offset="1" stop-color="#0063AD"/>
</linearGradient>
<linearGradient id="paint33_linear" x1="296.244" y1="299.689" x2="258.422" y2="299.689" gradientUnits="userSpaceOnUse">
<stop stop-color="#0063AD"/>
<stop offset="1" stop-color="#2573BA"/>
</linearGradient>
<linearGradient id="paint34_linear" x1="258.189" y1="326.898" x2="320.405" y2="326.898" gradientUnits="userSpaceOnUse">
<stop stop-color="#7BDAFF"/>
<stop offset="1" stop-color="#59BDEF"/>
</linearGradient>
<clipPath id="clip0">
<rect width="500" height="500" fill="white"/>
</clipPath>
</defs>
</svg>
