<svg width="26" height="26" viewBox="0 0 26 26" fill="none" xmlns="http://www.w3.org/2000/svg">
<path d="M10.3001 12.34C11.5379 12.3453 12.7274 11.8601 13.6082 10.9905C14.4891 10.1209 14.9895 8.93774 15.0001 7.7C15.0001 6.45348 14.5049 5.25802 13.6235 4.3766C12.7421 3.49518 11.5466 3 10.3001 3C9.05358 3 7.85812 3.49518 6.9767 4.3766C6.09528 5.25802 5.6001 6.45348 5.6001 7.7C5.61067 8.93774 6.11114 10.1209 6.99199 10.9905C7.87284 11.8601 9.06232 12.3453 10.3001 12.34ZM7.3001 7.7C7.28218 7.10315 7.44279 6.51453 7.76136 6.00949C8.07992 5.50444 8.54195 5.10596 9.08831 4.86503C9.63467 4.62411 10.2405 4.55171 10.8282 4.6571C11.416 4.76249 11.9589 5.04088 12.3875 5.45663C12.8161 5.87237 13.1109 6.40657 13.2342 6.99083C13.3574 7.5751 13.3035 8.18285 13.0793 8.73629C12.8551 9.28973 12.4709 9.76368 11.9758 10.0975C11.4807 10.4313 10.8972 10.6097 10.3001 10.61C9.52207 10.6153 8.77366 10.312 8.21883 9.76659C7.66401 9.22114 7.34802 8.478 7.3401 7.7H7.3001Z" fill="#FF8976"/>
<path d="M14.13 13.72H6.47C5.29151 13.7147 4.15902 14.1771 3.32102 15.0057C2.48302 15.8343 2.00793 16.9615 2 18.14L2 21.25C1.99999 21.3638 2.02256 21.4765 2.06641 21.5815C2.11025 21.6864 2.17449 21.7817 2.25541 21.8617C2.33633 21.9417 2.43232 22.0048 2.53782 22.0474C2.64332 22.0901 2.75622 22.1113 2.87 22.11H17.73C17.8438 22.1113 17.9567 22.0901 18.0622 22.0474C18.1677 22.0048 18.2637 21.9417 18.3446 21.8617C18.4255 21.7817 18.4897 21.6864 18.5336 21.5815C18.5774 21.4765 18.6 21.3638 18.6 21.25V18.14C18.5921 16.9615 18.117 15.8343 17.279 15.0057C16.441 14.1771 15.3085 13.7147 14.13 13.72ZM16.85 18.14V20.39H3.74V18.14C3.74791 17.4221 4.03935 16.7364 4.55075 16.2325C5.06216 15.7286 5.75205 15.4473 6.47 15.45H14.13C14.847 15.4474 15.5359 15.729 16.0457 16.2331C16.5555 16.7373 16.8447 17.423 16.85 18.14Z" fill="#FF8976"/>
<path d="M24.0001 11.7001C24.0053 11.581 23.9847 11.4622 23.9399 11.3518C23.895 11.2413 23.8269 11.1418 23.7401 11.0601L20.1401 7.50009C19.9745 7.34177 19.7542 7.25342 19.5251 7.25342C19.296 7.25342 19.0757 7.34177 18.9101 7.50009C18.8285 7.57932 18.7636 7.67414 18.7192 7.77892C18.6749 7.8837 18.6521 7.99631 18.6521 8.11009C18.6521 8.22386 18.6749 8.33647 18.7192 8.44126C18.7636 8.54604 18.8285 8.64085 18.9101 8.72009L21.0001 10.8401H15.4801C15.252 10.8401 15.0333 10.9307 14.872 11.092C14.7107 11.2533 14.6201 11.472 14.6201 11.7001C14.6201 11.9282 14.7107 12.1469 14.872 12.3082C15.0333 12.4695 15.252 12.5601 15.4801 12.5601H21.0001L18.8901 14.6401C18.8085 14.7193 18.7436 14.8141 18.6992 14.9189C18.6549 15.0237 18.6321 15.1363 18.6321 15.2501C18.6321 15.3639 18.6549 15.4765 18.6992 15.5813C18.7436 15.686 18.8085 15.7809 18.8901 15.8601C18.9703 15.9433 19.0667 16.0093 19.1733 16.054C19.2799 16.0987 19.3945 16.1212 19.5101 16.1201C19.6242 16.121 19.7373 16.0984 19.8422 16.0536C19.9472 16.0089 20.0418 15.943 20.1201 15.8601L23.7201 12.3101C23.8072 12.2427 23.8788 12.1575 23.9301 12.0601C23.9722 11.9654 23.9959 11.8636 24.0001 11.7601C24.0001 11.7601 24.0001 11.7201 24.0001 11.7001Z" fill="#FF8976"/>
</svg>
