<svg width="14" height="8" viewBox="0 0 14 8" fill="none" xmlns="http://www.w3.org/2000/svg">
<path d="M0.368328 7.64471C0.484325 7.75733 0.622106 7.84669 0.773786 7.90765C0.925467 7.96862 1.08807 8 1.25228 8C1.41649 8 1.57909 7.96862 1.73077 7.90765C1.88245 7.84669 2.02023 7.75733 2.13623 7.64471L7.00109 2.93088L11.866 7.64471C12.1004 7.87187 12.4184 7.99949 12.7499 7.99949C13.0815 7.99949 13.3994 7.87187 13.6339 7.64471C13.8683 7.41755 14 7.10945 14 6.7882C14 6.46695 13.8683 6.15885 13.6339 5.93169L7.87877 0.355289C7.76278 0.242663 7.62499 0.153309 7.47331 0.0923435C7.32163 0.0313779 7.15903 -1.26661e-06 6.99482 -1.25943e-06C6.83061 -1.25225e-06 6.66801 0.031378 6.51633 0.0923435C6.36465 0.15331 6.22687 0.242663 6.11087 0.355289L0.355789 5.93169C-0.120666 6.39336 -0.120666 7.1709 0.368328 7.64471Z" fill="#222222"/>
</svg>
