<svg width="17" height="17" viewBox="0 0 17 17" fill="none" xmlns="http://www.w3.org/2000/svg">
<path fill-rule="evenodd" clip-rule="evenodd" d="M1.4949 8.10135C2.80124 4.89309 5.49644 2.83313 8.50033 2.83313C11.5042 2.83313 14.1994 4.89309 15.5058 8.10135C15.6096 8.35646 15.6096 8.64313 15.5058 8.89824C14.1994 12.1065 11.5042 14.1665 8.50033 14.1665C5.49644 14.1665 2.80124 12.1065 1.4949 8.89824C1.39102 8.64313 1.39102 8.35646 1.4949 8.10135ZM8.50033 12.8558C10.9222 12.8558 13.1426 11.1821 14.2732 8.4998C13.1426 5.81751 10.9222 4.14379 8.50033 4.14379C6.0785 4.14379 3.85809 5.81751 2.72747 8.4998C3.85809 11.1821 6.0785 12.8558 8.50033 12.8558ZM8.50033 11.0826C7.09869 11.0826 5.96245 9.92622 5.96245 8.4998C5.96245 7.07337 7.09869 5.91703 8.50033 5.91703C9.90196 5.91703 11.0382 7.07337 11.0382 8.4998C11.0382 9.92622 9.90196 11.0826 8.50033 11.0826ZM8.50033 9.77191C9.19068 9.77191 9.75033 9.20236 9.75033 8.4998C9.75033 7.79723 9.19068 7.22769 8.50033 7.22769C7.80997 7.22769 7.25033 7.79723 7.25033 8.4998C7.25033 9.20236 7.80997 9.77191 8.50033 9.77191Z" fill="#333333"/>
</svg>
