<?xml version="1.0" encoding="utf-8"?>
<!-- Generator: Adobe Illustrator 18.1.0, SVG Export Plug-In . SVG Version: 6.00 Build 0)  -->
<svg version="1.1" id="Layer_1" xmlns="http://www.w3.org/2000/svg" xmlns:xlink="http://www.w3.org/1999/xlink" x="0px" y="0px"
	 viewBox="0 0 300 300" enable-background="new 0 0 300 300" xml:space="preserve">
<g>
	<g>
		<linearGradient id="SVGID_1_" gradientUnits="userSpaceOnUse" x1="140.9322" y1="258.9531" x2="140.9322" y2="238.353">
			<stop  offset="0" style="stop-color:#F0F0FA"/>
			<stop  offset="0.9985" style="stop-color:#DDDCEE"/>
		</linearGradient>
		<ellipse fill="url(#SVGID_1_)" cx="140.9" cy="242.7" rx="115.4" ry="6.3"/>
		
			<linearGradient id="SVGID_2_" gradientUnits="userSpaceOnUse" x1="710.2777" y1="153.5421" x2="871.513" y2="153.5421" gradientTransform="matrix(-1 0 0 1 856.0416 0)">
			<stop  offset="0" style="stop-color:#F0F0FA"/>
			<stop  offset="0.9985" style="stop-color:#DDDCEE"/>
		</linearGradient>
		<path opacity="0.5" fill="url(#SVGID_2_)" d="M18.1,193.3c23.8,54.9,80.6,59.1,119.1,35c38.4-24.2,47.4-79,20.1-122.5
			c-27.3-43.5-56.2,26.5-97.4-32.4C31.4,32.7-2.3,146.2,18.1,193.3z"/>
		
			<linearGradient id="SVGID_3_" gradientUnits="userSpaceOnUse" x1="1798.5928" y1="51.5152" x2="1870.7966" y2="177.6377" gradientTransform="matrix(-1 0 0 1 2034.4622 0)">
			<stop  offset="0" style="stop-color:#F0F0FA"/>
			<stop  offset="0.9985" style="stop-color:#DDDCEE"/>
		</linearGradient>
		<path opacity="0.5" fill="url(#SVGID_3_)" d="M81.7,149c0,51.8,42,93.8,93.8,93.8s93.8-42,93.8-93.8S170.5-4.1,175.4,77.3
			C178.4,126.8,81.7,97.2,81.7,149z"/>
		
			<linearGradient id="SVGID_4_" gradientUnits="userSpaceOnUse" x1="-1067.885" y1="94.6918" x2="-1064.2852" y2="240.1318" gradientTransform="matrix(1 0 0 1 1199.6606 0)">
			<stop  offset="0" style="stop-color:#F0F0FA"/>
			<stop  offset="0.9985" style="stop-color:#DDDCEE"/>
		</linearGradient>
		<path opacity="0.5" fill="url(#SVGID_4_)" d="M223.7,242.7c8.4-16.7,9.4-37.9,9.4-61c0-110-74.5-74.5-97.6-32
			c-25.8,47.3-77.2-23.7-97.6,32c-7.9,21.7,3.3,44.3,13.3,61H223.7z"/>
		
			<linearGradient id="SVGID_5_" gradientUnits="userSpaceOnUse" x1="-188.341" y1="24.1491" x2="-195.3145" y2="88.2396" gradientTransform="matrix(0.9831 0.1832 -0.1832 0.9831 343.9935 59.758)">
			<stop  offset="0" style="stop-color:#F0F0FA"/>
			<stop  offset="0.9985" style="stop-color:#DDDCEE"/>
		</linearGradient>
		<path opacity="0.4" fill="url(#SVGID_5_)" d="M169.5,83.7c-2.3,7-14.6,9.2-27.4,5c-12.8-4.2-21.4-13.3-19.1-20.3
			c2.3-7,14.6-9.2,27.4-5S171.8,76.7,169.5,83.7z"/>
		<g opacity="0.5">
			<g>
				
					<rect x="277.9" y="225.4" transform="matrix(0.7071 -0.7071 0.7071 0.7071 -78.2791 263.2908)" fill="#FFFFFF" width="1.5" height="1.5"/>
				
					<rect x="277.9" y="219" transform="matrix(0.7071 -0.7071 0.7071 0.7071 -73.7777 261.4435)" fill="#FFFFFF" width="1.5" height="1.5"/>
				
					<rect x="277.9" y="212.7" transform="matrix(0.7071 -0.7071 0.7071 0.7071 -69.278 259.5796)" fill="#FFFFFF" width="1.5" height="1.5"/>
				
					<rect x="277.9" y="206.3" transform="matrix(0.7071 -0.7071 0.7071 0.7071 -64.7785 257.7159)" fill="#FFFFFF" width="1.5" height="1.5"/>
				
					<rect x="277.9" y="199.9" transform="matrix(0.7071 -0.7071 0.7071 0.7071 -60.2763 255.8677)" fill="#FFFFFF" width="1.5" height="1.5"/>
				
					<rect x="277.9" y="231.7" transform="matrix(0.7071 0.7071 -0.7071 0.7071 246.0197 -128.9706)" fill="#FFFFFF" width="1.5" height="1.5"/>
			</g>
			<g>
				
					<rect x="268.9" y="225.4" transform="matrix(0.7071 -0.7071 0.7071 0.7071 -80.9277 256.8961)" fill="#FFFFFF" width="1.5" height="1.5"/>
				
					<rect x="268.9" y="219" transform="matrix(0.7071 -0.7071 0.7071 0.7071 -76.4266 255.0485)" fill="#FFFFFF" width="1.5" height="1.5"/>
				
					<rect x="268.9" y="212.7" transform="matrix(0.7071 -0.7071 0.7071 0.7071 -71.9269 253.1847)" fill="#FFFFFF" width="1.5" height="1.5"/>
				
					<rect x="268.9" y="206.3" transform="matrix(0.7071 -0.7071 0.7071 0.7071 -67.4274 251.3209)" fill="#FFFFFF" width="1.5" height="1.5"/>
				
					<rect x="268.9" y="199.9" transform="matrix(0.7071 -0.7071 0.7071 0.7071 -62.9254 249.4724)" fill="#FFFFFF" width="1.5" height="1.5"/>
				
					<rect x="268.9" y="231.7" transform="matrix(0.7071 0.7071 -0.7071 0.7071 243.3711 -122.576)" fill="#FFFFFF" width="1.5" height="1.5"/>
			</g>
			<g>
				
					<rect x="259.8" y="225.4" transform="matrix(0.7071 -0.7071 0.7071 0.7071 -83.5763 250.5015)" fill="#FFFFFF" width="1.5" height="1.5"/>
				
					<rect x="259.8" y="219" transform="matrix(0.7071 -0.7071 0.7071 0.7071 -79.0755 248.6535)" fill="#FFFFFF" width="1.5" height="1.5"/>
				
					<rect x="259.8" y="212.7" transform="matrix(0.7071 -0.7071 0.7071 0.7071 -74.5758 246.7897)" fill="#FFFFFF" width="1.5" height="1.5"/>
				
					<rect x="259.8" y="206.3" transform="matrix(0.7071 -0.7071 0.7071 0.7071 -70.0762 244.9259)" fill="#FFFFFF" width="1.5" height="1.5"/>
				
					<rect x="259.8" y="199.9" transform="matrix(0.7071 -0.7071 0.7071 0.7071 -65.5746 243.0772)" fill="#FFFFFF" width="1.5" height="1.5"/>
				
					<rect x="259.8" y="231.7" transform="matrix(0.7071 0.7071 -0.7071 0.7071 240.7225 -116.1813)" fill="#FFFFFF" width="1.5" height="1.5"/>
			</g>
			<g>
				
					<rect x="250.8" y="225.4" transform="matrix(0.7071 -0.7071 0.7071 0.7071 -86.224 244.1224)" fill="#FFFFFF" width="1.5" height="1.5"/>
				
					<rect x="250.8" y="219" transform="matrix(0.7071 -0.7071 0.7071 0.7071 -81.7233 242.274)" fill="#FFFFFF" width="1.5" height="1.5"/>
				
					<rect x="250.8" y="212.7" transform="matrix(0.7071 -0.7071 0.7071 0.7071 -77.2234 240.41)" fill="#FFFFFF" width="1.5" height="1.5"/>
				
					<rect x="250.8" y="206.3" transform="matrix(0.7071 -0.7071 0.7071 0.7071 -72.7237 238.546)" fill="#FFFFFF" width="1.5" height="1.5"/>
				
					<rect x="250.8" y="199.9" transform="matrix(0.707 -0.7072 0.7072 0.707 -68.2221 236.6967)" fill="#FFFFFF" width="1.5" height="1.5"/>
				
					<rect x="250.8" y="231.7" transform="matrix(0.7071 0.7071 -0.7071 0.7071 238.074 -109.7867)" fill="#FFFFFF" width="1.5" height="1.5"/>
			</g>
			<g>
				
					<rect x="241.8" y="225.4" transform="matrix(0.7071 -0.7071 0.7071 0.7071 -88.8729 237.7276)" fill="#FFFFFF" width="1.5" height="1.5"/>
				
					<rect x="241.8" y="219" transform="matrix(0.7071 -0.7071 0.7071 0.7071 -84.3724 235.8788)" fill="#FFFFFF" width="1.5" height="1.5"/>
				
					<rect x="241.8" y="212.7" transform="matrix(0.7071 -0.7071 0.7071 0.7071 -79.8725 234.0148)" fill="#FFFFFF" width="1.5" height="1.5"/>
				
					<rect x="241.8" y="206.3" transform="matrix(0.7071 -0.7071 0.7071 0.7071 -75.3728 232.1508)" fill="#FFFFFF" width="1.5" height="1.5"/>
				
					<rect x="241.8" y="199.9" transform="matrix(0.707 -0.7072 0.7072 0.707 -70.8715 230.3012)" fill="#FFFFFF" width="1.5" height="1.5"/>
				
					<rect x="241.8" y="231.7" transform="matrix(0.7071 0.7071 -0.7071 0.7071 235.4254 -103.3921)" fill="#FFFFFF" width="1.5" height="1.5"/>
			</g>
			<g>
				
					<rect x="232.7" y="225.4" transform="matrix(0.7071 -0.7071 0.7071 0.7071 -91.5217 231.3326)" fill="#FFFFFF" width="1.5" height="1.5"/>
				
					<rect x="232.7" y="219" transform="matrix(0.7071 -0.7071 0.7071 0.7071 -87.0216 229.4836)" fill="#FFFFFF" width="1.5" height="1.5"/>
				
					<rect x="232.7" y="212.7" transform="matrix(0.7071 -0.7071 0.7071 0.7071 -82.5217 227.6196)" fill="#FFFFFF" width="1.5" height="1.5"/>
				
					<rect x="232.7" y="206.3" transform="matrix(0.7071 -0.7071 0.7071 0.7071 -78.022 225.7556)" fill="#FFFFFF" width="1.5" height="1.5"/>
				
					<rect x="232.7" y="199.9" transform="matrix(0.707 -0.7072 0.7072 0.707 -73.521 223.9057)" fill="#FFFFFF" width="1.5" height="1.5"/>
				
					<rect x="232.7" y="231.7" transform="matrix(0.7071 0.7071 -0.7071 0.7071 232.7768 -96.9974)" fill="#FFFFFF" width="1.5" height="1.5"/>
			</g>
			<g>
				
					<rect x="223.7" y="225.4" transform="matrix(0.7071 -0.7071 0.7071 0.7071 -94.1705 224.923)" fill="#FFFFFF" width="1.5" height="1.5"/>
				
					<rect x="223.7" y="219" transform="matrix(0.7071 -0.7071 0.7071 0.7071 -89.6709 223.0739)" fill="#FFFFFF" width="1.5" height="1.5"/>
				
					<rect x="223.7" y="212.7" transform="matrix(0.7071 -0.7071 0.7071 0.7071 -85.1712 221.2101)" fill="#FFFFFF" width="1.5" height="1.5"/>
				
					<rect x="223.7" y="206.3" transform="matrix(0.7071 -0.7071 0.7071 0.7071 -80.6717 219.3463)" fill="#FFFFFF" width="1.5" height="1.5"/>
				
					<rect x="223.7" y="199.9" transform="matrix(0.7071 -0.7071 0.7071 0.7071 -76.1712 217.4964)" fill="#FFFFFF" width="1.5" height="1.5"/>
				
					<rect x="223.7" y="231.7" transform="matrix(0.7071 0.7071 -0.7071 0.7071 230.1432 -90.6025)" fill="#FFFFFF" width="1.5" height="1.5"/>
			</g>
			<g>
				
					<rect x="214.6" y="225.4" transform="matrix(0.7071 -0.7071 0.7071 0.7071 -96.8191 218.5284)" fill="#FFFFFF" width="1.5" height="1.5"/>
				
					<rect x="214.6" y="219" transform="matrix(0.7071 -0.7071 0.7071 0.7071 -92.3198 216.679)" fill="#FFFFFF" width="1.5" height="1.5"/>
				
					<rect x="214.6" y="212.7" transform="matrix(0.7071 -0.7071 0.7071 0.7071 -87.8201 214.8151)" fill="#FFFFFF" width="1.5" height="1.5"/>
				
					<rect x="214.6" y="206.3" transform="matrix(0.7071 -0.7071 0.7071 0.7071 -83.3205 212.9514)" fill="#FFFFFF" width="1.5" height="1.5"/>
				
					<rect x="214.6" y="199.9" transform="matrix(0.7071 -0.7071 0.7071 0.7071 -78.8204 211.1011)" fill="#FFFFFF" width="1.5" height="1.5"/>
				
					<rect x="214.6" y="231.7" transform="matrix(0.7071 0.7071 -0.7071 0.7071 227.4797 -84.2082)" fill="#FFFFFF" width="1.5" height="1.5"/>
			</g>
			<g>
				
					<rect x="205.6" y="225.4" transform="matrix(0.7071 -0.7071 0.7071 0.7071 -99.4677 212.1337)" fill="#FFFFFF" width="1.5" height="1.5"/>
				
					<rect x="205.6" y="219" transform="matrix(0.7071 -0.7071 0.7071 0.7071 -94.9686 210.284)" fill="#FFFFFF" width="1.5" height="1.5"/>
				
					<rect x="205.6" y="212.7" transform="matrix(0.7071 -0.7071 0.7071 0.7071 -90.4689 208.4202)" fill="#FFFFFF" width="1.5" height="1.5"/>
				
					<rect x="205.6" y="206.3" transform="matrix(0.7071 -0.7071 0.7071 0.7071 -85.9694 206.5564)" fill="#FFFFFF" width="1.5" height="1.5"/>
				
					<rect x="205.6" y="199.9" transform="matrix(0.7071 -0.7071 0.7071 0.7071 -81.4696 204.7059)" fill="#FFFFFF" width="1.5" height="1.5"/>
				
					<rect x="205.6" y="231.7" transform="matrix(0.7071 0.7071 -0.7071 0.7071 224.8311 -77.8136)" fill="#FFFFFF" width="1.5" height="1.5"/>
			</g>
			<g>
				
					<rect x="287" y="225.4" transform="matrix(0.7071 -0.7071 0.7071 0.7071 -75.6305 269.6855)" fill="#FFFFFF" width="1.5" height="1.5"/>
				
					<rect x="287" y="219" transform="matrix(0.7071 -0.7071 0.7071 0.7071 -71.1288 267.8384)" fill="#FFFFFF" width="1.5" height="1.5"/>
				
					<rect x="287" y="212.7" transform="matrix(0.7071 -0.7071 0.7071 0.7071 -66.6291 265.9746)" fill="#FFFFFF" width="1.5" height="1.5"/>
				
					<rect x="287" y="206.3" transform="matrix(0.7071 -0.7071 0.7071 0.7071 -62.1296 264.1108)" fill="#FFFFFF" width="1.5" height="1.5"/>
				
					<rect x="287" y="199.9" transform="matrix(0.7071 -0.7071 0.7071 0.7071 -57.6271 262.2629)" fill="#FFFFFF" width="1.5" height="1.5"/>
				
					<rect x="287" y="231.7" transform="matrix(0.7071 0.7071 -0.7071 0.7071 248.6682 -135.3653)" fill="#FFFFFF" width="1.5" height="1.5"/>
			</g>
			<g>
				
					<rect x="196.5" y="225.4" transform="matrix(0.7071 -0.7071 0.7071 0.7071 -102.1163 205.7391)" fill="#FFFFFF" width="1.5" height="1.5"/>
				
					<rect x="196.5" y="219" transform="matrix(0.7071 -0.7071 0.7071 0.7071 -97.6175 203.8891)" fill="#FFFFFF" width="1.5" height="1.5"/>
				
					<rect x="196.5" y="212.7" transform="matrix(0.7071 -0.7071 0.7071 0.7071 -93.1178 202.0253)" fill="#FFFFFF" width="1.5" height="1.5"/>
				
					<rect x="196.5" y="206.3" transform="matrix(0.7071 -0.7071 0.7071 0.7071 -88.6183 200.1615)" fill="#FFFFFF" width="1.5" height="1.5"/>
				
					<rect x="196.5" y="199.9" transform="matrix(0.7071 -0.7071 0.7071 0.7071 -84.1187 198.3107)" fill="#FFFFFF" width="1.5" height="1.5"/>
				
					<rect x="196.5" y="231.7" transform="matrix(0.7071 0.7071 -0.7071 0.7071 222.1825 -71.4189)" fill="#FFFFFF" width="1.5" height="1.5"/>
			</g>
		</g>
	</g>
	<g>
		<g>
			<polygon fill="#FF8C5A" points="222.4,112 195.7,118.6 223.3,128.5 222.1,121.1 226.1,117.5 204.1,117.9 222.7,115.7 223.7,114 
				225.2,111.3 			"/>
			<g>
				<path fill-rule="evenodd" clip-rule="evenodd" fill="#FFFFFF" d="M233.4,117.2l0,0.8c-0.4,0-0.9,0-1.3,0l0-0.8
					C232.5,117.2,233,117.2,233.4,117.2z"/>
				<polygon fill-rule="evenodd" clip-rule="evenodd" fill="#FFFFFF" points="229.6,117.2 231,117.2 231,118 229.6,118 				"/>
				<polygon fill-rule="evenodd" clip-rule="evenodd" fill="#FFFFFF" points="227.2,117.2 228.6,117.2 228.6,118 227.2,118 				"/>
				<polygon fill-rule="evenodd" clip-rule="evenodd" fill="#FFFFFF" points="239.3,118.5 239.4,117.7 240.8,117.9 240.6,118.7 				
					"/>
				<path fill-rule="evenodd" clip-rule="evenodd" fill="#FFFFFF" d="M237,117.4c0.5,0,0.9,0.1,1.4,0.1l-0.1,0.8
					c-0.4-0.1-0.9-0.1-1.3-0.1L237,117.4z"/>
				<path fill-rule="evenodd" clip-rule="evenodd" fill="#FFFFFF" d="M235.9,117.4l-0.1,0.8c-0.4,0-0.9-0.1-1.3-0.1l0-0.8
					C235,117.3,235.4,117.3,235.9,117.4z"/>
				<path fill-rule="evenodd" clip-rule="evenodd" fill="#FFFFFF" d="M246.6,119.3c0.4,0.2,0.9,0.3,1.3,0.5l-0.3,0.8
					c-0.4-0.2-0.8-0.3-1.3-0.5L246.6,119.3z"/>
				<path fill-rule="evenodd" clip-rule="evenodd" fill="#FFFFFF" d="M245.6,119l-0.2,0.8c-0.4-0.1-0.9-0.2-1.3-0.4l0.2-0.8
					C244.7,118.7,245.1,118.8,245.6,119z"/>
				<path fill-rule="evenodd" clip-rule="evenodd" fill="#FFFFFF" d="M241.7,118.9l0.1-0.8c0.5,0.1,0.9,0.2,1.3,0.3l-0.2,0.8
					C242.6,119.1,242.2,119,241.7,118.9z"/>
				<path fill-rule="evenodd" clip-rule="evenodd" fill="#FFFFFF" d="M252.5,123.6l0.6-0.6c0.3,0.4,0.6,0.7,0.9,1.1l-0.7,0.5
					C253.1,124.3,252.8,124,252.5,123.6z"/>
				<path fill-rule="evenodd" clip-rule="evenodd" fill="#FFFFFF" d="M250.7,122.1l0.5-0.7c0.4,0.3,0.8,0.6,1.1,0.8l-0.5,0.6
					C251.4,122.7,251.1,122.4,250.7,122.1z"/>
				<polygon fill-rule="evenodd" clip-rule="evenodd" fill="#FFFFFF" points="248.6,121 249,120.2 250.2,120.9 249.8,121.6 				"/>
				<path fill-rule="evenodd" clip-rule="evenodd" fill="#FFFFFF" d="M255.3,130.2c-0.1,0.5-0.2,0.9-0.3,1.4l-0.8-0.2
					c0.1-0.4,0.2-0.9,0.3-1.3L255.3,130.2z"/>
				<path fill-rule="evenodd" clip-rule="evenodd" fill="#FFFFFF" d="M254.5,127.8l0.8-0.1l0.1,0.7c0,0.2,0,0.5,0,0.7l-0.8,0
					c0-0.2,0-0.4,0-0.7L254.5,127.8z"/>
				<path fill-rule="evenodd" clip-rule="evenodd" fill="#FFFFFF" d="M254.1,126.2l-0.2-0.6l0.7-0.4l0.3,0.7
					c0.1,0.2,0.2,0.4,0.2,0.7l-0.8,0.2C254.3,126.6,254.2,126.4,254.1,126.2z"/>
				<path fill-rule="evenodd" clip-rule="evenodd" fill="#FFFFFF" d="M252.5,137.2c-0.3,0.4-0.5,0.8-0.8,1.1l-0.7-0.5
					c0.3-0.4,0.5-0.7,0.7-1.1L252.5,137.2z"/>
				<polygon fill-rule="evenodd" clip-rule="evenodd" fill="#FFFFFF" points="253.8,135 253.1,136.2 252.4,135.8 253,134.7 				"/>
				<polygon fill-rule="evenodd" clip-rule="evenodd" fill="#FFFFFF" points="253.9,132.5 254.7,132.7 254.5,133.4 254.2,134 
					253.5,133.7 253.7,133.1 				"/>
				<polygon fill-rule="evenodd" clip-rule="evenodd" fill="#FFFFFF" points="247.9,142.9 246.9,143.9 246.3,143.3 247.3,142.3 				
					"/>
				<polygon fill-rule="evenodd" clip-rule="evenodd" fill="#FFFFFF" points="249.6,141.1 248.6,142.1 248,141.6 248.9,140.6 				
					"/>
				<path fill-rule="evenodd" clip-rule="evenodd" fill="#FFFFFF" d="M251.1,139.2c-0.3,0.4-0.6,0.7-0.9,1.1l-0.6-0.5
					c0.3-0.4,0.6-0.7,0.8-1L251.1,139.2z"/>
				<polygon fill-rule="evenodd" clip-rule="evenodd" fill="#FFFFFF" points="241.9,147.2 242.4,147.8 241.3,148.7 240.8,148.1 				
					"/>
				<path fill-rule="evenodd" clip-rule="evenodd" fill="#FFFFFF" d="M244.3,146.3c-0.3,0.3-0.7,0.6-1,0.9l-0.5-0.6
					c0.3-0.3,0.7-0.6,1-0.9L244.3,146.3z"/>
				<path fill-rule="evenodd" clip-rule="evenodd" fill="#FFFFFF" d="M246.1,144.6c-0.3,0.3-0.7,0.6-1,0.9l-0.5-0.6
					c0.3-0.3,0.7-0.6,1-0.9L246.1,144.6z"/>
				<polygon fill-rule="evenodd" clip-rule="evenodd" fill="#FFFFFF" points="236.1,151.6 236.5,152.2 235.4,153 234.9,152.3 				
					"/>
				<polygon fill-rule="evenodd" clip-rule="evenodd" fill="#FFFFFF" points="238,150.2 238.5,150.8 237.4,151.6 236.9,150.9 				
					"/>
				<polygon fill-rule="evenodd" clip-rule="evenodd" fill="#FFFFFF" points="240,148.7 240.5,149.4 239.4,150.2 238.9,149.5 				
					"/>
				<polygon fill-rule="evenodd" clip-rule="evenodd" fill="#FFFFFF" points="229.9,155.5 230.4,156.2 229.2,156.9 228.8,156.2 				
					"/>
				<polygon fill-rule="evenodd" clip-rule="evenodd" fill="#FFFFFF" points="232,154.2 232.4,154.9 231.3,155.6 230.9,155 				"/>
				<polygon fill-rule="evenodd" clip-rule="evenodd" fill="#FFFFFF" points="234,152.9 234.5,153.6 233.3,154.3 232.9,153.7 				
					"/>
				<polygon fill-rule="evenodd" clip-rule="evenodd" fill="#FFFFFF" points="223.6,159.2 224,159.9 222.8,160.5 222.4,159.8 				
					"/>
				<polygon fill-rule="evenodd" clip-rule="evenodd" fill="#FFFFFF" points="225.8,158 226.2,158.7 225,159.4 224.6,158.6 				"/>
				<polygon fill-rule="evenodd" clip-rule="evenodd" fill="#FFFFFF" points="227.9,156.8 228.3,157.5 227.1,158.2 226.7,157.5 				
					"/>
				<polygon fill-rule="evenodd" clip-rule="evenodd" fill="#FFFFFF" points="216,163.1 217.2,162.5 217.5,163.2 216.3,163.8 				
					"/>
				<polygon fill-rule="evenodd" clip-rule="evenodd" fill="#FFFFFF" points="219.3,161.4 219.7,162.2 218.5,162.8 218.1,162 				
					"/>
				<polygon fill-rule="evenodd" clip-rule="evenodd" fill="#FFFFFF" points="221.5,160.3 221.9,161 220.7,161.7 220.3,160.9 				
					"/>
			</g>
		</g>
		<g>
			<polygon fill="#FECE00" points="53,172.7 52.2,171 51.4,172.7 49.5,172.9 50.9,174.2 50.6,176.1 52.2,175.2 53.8,176.1 
				53.5,174.2 54.9,172.9 			"/>
			<polygon fill="#FECE00" points="59.2,172.7 58.4,171 57.5,172.7 55.7,172.9 57,174.2 56.7,176.1 58.4,175.2 60,176.1 59.7,174.2 
				61,172.9 			"/>
			<polygon fill="#FECE00" points="65.3,172.7 64.5,171 63.7,172.7 61.8,172.9 63.2,174.2 62.9,176.1 64.5,175.2 66.1,176.1 
				65.8,174.2 67.2,172.9 			"/>
			<polygon fill="#FECE00" points="71.5,172.7 70.7,171 69.8,172.7 68,172.9 69.3,174.2 69,176.1 70.7,175.2 72.3,176.1 72,174.2 
				73.3,172.9 			"/>
			<path fill="#FECE00" d="M76.8,172.2l0.4,0.7l0.1,0.2l0.3,0l0.8,0.1l-0.6,0.6l-0.2,0.2l0,0.3l0.1,0.8l-0.7-0.4l-0.2-0.1l-0.2,0.1
				l-0.7,0.4l0.1-0.8l0-0.3l-0.2-0.2l-0.6-0.6l0.8-0.1l0.3,0l0.1-0.2L76.8,172.2 M76.8,171l-0.8,1.7l-1.8,0.3l1.3,1.3l-0.3,1.8
				l1.6-0.9l1.6,0.9l-0.3-1.8l1.3-1.3l-1.8-0.3L76.8,171L76.8,171z"/>
		</g>
		<g>
			<polygon fill="#8888BA" points="216,150.9 206.4,157.1 216,163.7 225.6,157.1 			"/>
			<rect x="209.6" y="153" fill="#FFD648" width="12.2" height="12.2"/>
			<polygon points="231.4,158.6 231.4,158.6 231.4,158.6 			"/>
			<polygon points="205.5,158.6 205.5,158.6 205.5,158.6 			"/>
			<path fill="#8888BA" d="M216,164.9l-10.5-7.2V170c0,0.8,0.7,1.5,1.5,1.5h17.9c0.8,0,1.5-0.7,1.5-1.5v-12.3L216,164.9z"/>
		</g>
		<path fill="#FBB03B" d="M124.2,126.1c3.8-2.8,4.6-8.2,1.7-12c-2.8-3.8-8.2-4.6-12-1.7c-3.4,2.5-4.4,7-2.5,10.7l-12.6,9.4l1.9,2.5
			l12.6-9.4C116.3,128.3,120.9,128.7,124.2,126.1z M113.4,123.6c-2.4-3.2-1.7-7.7,1.4-10c3.2-2.4,7.7-1.7,10,1.4
			c2.4,3.2,1.7,7.7-1.4,10C120.2,127.4,115.7,126.7,113.4,123.6z"/>
		<g>
			<polygon fill="#FFFFFF" points="76,136.2 79.8,138.3 76,140.4 74,144.1 71.9,140.4 68.1,138.3 71.9,136.2 74,132.4 			"/>
			<polygon fill="#FFFFFF" points="85.2,142.9 87.4,144.1 85.2,145.3 84,147.5 82.8,145.3 80.6,144.1 82.8,142.9 84,140.7 			"/>
		</g>
		<path fill="#404857" d="M161,129.2H159c-0.5,0-0.9-0.3-1-0.7c-0.1-0.4-0.3-0.8-0.5-1.2c-0.2-0.4-0.1-0.9,0.2-1.2l1.4-1.4
			c0.4-0.4,0.4-1.1,0-1.5l-0.8-0.8c-0.4-0.4-1.1-0.4-1.5,0l-1.4,1.4c-0.3,0.3-0.8,0.4-1.2,0.2c-0.4-0.2-0.8-0.4-1.2-0.5
			c-0.4-0.1-0.7-0.5-0.7-1v-2c0-0.6-0.5-1.1-1.1-1.1H150c-0.6,0-1.1,0.5-1.1,1.1v2c0,0.5-0.3,0.9-0.7,1c-0.4,0.1-0.8,0.3-1.2,0.5
			c-0.4,0.2-0.9,0.1-1.2-0.2l-1.4-1.4c-0.4-0.4-1.1-0.4-1.5,0l-0.8,0.8c-0.4,0.4-0.4,1.1,0,1.5l1.4,1.4c0.3,0.3,0.4,0.8,0.2,1.2
			c-0.2,0.4-0.4,0.8-0.5,1.2c-0.1,0.4-0.5,0.7-1,0.7h-2c-0.6,0-1.1,0.5-1.1,1.1v1.2c0,0.6,0.5,1.1,1.1,1.1h2c0.5,0,0.9,0.3,1,0.7
			c0.1,0.4,0.3,0.8,0.5,1.2c0.2,0.4,0.1,0.9-0.2,1.2l-1.4,1.4c-0.4,0.4-0.4,1.1,0,1.5l0.8,0.8c0.4,0.4,1.1,0.4,1.5,0l1.4-1.4
			c0.3-0.3,0.8-0.4,1.2-0.2c0.4,0.2,0.8,0.4,1.2,0.5c0.4,0.1,0.7,0.5,0.7,1v1.9c0,0.6,0.5,1.1,1.1,1.1h1.2c0.6,0,1.1-0.5,1.1-1.1
			v-1.9c0-0.5,0.3-0.9,0.7-1c0.4-0.1,0.8-0.3,1.2-0.5c0.4-0.2,0.9-0.1,1.2,0.2l1.4,1.4c0.4,0.4,1.1,0.4,1.5,0l0.8-0.8
			c0.4-0.4,0.4-1.1,0-1.5l-1.4-1.4c-0.3-0.3-0.4-0.8-0.2-1.2c0.2-0.4,0.4-0.8,0.5-1.2c0.1-0.4,0.5-0.7,1-0.7h1.9
			c0.6,0,1.1-0.5,1.1-1.1v-1.2C162,129.7,161.5,129.2,161,129.2z M154.5,131.6c-0.3,1.6-1.6,2.9-3.2,3.2c-2.9,0.5-5.3-1.9-4.8-4.8
			c0.3-1.6,1.6-2.9,3.2-3.2C152.6,126.3,155.1,128.8,154.5,131.6z"/>
		<g>
			<g>
				<path fill="#FBB03B" d="M267.4,216.2c0.9,1.7,2.9,0.5,2.9,0.5s-0.1-0.6-1-1c-0.7-0.3-1.6-0.1-2,0.1l-1.1,0l0,0
					c-0.2,0-0.5,0-0.7,0.1c3.1-1.1,1.7-4.8,1.7-4.8s-1,0-2,1.4c-0.8,1.1-0.5,3-0.4,3.5c-1.2,0.2-2.4,0.5-3.6,0.9
					c0.1-0.1,0.3-0.3,0.5-0.5c1.2-1.4,0.7-4.1,0.7-4.1c-4.3,0.5-3.4,4.6-3.2,5.5c-1.4,0.7-2.7,1.5-3.9,2.3c0.3-0.4,0.6-1,0.8-1.9
					c0.5-2-1.3-4.5-1.3-4.5c-4.2,2.6-1.2,6.4-0.6,7.1c-0.7,0.6-1.4,1.2-2.1,1.7c-0.7,0.6-1.3,1.2-1.9,1.8c0.2-0.6,0.4-1.4,0.2-2.7
					c-0.3-2.3-3.2-4-3.2-4c-3,4.3,1.3,6.9,2.3,7.4c-1.9,2.1-3.1,3.7-3.1,3.8l0.4,0.3c0,0,0.7-1.1,2-2.6c1.6,5.1,7.2,2.5,7.2,2.5
					s-0.1-1.4-2.2-2.8c-1.3-0.9-3.3-0.7-4.4-0.4c0.8-0.9,1.8-1.9,2.9-2.9c0.4-0.3,0.7-0.7,1.2-1c1.4,4.8,6.6,2.4,6.6,2.4
					s-0.1-1.3-2-2.5c-1.2-0.8-2.9-0.6-3.9-0.4c1.2-0.9,2.5-1.9,4-2.7c0.9,4.6,5.7,2.7,5.7,2.7s0-1.1-1.6-2.4c-1-0.8-2.7-0.7-3.6-0.6
					c1.6-0.8,3.4-1.5,5.2-1.8c-0.1,4.1,4.4,3.3,4.4,3.3s0.2-1-1-2.3c-0.9-1-2.7-1.1-3.3-1.1c0.7-0.1,1.3-0.2,2-0.2L267.4,216.2z"/>
				<g>
					<g>
						<path fill="#FF8C5A" d="M231.2,240.8c0,0-9.3-21-2.6-40.5s23-25.2,23-25.2s-9.6,11.2-4,28.6c5.3,16.5-4.8,37.1-4.8,37.1H231.2
							z"/>
						<path fill="#8888BA" d="M234.5,240.8c0,0-2.4-42.7,7.7-53.9c-9.2,14.1-5.3,53.9-5.3,53.9H234.5z"/>
					</g>
					<path fill="#8888BA" d="M250.4,240.8h-9.9c0.4-1.8,1.8-7,5.4-11c4.3-4.8,9.8-4.4,9.8-4.4s-3,3.3-3.4,9.1
						C252.1,236.8,251.3,239,250.4,240.8z"/>
					<path fill="#FBB03B" d="M227.5,217.6c7.2,9.4,8.9,21.7,9,23.2h-14.1c-3.6-3.3-7.9-8.6-8-15c-0.1-11.4-5.4-18.2-5.4-18.2
						S219.8,207.5,227.5,217.6z"/>
					<path fill="#5A5BAE" d="M243.7,240.8H243c1.4-3.2,5-10.8,8.4-12.4C248.1,230.6,245,237.5,243.7,240.8z"/>
					<path fill="#FFD648" d="M232,240.8h-1.5c-1.7-5.7-6.9-21.4-13.6-26.6C223.9,217.9,230.2,235.4,232,240.8z"/>
				</g>
			</g>
			<rect x="214.3" y="240.8" fill="#FBB03B" width="41.9" height="1.7"/>
		</g>
		<g>
			<polygon fill="#FFFFFF" points="198.6,144.7 194.8,146.7 198.6,148.8 200.6,152.6 202.7,148.8 206.5,146.7 202.7,144.7 
				200.6,140.9 			"/>
			<polygon fill="#FFFFFF" points="189.4,151.4 187.2,152.6 189.4,153.8 190.6,156 191.8,153.8 194,152.6 191.8,151.4 190.6,149.2 
							"/>
		</g>
		<g>
			<g>
				<path fill="#FFD648" d="M49.8,211.5c-0.6-0.8-1.4-1.6-1.8-2.5c-0.6-1.3-0.4-2.9,0.1-4.2s1.1-2.7,1.4-4.1c0.9-3.4,0-7.3-2.4-9.9
					c-0.5-0.6-1.1-1.1-1.6-1.8c-1-1.5-1-3.5-0.8-5.3c0.3-1.8,0.8-3.6,0.7-5.4c-0.1-2.2-1.2-4.3-2.9-5.7c-1.7-1.4-3.9-1.9-6.1-1.9
					c0,0,0,0,0,0c0,0,0,0-0.1,0c0,0,0,0-0.1,0c0,0,0,0,0,0c-2.2,0-4.4,0.5-6.1,1.8c-1.7,1.4-2.8,3.5-3,5.7c-0.1,1.8,0.4,3.6,0.6,5.4
					c0.2,1.8,0.2,3.8-0.8,5.3c-0.4,0.6-1,1.2-1.6,1.7c-2.4,2.6-3.4,6.4-2.5,9.9c0.4,1.4,1,2.7,1.4,4.1c0.4,1.4,0.6,2.9,0,4.2
					c-0.4,0.9-1.2,1.7-1.8,2.5c-2.4,3-3.4,7.4-1.4,10.6c0.8,1.3,2.1,2.2,3.4,3.1c2,1.3,4.2,2.3,6.5,2.8c1,0.2,2.1,0.4,3.1,0.2
					c0.7-0.2,1.2-0.1,1.9-0.1c0.7,0,1.2-0.1,1.9,0.1c1,0.3,2.1,0.1,3.1-0.1c2.3-0.5,4.5-1.5,6.5-2.7c1.3-0.8,2.5-1.8,3.4-3
					C53.2,218.9,52.2,214.5,49.8,211.5z"/>
				<path fill="#FBB03B" d="M47.2,208.4l-10,10.7L36.8,198c1.5-2,7.5-10,7.5-10l-7.5,8.1l-0.2-12.8c0.7-0.9,5.4-7.2,5.4-7.2
					l-5.4,5.8l-0.2-9l-0.2,11.5l-5.2-5.7c0,0,4.2,5.7,5.2,7.1l-0.2,13l-7.4-8.2c0,0,6,8.1,7.4,10.1l-0.3,21.3L25.5,211
					c0,0,9.1,12.4,10.1,13.8l0,3.1l1.8,0l-0.1-6.3C39.2,219,47.2,208.4,47.2,208.4z"/>
			</g>
			<rect x="35.6" y="227.9" fill="#97BBD3" width="1.8" height="3.4"/>
			<polygon fill="#8888BA" points="28.5,231.4 44.4,231.4 41.4,243.9 31.5,243.9 			"/>
			<rect x="28.5" y="230.4" fill="#9B9AD3" width="15.9" height="1"/>
		</g>
		<g>
			<path fill="#404857" d="M148.3,157.1c-1.2-3.5-3.2-6.6-5.8-9.3c-2.6-2.7-6-4.9-10.2-6.5c-4.1-1.6-9.1-2.4-14.9-2.4
				c-2.6,0-5,0.2-7.4,0.6c-2.4,0.4-4.5,0.9-6.4,1.4c-1.9,0.6-3.6,1.2-5,1.8c-1.4,0.7-2.3,1.2-2.8,1.7c-0.5,0.5-0.8,1.1-1,1.9
				c-0.1,0.8-0.2,2-0.2,3.8c0,1.7,0.1,3.1,0.2,4.1c0.1,1.1,0.3,1.9,0.5,2.5c0.2,0.6,0.4,1,0.7,1.2c0.3,0.2,0.6,0.3,1,0.3
				c0.5,0,1.2-0.2,2.1-0.7c0.9-0.5,2.1-1,3.4-1.6c1.4-0.6,3-1.1,5-1.6c1.9-0.5,4.1-0.7,6.7-0.7c2.8,0,5.2,0.4,7.2,1.1
				c2,0.8,3.7,1.9,5.1,3.3c1.4,1.4,2.4,3.1,3,5.1c0.7,2,1,4.1,1,6.5c0,2.1-0.3,4.1-0.9,6c-0.6,1.9-1.5,3.5-2.7,4.9
				c-1.2,1.4-2.8,2.5-4.7,3.3c-1.9,0.8-4.2,1.3-6.8,1.3h-1c-1.1,0-2,0.1-2.8,0.3c-0.8,0.2-1.4,0.6-2,1.2s-0.9,1.4-1.1,2.4
				c-0.2,1-0.3,2.3-0.2,3.8l0.7,17.5c0,0.5,0.2,1,0.5,1.3c0.3,0.3,0.8,0.6,1.4,0.8c0.6,0.2,1.5,0.3,2.6,0.4c1.1,0.1,2.5,0.1,4.1,0.1
				c2.6,0,4.5-0.2,5.9-0.7c1.4-0.4,2.1-1.1,2.1-2l0.6-14.4c3.5-0.4,6.8-1.3,9.7-2.7c2.9-1.4,5.4-3.3,7.5-5.7
				c2.1-2.4,3.7-5.2,4.9-8.4c1.2-3.3,1.7-6.9,1.7-10.9C150.2,164.3,149.6,160.6,148.3,157.1z"/>
			<path fill="#404857" d="M126.1,223c-0.8-0.9-1.9-1.5-3.3-1.8c-1.4-0.4-3-0.6-5-0.6c-2.1,0-3.8,0.2-5.1,0.6
				c-1.3,0.4-2.4,1-3.2,1.8c-0.8,0.9-1.4,2-1.7,3.4c-0.3,1.4-0.5,3.1-0.5,5.2c0,2,0.2,3.7,0.5,5.1c0.3,1.4,0.9,2.5,1.7,3.3
				c0.8,0.8,1.9,1.4,3.2,1.8c1.3,0.4,3,0.6,5.1,0.6c2,0,3.6-0.2,5-0.6c1.4-0.4,2.4-1,3.3-1.8c0.8-0.8,1.4-1.9,1.7-3.3
				c0.3-1.4,0.5-3.1,0.5-5.1c0-2.1-0.2-3.8-0.5-5.2C127.5,225,126.9,223.8,126.1,223z"/>
		</g>
		<g>
			<path fill="#404857" d="M180.4,228.8c-0.3-1.4-0.9-2.5-1.7-3.4c-0.8-0.9-1.9-1.5-3.2-1.8c-1.3-0.4-3-0.6-5-0.6
				c-2,0-3.7,0.2-5.1,0.6c-1.4,0.4-2.4,1-3.2,1.8c-0.8,0.9-1.3,2-1.7,3.4c-0.3,1.4-0.5,3.1-0.5,5.2c0,2,0.2,3.7,0.5,5.1
				c0.3,1.4,0.9,2.5,1.7,3.3c0.8,0.8,1.9,1.4,3.2,1.8c1.4,0.4,3,0.6,5.1,0.6c2,0,3.7-0.2,5-0.6c1.3-0.4,2.4-1,3.2-1.8
				c0.8-0.8,1.4-1.9,1.7-3.3c0.3-1.4,0.5-3.1,0.5-5.1C180.9,232,180.7,230.2,180.4,228.8z"/>
			<path fill="#404857" d="M162.8,213.7c0.2,0.4,0.7,0.7,1.3,1c0.6,0.3,1.4,0.5,2.5,0.6c1,0.1,2.3,0.2,3.9,0.2
				c1.5,0,2.8-0.1,3.9-0.2c1.1-0.1,1.9-0.4,2.5-0.6c0.6-0.3,1-0.6,1.3-1c0.2-0.4,0.4-0.8,0.4-1.3l1.9-67.2c0-0.6-0.2-1.2-0.5-1.7
				c-0.3-0.5-0.9-0.9-1.6-1.2c-0.8-0.3-1.8-0.6-3.1-0.7c-1.3-0.2-2.9-0.3-4.9-0.3c-2,0-3.6,0.1-4.9,0.2c-1.3,0.1-2.3,0.4-3.1,0.7
				c-0.8,0.3-1.3,0.7-1.6,1.2c-0.3,0.5-0.4,1.1-0.4,1.7l1.9,67.2C162.4,212.9,162.5,213.3,162.8,213.7z"/>
		</g>
		<g>
			<path fill="#9B9AD3" d="M136.5,246.4c0,0-0.1,0.8,0.2,0.9c0.3,0.1,2.2,0.5,3.5,0c0.1-0.1,0.2-0.1,0.3-0.1
				c0.2-0.1,0.3-0.4,0.3-0.7l-0.2-0.6l-2.5-0.1L136.5,246.4z"/>
			<polygon fill="#F27677" points="137.2,242.3 137.2,243.2 139.3,242.9 139,241.9 			"/>
			<polygon fill="#F27677" points="128.3,239.6 128.8,238.5 131.2,239.9 130.5,240.8 			"/>
			<path fill="#9B9AD3" d="M129.8,242.9c0,0-0.6,2.5-1.7,3.3c-1.1,0.9-3.7,0.2-3.9-0.5c-0.2-0.7,0.4-1.9,0.4-1.9L129.8,242.9z"/>
			<path fill="#F27677" d="M144.5,195.2c0,0,6.2-9.7,6-10.6c-0.1-0.8-3.6-1.9-3.6-1.9l-2.9-1l0.7,3.9l1.9,0c0,0-2.8,7.2-3.1,8.3
				c-0.3,1.1,0.2,3,0.4,3.6c0.2,0.6,0.8,0.2,0.6-0.5S144.5,195.2,144.5,195.2z"/>
			<g>
				
					<rect x="132.4" y="177.2" transform="matrix(0.9967 -8.084794e-002 8.084794e-002 0.9967 -14.0191 11.4184)" fill="#F27677" width="3.3" height="3.3"/>
				<g>
					<path fill="#F27677" d="M129.6,173C129.6,173,129.5,173,129.6,173c-0.1,0-0.2,0.1-0.2,0.1c-0.1,0.3-0.1,0.5,0,0.8
						c0.1,0.3,0.2,0.5,0.4,0.7c0.2,0.3,0.4,0.6,0.7,0.6c0,0,0.1,0,0.1,0c0,0,0,0,0-0.1c0.1-0.3,0-0.6-0.2-0.8
						C130.3,173.8,130.2,173,129.6,173z"/>
					<path fill="#F27677" d="M137.7,172.8c0,0.3-0.1,0.6-0.3,0.9c-0.1,0.1-0.1,0.3-0.1,0.5c0,0.2-0.1,0.4-0.2,0.5
						c-0.1,0.2-0.3,0.3-0.5,0.2c-0.1-0.1-0.2-0.3-0.2-0.4c-0.1-0.6,0-1.1,0.3-1.6C137.1,172.6,137.7,172.1,137.7,172.8z"/>
					<path fill="#F27677" d="M130.4,172.7c0,0.4,0.1,0.8,0.1,1.2c0.1,0.4,0.2,0.8,0.4,1.2c0.2,0.4,0.5,0.8,0.9,1.1
						c0.3,0.3,0.7,0.6,1.1,0.6c0.4,0,0.9-0.2,1.3-0.2c0.3,0,0.6,0.2,0.9,0.1c0.4-0.1,0.6-0.5,0.8-0.8c0.2-0.2,0.5-0.4,0.6-0.7
						c0.1-0.2,0.2-0.4,0.2-0.7c0.1-0.3,0.1-0.6,0.2-0.9c0.1-0.9-0.2-1.9-0.3-2.8c-0.2-0.2-0.5-0.4-0.8-0.5c-0.3-0.1-0.7-0.2-1-0.2
						c-0.3,0-0.5,0.2-0.7,0.4c0,0,0,0-0.1,0c-0.7,0-1.4,0.1-2.1,0.3c-0.5,0.1-1.1,0.3-1.5,0.6c-0.1,0.1-0.1,0.1-0.2,0.2
						C130.4,171.8,130.4,172.5,130.4,172.7z"/>
					<path d="M137,172.2c0-0.4,0.4-1-0.4-1.2c-0.1,0-0.1-0.1-0.1-0.1c0.1,0.9,0.4,1.9,0.3,2.8c0,0.3-0.1,0.6-0.2,0.9
						c-0.1,0.2-0.1,0.5-0.2,0.7c-0.2,0.3-0.4,0.5-0.6,0.7c-0.2,0.3-0.4,0.7-0.8,0.8c-0.3,0.1-0.6-0.1-0.9-0.1
						c-0.4,0-0.9,0.2-1.3,0.2c-0.4,0-0.8-0.3-1.1-0.6c-0.3-0.3-0.7-0.7-0.9-1.1c-0.2-0.4-0.3-0.8-0.4-1.2c-0.1-0.4-0.1-0.8-0.1-1.2
						c0-0.1,0-0.6,0-0.8c0,0,0,0,0,0c0-0.1,0-0.1,0-0.2c0-0.1,0-0.1,0-0.2c0-0.1-0.1-0.1-0.1-0.1c-0.1,0-0.1,0-0.2,0
						c-0.1,0-0.1,0.1-0.1,0.1c-0.1,0.1-0.1,0.1-0.1,0.2c0,0,0,0.1,0,0.1c0,0,0,0.1,0,0.1c0,0.2,0,0.4,0,0.6c0,0.1,0,0.2,0,0.2
						c0,0,0,0,0,0c0,0.1,0,0.1,0,0.2c0,0.7,0.3,1.3,0.5,1.9c0.3,0.5,0.6,1.1,1,1.5c0.4,0.5,0.8,0.9,1.3,1.1c0.5,0.3,1.1,0.4,1.7,0.2
						c0.6-0.2,1-0.6,1.4-1c0.6-0.6,1.1-1.2,1.4-2c0.1-0.6,0.1-1.2,0.1-1.7C137.2,172.8,137.2,172.5,137,172.2z"/>
					<path d="M130.2,169.5c0.4-0.7,1.1-1.2,1.8-1.4c0.3-0.1,0.6-0.1,0.9-0.2c1-0.1,2.1-0.3,3-0.8c0.5-0.3,0.9-0.7,1.4-1.1
						c0.1,0,0.1-0.1,0.2-0.1c0.1,0,0.3,0.1,0.3,0.3c0.3,0.6,0.3,1.2,0.2,1.8c-0.1,0.6-0.4,1.2-0.6,1.8c-0.2,0.4-0.4,0.7-0.3,1.1
						c0,0.2,0.1,0.4,0,0.5c-0.1,0.2-0.4,0-0.6-0.1c-0.2-0.2-0.4-0.4-0.7-0.4c-0.3,0-0.6,0.1-0.9,0.2c-0.9,0.3-1.9,0.1-2.7,0.4
						c-0.3,0.1-0.6,0.4-0.9,0.6c-0.3,0.2-0.6,0.3-1,0.3c-0.7,0-0.7-0.5-0.7-1.1C129.7,170.6,129.8,170,130.2,169.5z"/>
				</g>
			</g>
			<polygon fill="#393768" points="129.3,203.6 136.5,242.4 139.9,242 137,204.5 			"/>
			<path fill="#393768" d="M129.3,203.6h14.5c0,0-3.9,18-4.9,21.7c-1,3.7-7.7,15.5-7.7,15.5l-3.7-1.8c0,0,5.9-13.8,5.8-16.2
				c-0.1-2.4,1.1-14.7,1.1-14.7v-3.3L129.3,203.6z"/>
			<path fill="#FFD648" d="M145.2,185.8l-0.1-3.9l-9.2-3.8c0,0,0.2,0.8-0.8,1.7c-1.7,1.7-3.3-1.4-3.3-1.4l-2.8,1.6
				c0,0-2.2,1.2-2.8,2c-0.5,0.8-3,5.6-3,5.6l4.1,0.3l1.2-2.9l0,0.2l0.6,19.4l15.5-0.8l-2.6-18L145.2,185.8z"/>
			<path fill="#393768" d="M130.5,240.8c0,0-0.9,3.4-2,4.3c-1.1,1-4.4,0.2-4.1-1c0.4-1.2,2.7-2.7,3.4-4c0.1-0.3,0.2-0.7,0.2-0.7
				L130.5,240.8z"/>
			<path fill="#393768" d="M137.2,243.2c0,0-1,3-0.7,3.3c0.3,0.3,2.2,0.6,3.2,0.2c1.1-0.4,0.9-0.8,0.9-0.8l-1.3-3.1L137.2,243.2z"/>
			<path fill="#F27677" d="M123.7,187.6c0,0-1.2,4.5-0.9,5.2c0.4,0.7,8.7,1.9,9,2.4c0.3,0.4,1,0.7,1.3,0.8c0.3,0.1,1.4,1,1.8,0.6
				c0.3-0.4-0.7-1.1-0.7-1.3c0-0.2,0.4,0.5,0.5-0.1c0.1-0.5-1.5-0.7-1.8-0.9c-0.3-0.2-7.2-3-7.2-3l1.2-3.5L123.7,187.6z"/>
		</g>
		<g>
			<path fill="#FDCF9B" d="M181.4,188.1l-1-0.1c0,0,0.2-2.2-0.2-2.4c-0.4-0.3-0.7-0.3-0.7,0c0,0.5-0.1,2-0.1,2.8c0,0.8,0,1.7,0,1.7
				s0.2,0.2,0.6,0c0.5-0.2,1.6,0,1.6,0L181.4,188.1z"/>
			<path fill="#8888BA" d="M201.9,182.2c1.4-0.4,2.9,1.1,2.8,2.8c0,1-0.5,2-1.9,2.4c-2.1,0.6-9.5,2.5-9.5,2.5l-11.7,0.7L181,188
				l11.5-1.7L201.9,182.2C201.9,182.2,201.9,182.2,201.9,182.2z"/>
			<path fill="#393768" d="M215.9,202.5c0.1,0.3,5.4,19.8,5.4,19.8l14.1,12.5l-2.5,2.3l-15.4-10.8l-9.2-17.6L215.9,202.5z"/>
			<path fill="#FDCF9B" d="M181.7,180.6l-1-0.1c0,0,0.2-2.2-0.2-2.4c-0.4-0.3-0.7-0.3-0.7,0c0,0.5-0.1,2-0.1,2.8c0,0.8,0,1.7,0,1.7
				s0.2,0.2,0.6,0c0.5-0.2,1.6,0,1.6,0L181.7,180.6z"/>
			<g>
				<polygon fill="#FDCF9B" points="197.9,178.5 199.4,178.9 201.1,177.5 200.4,175.8 198,178.5 				"/>
				<path fill="#1A1A1A" d="M192.6,172.5c-0.2-0.2-0.5-0.3-0.8-0.4c-0.6-0.3-1.2-0.8-1.5-1.4c-0.1-0.1-0.1-0.4,0-0.4
					c0,0,0.1,0,0.1,0c0.6,0.2,1.2-0.1,1.6-0.5c0.4-0.4,0.9-0.5,1.3-0.9c0.9-1.1,2.2-1.5,3.6-1.5c0.8,0,1.3-0.1,2,0.2
					c1.1,0.5,1.8,0.9,2.3,2.1c0.1,0.3,0.2,0.7,0.2,1.1c0.1,0.7,0.2,1.3,0.2,2c0.1,0.6,0.1,1.2,0,1.8c-0.1,0.5,0.3,0.7,0.1,1.2
					c-0.1,0.3-0.3,0.6-0.5,0.8c-0.4,0.3-1,0.3-1.5,0.3c-0.8-0.1-1.6-0.2-2.2-0.6c-0.7-0.5-1.1-1.4-1.7-2c-0.5-0.5-1.1,0-1.7-0.3
					c-0.2-0.1-0.3-0.5-0.5-0.4c-0.3,0.1-0.4-0.2-0.6-0.3C192.9,173,192.7,172.6,192.6,172.5z"/>
				<path fill="#FDCF9B" d="M199.6,176.3c-0.1-0.2-0.3-0.4-0.4-0.7c-0.3-0.4-0.5-1-0.6-1.5c-0.1-0.4-0.1-0.8-0.1-1.2
					c-0.1-0.4-0.2-0.8-0.5-1c-0.3-0.2-0.8-0.3-1.1,0c-0.3,0.3-0.3,0.8-0.1,1.2c0.2,0.4,0.4,0.7,0.5,1.1c-0.5-0.4-0.9-0.9-1.4-1.4
					c0,0,0,0,0,0c0,0,0,0,0,0c-0.1,0.1-0.2,0.2-0.3,0.3c0,0,0,0,0,0c-0.2,0.1-0.4,0.3-0.5,0.3c-0.4,0.1-1.3-0.3-1.6-0.3
					c-0.1,0-0.2,0-0.2,0.1c0,0.2-0.1,0.4,0,0.7c0.1,0.3,0.4,0.7,0.7,1.1c0.2,0.6,0.4,1.2,0.6,1.9c0,0.1,0.1,0.3,0.2,0.4
					c0.2,0.2,0.5,0.2,0.7,0.2c0.7,0.3,1,1.4,1.8,1.5c0.6,0.1,1-0.4,1.4-0.8c0.4-0.4,0.8-0.9,1.2-1.3
					C199.8,176.6,199.7,176.5,199.6,176.3z"/>
			</g>
			<path fill="#FDCF9B" d="M214.3,239.4l1,1.3c0.1-0.1,1.7-1.4,1.7-1.4l-1-1.3L214.3,239.4z"/>
			<g>
				<path fill="#393768" d="M214.6,240.5c0,0-2.3,4.9-2.4,5c0,0-0.2,0.2-0.3,0.4c-0.3,0.3-0.3,0.8,0,1.1c0.1,0.1,0.2,0.2,0.2,0.2
					c0.1,0,7.3-5.7,7.3-5.7s-1.7-2.5-2.1-2.3C216.8,239.4,215.7,240.7,214.6,240.5z"/>
				<g>
					<polygon fill="#FFFFFF" points="213.3,243.3 214.1,243.6 214,243.9 213.2,243.6 					"/>
					<polygon fill="#FFFFFF" points="213.1,243.8 213.8,244.2 213.7,244.5 212.9,244.1 					"/>
					<polygon fill="#FFFFFF" points="212.8,244.3 213.6,244.7 213.4,245 212.7,244.7 					"/>
				</g>
			</g>
			<path fill="#FDCF9B" d="M233.1,236.6l1,1.3c0.1-0.1,1.7-1.4,1.7-1.4l-1-1.3L233.1,236.6z"/>
			<g>
				<path fill="#393768" d="M233.5,237.7c0,0-2.3,4.9-2.4,5c0,0-0.2,0.2-0.3,0.4c-0.3,0.3-0.3,0.8,0,1.1c0.1,0.1,0.2,0.2,0.2,0.2
					c0.1,0,7.3-5.7,7.3-5.7s-1.7-2.5-2.1-2.3C235.7,236.6,234.6,237.9,233.5,237.7z"/>
				<g>
					<polygon fill="#FFFFFF" points="232.2,240.5 233,240.8 232.8,241.1 232,240.8 					"/>
					<polygon fill="#FFFFFF" points="231.9,241 232.7,241.4 232.6,241.7 231.8,241.3 					"/>
					<polygon fill="#FFFFFF" points="231.7,241.5 232.4,241.9 232.3,242.2 231.5,241.8 					"/>
				</g>
			</g>
			<path fill="#393768" d="M215.6,201.2c0,0,2.5,4.5-1,7.7c-3.5,3.2-10.8,13.9-10.8,13.9l13.4,15.1l-3.4,2L196.7,224l8.2-20
				L215.6,201.2z"/>
			<path fill="#8888BA" d="M206.6,180.9c-2-2.9-3.9-3.6-5.5-3.9c0,0-0.8,1.2-1.9,2c-0.4,0.3-0.7,0.4-0.9,0.5
				c-0.4,1.7-0.6,3.6-0.4,4.7c0.3,2.2,6.7,20,6.7,20l11.7-3.1C216.3,201.2,209.2,184.7,206.6,180.9z"/>
			<path fill="#8888BA" d="M203.4,179.9c1.5-0.1,2.5,1.7,2,3.4c-0.3,0.9-0.9,1.9-2.4,1.9c-2.2,0-9.9,0.1-9.9,0.1l-11.5-2.1v-2.6
				l11.6,1.1L203.4,179.9C203.4,179.9,203.4,179.9,203.4,179.9z"/>
		</g>
		<g>
			<path fill="#5A595C" d="M83.2,167.9c-0.3-0.8-0.3-1.8,0.1-2.6c0.4-0.8,1.3-1.3,2.2-1.3c0.2,0,0.4,0,0.6,0.1
				c0.1,0.1,0.3,0.2,0.4,0.3c0.5,0.6,1.2,1,1.9,1.3c0.9,0.4,1.9,0.5,2.8,0.8c0.5,0.2,1.1,0.4,1.4,0.8c0.4,0.6,0.4,1.3,0.2,2
				c-0.2,0.7-0.2,1.4-0.3,2.1c-0.1,0.5-0.1,0.5-0.2,1.2c-0.1,0.6-0.3,1-0.6,1.5c-0.2,0.3-0.2,1.4-0.6,1.4c-0.2,0-0.2-0.8-0.3-1
				c-0.1-0.2-0.2-0.4-0.3-0.6c-0.3-1.1-0.3-2.3-1-3.2c-0.4-0.5-1-0.8-1.6-0.8c-0.7-0.1-1.3,0.4-1.9,0.3
				C84.9,170.1,83.6,169,83.2,167.9z"/>
			<rect x="87.2" y="173" fill="#F27677" width="3.7" height="4.8"/>
			<path fill="#F27677" d="M85.3,170c0,0-0.2,4.8,1.2,5.6c1.4,0.8,3.4-0.5,4.1-1c0.7-0.5,1.1-1.6,1.1-1.6s0.5-0.8,0.5-1.3
				c0-0.6-0.1-1.3-0.6-1c-0.8,0.6-0.4,0.1-0.4,0.1s0.3-0.6-0.3-1.3C90.1,168.8,85.3,167.4,85.3,170z"/>
			<g>
				<path fill="#F27677" d="M93.9,240.5l0,1.6c0.2,0,2.1,0,2.1,0l0-1.6L93.9,240.5z"/>
				<path fill="#393768" d="M93.4,241.5c0,0-4.5,2.4-4.6,2.4c0,0-0.3,0.1-0.5,0.1c-0.4,0.1-0.6,0.4-0.6,0.8c0,0.1,0,0.2,0,0.3
					c0,0.1,8.8-0.2,8.8-0.2s0.2-2.8-0.3-2.9C95.7,241.9,94.1,242.3,93.4,241.5z"/>
				<g>
					<polygon fill="#FFFFFF" points="90.8,242.9 91.3,243.6 91,243.8 90.5,243 					"/>
					<polygon fill="#FFFFFF" points="90.3,243.2 90.7,243.9 90.5,244 90,243.3 					"/>
					<polygon fill="#FFFFFF" points="89.9,243.4 90.2,244.1 90,244.3 89.6,243.6 					"/>
				</g>
			</g>
			<g>
				<path fill="#F27677" d="M83.2,240.5l-0.2,1.6c0.2,0,2.1,0,2.1,0l0.1-1.6L83.2,240.5z"/>
				<path fill="#393768" d="M82.5,241.5c0,0-4.5,2.3-4.6,2.4c0,0-0.3,0.1-0.5,0.1c-0.4,0.1-0.6,0.4-0.6,0.8c0,0.1,0,0.2,0,0.3
					c0,0.1,8.8-0.1,8.8-0.1s0.2-2.8-0.3-2.9C84.8,241.9,83.2,242.3,82.5,241.5z"/>
				<g>
					<polygon fill="#FFFFFF" points="79.9,242.8 80.3,243.6 80,243.7 79.6,243 					"/>
					<polygon fill="#FFFFFF" points="79.4,243.1 79.8,243.8 79.5,244 79.1,243.2 					"/>
					<polygon fill="#FFFFFF" points="78.9,243.3 79.3,244 79,244.2 78.6,243.5 					"/>
				</g>
			</g>
			<polygon fill="#393768" points="83.1,202.2 82.4,240.7 85.3,240.6 90.9,202.2 			"/>
			<polygon fill="#393768" points="87.4,203 92.9,240.7 96.3,240.7 96.3,202.3 87.1,202.2 			"/>
			<path fill="#F27677" d="M72.2,178.7c0,0-0.5-0.6-0.6-1.2c-0.1-0.6-0.4-2.1-0.7-1.7c-0.3,0.4,0.1,1.2-0.3,0.9
				c-0.5-0.3-1.3-2.2-1.6-1.8c-0.3,0.4-0.7,1.2-0.1,2.3c0.7,1.2,1.1,1.3,1.4,1.6c0.4,0.3,1,1,1,1L72.2,178.7z"/>
			<path fill="#5A5BAE" d="M82.7,178.6l-4.5,3.7c-0.1,0.2-0.3,0.2-0.5,0l-5.8-4l-1.2,1.5l7.6,7.1c0.1,0.1,0.2,0.1,0.2,0l4.7-3.6
				L82.7,178.6z"/>
			<path fill="#5A5BAE" d="M82.7,178.6l2.3-0.9l2.2-0.8c1.2,0.9,2.4,0.7,3.7-0.2l2,0.8l4.2,1.7l-0.8,23.1l-3.4,0l0,0H85l0-0.1
				l-1.9,0L82.7,178.6z"/>
			<rect x="81.6" y="180.1" fill="#F2F2F2" width="7.3" height="12.6"/>
			<path fill="#F27677" d="M90.2,188.3c0,0-0.4,0-0.5-0.4c-0.1-0.5-0.5-1.2-0.6-0.9c-0.1,0.3-1.5-0.5-1.7,0.2
				c-0.1,0.7-0.1,1.7,0.4,2c0.5,0.3,1.9,1,1.9,1L90.2,188.3z"/>
			<path fill="#8888BA" d="M97.1,179.1c0,0,3.3,8.4,3.1,10.8s-10.5,0.7-10.5,0.7s-0.6-1-0.2-1.7c0.4-0.7,0.7-0.9,0.7-0.9l6.2,0.2
				C96.5,188.3,92.6,177.2,97.1,179.1z"/>
		</g>
	</g>
</g>
</svg>
