<svg width="18" height="18" viewBox="0 0 18 18" fill="none" xmlns="http://www.w3.org/2000/svg">
<mask id="mask0" mask-type="alpha" maskUnits="userSpaceOnUse" x="0" y="0" width="18" height="18">
<path fill-rule="evenodd" clip-rule="evenodd" d="M17.7907 7.36364H9.2093V10.8409H14.1488C13.6884 13.05 11.7628 14.3182 9.2093 14.3182C6.19535 14.3182 3.76744 11.9455 3.76744 9C3.76744 6.05455 6.19535 3.68182 9.2093 3.68182C10.507 3.68182 11.6791 4.13182 12.6 4.86818L15.2791 2.25C13.6465 0.859091 11.5535 0 9.2093 0C4.10233 0 0 4.00909 0 9C0 13.9909 4.10233 18 9.2093 18C13.814 18 18 14.7273 18 9C18 8.46818 17.9163 7.89545 17.7907 7.36364Z" fill="white"/>
</mask>
<g mask="url(#mask0)">
<path d="M-0.836914 14.3181V3.68176L6.27937 8.99994L-0.836914 14.3181Z" fill="#FBBC05"/>
</g>
<mask id="mask1" mask-type="alpha" maskUnits="userSpaceOnUse" x="0" y="0" width="18" height="18">
<path fill-rule="evenodd" clip-rule="evenodd" d="M17.7907 7.36364H9.2093V10.8409H14.1488C13.6884 13.05 11.7628 14.3182 9.2093 14.3182C6.19535 14.3182 3.76744 11.9455 3.76744 9C3.76744 6.05455 6.19535 3.68182 9.2093 3.68182C10.507 3.68182 11.6791 4.13182 12.6 4.86818L15.2791 2.25C13.6465 0.859091 11.5535 0 9.2093 0C4.10233 0 0 4.00909 0 9C0 13.9909 4.10233 18 9.2093 18C13.814 18 18 14.7273 18 9C18 8.46818 17.9163 7.89545 17.7907 7.36364Z" fill="white"/>
</mask>
<g mask="url(#mask1)">
<path d="M-0.836914 3.68176L6.27937 8.99994L9.2096 6.50449L19.2561 4.90903V-0.818237H-0.836914V3.68176Z" fill="#EA4335"/>
</g>
<mask id="mask2" mask-type="alpha" maskUnits="userSpaceOnUse" x="0" y="0" width="18" height="18">
<path fill-rule="evenodd" clip-rule="evenodd" d="M17.7907 7.36364H9.2093V10.8409H14.1488C13.6884 13.05 11.7628 14.3182 9.2093 14.3182C6.19535 14.3182 3.76744 11.9455 3.76744 9C3.76744 6.05455 6.19535 3.68182 9.2093 3.68182C10.507 3.68182 11.6791 4.13182 12.6 4.86818L15.2791 2.25C13.6465 0.859091 11.5535 0 9.2093 0C4.10233 0 0 4.00909 0 9C0 13.9909 4.10233 18 9.2093 18C13.814 18 18 14.7273 18 9C18 8.46818 17.9163 7.89545 17.7907 7.36364Z" fill="white"/>
</mask>
<g mask="url(#mask2)">
<path d="M-0.836914 14.3181L11.7212 4.90904L15.0282 5.31813L19.2561 -0.818237V18.8181H-0.836914V14.3181Z" fill="#34A853"/>
</g>
<mask id="mask3" mask-type="alpha" maskUnits="userSpaceOnUse" x="0" y="0" width="18" height="18">
<path fill-rule="evenodd" clip-rule="evenodd" d="M17.7907 7.36364H9.2093V10.8409H14.1488C13.6884 13.05 11.7628 14.3182 9.2093 14.3182C6.19535 14.3182 3.76744 11.9455 3.76744 9C3.76744 6.05455 6.19535 3.68182 9.2093 3.68182C10.507 3.68182 11.6791 4.13182 12.6 4.86818L15.2791 2.25C13.6465 0.859091 11.5535 0 9.2093 0C4.10233 0 0 4.00909 0 9C0 13.9909 4.10233 18 9.2093 18C13.814 18 18 14.7273 18 9C18 8.46818 17.9163 7.89545 17.7907 7.36364Z" fill="white"/>
</mask>
<g mask="url(#mask3)">
<path d="M19.2557 18.8181L6.27891 8.99994L4.60449 7.77267L19.2557 3.68176V18.8181Z" fill="#4285F4"/>
</g>
</svg>
