<svg width="435" height="401" viewBox="0 0 435 401" fill="none" xmlns="http://www.w3.org/2000/svg">
<path d="M118.08 194.442L133.216 203.174L138.613 200.059C140.06 199.225 142.342 199.225 143.788 200.059L146.181 201.45C147.628 202.284 147.628 203.619 146.181 204.453L140.784 207.568L309.724 305.067L315.121 301.952C316.568 301.118 318.849 301.118 320.296 301.952L322.689 303.343C324.136 304.177 324.136 305.512 322.689 306.346L317.291 309.461L332.427 318.193C335.988 320.251 341.775 320.251 345.337 318.193L431.699 268.192C435.26 266.134 435.26 262.797 431.699 260.739L217.352 136.988C213.791 134.93 208.003 134.93 204.442 136.988L118.08 186.989C114.519 189.047 114.519 192.384 118.08 194.442Z" fill="#CEE7FD"/>
<path d="M145.068 8.56526L142.508 10.067C141.34 10.7344 140.616 12.1805 140.616 14.2383V167.411C140.616 171.527 143.51 176.533 147.071 178.591L361.362 302.23C363.143 303.232 364.701 303.343 365.87 302.675H365.925L368.485 301.174C369.653 300.506 370.377 299.06 370.377 297.002V143.829C370.377 139.713 367.483 134.708 363.922 132.65L149.686 9.01021C147.906 8.00908 146.348 7.89784 145.179 8.50965L145.068 8.56526C145.124 8.56526 145.124 8.56526 145.068 8.56526Z" fill="#3199F0"/>
<path opacity="0.2" d="M347.507 153.507C345.503 152.339 343.89 153.284 343.89 155.565V223.03C343.89 225.31 345.503 228.091 347.507 229.259L367.817 240.994V165.242L347.507 153.507Z" fill="black"/>
<path opacity="0.3" d="M363.978 132.706L149.687 9.01021C147.906 8.00908 146.348 7.89784 145.179 8.50965L145.124 8.56526L142.564 10.0113C143.733 9.34392 145.346 9.45516 147.127 10.4563L361.418 134.096C364.979 136.154 367.873 141.16 367.873 145.275V298.448C367.873 300.506 367.149 301.952 365.981 302.62L368.541 301.118C369.709 300.451 370.433 299.005 370.433 296.947V143.774C370.433 139.769 367.539 134.763 363.978 132.706Z" fill="black"/>
<path opacity="0.2" d="M361.362 296.557L147.071 172.862C145.012 171.694 143.176 171.75 142.007 172.751C143.176 175.142 145.012 177.367 147.071 178.535L361.362 302.175C363.421 303.343 365.257 303.287 366.426 302.286C365.257 299.894 363.421 297.725 361.362 296.557Z" fill="black"/>
<path d="M364.256 303.788C363.254 303.788 362.142 303.454 361.029 302.786L146.737 179.147C143.009 176.978 139.949 171.694 139.949 167.356V14.1826C139.949 11.9579 140.728 10.2894 142.175 9.45508C142.175 9.45508 142.175 9.45508 142.23 9.45508L144.79 7.95338L144.846 7.89776C144.901 7.84214 144.957 7.84214 145.012 7.84214C146.404 7.1191 148.24 7.34158 150.076 8.39833L364.367 132.038C368.096 134.207 371.156 139.491 371.156 143.829V297.002C371.156 299.227 370.377 300.895 368.93 301.785H368.875L366.371 303.231L366.315 303.287C366.315 303.287 366.259 303.287 366.259 303.343C365.592 303.676 364.979 303.788 364.256 303.788ZM142.898 10.6231C142.842 10.6231 142.842 10.6787 142.898 10.6231C141.896 11.2349 141.34 12.4585 141.34 14.1826V167.356C141.34 171.249 144.067 175.977 147.461 177.923L361.752 301.563C363.254 302.397 364.59 302.564 365.592 302.008C365.592 302.008 365.647 302.008 365.647 301.952L368.151 300.506C368.151 300.506 368.207 300.506 368.207 300.45C369.209 299.894 369.765 298.615 369.765 296.891V143.718C369.765 139.825 367.038 135.097 363.644 133.15L149.353 9.62193C147.906 8.78766 146.515 8.6208 145.513 9.12136C145.458 9.12136 145.458 9.17698 145.402 9.17698L142.898 10.6231Z" fill="#005BEA"/>
<path d="M361.363 287.325L147.071 163.685C145.625 162.851 144.512 160.848 144.456 159.235V16.5186C144.456 14.85 145.625 14.1826 147.016 15.0169L361.307 138.657C362.754 139.491 363.867 141.493 363.867 143.106V285.823C363.978 287.491 362.809 288.159 361.363 287.325Z" fill="white"/>
<path d="M347.507 153.507C345.503 152.339 343.89 153.284 343.89 155.565V223.03C343.89 225.31 345.503 228.091 347.507 229.259L363.978 238.77V163.017L347.507 153.507Z" fill="#CEE7FD"/>
<path d="M154.862 189.269L156.142 189.992L160.26 187.601V183.151L154.862 186.266C153.415 187.1 153.415 188.435 154.862 189.269Z" fill="#80B6F1"/>
<path opacity="0.2" d="M154.862 189.269L156.142 189.992L160.26 187.601V183.151L154.862 186.266C153.415 187.1 153.415 188.435 154.862 189.269Z" fill="black"/>
<path d="M158.868 194.553C159.313 194.831 159.925 194.776 160.593 194.386L170.276 188.769V183.04L166.826 181.038L157.143 186.655C155.752 187.434 154.639 189.381 154.639 190.938C154.639 191.717 154.917 192.217 155.307 192.495L158.868 194.553Z" fill="#7185A3"/>
<path d="M158.868 194.553C159.313 194.831 159.925 194.776 160.593 194.386L170.276 188.769V183.04L166.826 181.038L157.143 186.655C155.752 187.434 154.639 189.381 154.639 190.938C154.639 191.717 154.917 192.217 155.307 192.495L158.868 194.553Z" fill="#B7DAFE"/>
<path opacity="0.5" d="M170.275 183.04L160.593 188.658C159.202 189.436 158.089 191.383 158.089 192.94C158.089 194.497 159.202 195.165 160.593 194.386L170.275 188.769V183.04Z" fill="black"/>
<path d="M331.314 291.051L332.593 291.774L336.711 289.382V284.933L331.314 288.048C329.867 288.938 329.867 290.272 331.314 291.051Z" fill="#80B6F1"/>
<path opacity="0.2" d="M331.314 291.051L332.593 291.774L336.711 289.382V284.933L331.314 288.048C329.867 288.938 329.867 290.272 331.314 291.051Z" fill="black"/>
<path d="M335.32 296.39C335.765 296.668 336.377 296.613 337.045 296.223L346.727 290.606V284.877L343.222 282.875L333.539 288.493C332.204 289.271 331.091 291.218 331.091 292.775C331.091 293.554 331.369 294.054 331.759 294.332L335.32 296.39Z" fill="#7185A3"/>
<path d="M335.32 296.39C335.765 296.668 336.377 296.613 337.045 296.223L346.727 290.606V284.877L343.222 282.875L333.539 288.493C332.204 289.271 331.091 291.218 331.091 292.775C331.091 293.554 331.369 294.054 331.759 294.332L335.32 296.39Z" fill="white"/>
<path d="M346.727 284.877L337.045 290.495C335.653 291.273 334.596 293.22 334.541 294.777C334.541 296.335 335.653 297.002 337.045 296.224L346.727 290.606V284.877Z" fill="#CEE7FD"/>
<path d="M362.03 301.34V301.285C362.03 301.118 361.974 301.007 361.919 300.84V300.784C361.863 300.617 361.807 300.506 361.752 300.339V300.284C361.696 300.172 361.585 300.006 361.529 299.894L361.473 299.839C361.362 299.728 361.251 299.561 361.14 299.449L361.084 299.394C360.639 298.949 360.138 298.504 359.47 298.115L344.335 289.382L338.937 292.497C337.49 293.331 335.209 293.331 333.762 292.497L332.705 291.885L331.425 291.162C329.978 290.328 329.978 288.993 331.425 288.159L332.983 287.269L336.878 285.044L167.771 187.49L162.374 190.604C160.927 191.438 158.645 191.438 157.199 190.604L156.141 189.992L154.861 189.269C153.415 188.435 153.415 187.1 154.861 186.266L156.419 185.376L160.315 183.151L145.179 174.419C141.618 172.361 135.831 172.361 132.269 174.419L3.33848 248.725C3.1159 248.837 2.89332 249.004 2.72638 249.115C1.39089 250.06 0.667494 251.228 0.667494 252.396V256.79C0.611848 258.181 1.50218 259.571 3.33848 260.572L217.63 384.212C221.191 386.27 226.978 386.27 230.539 384.212L359.359 309.85C361.14 308.849 362.03 307.514 362.03 306.179V306.124V301.674C362.086 301.619 362.086 301.507 362.03 301.34Z" fill="#3199F0"/>
<path opacity="0.3" d="M362.03 301.452C362.197 302.898 361.307 304.399 359.415 305.512L230.596 379.874C227.034 381.931 221.247 381.931 217.686 379.874L3.39463 256.178C1.61398 255.121 0.723646 253.787 0.723646 252.452V256.846C0.668001 258.236 1.55833 259.627 3.39463 260.628L217.686 384.267C221.247 386.325 227.034 386.325 230.596 384.267L359.415 309.906C361.196 308.904 362.086 307.57 362.086 306.235V306.179V301.73C362.086 301.674 362.086 301.563 362.03 301.452Z" fill="black"/>
<path d="M224.14 386.548C221.692 386.548 219.188 385.992 217.352 384.935L3.00486 261.24C1.05727 260.127 0 258.626 0 256.957C0 256.901 0 256.846 0 256.846V252.452V252.396C0 250.95 0.834684 249.615 2.33711 248.559C2.5597 248.392 2.78228 248.28 3.00486 248.114L131.824 173.752C135.553 171.583 141.674 171.583 145.458 173.752L160.593 182.484C160.816 182.595 160.927 182.818 160.927 183.096C160.927 183.318 160.816 183.596 160.593 183.708L155.196 186.822C154.75 187.1 154.472 187.434 154.472 187.712C154.472 187.99 154.75 188.324 155.196 188.602L157.588 189.992C158.812 190.715 160.871 190.715 162.04 189.992L167.438 186.878C167.66 186.767 167.938 186.767 168.105 186.878L337.045 284.377C337.268 284.488 337.379 284.711 337.379 284.989C337.379 285.211 337.268 285.489 337.045 285.6L331.648 288.715C331.202 288.993 330.924 289.327 330.924 289.605C330.924 289.883 331.202 290.217 331.648 290.495L332.872 291.218C332.872 291.218 332.927 291.218 332.927 291.273L333.985 291.885C335.209 292.608 337.268 292.608 338.492 291.885L343.89 288.771C344.112 288.659 344.391 288.659 344.557 288.771L359.693 297.503C360.416 297.892 361.029 298.393 361.474 298.893C361.474 298.893 361.529 298.949 361.585 299.004C361.696 299.116 361.808 299.283 361.919 299.449C361.975 299.505 361.974 299.505 361.974 299.561C362.086 299.672 362.141 299.839 362.253 300.006C362.253 300.006 362.253 300.061 362.308 300.117C362.42 300.284 362.475 300.451 362.531 300.617V300.673C362.587 300.84 362.642 301.007 362.642 301.174C362.642 301.174 362.642 301.229 362.642 301.285C362.642 301.396 362.698 301.619 362.698 301.785V306.29C362.698 306.346 362.698 306.346 362.698 306.402C362.642 308.015 361.585 309.516 359.693 310.629L230.929 384.935C229.037 385.992 226.589 386.548 224.14 386.548ZM1.39114 256.734C1.39114 256.79 1.39114 256.846 1.39114 256.901C1.33549 258.069 2.17018 259.237 3.72825 260.072L218.019 383.711C221.414 385.658 226.867 385.658 230.261 383.711L359.081 309.349C360.583 308.515 361.362 307.403 361.418 306.235C361.418 306.179 361.418 306.179 361.418 306.124V301.73C361.418 301.619 361.418 301.507 361.362 301.396V301.34C361.362 301.285 361.307 301.174 361.251 301.007V300.951C361.195 300.84 361.14 300.729 361.084 300.617C361.084 300.617 361.084 300.562 361.029 300.562C360.973 300.451 360.917 300.339 360.862 300.284L360.806 300.228C360.75 300.117 360.639 300.006 360.528 299.894L360.472 299.839C360.083 299.394 359.582 299.004 358.97 298.671L344.168 290.106L339.104 293.053C337.435 293.999 334.875 293.999 333.261 293.053L332.26 292.442C332.26 292.442 332.204 292.441 332.204 292.386L330.924 291.663C330.034 291.162 329.533 290.384 329.477 289.549C329.477 288.715 329.978 287.992 330.869 287.436L335.265 284.933L167.771 188.268L162.708 191.216C161.038 192.162 158.479 192.162 156.865 191.216L154.472 189.881C153.582 189.325 153.081 188.602 153.081 187.768C153.081 186.933 153.582 186.21 154.472 185.654L158.868 183.151L144.734 175.031C141.34 173.084 135.887 173.084 132.492 175.031L3.72825 249.337C3.50567 249.448 3.33873 249.56 3.1718 249.727C2.05889 250.505 1.44679 251.506 1.39114 252.452V252.507V256.734Z" fill="#005BEA"/>
<path opacity="0.3" d="M275.001 343.277C272.886 344.5 269.38 344.5 267.266 343.277L66.7748 227.59C64.6603 226.367 64.6046 224.365 66.7748 223.141L131.324 185.877C133.438 184.653 136.944 184.653 139.058 185.877L339.494 301.563C341.608 302.786 341.664 304.789 339.494 306.012L275.001 343.277Z" fill="black"/>
<path d="M87.9201 232.207C86.4733 233.041 84.1918 233.041 82.745 232.207L73.2853 226.756C71.8385 225.922 71.8385 224.587 73.2853 223.753L80.1297 219.748C81.5765 218.914 83.8579 218.914 85.3047 219.748L94.7645 225.199C96.2113 226.033 96.2113 227.368 94.7645 228.202L87.9201 232.207ZM124.034 228.258C125.481 227.424 125.481 226.089 124.034 225.254L99.8839 211.35C98.4371 210.516 96.1556 210.516 94.7088 211.35L87.8088 215.299C86.362 216.133 86.362 217.468 87.8088 218.302L111.959 232.207C113.406 233.041 115.687 233.041 117.134 232.207L124.034 228.258ZM109.455 236.656C110.902 235.822 110.902 234.487 109.455 233.653L102.555 229.648C101.108 228.814 98.8266 228.814 97.3798 229.648L90.4798 233.597C89.033 234.432 89.033 235.766 90.4798 236.601L97.3798 240.605C98.8266 241.439 101.108 241.439 102.555 240.605L109.455 236.656ZM124.09 245.11C125.536 244.276 125.536 242.941 124.09 242.107L117.19 238.102C115.743 237.268 113.461 237.268 112.015 238.102L105.115 242.051C103.668 242.886 103.668 244.22 105.115 245.055L112.015 249.059C113.461 249.893 115.743 249.893 117.19 249.059L124.09 245.11ZM138.724 253.564C140.171 252.73 140.171 251.395 138.724 250.561L131.824 246.556C130.378 245.722 128.096 245.722 126.649 246.556L119.749 250.505C118.303 251.34 118.303 252.674 119.749 253.509L126.649 257.513C128.096 258.347 130.378 258.347 131.824 257.513L138.724 253.564ZM236.605 310.073C238.052 309.238 238.052 307.903 236.605 307.069L219.744 297.336C218.298 296.502 216.016 296.502 214.569 297.336L207.669 301.285C206.223 302.119 206.223 303.454 207.669 304.288L224.53 314.021C225.977 314.856 228.258 314.856 229.705 314.021L236.605 310.073ZM265.93 310.073C267.377 309.238 267.377 307.903 265.93 307.069L249.07 297.336C247.623 296.502 245.341 296.502 243.895 297.336L236.995 301.285C235.548 302.119 235.548 303.454 236.995 304.288L253.855 314.021C255.302 314.856 257.583 314.856 259.03 314.021L265.93 310.073ZM212.01 295.89C213.457 295.056 213.457 293.721 212.01 292.886L205.11 288.882C203.663 288.048 201.381 288.048 199.935 288.882L193.035 292.831C191.588 293.665 191.588 295 193.035 295.834L199.935 299.839C201.381 300.673 203.663 300.673 205.11 299.839L212.01 295.89ZM197.319 287.38C198.766 286.546 198.766 285.211 197.319 284.377L146.459 255.01C145.012 254.176 142.731 254.176 141.284 255.01L134.384 259.015C132.937 259.849 132.937 261.184 134.384 262.018L185.244 291.385C186.691 292.219 188.972 292.219 190.419 291.385L197.319 287.38ZM157.254 203.675C158.701 202.84 158.701 201.505 157.254 200.671L137.779 189.436C136.332 188.602 134.05 188.602 132.603 189.436L131.769 189.937C130.322 190.771 130.322 192.106 131.769 192.94L151.245 204.175C152.692 205.009 154.973 205.009 156.42 204.175L157.254 203.675ZM171.945 212.129C173.392 211.294 173.392 209.959 171.945 209.125L165.045 205.121C163.598 204.286 161.317 204.286 159.87 205.121L159.035 205.621C157.588 206.455 157.588 207.79 159.035 208.625L165.935 212.629C167.382 213.463 169.663 213.463 171.11 212.629L171.945 212.129ZM186.58 220.583C188.026 219.748 188.026 218.413 186.58 217.579L179.68 213.63C178.233 212.796 175.951 212.796 174.505 213.63L173.614 214.131C172.167 214.965 172.167 216.3 173.614 217.134L180.514 221.139C181.961 221.973 184.243 221.973 185.689 221.139L186.58 220.583ZM201.214 229.037C202.661 228.202 202.661 226.867 201.214 226.033L194.314 222.084C192.868 221.25 190.586 221.25 189.139 222.084L188.305 222.585C186.858 223.419 186.858 224.754 188.305 225.588L195.205 229.593C196.652 230.427 198.933 230.427 200.38 229.593L201.214 229.037ZM215.849 237.491C217.296 236.656 217.296 235.321 215.849 234.487L208.949 230.483C207.502 229.648 205.221 229.648 203.774 230.483L202.939 230.983C201.493 231.817 201.493 233.152 202.939 233.987L209.84 237.991C211.286 238.825 213.568 238.825 215.015 237.991L215.849 237.491ZM230.54 245.945C231.986 245.11 231.986 243.775 230.54 242.941L223.64 238.937C222.193 238.102 219.911 238.102 218.465 238.937L217.63 239.437C216.183 240.271 216.183 241.606 217.63 242.441L224.53 246.445C225.977 247.279 228.258 247.279 229.705 246.445L230.54 245.945ZM245.174 254.399C246.621 253.564 246.621 252.229 245.174 251.395L238.274 247.391C236.828 246.556 234.546 246.556 233.099 247.391L232.265 247.891C230.818 248.725 230.818 250.06 232.265 250.895L239.165 254.899C240.612 255.733 242.893 255.733 244.34 254.899L245.174 254.399ZM259.809 262.853C261.256 262.018 261.256 260.683 259.809 259.849L252.909 255.845C251.462 255.01 249.181 255.01 247.734 255.845L246.9 256.345C245.453 257.179 245.453 258.514 246.9 259.349L253.8 263.353C255.246 264.187 257.528 264.187 258.975 263.353L259.809 262.853ZM274.5 271.307C275.947 270.472 275.947 269.137 274.5 268.303L267.6 264.299C266.153 263.464 263.871 263.464 262.425 264.299L261.59 264.799C260.143 265.633 260.143 266.968 261.59 267.803L268.49 271.807C269.937 272.641 272.218 272.641 273.665 271.807L274.5 271.307ZM289.134 279.761C290.581 278.926 290.581 277.591 289.134 276.757L282.234 272.753C280.788 271.918 278.506 271.918 277.059 272.753L276.225 273.253C274.778 274.087 274.778 275.422 276.225 276.257L283.125 280.261C284.572 281.095 286.853 281.095 288.3 280.261L289.134 279.761ZM303.769 288.214C305.216 287.38 305.216 286.045 303.769 285.211L296.869 281.207C295.422 280.372 293.141 280.372 291.694 281.207L290.86 281.707C289.413 282.541 289.413 283.876 290.86 284.711L297.76 288.715C299.206 289.549 301.488 289.549 302.935 288.715L303.769 288.214ZM318.404 296.668C319.851 295.834 319.851 294.499 318.404 293.665L311.504 289.661C310.057 288.826 307.776 288.826 306.329 289.661L305.494 290.161C304.048 290.995 304.048 292.33 305.494 293.165L312.394 297.169C313.841 298.003 316.123 298.003 317.569 297.169L318.404 296.668ZM333.095 305.122C334.541 304.288 334.541 302.953 333.095 302.119L326.194 298.17C324.748 297.336 322.466 297.336 321.019 298.17L320.185 298.671C318.738 299.505 318.738 300.84 320.185 301.674L327.085 305.679C328.532 306.513 330.813 306.513 332.26 305.679L333.095 305.122ZM138.724 236.712C140.171 235.878 140.171 234.543 138.724 233.708L131.824 229.704C130.378 228.87 128.096 228.87 126.649 229.704L119.749 233.653C118.303 234.487 118.303 235.822 119.749 236.656L126.649 240.661C128.096 241.495 130.378 241.495 131.824 240.661L138.724 236.712ZM153.359 245.166C154.806 244.332 154.806 242.997 153.359 242.162L146.459 238.158C145.012 237.324 142.731 237.324 141.284 238.158L134.384 242.107C132.937 242.941 132.937 244.276 134.384 245.11L141.284 249.059C142.731 249.893 145.012 249.893 146.459 249.059L153.359 245.166ZM167.994 253.62C169.441 252.786 169.441 251.451 167.994 250.616L161.094 246.612C159.647 245.778 157.366 245.778 155.919 246.612L149.019 250.561C147.572 251.395 147.572 252.73 149.019 253.564L155.919 257.513C157.366 258.347 159.647 258.347 161.094 257.513L167.994 253.62ZM182.684 262.074C184.131 261.24 184.131 259.905 182.684 259.07L175.784 255.066C174.338 254.232 172.056 254.232 170.609 255.066L163.709 259.015C162.263 259.849 162.263 261.184 163.709 262.018L170.609 266.023C172.056 266.857 174.338 266.857 175.784 266.023L182.684 262.074ZM197.319 270.528C198.766 269.694 198.766 268.359 197.319 267.524L190.419 263.52C188.972 262.686 186.691 262.686 185.244 263.52L178.344 267.469C176.897 268.303 176.897 269.638 178.344 270.472L185.244 274.477C186.691 275.311 188.972 275.311 190.419 274.477L197.319 270.528ZM211.954 278.982C213.401 278.148 213.401 276.813 211.954 275.978L205.054 271.974C203.607 271.14 201.326 271.14 199.879 271.974L192.979 275.923C191.532 276.757 191.532 278.092 192.979 278.926L199.879 282.931C201.326 283.765 203.607 283.765 205.054 282.931L211.954 278.982ZM226.645 287.436C228.091 286.602 228.091 285.267 226.645 284.432L219.744 280.428C218.298 279.594 216.016 279.594 214.569 280.428L207.669 284.377C206.223 285.211 206.223 286.546 207.669 287.38L214.569 291.385C216.016 292.219 218.298 292.219 219.744 291.385L226.645 287.436ZM241.279 295.89C242.726 295.056 242.726 293.721 241.279 292.886L234.379 288.882C232.932 288.048 230.651 288.048 229.204 288.882L222.304 292.831C220.857 293.665 220.857 295 222.304 295.834L229.204 299.783C230.651 300.617 232.932 300.617 234.379 299.783L241.279 295.89ZM176.174 241.439C177.621 240.605 177.621 239.27 176.174 238.436L169.274 234.432C167.827 233.597 165.546 233.597 164.099 234.432L157.199 238.38C155.752 239.215 155.752 240.55 157.199 241.384L164.099 245.388C165.546 246.223 167.827 246.223 169.274 245.388L176.174 241.439ZM190.864 249.893C192.311 249.059 192.311 247.724 190.864 246.89L183.964 242.886C182.518 242.051 180.236 242.051 178.789 242.886L171.889 246.834C170.442 247.669 170.442 249.004 171.889 249.838L178.789 253.842C180.236 254.677 182.518 254.677 183.964 253.842L190.864 249.893ZM205.499 258.347C206.946 257.513 206.946 256.178 205.499 255.344L198.599 251.34C197.152 250.505 194.871 250.505 193.424 251.34L186.524 255.288C185.077 256.123 185.077 257.458 186.524 258.292L193.424 262.296C194.871 263.131 197.152 263.131 198.599 262.296L205.499 258.347ZM220.134 266.801C221.581 265.967 221.581 264.632 220.134 263.798L213.234 259.794C211.787 258.959 209.506 258.959 208.059 259.794L201.159 263.742C199.712 264.577 199.712 265.912 201.159 266.746L208.059 270.75C209.506 271.585 211.787 271.585 213.234 270.75L220.134 266.801ZM234.769 275.255C236.216 274.421 236.216 273.086 234.769 272.252L227.869 268.303C226.422 267.469 224.14 267.469 222.694 268.303L215.794 272.252C214.347 273.086 214.347 274.421 215.794 275.255L222.694 279.26C224.14 280.094 226.422 280.094 227.869 279.26L234.769 275.255ZM249.459 283.709C250.906 282.875 250.85 281.54 249.459 280.706L242.559 276.701C241.112 275.867 238.831 275.867 237.384 276.701L230.484 280.65C229.037 281.485 229.037 282.82 230.484 283.654L237.384 287.658C238.831 288.493 241.112 288.493 242.559 287.658L249.459 283.709ZM264.094 292.163C265.541 291.329 265.541 289.994 264.094 289.16L257.194 285.155C255.747 284.321 253.466 284.321 252.019 285.155L245.119 289.104C243.672 289.939 243.672 291.274 245.119 292.108L252.019 296.112C253.466 296.947 255.747 296.947 257.194 296.112L264.094 292.163ZM278.729 300.617C280.176 299.783 280.176 298.448 278.729 297.614L271.829 293.665C270.382 292.831 268.1 292.831 266.654 293.665L259.754 297.614C258.307 298.448 258.307 299.783 259.754 300.617L266.654 304.566C268.1 305.401 270.382 305.401 271.829 304.566L278.729 300.617ZM309.835 318.527C311.281 317.692 311.281 316.357 309.835 315.523L286.464 302.063C285.017 301.229 282.735 301.229 281.288 302.063L274.388 306.012C272.942 306.847 272.942 308.182 274.388 309.016L297.704 322.475C299.151 323.31 301.432 323.31 302.879 322.475L309.835 318.527ZM295.2 326.981C296.647 326.146 296.647 324.811 295.2 323.977L288.3 319.973C286.853 319.138 284.572 319.138 283.125 319.973L276.225 323.922C274.778 324.756 274.778 326.091 276.225 326.925L283.125 330.929C284.572 331.764 286.853 331.764 288.3 330.929L295.2 326.981ZM280.565 335.435C282.012 334.6 282.012 333.265 280.565 332.431L273.665 328.482C272.218 327.648 269.937 327.648 268.49 328.482L261.59 332.431C260.143 333.265 260.143 334.6 261.59 335.435L268.49 339.439C269.937 340.273 272.218 340.273 273.665 339.439L280.565 335.435ZM265.93 326.981C267.377 326.146 267.377 324.811 265.93 323.977L259.03 320.028C257.583 319.194 255.302 319.194 253.855 320.028L246.955 323.977C245.508 324.811 245.508 326.146 246.955 326.981L253.855 330.985C255.302 331.819 257.583 331.819 259.03 330.985L265.93 326.981ZM280.565 318.527C282.012 317.692 282.012 316.357 280.565 315.523L273.665 311.519C272.218 310.684 269.937 310.684 268.49 311.519L261.59 315.468C260.143 316.302 260.143 317.637 261.59 318.471L268.49 322.475C269.937 323.31 272.218 323.31 273.665 322.475L280.565 318.527ZM251.296 318.527C252.742 317.692 252.742 316.357 251.296 315.523L244.395 311.519C242.949 310.684 240.667 310.684 239.22 311.519L232.32 315.468C230.874 316.302 230.874 317.637 232.32 318.471L239.22 322.475C240.667 323.31 242.949 323.31 244.395 322.475L251.296 318.527ZM132.214 216.077C133.661 215.243 133.661 213.908 132.214 213.074L114.519 202.896C113.072 202.062 110.79 202.062 109.344 202.896L102.444 206.845C100.997 207.679 100.997 209.014 102.444 209.848L120.139 220.026C121.586 220.861 123.867 220.861 125.314 220.026L132.214 216.077ZM146.904 224.531C148.351 223.697 148.351 222.362 146.904 221.528L140.004 217.524C138.558 216.689 136.276 216.689 134.829 217.524L127.929 221.472C126.482 222.307 126.482 223.642 127.929 224.476L134.829 228.48C136.276 229.315 138.558 229.315 140.004 228.48L146.904 224.531ZM161.539 232.985C162.986 232.151 162.986 230.816 161.539 229.982L154.639 225.978C153.192 225.143 150.911 225.143 149.464 225.978L142.564 229.926C141.117 230.761 141.117 232.096 142.564 232.93L149.464 236.934C150.911 237.769 153.192 237.769 154.639 236.934L161.539 232.985ZM213.679 246.167C215.126 245.333 215.126 243.998 213.679 243.164L206.779 239.159C205.332 238.325 203.051 238.325 201.604 239.159L194.704 243.108C193.257 243.942 193.257 245.277 194.704 246.111L201.604 250.116C203.051 250.95 205.332 250.95 206.779 250.116L213.679 246.167ZM228.314 254.621C229.761 253.787 229.761 252.452 228.314 251.618L221.414 247.613C219.967 246.779 217.686 246.779 216.239 247.613L209.339 251.562C207.892 252.396 207.892 253.731 209.339 254.565L216.239 258.57C217.686 259.404 219.967 259.404 221.414 258.57L228.314 254.621ZM242.949 263.075C244.395 262.241 244.395 260.906 242.949 260.072L236.049 256.067C234.602 255.233 232.32 255.233 230.874 256.067L223.974 260.016C222.527 260.85 222.527 262.185 223.974 263.019L230.929 267.024C232.376 267.858 234.657 267.858 236.104 267.024L242.949 263.075ZM257.583 271.529C259.03 270.695 259.03 269.36 257.583 268.526L250.683 264.577C249.237 263.742 246.955 263.742 245.508 264.577L238.608 268.526C237.162 269.36 237.162 270.695 238.608 271.529L245.508 275.534C246.955 276.368 249.237 276.368 250.683 275.534L257.583 271.529ZM272.274 279.983C273.721 279.149 273.721 277.814 272.274 276.98L265.374 272.975C263.927 272.141 261.646 272.141 260.199 272.975L253.299 276.924C251.852 277.758 251.852 279.093 253.299 279.927L260.199 283.932C261.646 284.766 263.927 284.766 265.374 283.932L272.274 279.983ZM286.909 288.437C288.355 287.603 288.355 286.268 286.909 285.434L280.009 281.429C278.562 280.595 276.28 280.595 274.834 281.429L267.934 285.434C266.542 286.268 266.542 287.603 267.934 288.437L274.834 292.386C276.28 293.22 278.562 293.22 280.009 292.386L286.909 288.437ZM301.543 296.891C302.99 296.057 302.99 294.722 301.543 293.888L294.643 289.883C293.197 289.049 290.915 289.049 289.468 289.883L282.568 293.832C281.122 294.666 281.122 296.001 282.568 296.835L289.468 300.84C290.915 301.674 293.197 301.674 294.643 300.84L301.543 296.891ZM324.469 310.128C325.916 309.294 325.916 307.959 324.469 307.125L309.334 298.393C307.887 297.558 305.606 297.558 304.159 298.393L297.259 302.397C295.812 303.231 295.812 304.566 297.259 305.401L312.394 314.133C313.841 314.967 316.123 314.967 317.569 314.133L324.469 310.128ZM184.354 229.259C185.801 228.425 185.801 227.09 184.354 226.256L177.454 222.251C176.007 221.417 173.726 221.417 172.279 222.251L165.379 226.2C163.932 227.034 163.932 228.369 165.379 229.203L172.279 233.208C173.726 234.042 176.007 234.042 177.454 233.208L184.354 229.259ZM198.989 237.713C200.435 236.879 200.435 235.544 198.989 234.71L192.089 230.761C190.642 229.926 188.36 229.926 186.914 230.761L180.014 234.71C178.567 235.544 178.567 236.879 180.014 237.713L186.914 241.718C188.36 242.552 190.642 242.552 192.089 241.718L198.989 237.713ZM140.394 203.897C141.841 203.063 141.841 201.728 140.394 200.894L129.209 194.442C127.762 193.608 125.481 193.608 124.034 194.442L117.134 198.391C115.687 199.225 115.687 200.56 117.134 201.394L128.319 207.846C129.766 208.68 132.047 208.68 133.494 207.846L140.394 203.897ZM155.029 212.351C156.475 211.517 156.475 210.182 155.029 209.348L148.129 205.343C146.682 204.509 144.4 204.509 142.954 205.343L136.054 209.292C134.607 210.126 134.607 211.461 136.054 212.295L142.954 216.3C144.4 217.134 146.682 217.134 148.129 216.3L155.029 212.351ZM169.719 220.805C171.166 219.971 171.166 218.636 169.719 217.802L162.819 213.797C161.372 212.963 159.091 212.963 157.644 213.797L150.744 217.746C149.297 218.58 149.297 219.915 150.744 220.749L157.644 224.754C159.091 225.588 161.372 225.588 162.819 224.754L169.719 220.805Z" fill="#CEE7FD"/>
<path opacity="0.2" d="M155.974 330.373C153.86 331.597 150.354 331.597 148.24 330.373L89.1439 296.279C87.0294 295.056 86.9738 293.053 89.1439 291.83L126.705 270.139C128.819 268.915 132.325 268.915 134.439 270.139L193.535 304.233C195.705 305.456 195.705 307.458 193.535 308.682L155.974 330.373Z" fill="black"/>
<path opacity="0.2" d="M89.1442 293.276L126.705 271.585C128.819 270.361 132.325 270.361 134.44 271.585L193.535 305.679C194.259 306.124 194.759 306.624 194.982 307.18C195.427 306.124 194.926 305.011 193.535 304.177L134.44 270.083C132.325 268.859 128.819 268.859 126.705 270.083L89.1442 291.774C87.753 292.608 87.2522 293.721 87.6974 294.777C87.92 294.221 88.4208 293.665 89.1442 293.276Z" fill="black"/>
<path d="M343.89 316.524C343.89 317.08 343.5 317.803 342.999 318.082L330.702 325.145C330.201 325.423 329.811 325.201 329.811 324.644C329.811 324.088 330.201 323.365 330.702 323.087L342.999 316.024C343.5 315.69 343.89 315.912 343.89 316.524ZM347.729 313.298C347.228 313.576 346.839 314.299 346.839 314.856C346.839 315.412 347.228 315.634 347.729 315.356C348.23 315.078 348.619 314.411 348.619 313.799C348.619 313.243 348.23 313.02 347.729 313.298ZM350.957 311.407C350.456 311.685 350.066 312.353 350.066 312.965C350.066 313.521 350.456 313.743 350.957 313.465C351.457 313.187 351.847 312.52 351.847 311.908C351.847 311.352 351.457 311.129 350.957 311.407ZM256.47 366.97C256.47 367.526 256.081 368.249 255.58 368.527L243.282 375.591C242.782 375.869 242.392 375.647 242.392 375.09C242.392 374.534 242.782 373.811 243.282 373.533L255.58 366.47C256.025 366.191 256.47 366.414 256.47 366.97Z" fill="#CEE7FD"/>
<path opacity="0.3" d="M178.789 33.2598V28.8103L319.406 109.958V114.407L178.789 33.2598ZM316.512 261.462C311.782 281.04 299.707 290.161 270.549 306.958L190.419 352.787L51.4167 272.53L50.6377 271.14L101.72 241.662C126.316 227.479 148.296 201.394 162.43 172.473L316.512 261.462Z" fill="black"/>
<path d="M319.406 114.407L178.789 33.2598V108.233C178.789 128.868 172.613 151.393 162.374 172.473L316.512 261.462C318.794 252.174 319.406 240.55 319.406 224.587V114.407Z" fill="#CEE7FD"/>
<path d="M226.088 318.693C269.046 293.888 303.992 233.43 303.992 183.874V80.9247L165.045 0.723022H163.431V103.673C163.431 152.672 128.819 212.518 86.3063 237.101L35.2236 266.579L36.0027 267.969L175.005 348.171L226.088 318.693Z" fill="white"/>
<path d="M175.061 348.839C174.95 348.839 174.839 348.783 174.727 348.727L35.669 268.526C35.5577 268.47 35.5021 268.359 35.3908 268.248L34.6117 266.857C34.5004 266.69 34.5004 266.523 34.5561 266.356C34.6117 266.19 34.723 266.023 34.89 265.912L85.9726 236.434C128.319 212.017 162.764 152.45 162.764 103.617V0.723039C162.764 0.556184 162.819 0.389329 162.986 0.222474C163.097 0.111237 163.264 0 163.487 0H165.101C165.212 0 165.323 0.0556184 165.434 0.111237L304.382 80.3686C304.604 80.4798 304.715 80.7023 304.715 80.9804V183.93C304.715 233.653 269.603 294.388 226.478 319.305L226.144 318.693L226.478 319.305L175.395 348.783C175.284 348.839 175.172 348.839 175.061 348.839ZM36.5593 267.413L175.061 347.337L225.754 318.082C268.546 293.387 303.324 233.208 303.324 183.874V81.3697L164.822 1.44608H164.099V103.673C164.099 152.895 129.321 213.018 86.6403 237.657L36.1698 266.801L36.5593 267.413Z" fill="#005BEA"/>
<path d="M231.486 100.614V58.1769C231.486 57.1201 230.651 55.8409 229.761 55.2847C218.131 48.6105 207.336 39.0997 201.493 30.5345C200.881 29.6446 200.102 29.1997 199.49 29.3665C193.647 31.2019 182.852 28.1985 171.166 21.4687C170.721 21.1906 170.331 21.135 169.997 21.3019C169.719 21.4687 169.497 21.858 169.497 22.3586V64.7954C169.497 84.4844 198.599 116.521 199.823 117.911C200.046 118.133 200.269 118.356 200.491 118.467C200.714 118.578 200.936 118.69 201.159 118.69C201.938 118.745 214.514 119.413 223.25 114.463C227.869 111.793 231.486 107.51 231.486 100.614Z" fill="#CEE7FD"/>
<path d="M172.001 124.808C172.112 124.251 172.223 123.695 172.279 123.139L226.756 154.508C226.7 155.064 226.645 155.676 226.589 156.232L172.001 124.808ZM238.553 127.922V129.758L278.117 152.561V150.726L238.553 127.922ZM220.357 134.374L173.781 107.51C173.781 108.122 173.726 108.734 173.726 109.346L220.357 136.209V134.374ZM213.401 121.86L173.837 99.0564V100.892L213.401 123.695V121.86ZM238.553 136.376V138.212L271.161 156.955V155.12L238.553 136.376ZM227.312 121.415L173.837 90.6024V92.4378L227.312 123.25V121.415ZM198.488 228.091C198.766 227.646 199.1 227.201 199.378 226.756L143.566 194.609C143.288 195.054 142.954 195.499 142.676 195.944L198.488 228.091ZM189.362 212.629C189.64 212.184 189.919 211.684 190.197 211.239L148.296 187.1C148.017 187.545 147.739 188.046 147.461 188.491L189.362 212.629ZM173.837 271.585L207.391 290.94C207.892 290.606 208.337 290.272 208.838 289.883L175.173 270.472C174.727 270.862 174.282 271.195 173.837 271.585ZM184.632 187.656L156.643 171.527C156.42 172.028 156.197 172.473 155.919 172.973L183.909 189.103C184.187 188.602 184.41 188.101 184.632 187.656ZM181.349 265.133C180.96 265.522 180.515 265.912 180.125 266.245L227.98 293.832C228.425 293.498 228.871 293.109 229.26 292.72L181.349 265.133ZM126.705 216.634L161.261 236.545C161.651 236.156 161.985 235.711 162.374 235.321L127.762 215.354C127.429 215.855 127.095 216.244 126.705 216.634ZM138.558 201.839C138.224 202.284 137.946 202.729 137.612 203.174L186.357 231.261C186.691 230.816 187.025 230.427 187.359 229.982L138.558 201.839ZM231.653 255.511L203.941 239.548C203.607 239.993 203.329 240.438 202.995 240.828L230.651 256.79C230.985 256.345 231.319 255.956 231.653 255.511ZM209.005 232.318C208.727 232.763 208.393 233.208 208.115 233.653L249.738 257.68C250.016 257.235 250.35 256.79 250.628 256.345L209.005 232.318ZM213.679 224.81C213.401 225.254 213.123 225.755 212.845 226.2L268.435 258.236C268.713 257.791 268.991 257.291 269.269 256.846L213.679 224.81ZM133.327 208.791C132.993 209.236 132.659 209.626 132.325 210.071L187.915 242.107C188.249 241.718 188.583 241.273 188.973 240.828L133.327 208.791ZM192.033 254.287L247.289 286.157C247.679 285.767 248.013 285.378 248.402 284.933L193.146 253.064C192.757 253.509 192.367 253.898 192.033 254.287ZM187.303 259.293C186.914 259.682 186.524 260.072 186.135 260.461L227.312 284.21C227.702 283.821 228.091 283.431 228.481 283.042L187.303 259.293ZM173.225 115.297C173.169 115.853 173.114 116.465 173.058 117.021L199.378 132.205C199.434 131.593 199.378 130.981 199.434 130.37L173.225 115.297ZM140.505 292.497L138.892 293.443L192.367 324.311L193.981 323.365L140.505 292.497ZM215.349 197.112C215.571 196.611 215.794 196.11 215.961 195.61L160.26 163.518C160.037 164.019 159.87 164.519 159.647 165.02L215.349 197.112ZM121.975 290.217L68.5 259.349L66.8862 260.294L120.362 291.162L121.975 290.217ZM147.851 288.27L146.237 289.216L185.801 312.019L187.415 311.074L147.851 288.27ZM155.196 283.988L153.582 284.933L200.102 311.741L201.715 310.796L155.196 283.988ZM238.553 119.413V121.248L264.205 135.987V134.152L238.553 119.413ZM165.768 315.523L133.16 296.724L131.546 297.67L164.155 316.469L165.768 315.523ZM179.29 331.819L125.871 300.951L124.257 301.897L177.732 332.765L179.29 331.819ZM100.719 286.435L61.1547 263.631L59.541 264.577L99.105 287.38L100.719 286.435ZM198.655 246.501C198.321 246.946 197.987 247.335 197.653 247.78L246.065 275.7C246.399 275.255 246.788 274.866 247.122 274.477L198.655 246.501ZM160.872 280.706L214.403 311.574L216.016 310.629L162.43 279.761C161.929 280.039 161.372 280.372 160.872 280.706ZM238.553 68.5775V70.4129L285.073 97.2209V95.3855L238.553 68.5775ZM238.553 77.0871V78.9225L278.117 101.67V99.835L238.553 77.0871ZM238.553 85.5411V87.3765L292.028 118.189V116.354L238.553 85.5411ZM211.453 156.399C211.565 155.843 211.676 155.287 211.732 154.73L170.777 131.148C170.665 131.704 170.554 132.261 170.443 132.817L211.453 156.399ZM238.553 110.959V112.794L292.028 143.607V141.771L238.553 110.959ZM238.553 93.9951V95.8305L285.073 122.639V120.803L238.553 93.9951ZM214.403 176.811C214.57 176.31 214.737 175.754 214.848 175.254L166.381 147.333C166.214 147.834 166.047 148.39 165.88 148.89L214.403 176.811ZM238.553 61.9589L292.028 92.7715V90.9361L238.553 60.1235V61.9589ZM205.221 179.481L163.598 155.453C163.431 155.954 163.209 156.455 162.986 156.955L204.665 180.982C204.887 180.482 205.054 179.981 205.221 179.481ZM221.08 66.2971V67.2426C220.301 66.7977 219.689 66.5752 219.188 66.6308C218.687 66.6864 218.242 67.0202 217.853 67.632C217.574 68.0769 217.129 69.1893 216.462 71.0247L208.282 93.6058L207.391 93.1052L200.714 67.5763L194.036 85.3742L193.257 84.9293L184.521 51.7807C183.853 49.3335 183.464 47.8318 183.297 47.3312C183.019 46.5526 182.629 45.8295 182.128 45.2177C181.627 44.6059 180.96 44.1054 180.125 43.6048V42.6593L191.032 48.9442V49.8897L190.531 49.6116C189.752 49.1667 189.195 49.0554 188.806 49.2223C188.416 49.3891 188.194 49.7785 188.194 50.3346C188.194 50.8908 188.527 52.4481 189.14 54.8953L194.927 77.2539L199.824 63.9055L198.933 60.5684L198.265 57.8987C197.987 56.8976 197.598 55.9521 197.264 55.1178C197.097 54.6729 196.819 54.2835 196.596 53.8942C196.262 53.3937 195.873 52.9487 195.483 52.615C195.205 52.3369 194.76 52.0588 194.203 51.7251V50.7796L205.666 57.3982V58.3437L204.887 57.8987C204.053 57.4538 203.496 57.2869 203.107 57.4538C202.717 57.6206 202.55 58.0656 202.55 58.733C202.55 59.5673 202.884 61.2358 203.552 63.7387L209.172 85.4298L214.737 69.9679C215.349 68.2994 215.683 67.0202 215.683 66.2415C215.683 65.8522 215.571 65.4628 215.349 64.9623C215.126 64.5173 214.903 64.128 214.57 63.7943C214.013 63.2381 213.29 62.7375 212.399 62.1814V61.2358L221.08 66.2971ZM238.163 152.728C236.661 171.694 230.651 191.772 221.358 210.682L276.893 242.719C286.297 223.252 291.973 202.562 291.973 183.93V183.763L238.163 152.728ZM152.97 272.308C159.202 268.692 165.323 264.299 171.11 259.237L116.133 227.535C108.342 234.876 100.051 241.161 91.4816 246.111L81.521 251.84L134.996 282.708L152.97 272.308Z" fill="#CEE7FD"/>
<path d="M102.889 365.302L26.5429 321.252C24.3728 319.973 20.8114 319.973 18.6413 321.252L5.28632 328.983C3.11615 330.262 3.11615 332.264 5.28632 333.543L81.6321 377.593C83.8022 378.872 87.3635 378.872 89.5337 377.593L102.889 369.862C105.059 368.583 105.059 366.581 102.889 365.302Z" fill="#CEE7FD"/>
<path d="M25.8196 316.914L30.4938 305.011L25.8196 298.393L16.5268 303.732L11.9082 315.69L16.5268 322.309L25.8196 316.914Z" fill="#EDEDEF"/>
<path d="M25.8199 298.393L16.3601 292.942L7.06731 298.281L2.44873 310.239L7.06731 316.858L16.5271 322.309L11.9085 315.69L16.5271 303.732L25.8199 298.393Z" fill="white"/>
<g opacity="0.5">
<path opacity="0.5" d="M2.44873 310.239L11.9085 315.69L16.5271 303.732L7.06731 298.281L2.44873 310.239Z" fill="#CEE7FD"/>
</g>
<path d="M7.06731 316.858L16.5271 322.309L11.9085 315.69L2.44873 310.239L7.06731 316.858Z" fill="#CEE7FD"/>
<path d="M16.527 322.976C16.4157 322.976 16.3044 322.92 16.1931 322.865L6.73335 317.414C6.62206 317.358 6.56642 317.303 6.51077 317.192L1.89219 310.629C1.7809 310.462 1.72525 310.184 1.83654 309.961L6.45513 298.003C6.51077 297.836 6.62206 297.725 6.73335 297.67L16.0262 292.33C16.2487 292.219 16.527 292.219 16.6939 292.33L26.1537 297.781C26.3762 297.892 26.4875 298.115 26.4875 298.393C26.4875 298.615 26.3762 298.893 26.1537 299.004L17.0834 304.233L12.6874 315.634L17.1391 321.919C17.306 322.197 17.306 322.531 17.0834 322.809C16.9165 322.92 16.7496 322.976 16.527 322.976ZM7.56804 316.302L14.1899 320.139L11.3519 316.135C11.2406 315.968 11.185 315.69 11.2963 315.467L15.9149 303.509C15.9705 303.343 16.0818 303.231 16.1931 303.176L24.4286 298.393L16.36 293.721L7.62368 298.782L3.22768 310.184L7.56804 316.302Z" fill="#005BEA"/>
<path d="M25.8196 316.914L30.4938 305.011L25.8196 298.393L16.5268 303.732L11.9082 315.69L16.5268 322.309L25.8196 316.914Z" fill="#EDEDEF"/>
<path d="M91.5927 336.324L25.8196 298.393L16.5268 303.732L11.9082 315.69L16.5268 322.309L82.2999 360.24L77.6813 353.677L82.2999 341.719L91.5927 336.324Z" fill="#3199F0"/>
<path opacity="0.2" d="M77.6813 353.677L11.9082 315.69L16.5268 303.732L82.2999 341.719L77.6813 353.677Z" fill="black"/>
<path opacity="0.3" d="M82.2999 360.24L16.5268 322.309L11.9082 315.69L77.6813 353.677L82.2999 360.24Z" fill="black"/>
<path d="M82.3003 360.963C82.189 360.963 82.0777 360.908 81.9664 360.852L16.1933 322.92C16.082 322.865 16.0264 322.809 15.9707 322.698L11.3521 316.079C11.2409 315.912 11.1852 315.634 11.2965 315.412L15.9151 303.454C15.9707 303.287 16.082 303.176 16.1933 303.12L25.4861 297.781C25.7087 297.67 25.9869 297.67 26.1539 297.781L91.9269 335.713C92.1495 335.824 92.2608 336.046 92.2608 336.324C92.2608 336.547 92.1495 336.825 91.9269 336.936L82.8567 342.164L78.4051 353.566L82.8567 359.851C83.0237 360.129 83.0237 360.463 82.8011 360.741C82.6898 360.852 82.5228 360.963 82.3003 360.963ZM17.028 321.752L79.9632 358.071L77.1252 354.067C77.0139 353.9 76.9583 353.622 77.0696 353.399L81.7438 341.441C81.7995 341.274 81.9107 341.163 82.022 341.108L90.2576 336.324L25.82 299.171L17.0836 304.233L12.6876 315.634L17.028 321.752Z" fill="#005BEA"/>
<path d="M103.891 359.295L105.337 355.513L103.891 353.455L100.997 355.123L99.4946 358.905L100.997 360.963L103.891 359.295Z" fill="#EDEDEF"/>
<path d="M103.891 353.455L91.593 336.324L82.3002 341.719L77.6816 353.677L82.3002 360.24L100.997 360.963L99.4947 358.905L100.997 355.123L103.891 353.455Z" fill="white"/>
<g opacity="0.5">
<path opacity="0.5" d="M99.4947 358.905L77.6816 353.677L82.3002 341.719L100.997 355.123L99.4947 358.905Z" fill="#CEE7FD"/>
</g>
<path d="M100.997 360.963L82.3002 360.24L77.6816 353.677L99.4947 358.905L100.997 360.963Z" fill="#CEE7FD"/>
<path d="M100.997 361.686C100.941 361.686 100.941 361.686 100.997 361.686L82.3001 360.963C82.0775 360.963 81.9106 360.852 81.7437 360.685L77.0694 354.067C76.9581 353.9 76.9025 353.622 77.0138 353.399L81.688 341.441C81.7437 341.274 81.855 341.163 81.9662 341.108L91.2591 335.768C91.5929 335.601 91.9825 335.657 92.1494 335.991L104.447 353.121C104.558 353.288 104.614 353.455 104.558 353.677C104.503 353.844 104.391 354.011 104.224 354.122L101.498 355.68L100.274 358.85L101.498 360.63C101.665 360.852 101.665 361.13 101.553 361.353C101.442 361.52 101.22 361.686 100.997 361.686ZM82.6896 359.573L99.6059 360.24L98.9382 359.295C98.8269 359.128 98.7712 358.85 98.8825 358.627L100.329 354.845C100.385 354.678 100.496 354.567 100.608 354.512L102.889 353.177L91.426 337.214L82.9122 342.164L78.4606 353.566L82.6896 359.573Z" fill="#005BEA"/>
<path d="M109.956 360.018L110.457 360.741L109.956 362.02L109.01 362.576L100.997 360.963L99.4946 358.905L100.997 355.123L103.891 353.455L109.956 360.018Z" fill="#3199F0"/>
<path opacity="0.2" d="M108.509 361.853L109.01 360.574L100.997 355.123L99.4946 358.905L108.509 361.853Z" fill="black"/>
<path opacity="0.3" d="M109.01 362.576L108.509 361.853L99.4946 358.905L100.997 360.963L109.01 362.576Z" fill="black"/>
<path d="M109.009 363.244C108.954 363.244 108.898 363.244 108.898 363.244L100.885 361.686C100.718 361.631 100.551 361.575 100.44 361.408L98.9933 359.35C98.882 359.184 98.8263 358.905 98.9376 358.683L100.384 354.901C100.44 354.734 100.551 354.623 100.663 354.567L103.556 352.899C103.834 352.732 104.168 352.787 104.391 353.01L110.456 359.573L110.512 359.628L111.013 360.352C111.124 360.518 111.18 360.796 111.068 361.019L110.568 362.298C110.512 362.465 110.401 362.576 110.289 362.632L109.288 363.188C109.232 363.244 109.121 363.244 109.009 363.244ZM101.386 360.352L108.898 361.798L109.455 361.464L109.733 360.796L109.51 360.463L103.834 354.345L101.609 355.624L100.384 358.794L101.386 360.352Z" fill="#005BEA"/>
<path d="M378.391 259.237C378.391 261.518 376.777 262.463 374.774 261.295L333.707 237.546C331.704 236.378 330.09 233.597 330.09 231.317V163.852C330.09 161.571 331.704 160.626 333.707 161.794L374.829 185.543C376.833 186.711 378.446 189.492 378.446 191.772L378.391 259.237Z" fill="white"/>
<path d="M376.387 262.463C375.775 262.463 375.107 262.241 374.44 261.851L333.318 238.158C331.092 236.879 329.367 233.875 329.367 231.317V163.852C329.367 162.461 329.868 161.46 330.758 160.96C331.648 160.459 332.817 160.515 333.985 161.238L375.107 184.987C377.333 186.266 379.058 189.269 379.058 191.772V259.237C379.058 260.628 378.557 261.629 377.667 262.185C377.333 262.352 376.888 262.463 376.387 262.463ZM332.093 162.016C331.871 162.016 331.648 162.072 331.481 162.183C331.036 162.461 330.758 163.073 330.758 163.907V231.373C330.758 233.43 332.26 235.989 333.985 236.99L375.107 260.739C375.831 261.184 376.499 261.24 376.944 261.017C377.389 260.739 377.667 260.127 377.667 259.293V191.828C377.667 189.826 376.165 187.212 374.44 186.21L333.318 162.406C332.872 162.128 332.427 162.016 332.093 162.016Z" fill="#005BEA"/>
<path d="M371.379 242.329C371.379 242.886 370.989 243.108 370.488 242.83L337.88 224.031C337.379 223.753 336.99 223.085 336.99 222.529C336.99 221.973 337.379 221.751 337.88 222.029L370.488 240.828C370.989 241.106 371.379 241.773 371.379 242.329ZM365.425 246.834C365.425 247.391 365.035 247.613 364.59 247.335L337.991 231.984C337.491 231.706 337.101 231.039 337.157 230.483C337.157 229.926 337.546 229.704 337.991 229.982L364.59 245.333C365.035 245.611 365.425 246.278 365.425 246.834ZM359.415 239.382C359.415 238.825 359.025 238.158 358.58 237.88L337.991 225.978C337.491 225.699 337.101 225.922 337.101 226.478C337.101 227.034 337.491 227.702 337.991 227.98L358.58 239.882C359.025 240.16 359.415 239.938 359.415 239.382ZM371.379 228.425C371.379 228.981 370.989 229.203 370.544 228.925L337.936 210.126C337.435 209.848 337.101 209.181 337.101 208.625C337.101 208.068 337.491 207.846 337.991 208.124L370.6 226.923C370.989 227.201 371.379 227.869 371.379 228.425ZM365.425 232.874C365.425 233.43 365.035 233.653 364.59 233.375L337.991 218.024C337.491 217.746 337.157 217.079 337.157 216.522C337.157 215.966 337.546 215.744 338.047 216.022L364.646 231.373C365.035 231.651 365.425 232.374 365.425 232.874ZM359.415 225.477C359.415 224.921 359.025 224.253 358.58 223.975L337.991 212.073C337.491 211.795 337.157 212.017 337.101 212.574C337.101 213.13 337.491 213.797 337.991 214.075L358.58 225.978C359.025 226.256 359.415 226.033 359.415 225.477ZM354.24 184.208C348.175 180.704 343.278 183.541 343.278 190.493C343.278 197.445 348.175 205.955 354.24 209.403C360.305 212.907 365.146 210.071 365.146 203.118L354.24 196.834V184.208Z" fill="#3199F0"/>
<path d="M356.633 182.818V195.443L367.595 201.784C367.595 194.776 362.698 186.322 356.633 182.818Z" fill="#CEE7FD"/>
<path d="M158.646 28.9216L150.299 33.7604C150.021 33.9273 149.798 34.3166 149.798 34.8172V77.254C149.798 96.9429 178.901 128.979 180.125 130.37C180.348 130.592 180.57 130.815 180.793 130.926C181.015 131.037 181.238 131.148 181.461 131.148C182.24 131.204 194.816 131.871 203.552 126.921L212.01 122.027C216.629 119.357 220.19 115.075 220.19 108.233V65.7966C220.19 64.7399 219.355 63.4606 218.465 62.9044C206.835 56.2302 196.04 46.7195 190.197 38.1543C189.585 37.2644 188.806 36.8194 188.194 36.9863C182.407 38.8217 171.556 35.8183 159.87 29.0885C159.369 28.7548 158.98 28.7548 158.646 28.9216Z" fill="white"/>
<path d="M218.465 62.9045C206.835 56.2302 196.039 46.7195 190.197 38.1543C189.585 37.2644 188.806 36.8194 188.193 36.9863C182.406 38.8217 171.555 35.8183 159.87 29.0885C159.425 28.8104 158.98 28.7548 158.701 28.9216L150.354 33.7604C150.633 33.5936 151.078 33.5936 151.523 33.9273C163.264 40.7127 174.06 43.7161 179.847 41.8251C180.459 41.6582 181.238 42.1032 181.85 42.9931C187.693 51.5583 198.488 61.069 210.118 67.7432C211.008 68.2438 211.843 69.5787 211.843 70.6354V113.072C211.843 119.969 208.282 124.252 203.552 126.921L212.01 122.027C216.628 119.357 220.19 115.075 220.19 108.233V65.7966C220.19 64.7399 219.355 63.405 218.465 62.9045Z" fill="#CEE7FD"/>
<path d="M183.631 131.871C182.351 131.871 181.516 131.816 181.405 131.816C181.071 131.816 180.737 131.704 180.403 131.482C180.125 131.315 179.847 131.093 179.568 130.815C178.344 129.424 149.019 97.2211 149.019 77.2541V34.8172C149.019 34.0386 149.297 33.4268 149.854 33.1487L158.256 28.3099H158.312C158.868 28.0318 159.536 28.0874 160.148 28.5323C171.611 35.1509 182.239 38.1543 187.915 36.3745C188.806 36.0965 189.919 36.6526 190.698 37.8206C196.485 46.3302 207.224 55.7297 218.743 62.3483C219.912 63.0158 220.802 64.5731 220.802 65.8523V108.345C220.802 114.63 217.964 119.468 212.344 122.694C212.344 122.694 212.288 122.694 212.288 122.75L203.83 127.644C203.774 127.644 203.774 127.7 203.719 127.7C196.986 131.371 187.804 131.871 183.631 131.871ZM158.98 29.5335L150.633 34.3723C150.577 34.4279 150.466 34.5948 150.466 34.8728V77.3097C150.466 96.7761 179.402 128.59 180.626 129.925C180.793 130.092 180.96 130.258 181.127 130.314C181.238 130.37 181.405 130.425 181.46 130.425C182.017 130.481 194.593 131.148 203.162 126.309C203.218 126.309 203.218 126.254 203.273 126.254L211.62 121.415C211.62 121.415 211.676 121.415 211.676 121.359C216.851 118.356 219.466 113.962 219.466 108.178V65.7411C219.466 64.9624 218.799 63.85 218.075 63.4607C206.39 56.7309 195.483 47.1645 189.585 38.488C189.14 37.8206 188.583 37.5425 188.36 37.5981C182.351 39.4892 171.277 36.4302 159.48 29.6447C159.258 29.4779 159.091 29.4779 158.98 29.5335C159.035 29.5335 158.98 29.5335 158.98 29.5335Z" fill="#005BEA"/>
<path d="M180.793 93.5501L171.611 77.5876L174.115 76.0859L180.793 87.6546L190.809 81.8703L193.369 86.2641L180.793 93.5501Z" fill="#3199F0"/>
<path d="M180.793 93.5502L171.555 77.5877L174.115 76.1417L180.793 87.7103L189.306 82.8159C187.248 78.867 184.187 75.363 180.793 73.4164C174.505 69.8012 169.441 72.7489 169.441 79.9237C169.441 87.1541 174.505 95.9418 180.793 99.557C187.081 103.172 192.144 100.28 192.144 93.0496C192.144 91.2699 191.81 89.3788 191.254 87.5434L180.793 93.5502Z" fill="#CEE7FD"/>
<path d="M106.729 168.857C106.284 168.412 105.894 167.912 105.616 167.356C104.781 165.576 105.449 163.796 107.119 162.35C105.839 161.349 104.336 160.515 102.667 159.792C100.219 160.737 97.1024 161.126 94.0419 160.681C90.9814 160.181 88.5886 158.957 87.3088 157.456C86.2515 157.511 85.2499 157.622 84.1926 157.789C83.1354 157.956 82.1894 158.179 81.2434 158.401C81.466 160.125 80.4644 161.849 78.2385 163.129C77.849 163.351 77.3482 163.574 76.903 163.741C76.6805 163.685 76.5135 163.685 76.291 163.629C75.0667 163.462 73.7869 163.296 72.5627 163.24C72.0619 163.796 71.4498 164.352 70.7264 164.853C70.5038 164.853 70.2812 164.853 70.0586 164.853C69.8917 165.075 69.7248 165.298 69.6135 165.52C68.1667 166.243 66.4417 166.8 64.4941 167.133C60.7658 167.689 57.0376 167.244 54.0884 166.076C52.0851 166.966 50.2488 167.968 48.7464 169.191C50.7496 170.86 51.5287 173.084 50.527 175.198C50.2488 175.865 49.748 176.422 49.1916 176.978C47.9117 178.257 45.9641 179.258 43.7383 179.87C44.0165 181.316 44.6843 182.762 45.6859 184.097C49.2472 183.93 52.8642 184.597 55.5908 186.21C58.3174 187.768 59.486 189.881 59.2078 191.939C60.3763 192.217 61.5449 192.495 62.7691 192.662C63.9933 192.829 65.2731 192.996 66.4973 193.051C68.0554 191.216 70.8933 189.714 74.6216 189.158C78.3498 188.602 82.0781 189.047 85.0273 190.215C87.0305 189.325 88.8669 188.324 90.4249 187.1C88.4217 185.432 87.6426 183.263 88.5886 181.093C88.7556 180.704 88.9781 180.37 89.2564 180.037C90.5362 180.649 91.5935 181.372 92.3169 182.206C93.3741 182.15 94.3758 182.039 95.433 181.872C96.4903 181.705 97.4363 181.483 98.3822 181.26C98.1597 179.536 99.1613 177.812 101.387 176.533C103.669 175.254 106.673 174.642 109.623 174.809C110.457 173.696 111.014 172.528 111.236 171.305C109.4 170.748 107.786 169.914 106.729 168.857ZM79.2402 182.706C79.1845 182.706 79.1845 182.762 79.1289 182.818C78.9619 182.929 78.795 183.04 78.6281 183.151C78.5724 183.207 78.5168 183.207 78.4611 183.263C78.2942 183.374 78.0716 183.485 77.9047 183.541C77.849 183.596 77.7377 183.596 77.6821 183.652H77.6264C77.5152 183.708 77.4595 183.708 77.4039 183.763C77.07 183.93 76.6805 184.097 76.291 184.208C73.453 185.265 69.8361 185.654 66.3304 185.098C63.715 184.709 61.5449 183.874 59.9868 182.762C59.9311 182.706 59.8755 182.706 59.8199 182.651C59.7642 182.595 59.7086 182.595 59.6529 182.54C59.4303 182.373 59.2634 182.206 59.0408 182.039C58.9852 181.983 58.8739 181.928 58.8182 181.816L58.7626 181.761C57.1489 180.148 56.5368 178.146 57.4271 176.199C59.2078 172.306 66.1078 170.025 72.8409 171.082C73.0079 171.138 73.1748 171.138 73.3974 171.193C73.6756 171.527 73.8982 171.861 74.0651 172.195C74.8998 173.974 74.2321 175.754 72.5627 177.2C73.8425 178.201 75.345 179.036 77.0143 179.759C78.5168 179.147 80.2418 178.813 82.0781 178.757C82.0224 179.147 81.9112 179.592 81.6886 179.981C81.1878 181.038 80.3531 181.928 79.2402 182.706ZM98.7718 172.862C98.5492 173.084 98.3266 173.251 98.1597 173.418C98.104 173.474 97.9927 173.529 97.9371 173.585C97.8814 173.641 97.8258 173.696 97.7145 173.696C97.6032 173.752 97.5476 173.807 97.4363 173.863C97.2693 173.974 97.1024 174.086 96.9355 174.141C97.1024 174.03 97.2137 173.974 97.3806 173.863C96.6572 174.308 95.8782 174.697 94.9322 174.975C94.5984 173.974 94.0419 173.029 93.3741 172.083C89.8128 172.25 86.1959 171.583 83.4692 169.97C82.0224 169.135 81.0208 168.134 80.4087 167.078C81.6886 165.576 84.0257 164.352 87.0862 163.907C92.6508 163.073 98.3822 164.964 99.8847 168.19C100.608 169.859 100.163 171.527 98.7718 172.862Z" fill="#CEE7FD"/>
<path d="M95.3769 154.397C95.0987 152.951 94.4309 151.504 93.4293 150.17C89.868 150.336 86.251 149.613 83.5244 148.056C80.7978 146.499 79.6292 144.385 79.9074 142.327C78.7389 142.049 77.5703 141.771 76.3461 141.604C75.1219 141.438 73.8421 141.271 72.6179 141.215C71.1154 143.05 68.2219 144.552 64.4936 145.108C60.7654 145.665 57.0371 145.22 54.0879 144.052C52.0846 144.942 50.2483 145.943 48.7459 147.166V154.508C48.9129 154.675 49.0798 154.842 49.2467 154.953C47.9669 156.232 46.0193 157.233 43.7935 157.845V165.187C44.0717 166.633 44.7394 168.079 45.7411 169.414C49.3024 169.247 52.9193 169.914 55.646 171.527C58.3726 173.084 59.5412 175.198 59.2629 177.256C60.4315 177.534 61.6 177.812 62.8242 177.979C64.0484 178.146 65.3283 178.313 66.5525 178.368C68.1106 176.533 70.9485 175.031 74.6768 174.475C78.405 173.919 82.1333 174.364 85.0825 175.532C87.0857 174.642 88.922 173.641 90.4801 172.417V165.075C90.3132 164.909 90.1462 164.742 89.9793 164.63C91.2591 163.351 93.2067 162.35 95.4326 161.738V154.397H95.3769ZM58.6508 159.792C61.4331 157.011 67.1646 155.565 72.7848 156.455C76.1235 156.955 78.7389 158.179 80.3526 159.792C77.5703 162.573 71.8388 164.019 66.2743 163.129C62.9355 162.628 60.2645 161.405 58.6508 159.792Z" fill="white"/>
<path d="M76.1797 162.295C77.849 161.683 79.2958 160.848 80.3531 159.792C78.7394 158.179 76.0684 156.955 72.7853 156.455C67.1651 155.565 61.4892 157.066 58.6513 159.792C59.2634 160.404 59.9868 160.904 60.8771 161.405C57.594 159.625 56.0916 156.9 57.3714 154.23C59.1521 150.337 66.0522 148.056 72.7853 149.113C79.4627 150.17 83.4692 154.119 81.6886 158.012C80.7982 159.847 78.795 161.349 76.1797 162.295ZM74.6216 167.133C70.8933 167.69 68.0554 169.191 66.4973 171.027C65.2731 170.915 63.9933 170.804 62.7691 170.637C61.5449 170.47 60.3207 170.192 59.2078 169.914C59.486 167.856 58.3174 165.743 55.5908 164.186C52.8642 162.628 49.2472 161.905 45.6859 162.072C44.6843 160.737 44.0165 159.291 43.7383 157.845V165.187C44.0165 166.633 44.6843 168.079 45.6859 169.414C49.2472 169.247 52.8642 169.914 55.5908 171.527C58.3174 173.084 59.486 175.198 59.2078 177.256C60.3763 177.534 61.5449 177.812 62.7691 177.979C63.9933 178.146 65.2731 178.313 66.4973 178.368C68.0554 176.533 70.8933 175.031 74.6216 174.475C78.3498 173.919 82.0781 174.364 85.0273 175.532C87.0305 174.642 88.8669 173.641 90.4249 172.417V165.075C88.8669 166.243 87.0862 167.3 85.0273 168.19C82.0781 167.022 78.2942 166.577 74.6216 167.133ZM95.3774 154.397C92.1499 155.287 89.5902 156.955 88.5886 159.069C87.587 161.238 88.366 163.407 90.4249 165.075C90.258 164.909 90.0911 164.742 89.9241 164.63C91.204 163.351 93.1516 162.35 95.3774 161.738V154.397ZM50.4158 153.173C51.4174 151.004 50.6383 148.835 48.6351 147.166V154.508C48.802 154.675 48.969 154.842 49.1359 154.953C49.6924 154.452 50.1375 153.841 50.4158 153.173Z" fill="#CEE7FD"/>
<path d="M66.4971 179.091C66.4971 179.091 66.4414 179.091 66.4971 179.091C64.9946 178.98 63.7704 178.869 62.6575 178.702C61.489 178.535 60.3204 178.257 58.9849 177.923C58.6511 177.812 58.4285 177.478 58.4841 177.145C58.7623 175.309 57.5381 173.474 55.201 172.139C52.697 170.693 49.247 169.97 45.6856 170.137C45.4631 170.137 45.2405 170.025 45.0735 169.859C44.0163 168.412 43.2929 166.911 43.0146 165.353C43.0146 165.298 43.0146 165.242 43.0146 165.242V157.901C43.0146 157.567 43.2372 157.289 43.5155 157.233C45.4074 156.733 46.9655 155.954 48.134 155.008C48.0227 154.897 47.9671 154.73 47.9671 154.563V147.222C47.9671 146.999 48.0784 146.833 48.2453 146.666C49.8034 145.442 51.6397 144.385 53.7542 143.495C53.9212 143.44 54.0881 143.44 54.3107 143.495C57.2599 144.663 60.9325 145.053 64.3269 144.497C67.7213 143.996 70.5036 142.661 72.006 140.826C72.1729 140.659 72.3399 140.548 72.5624 140.603C74.0092 140.715 75.2334 140.826 76.3463 140.993C77.4593 141.159 78.6835 141.438 79.9633 141.771C80.2972 141.883 80.5198 142.216 80.4641 142.55C80.1859 144.385 81.4101 146.221 83.7472 147.556C86.2513 149.002 89.7013 149.725 93.2626 149.558C93.4852 149.558 93.7078 149.669 93.8747 149.836C94.932 151.282 95.6554 152.784 95.9892 154.341C95.9892 154.397 95.9892 154.452 95.9892 154.452V161.794C95.9892 162.128 95.7667 162.406 95.4884 162.461C93.5965 162.962 92.0384 163.741 90.8698 164.686C90.9811 164.797 91.0368 164.964 91.0368 165.131V172.473C91.0368 172.695 90.9255 172.862 90.7586 173.029C89.2005 174.252 87.3642 175.309 85.2496 176.199C85.0827 176.255 84.9158 176.255 84.6932 176.199C81.744 175.031 78.0714 174.642 74.677 175.198C71.2826 175.754 68.5003 177.089 66.9979 178.869C66.8866 178.98 66.7197 179.091 66.4971 179.091ZM59.8753 176.7C60.9325 176.922 61.8785 177.145 62.8245 177.311C63.8261 177.478 64.8834 177.59 66.1632 177.701C67.8882 175.81 70.8931 174.364 74.4544 173.807C78.0157 173.251 81.8553 173.585 84.9714 174.809C86.7521 174.03 88.3101 173.14 89.6456 172.139V165.465C89.59 165.409 89.5343 165.353 89.4231 165.242L89.3118 165.131C89.2005 165.02 89.0892 164.797 89.0892 164.63C89.0892 164.464 89.1448 164.241 89.3118 164.13C90.5916 162.851 92.3723 161.85 94.5981 161.182V154.452C94.3199 153.229 93.8191 152.005 92.9844 150.837C89.3118 150.948 85.6948 150.17 83.0795 148.612C80.4641 147.111 79.0173 145.053 79.073 142.828C78.0157 142.55 77.0697 142.383 76.1238 142.216C75.1221 142.049 74.0649 141.938 72.785 141.827C71.06 143.718 68.0552 145.164 64.4938 145.72C60.9325 146.276 57.093 145.943 53.9768 144.719C52.1962 145.498 50.6381 146.388 49.3026 147.389V154.063C49.4139 154.119 49.4695 154.23 49.5252 154.285L49.5808 154.341C49.6921 154.452 49.8034 154.675 49.8034 154.842C49.8034 155.008 49.7478 155.231 49.5808 155.342C48.301 156.621 46.4647 157.623 44.2945 158.29V165.02C44.5727 166.243 45.0735 167.467 45.9082 168.635C49.5808 168.524 53.1978 169.302 55.8131 170.86C58.4841 172.417 59.9309 174.531 59.8753 176.7ZM69.4463 164.074C68.3334 164.074 67.2205 164.019 66.1632 163.796C62.8245 163.296 59.9865 162.016 58.2059 160.292C58.0946 160.181 57.9833 159.958 57.9833 159.792C57.9833 159.625 58.039 159.402 58.2059 159.291C61.2107 156.343 67.2205 154.897 72.8963 155.731C76.2351 156.232 79.073 157.511 80.8536 159.235C80.9649 159.347 81.0762 159.569 81.0762 159.736C81.0762 159.903 81.0206 160.125 80.8536 160.237C78.4052 162.684 74.0092 164.074 69.4463 164.074ZM59.7083 159.792C61.322 161.071 63.6035 162.016 66.3858 162.461C71.2826 163.24 76.5133 162.128 79.3512 159.792C77.7375 158.512 75.456 157.567 72.6737 157.122C67.7213 156.399 62.5462 157.456 59.7083 159.792Z" fill="#005BEA"/>
<path d="M68.3335 146.554C70.2254 147.055 71.7835 147.889 72.8964 148.946C72.7851 149.057 72.6182 149.224 72.5069 149.335V155.398C73.7868 156.399 75.2892 157.233 76.9586 157.956C79.407 157.011 82.5231 156.621 85.5836 157.066C88.6441 157.567 91.0369 158.791 92.3167 160.292C93.374 160.237 94.3756 160.125 95.4329 159.959C96.4902 159.792 97.4361 159.569 98.3821 159.347C98.1595 157.623 99.1611 155.898 101.387 154.619C103.668 153.34 106.673 152.728 109.623 152.895C110.457 151.783 111.014 150.615 111.236 149.391V143.329C109.344 142.828 107.786 141.994 106.673 140.937C106.785 140.826 106.952 140.659 107.063 140.548V134.485C105.783 133.484 104.281 132.65 102.611 131.927C100.163 132.872 97.0466 133.262 93.9861 132.817C90.9256 132.316 88.5328 131.093 87.253 129.591C86.1957 129.646 85.1941 129.758 84.1368 129.925C83.0796 130.091 82.1336 130.314 81.1876 130.536C81.4102 132.261 80.4086 133.985 78.1828 135.264C75.9569 136.543 72.8964 137.155 69.9472 136.988C69.1125 138.1 68.5561 139.268 68.3335 140.492V146.554ZM92.4837 147.778C87.8651 148.501 83.0796 147.278 80.7981 144.997C82.1336 143.662 84.3594 142.661 87.0861 142.216C91.7603 141.493 96.4902 142.717 98.7716 144.997C97.4361 146.332 95.2659 147.333 92.4837 147.778Z" fill="#3199F0"/>
<path opacity="0.3" d="M79.7408 143.495C78.2384 140.27 81.5215 136.988 87.0861 136.098C92.6506 135.264 98.3821 137.155 99.8845 140.381C100.942 142.606 99.662 144.83 96.9353 146.332C97.6587 145.943 98.2708 145.498 98.7716 144.997C96.4345 142.717 91.7046 141.493 87.0861 142.216C84.3594 142.661 82.1336 143.662 80.7981 144.997C81.6328 145.831 82.857 146.554 84.2481 147.055C82.0779 146.276 80.4086 144.997 79.7408 143.495ZM76.9586 151.949C75.2892 151.226 73.7868 150.392 72.5069 149.391V155.453C73.7868 156.455 75.2892 157.289 76.9586 158.012C79.407 157.066 82.5231 156.677 85.5836 157.122C88.6441 157.623 91.0369 158.846 92.3167 160.348C93.374 160.292 94.3756 160.181 95.4329 160.014C96.4902 159.847 97.4361 159.625 98.3821 159.402C98.1595 157.678 99.1611 155.954 101.387 154.675C103.668 153.396 106.673 152.784 109.623 152.951C110.457 151.838 111.014 150.67 111.236 149.447V143.384C111.014 144.608 110.457 145.776 109.623 146.888C106.673 146.777 103.668 147.333 101.387 148.612C99.1611 149.892 98.1595 151.671 98.3821 153.34C97.4361 153.562 96.4345 153.785 95.4329 153.952C94.3756 154.119 93.374 154.23 92.3167 154.285C91.0369 152.728 88.6441 151.504 85.5836 151.06C82.4675 150.615 79.3513 150.948 76.9586 151.949ZM68.3335 146.554C70.2254 147.055 71.7835 147.889 72.8964 148.946C72.7851 149.057 72.6182 149.224 72.5069 149.335C74.1763 147.945 74.844 146.11 74.0093 144.33C73.1747 142.55 71.0601 141.159 68.3891 140.436V146.554H68.3335ZM106.729 140.993C106.84 140.881 107.007 140.715 107.118 140.603V134.541C105.449 135.931 104.781 137.767 105.616 139.547C105.894 140.047 106.228 140.548 106.729 140.993Z" fill="black"/>
<path d="M92.3165 161.071C92.0939 161.071 91.927 160.96 91.76 160.793C90.5358 159.347 88.2544 158.234 85.4721 157.789C82.6342 157.344 79.6293 157.623 77.1809 158.624C77.014 158.679 76.7914 158.679 76.6244 158.624C74.8438 157.845 73.3414 156.955 72.0059 155.954C71.8389 155.843 71.7276 155.62 71.7276 155.398V149.335C71.7276 149.224 71.7833 149.113 71.8389 149.002C70.893 148.223 69.6131 147.667 68.1107 147.222C67.8324 147.166 67.6099 146.888 67.6099 146.554V140.492C67.6099 140.436 67.6099 140.381 67.6099 140.381C67.8881 139.046 68.4445 137.822 69.3349 136.599C69.4462 136.432 69.6687 136.321 69.947 136.321C72.8962 136.432 75.7341 135.876 77.793 134.652C79.685 133.54 80.6866 132.094 80.464 130.592C80.4084 130.258 80.6309 129.925 80.9648 129.813C82.0777 129.535 83.0237 129.313 84.0253 129.202C84.9713 129.035 86.0286 128.923 87.1971 128.868C87.4197 128.868 87.6423 128.923 87.7536 129.146C88.9778 130.592 91.2592 131.704 94.0415 132.149C96.8794 132.594 99.8843 132.316 102.333 131.315C102.5 131.259 102.667 131.259 102.889 131.315C104.614 132.038 106.172 132.984 107.508 133.985C107.675 134.096 107.786 134.318 107.786 134.541V140.603C107.786 140.715 107.73 140.826 107.675 140.937C108.621 141.716 109.901 142.327 111.403 142.717C111.681 142.772 111.904 143.05 111.904 143.384V149.447C111.904 149.502 111.904 149.558 111.904 149.558C111.626 150.893 111.069 152.172 110.179 153.34C110.067 153.507 109.789 153.618 109.567 153.618C106.617 153.507 103.779 154.063 101.721 155.287C99.8287 156.399 98.827 157.845 99.0496 159.347C99.1053 159.68 98.8827 160.014 98.5488 160.125C97.4915 160.403 96.4899 160.57 95.4883 160.737C94.598 160.904 93.5963 161.015 92.3165 161.071ZM82.8568 156.232C83.8027 156.232 84.7487 156.288 85.639 156.455C88.5882 156.899 91.0923 158.067 92.5391 159.68C93.5964 159.625 94.431 159.514 95.2657 159.402C95.9891 159.291 96.7681 159.124 97.6028 158.957C97.6028 157.122 98.827 155.398 100.997 154.174C103.167 152.895 106.172 152.228 109.233 152.339C109.845 151.393 110.29 150.448 110.513 149.447V143.94C108.732 143.384 107.23 142.55 106.172 141.493C106.061 141.382 105.95 141.159 105.95 140.993C105.95 140.826 106.005 140.603 106.172 140.492C106.228 140.436 106.284 140.381 106.395 140.27V134.819C105.282 133.985 104.058 133.262 102.611 132.65C99.9956 133.595 96.8794 133.929 93.8746 133.429C90.9254 132.984 88.4213 131.816 86.9745 130.203C85.9729 130.258 85.0826 130.369 84.2479 130.481C83.4689 130.592 82.7455 130.759 81.9108 130.926C81.9108 132.761 80.6866 134.485 78.5164 135.764C76.3462 137.044 73.3414 137.711 70.2809 137.6C69.6131 138.545 69.2236 139.491 69.001 140.492V145.998C70.7817 146.554 72.2841 147.389 73.3414 148.445C73.4527 148.557 73.5639 148.779 73.5639 148.946C73.5639 149.113 73.5083 149.335 73.3414 149.447L73.2301 149.558C73.1744 149.613 73.1744 149.613 73.1188 149.669V155.12C74.2317 155.898 75.4559 156.677 76.9027 157.289C78.739 156.621 80.7979 156.232 82.8568 156.232ZM89.8681 148.668C86.0286 148.668 82.3559 147.5 80.3527 145.498C80.2414 145.386 80.1301 145.164 80.1301 144.997C80.1301 144.83 80.1858 144.608 80.3527 144.497C81.8551 142.995 84.2479 141.994 87.0302 141.549C91.76 140.826 96.8238 142.049 99.3278 144.552C99.4391 144.663 99.5504 144.886 99.5504 145.053C99.5504 145.22 99.4948 145.442 99.3278 145.553C97.8254 147.055 95.4327 148.056 92.6504 148.501C91.7044 148.557 90.7584 148.668 89.8681 148.668ZM81.8551 144.997C84.2479 146.833 88.4213 147.722 92.4278 147.111C94.598 146.777 96.4899 146.054 97.7698 145.053C95.377 143.217 91.2036 142.327 87.1971 142.939C85.0269 143.217 83.135 143.94 81.8551 144.997Z" fill="#005BEA"/>
<path d="M329.2 82.6489C329.2 84.8737 330.758 87.5433 332.65 88.6557L372.325 111.57C374.217 112.683 375.775 111.793 375.775 109.568V92.3821C375.775 90.1574 374.217 87.4877 372.325 86.3754L332.65 63.4606C330.758 62.3482 329.2 63.2381 329.2 65.4628V82.6489Z" fill="white"/>
<path d="M373.883 112.683C373.271 112.683 372.659 112.516 371.991 112.127L332.316 89.212C330.201 87.9884 328.476 85.0962 328.476 82.5934V65.4073C328.476 64.0725 328.977 63.0713 329.812 62.5708C330.702 62.0702 331.815 62.1258 332.983 62.7932L372.659 85.708C374.773 86.9316 376.443 89.8238 376.498 92.3266V109.513C376.498 110.848 375.997 111.849 375.163 112.349C374.773 112.572 374.328 112.683 373.883 112.683ZM331.147 63.6831C330.924 63.6831 330.758 63.7388 330.591 63.7944C330.145 64.0168 329.923 64.6286 329.923 65.4629V82.649C329.923 84.5957 331.37 87.0429 333.039 88.044L372.714 110.959C373.382 111.348 374.05 111.459 374.495 111.181C374.94 110.959 375.163 110.347 375.163 109.568V92.3822C375.163 90.4356 373.716 87.9328 372.047 86.9872L332.371 64.0725C331.87 63.7944 331.481 63.6831 331.147 63.6831Z" fill="#005BEA"/>
<path d="M369.042 93.2165C369.042 93.7727 368.652 93.9395 368.207 93.717L336.767 75.5854C336.322 75.3074 335.933 74.6955 335.933 74.1394C335.933 73.5832 336.322 73.4163 336.767 73.6388L368.207 91.7704C368.708 92.0485 369.042 92.6603 369.042 93.2165ZM363.31 97.5547C363.31 98.1109 362.921 98.2777 362.476 98.0553L336.823 83.2608C336.378 82.9827 335.988 82.3709 335.988 81.8147C335.988 81.3141 336.378 81.0917 336.823 81.3141L362.476 96.1086C362.921 96.3867 363.31 96.9985 363.31 97.5547ZM357.523 90.3799C357.523 89.8237 357.134 89.212 356.688 88.9339L336.823 77.4765C336.378 77.1984 335.988 77.4209 335.988 77.977C335.988 78.5332 336.378 79.145 336.823 79.4231L356.688 90.8805C357.134 91.103 357.523 90.9361 357.523 90.3799Z" fill="#CEE7FD"/>
<path d="M149.075 373.422L164.21 382.21V391.442L150.521 399.34L135.386 390.608V381.32L149.075 373.422Z" fill="white"/>
<g opacity="0.5">
<path opacity="0.5" d="M150.521 399.34L135.386 390.608V381.32L150.521 390.107V399.34Z" fill="#CEE7FD"/>
</g>
<path d="M164.21 391.442L150.521 399.34V390.107L164.21 382.21V391.442Z" fill="#CEE7FD"/>
<path d="M150.522 400.063C150.41 400.063 150.299 400.007 150.188 399.952L135.052 391.22C134.83 391.108 134.718 390.886 134.718 390.608V381.32C134.718 381.097 134.83 380.819 135.052 380.708L148.741 372.81C148.964 372.699 149.242 372.699 149.409 372.81L164.544 381.542C164.767 381.653 164.878 381.876 164.878 382.154V391.442C164.878 391.665 164.767 391.943 164.544 392.054L150.855 399.952C150.744 400.007 150.633 400.063 150.522 400.063ZM136.054 390.219L150.522 398.561L163.543 391.053V382.599L149.075 374.256L136.054 381.765V390.219Z" fill="#005BEA"/>
<path d="M22.7037 197.445C25.0965 195.054 28.9917 195.054 31.3288 197.445C33.7216 199.837 33.7216 203.675 31.3288 206.066C28.9361 208.458 25.0409 208.458 22.7037 206.066C20.311 203.675 20.311 199.837 22.7037 197.445Z" fill="white"/>
<path d="M29.3256 204.064C31.3845 202.006 31.6627 198.891 30.216 196.555C30.6055 196.778 30.995 197.112 31.3289 197.445C33.7216 199.837 33.7216 203.675 31.3289 206.066C28.9361 208.458 25.0409 208.458 22.7038 206.066C22.3699 205.732 22.0917 205.343 21.8135 204.954C24.1506 206.4 27.2667 206.122 29.3256 204.064Z" fill="#CEE7FD"/>
<path d="M26.9884 208.569C25.1521 208.569 23.4828 207.846 22.1473 206.567C20.8674 205.288 20.144 203.563 20.144 201.784C20.144 199.948 20.8674 198.28 22.1473 197C23.4271 195.721 25.1521 194.998 26.9328 194.998C28.7691 194.998 30.4385 195.721 31.774 197C33.0538 198.28 33.7772 200.004 33.7772 201.784C33.7772 203.619 33.0538 205.288 31.774 206.622C30.5498 207.846 28.8248 208.569 26.9884 208.569ZM26.9884 196.333C25.5417 196.333 24.1505 196.889 23.1489 197.946C22.1473 198.947 21.5352 200.337 21.5352 201.784C21.5352 203.23 22.0916 204.62 23.1489 205.621C24.1505 206.622 25.5417 207.234 26.9884 207.234C28.4352 207.234 29.8264 206.678 30.828 205.621C31.8296 204.62 32.4417 203.23 32.4417 201.784C32.4417 200.337 31.8853 199.003 30.828 197.946C29.8264 196.889 28.4352 196.333 26.9884 196.333Z" fill="#005BEA"/>
<path d="M102.11 76.3641C102.11 75.5854 101.609 74.7511 100.552 74.195C99.4949 73.5831 98.1037 73.3051 96.7682 73.3051C95.3771 73.3051 93.986 73.5831 92.9843 74.195C91.9271 74.8068 91.4263 75.5854 91.4263 76.3641V78.6444C91.4263 81.9259 92.7061 87.4877 92.7061 91.826C92.7061 96.2198 91.4263 102.227 91.4263 105.397V107.288C91.4263 108.067 91.9271 108.901 92.9843 109.513C94.0416 110.124 95.4327 110.403 96.7682 110.403C98.1594 110.403 99.5505 110.124 100.552 109.513C101.609 108.901 102.11 108.122 102.11 107.288V105.397C102.11 102.227 100.83 96.1642 100.83 91.826C100.83 87.4321 102.11 81.8703 102.11 78.6444V76.3641Z" fill="#3199F0"/>
<path opacity="0.3" d="M102.11 76.3641C102.11 77.1428 101.609 77.9771 100.552 78.5889C99.4947 79.2007 98.1036 79.4788 96.7681 79.4788V110.458C98.1592 110.458 99.5503 110.18 100.552 109.568C101.609 108.957 102.11 108.178 102.11 107.344V105.453C102.11 102.282 100.83 96.2199 100.83 91.8817C100.83 87.4878 102.11 81.926 102.11 78.7001V76.3641Z" fill="black"/>
<path opacity="0.1" d="M92.9287 74.1394C95.0432 72.9158 98.4376 72.9158 100.552 74.1394C102.667 75.363 102.667 77.3096 100.552 78.5332C98.4376 79.7568 95.0432 79.7568 92.9287 78.5332C90.8141 77.3653 90.8141 75.363 92.9287 74.1394Z" fill="white"/>
<path d="M96.7126 73.2493C98.1037 73.2493 99.4949 73.5274 100.496 74.1392C101.554 74.751 102.055 75.5297 102.055 76.3084V78.5887C102.055 81.8702 100.775 87.432 100.775 91.7703C100.775 96.1641 102.055 102.171 102.055 105.341V107.232C102.055 108.011 101.554 108.845 100.496 109.457C99.4392 110.069 98.0481 110.347 96.7126 110.347C95.3214 110.347 93.9303 110.069 92.9287 109.457C91.8714 108.845 91.3706 108.066 91.3706 107.232V105.341C91.3706 102.171 92.6504 96.1085 92.6504 91.7703C92.6504 87.3764 91.3706 81.8146 91.3706 78.5887V76.3084C91.3706 75.5297 91.8714 74.6954 92.9287 74.1392C93.9859 73.5274 95.3214 73.2493 96.7126 73.2493ZM96.7126 71.8589C95.0432 71.8589 93.4295 72.2482 92.2053 72.9713C90.8141 73.8055 89.9795 74.9735 89.9238 76.2527C89.9238 76.3084 89.9238 76.3084 89.9238 76.364V78.6443C89.9238 80.2573 90.202 82.3151 90.4803 84.4843C90.8141 86.9871 91.148 89.5455 91.148 91.8259C91.148 94.1062 90.7585 96.9428 90.4246 99.4456C90.1464 101.726 89.8682 103.839 89.8682 105.397V107.288C89.8682 108.623 90.7029 109.846 92.1496 110.681C93.3738 111.404 94.9876 111.793 96.6569 111.793C98.3263 111.793 99.94 111.404 101.164 110.681C102.611 109.846 103.446 108.623 103.446 107.288V105.397C103.446 103.839 103.167 101.67 102.889 99.4456C102.555 96.9428 102.166 94.1062 102.166 91.8259C102.166 89.6012 102.5 86.9871 102.834 84.4843C103.112 82.3151 103.39 80.2573 103.39 78.6443V76.364C103.39 76.3084 103.39 76.2527 103.39 76.1971C103.334 74.9179 102.5 73.7499 101.109 72.9713C99.9957 72.2482 98.3819 71.8589 96.7126 71.8589Z" fill="#005BEA"/>
<path d="M96.4342 62.96C95.5995 62.4594 94.7649 61.9033 93.9302 61.2358V76.364C93.9302 76.7534 94.2084 77.1983 94.7649 77.532C95.3213 77.8657 96.0447 78.0326 96.7681 78.0326C97.4915 78.0326 98.2149 77.8657 98.7713 77.532C99.3278 77.1983 99.606 76.809 99.606 76.364V64.2949C98.5488 64.0168 97.4915 63.6274 96.4342 62.96Z" fill="#3199F0"/>
<path opacity="0.3" d="M96.7124 63.127V77.9771C97.4358 77.9771 98.1592 77.8102 98.7156 77.4765C99.2721 77.1428 99.5503 76.7535 99.5503 76.3085V64.2393C98.66 64.0725 97.714 63.6831 96.7124 63.127Z" fill="black"/>
<path d="M96.7122 78.6444C95.8219 78.6444 95.0429 78.4219 94.3751 78.0882C93.5961 77.6433 93.2065 77.0315 93.2065 76.364V61.2358C93.2065 60.9577 93.3735 60.7353 93.5961 60.624C93.8186 60.5128 94.0969 60.5684 94.3195 60.7353C95.0985 61.4027 95.9332 61.9589 96.7122 62.4038C97.7138 62.96 98.7155 63.405 99.6614 63.6274C99.9397 63.683 100.162 63.9611 100.162 64.2948V76.364C100.162 77.0315 99.7727 77.6989 98.9937 78.0882C98.4372 78.4775 97.6025 78.6444 96.7122 78.6444ZM94.5977 62.6263V76.364C94.5977 76.5309 94.7646 76.7534 95.0985 76.9202C95.9332 77.4208 97.5469 77.4208 98.3816 76.9202C98.6598 76.7534 98.8824 76.5309 98.8824 76.364V64.7954C97.9364 64.5173 97.0461 64.0724 96.1001 63.5718C95.5993 63.2937 95.0985 63.0156 94.5977 62.6263Z" fill="#005BEA"/>
<path d="M97.7699 31.5357C93.7078 29.1997 90.0352 28.9773 87.4198 30.5346L82.6343 33.3155C79.9633 34.8728 78.3496 38.0987 78.3496 42.7706C78.3496 52.1145 84.9158 63.4607 92.9844 68.1326C97.0465 70.4686 100.663 70.6911 103.334 69.1337L108.12 66.3528C110.791 64.7955 112.405 61.5696 112.405 56.8977C112.405 47.4982 105.839 36.152 97.7699 31.5357Z" fill="white"/>
<path d="M82.6343 33.2598C85.3053 31.7025 88.9222 31.925 92.9844 34.261C101.053 38.9329 107.619 50.2791 107.619 59.6229C107.619 64.2949 106.005 67.5764 103.334 69.0781L108.12 66.2972C110.791 64.7398 112.405 61.514 112.405 56.842C112.405 47.4981 105.838 36.152 97.7699 31.48C93.7077 29.1441 90.0351 28.9216 87.4198 30.4789L82.6343 33.2598Z" fill="#CEE7FD"/>
<path d="M99.4947 70.7466C97.3802 70.7466 95.043 70.0236 92.5946 68.6331C84.3591 63.85 77.626 52.2257 77.626 42.715C77.626 37.9874 79.2397 34.3722 82.1889 32.648L86.9188 29.9227C86.9188 29.9227 86.9744 29.9227 86.9744 29.8671C89.9793 28.143 93.8745 28.4767 98.0479 30.8683C106.283 35.6514 113.017 47.2757 113.017 56.7864C113.017 61.5696 111.347 65.1292 108.398 66.8534L103.612 69.6343C102.388 70.4129 100.997 70.7466 99.4947 70.7466ZM82.968 33.816C82.968 33.816 82.968 33.8716 82.968 33.816C80.4083 35.3177 79.0171 38.4324 79.0171 42.715C79.0171 51.8364 85.4164 62.9044 93.2624 67.4652C96.935 69.5787 100.385 69.968 102.945 68.4663L107.73 65.6854C110.29 64.2393 111.681 61.069 111.681 56.7864C111.681 47.665 105.282 36.5969 97.3802 32.0362C93.7075 29.9227 90.3132 29.5334 87.7535 30.9795C87.7535 30.9795 87.6978 30.9795 87.6978 31.0351L82.968 33.816Z" fill="#005BEA"/>
<path d="M92.9284 65.6853C85.9727 61.6808 80.3525 51.9476 80.3525 43.8829C80.3525 35.8738 85.9727 32.5923 92.9284 36.5969C99.8841 40.6014 105.504 50.3346 105.504 58.3993C105.504 66.464 99.8841 69.6898 92.9284 65.6853Z" fill="#CEE7FD"/>
<path opacity="0.6" d="M97.7696 62.9601C90.8139 58.9555 85.1937 49.2223 85.1937 41.1577C85.1937 38.5436 85.8058 36.4857 86.8074 34.984C82.9679 35.2621 80.4082 38.488 80.4082 43.9386C80.4082 51.9476 86.0284 61.7365 92.9841 65.741C97.6583 68.4663 101.776 67.8545 103.946 64.6842C102.11 64.7398 99.9954 64.2393 97.7696 62.9601Z" fill="black"/>
</svg>
