<svg width="24" height="25" viewBox="0 0 24 25" fill="none" xmlns="http://www.w3.org/2000/svg">
<circle cx="12" cy="12.0229" r="12" fill="#858585"/>
<path d="M11.102 4.0765C7.4145 4.46332 4.44849 7.32579 4.04768 10.8072C3.64687 14.4433 5.81125 17.6926 9.09791 18.9304C9.3384 19.0078 9.57889 18.853 9.57889 18.5436V17.3058C9.57889 17.3058 9.25824 17.3831 8.85743 17.3831C7.73515 17.3831 7.25418 16.4548 7.17402 15.9132C7.09385 15.6038 6.93353 15.3717 6.69304 15.1396C6.45255 15.0622 6.37239 15.0622 6.37239 14.9848C6.37239 14.8301 6.61288 14.8301 6.69304 14.8301C7.17402 14.8301 7.57483 15.3717 7.73515 15.6038C8.13596 16.2227 8.61694 16.3774 8.85743 16.3774C9.17808 16.3774 9.41856 16.3 9.57889 16.2227C9.65905 15.6811 9.89954 15.1396 10.3805 14.8301C8.53678 14.4433 7.17402 13.4376 7.17402 11.7355C7.17402 10.8845 7.57483 10.0335 8.13596 9.41462C8.0558 9.25989 7.97564 8.87307 7.97564 8.33152C7.97564 8.02207 7.97564 7.55788 8.21613 7.0937C8.21613 7.0937 9.3384 7.0937 10.4607 8.09943C10.8615 7.9447 11.4226 7.86734 11.9838 7.86734C12.5449 7.86734 13.106 7.9447 13.587 8.09943C14.6291 7.0937 15.8316 7.0937 15.8316 7.0937C15.9919 7.55788 15.9919 8.02207 15.9919 8.33152C15.9919 8.95044 15.9117 9.25989 15.8316 9.41462C16.3927 10.0335 16.7935 10.8072 16.7935 11.7355C16.7935 13.4376 15.4307 14.4433 13.587 14.8301C14.068 15.2169 14.3886 15.9132 14.3886 16.6095V18.621C14.3886 18.853 14.6291 19.0851 14.9498 19.0078C17.9158 17.8473 20 15.0622 20 11.8129C20 7.17106 15.9117 3.53495 11.102 4.0765Z" fill="white"/>
</svg>
