<svg width="24" height="25" viewBox="0 0 24 25" fill="none" xmlns="http://www.w3.org/2000/svg">
<circle cx="12" cy="12.0229" r="12" fill="#858585"/>
<path fill-rule="evenodd" clip-rule="evenodd" d="M6 15.0229C6 16.5649 7.458 18.0229 9 18.0229H15C16.542 18.0229 18 16.5649 18 15.0229V9.02295C18 7.48095 16.542 6.02295 15 6.02295H9C7.458 6.02295 6 7.48095 6 9.02295V15.0229ZM7.5 9.02295C7.5 8.32155 8.2986 7.52295 9 7.52295H15C15.7014 7.52295 16.5 8.32155 16.5 9.02295V15.0229C16.5 15.7243 15.7014 16.5229 15 16.5229H9C8.2854 16.5229 7.5 15.7375 7.5 15.0229V9.02295ZM15.1085 9.66199C15.5062 9.66199 15.8285 9.33964 15.8285 8.94199C15.8285 8.54435 15.5062 8.22199 15.1085 8.22199C14.7109 8.22199 14.3885 8.54435 14.3885 8.94199C14.3885 9.33964 14.7109 9.66199 15.1085 9.66199ZM12 15.0229C10.3452 15.0229 9 13.6777 9 12.0229C9 10.3681 10.3452 9.02295 12 9.02295C13.6548 9.02295 15 10.3681 15 12.0229C15 13.6777 13.6548 15.0229 12 15.0229ZM12 10.5229C11.6023 10.5234 11.2211 10.6816 10.9399 10.9628C10.6587 11.244 10.5005 11.6253 10.5 12.0229C10.5 12.8503 11.1726 13.5229 12 13.5229C12.8274 13.5229 13.5 12.8503 13.5 12.0229C13.5 11.1955 12.8274 10.5229 12 10.5229Z" fill="white"/>
</svg>
