<svg width="24" height="25" viewBox="0 0 24 25" fill="none" xmlns="http://www.w3.org/2000/svg">
<circle cx="12" cy="12.0229" r="12" fill="#858585"/>
<g clip-path="url(#clip0)">
<path d="M17.9971 18.0231V18.0226H18.0001V13.6216C18.0001 11.4686 17.5366 9.81006 15.0196 9.81006C13.8096 9.81006 12.9976 10.4741 12.6661 11.1036H12.6311V10.0111H10.2446V18.0226H12.7296V14.0556C12.7296 13.0111 12.9276 12.0011 14.2211 12.0011C15.4956 12.0011 15.5146 13.1931 15.5146 14.1226V18.0231H17.9971Z" fill="white"/>
<path d="M6.198 10.0115H8.686V18.023H6.198V10.0115Z" fill="white"/>
<path d="M7.441 6.02295C6.6455 6.02295 6 6.66845 6 7.46395C6 8.25945 6.6455 8.91845 7.441 8.91845C8.2365 8.91845 8.882 8.25945 8.882 7.46395C8.8815 6.66845 8.236 6.02295 7.441 6.02295V6.02295Z" fill="white"/>
</g>
<defs>
<clipPath id="clip0">
<rect width="12" height="12" fill="white" transform="translate(6 6.02295)"/>
</clipPath>
</defs>
</svg>
