<svg width="24" height="25" viewBox="0 0 24 25" fill="none" xmlns="http://www.w3.org/2000/svg">
<circle cx="12" cy="12.0229" r="12" fill="#858585"/>
<path d="M19 8.2087C18.5125 8.41467 18.025 8.56931 17.4835 8.62065C18.025 8.31138 18.4585 7.79613 18.675 7.22893C18.1335 7.5382 17.5914 7.74479 16.996 7.84747C16.7499 7.58764 16.4491 7.37996 16.1132 7.23791C15.7772 7.09587 15.4137 7.02263 15.046 7.02295C14.3424 7.02393 13.6679 7.29031 13.1703 7.7637C12.6727 8.2371 12.3927 8.8789 12.3914 9.54846C12.3914 9.75506 12.3914 9.96103 12.446 10.1157C10.171 10.0124 8.22105 8.98188 6.92105 7.43552C6.65 7.84747 6.54145 8.26004 6.54145 8.72395C6.54145 9.60042 7.02895 10.3736 7.73355 10.8375C7.3 10.8375 6.86645 10.7342 6.54145 10.5282V10.5796C6.54145 11.8167 7.4625 12.8478 8.65395 13.0538C8.4375 13.1051 8.22105 13.157 7.95 13.157C7.7875 13.157 7.625 13.1571 7.4625 13.1051C7.7875 14.1362 8.7625 14.858 9.95395 14.858C9.03355 15.5279 7.89605 15.9405 6.65 15.9405C6.43355 15.9405 6.21645 15.9405 6 15.8885C7.19145 16.6104 8.6 17.0229 10.0625 17.0229C14.9914 17.0229 17.646 13.157 17.646 9.8064V9.49713C18.1875 9.13651 18.621 8.67261 19 8.2087Z" fill="white"/>
</svg>
