<svg width="90" height="90" viewBox="0 0 90 90" fill="none" xmlns="http://www.w3.org/2000/svg">
<circle cx="45" cy="45" r="45" fill="#FF8976" fill-opacity="0.2"/>
<g clip-path="url(#clip0)">
<path d="M63.112 27.7972C58.3771 23.0622 52.1063 20.4546 45.4546 20.4546C38.8029 20.4546 32.532 23.0622 27.7972 27.7972C23.0622 32.532 20.4546 38.8029 20.4546 45.4546C20.4546 52.1063 23.0622 58.3771 27.7972 63.112C32.532 67.847 38.8029 70.4546 45.4546 70.4546C52.1063 70.4546 58.3771 67.847 63.112 63.112C67.847 58.3771 70.4546 52.1063 70.4546 45.4546C70.4546 38.8029 67.847 32.532 63.112 27.7972ZM45.4546 67.5249C33.285 67.5249 23.3843 57.6242 23.3843 45.4546C23.3843 33.285 33.285 23.3843 45.4546 23.3843C57.6242 23.3843 67.5249 33.285 67.5249 45.4546C67.5249 57.6242 57.6242 67.5249 45.4546 67.5249Z" fill="#FF8976"/>
<path d="M45.4546 26.4116C34.9543 26.4116 26.4116 34.9543 26.4116 45.4546C26.4116 55.9549 34.9543 64.4976 45.4546 64.4976C55.9549 64.4976 64.4976 55.9549 64.4976 45.4546C64.4976 34.9543 55.9549 26.4116 45.4546 26.4116ZM45.4546 61.5679C36.5697 61.5679 29.3413 54.3395 29.3413 45.4546C29.3413 36.5697 36.5697 29.3413 45.4546 29.3413C54.3395 29.3413 61.5679 36.5697 61.5679 45.4546C61.5679 54.3395 54.3395 61.5679 45.4546 61.5679Z" fill="#FF8976"/>
<path d="M49.8491 41.0453C49.8491 41.8542 50.505 42.5101 51.314 42.5101C52.1229 42.5101 52.7788 41.8542 52.7788 41.0453C52.7788 39.423 51.9397 37.8632 50.4767 36.766C49.4773 36.0165 48.2478 35.5158 46.9194 35.3028V33.7209C46.9194 32.912 46.2636 32.2561 45.4546 32.2561C44.6456 32.2561 43.9897 32.912 43.9897 33.7209V35.3028C42.6613 35.5158 41.4317 36.0165 40.4325 36.766C38.9694 37.8632 38.1304 39.423 38.1304 41.0453C38.1304 42.6675 38.9694 44.2272 40.4325 45.3246C41.4318 46.0741 42.6614 46.5748 43.9897 46.7877V52.5894C42.3022 52.177 41.0601 51.0819 41.0601 49.8343C41.0601 49.0253 40.4042 48.3695 39.5952 48.3695C38.7862 48.3695 38.1304 49.0253 38.1304 49.8343C38.1304 51.4566 38.9694 53.0163 40.4325 54.1136C41.4318 54.8631 42.6614 55.3638 43.9897 55.5768V57.1734C43.9897 57.9824 44.6456 58.6382 45.4546 58.6382C46.2636 58.6382 46.9194 57.9824 46.9194 57.1734V55.5768C48.2479 55.3638 49.4774 54.8631 50.4767 54.1136C51.9397 53.0164 52.7788 51.4566 52.7788 49.8343C52.7788 48.2121 51.9397 46.6523 50.4767 45.555C49.4773 44.8055 48.2478 44.3048 46.9194 44.0918V38.2902C48.6069 38.7027 49.8491 39.7977 49.8491 41.0453ZM41.0601 41.0453C41.0601 39.7977 42.3022 38.7026 43.9897 38.2902V43.8002C42.3022 43.3879 41.0601 42.2928 41.0601 41.0453ZM49.8491 49.8343C49.8491 51.0819 48.6069 52.177 46.9194 52.5894V47.0793C48.6069 47.4917 49.8491 48.5868 49.8491 49.8343Z" fill="#FF8976"/>
</g>
<defs>
<clipPath id="clip0">
<rect width="50" height="50" fill="white" transform="translate(20.4546 20.4546)"/>
</clipPath>
</defs>
</svg>
