<svg width="90" height="90" viewBox="0 0 90 90" fill="none" xmlns="http://www.w3.org/2000/svg">
<circle cx="45" cy="45" r="45" fill="#0CC3BE" fill-opacity="0.2"/>
<g clip-path="url(#clip0)">
<path d="M47.0236 45.2756C49.4906 45.2716 51.8756 44.5446 53.9216 43.1726C55.9686 41.7996 57.5456 39.8706 58.4826 37.5956C59.4216 35.3186 59.6616 32.8396 59.1766 30.4226C58.6926 28.0086 57.5136 25.8136 55.7686 24.0736C54.0256 22.3356 51.8256 21.1646 49.4086 20.6896C46.9846 20.2116 44.4976 20.4686 42.2406 21.4076C39.9666 22.3546 38.0437 23.9386 36.6787 25.9886C35.3137 28.0406 34.5946 30.4256 34.5986 32.8876C34.6086 36.2006 35.9066 39.3126 38.2526 41.6526C40.5976 43.9896 43.7126 45.2756 47.0236 45.2756ZM37.3746 32.8826C37.3736 30.3096 38.3736 27.8896 40.1886 26.0676C42.0036 24.2456 44.4206 23.2386 46.9906 23.2306C48.9086 23.2306 50.7606 23.7886 52.3486 24.8446C53.9396 25.9046 55.1696 27.3976 55.9046 29.1626C56.6397 30.9286 56.8326 32.8536 56.4626 34.7276C56.0926 36.6026 55.1847 38.3106 53.8337 39.6666C52.4846 41.0206 50.7806 41.9346 48.9056 42.3106C47.0466 42.6856 45.0986 42.4966 43.3376 41.7726C41.5716 41.0446 40.0736 39.8206 39.0076 38.2316C37.9426 36.6456 37.3786 34.7956 37.3746 32.8826Z" fill="#0CC3BE"/>
<path d="M47.8035 36.1996L45.4415 36.2046C45.3895 36.2046 45.3445 36.1866 45.3085 36.1496C45.2735 36.1146 45.2535 36.0696 45.2535 36.0166C45.2515 35.6516 45.1035 35.2946 44.8445 35.0366C44.3195 34.5156 43.4095 34.5146 42.8825 35.0416C42.6235 35.3006 42.4755 35.6586 42.4775 36.0226C42.4785 36.8116 42.7885 37.5546 43.3505 38.1156C43.9105 38.6726 44.6535 38.9806 45.4435 38.9806H45.6325L45.6355 40.7426C45.6375 41.1086 45.7845 41.4656 46.0435 41.7226C46.3055 41.9836 46.6545 42.1276 47.0255 42.1276C47.3965 42.1256 47.7445 41.9816 48.0075 41.7176C48.2655 41.4576 48.4125 41.0996 48.4105 40.7376L48.4075 38.9276C49.2905 38.7816 50.0865 38.3306 50.6665 37.6406C51.2845 36.9046 51.5955 35.9706 51.5395 35.0126C51.4845 34.0516 51.0695 33.1596 50.3695 32.5006C49.6705 31.8396 48.7565 31.4776 47.7955 31.4776L46.2205 31.4806C45.9595 31.4806 45.7145 31.3796 45.5305 31.1966C45.3465 31.0136 45.2455 30.7686 45.2445 30.5096C45.2435 30.2496 45.3445 30.0046 45.5285 29.8206C45.7125 29.6356 45.9565 29.5346 46.2165 29.5346L48.5775 29.5296C48.6295 29.5296 48.6755 29.5486 48.7105 29.5846C48.7455 29.6196 48.7655 29.6656 48.7655 29.7156C48.7655 30.0806 48.9135 30.4376 49.1745 30.6976C49.4365 30.9576 49.7845 31.1016 50.1555 31.1016C50.5255 31.0996 50.8735 30.9556 51.1375 30.6926C51.3945 30.4336 51.5415 30.0766 51.5415 29.7106C51.5375 28.9196 51.2275 28.1766 50.6685 27.6196C50.1095 27.0616 49.3665 26.7536 48.5745 26.7536H48.3855L48.3845 24.9896C48.3825 24.6236 48.2335 24.2666 47.9755 24.0106C47.7225 23.7576 47.3665 23.6136 46.9965 23.6136C46.9955 23.6136 46.9935 23.6136 46.9925 23.6136C46.6215 23.6146 46.2645 23.7606 46.0145 24.0136C45.7565 24.2716 45.6085 24.6296 45.6085 24.9956L45.6115 26.8056C44.7295 26.9516 43.9335 27.4026 43.3525 28.0926C42.7345 28.8286 42.4235 29.7636 42.4805 30.7216C42.5355 31.6826 42.9505 32.5756 43.6505 33.2326C44.3495 33.8936 45.2635 34.2556 46.2245 34.2556L47.7995 34.2526C48.0605 34.2526 48.3065 34.3536 48.4905 34.5366C48.6735 34.7196 48.7745 34.9636 48.7755 35.2246C48.7765 35.4816 48.6735 35.7316 48.4935 35.9126C48.3075 36.0986 48.0625 36.1996 47.8035 36.1996Z" fill="#0CC3BE"/>
<path d="M61.8366 52.0696L61.8346 52.0686C61.6616 51.9826 60.0936 51.2226 58.4236 51.2226C57.2306 51.2226 56.2506 51.5986 55.5076 52.3416C55.4626 52.3876 55.4176 52.4356 55.3726 52.4826C53.4576 52.0046 51.8466 52.3156 50.7876 53.3756C49.5486 54.6186 48.3736 56.6236 47.7576 57.7636L45.7706 58.1636L40.6096 54.7356L43.8996 54.7296C46.3566 54.7246 48.2636 53.6096 49.2706 51.5876C49.7276 50.6546 49.9736 49.6526 50.0016 48.5936C49.9986 48.2346 49.8496 47.8826 49.5926 47.6276C49.3316 47.3666 48.9826 47.2216 48.6106 47.2216L21.8406 47.2686C21.4696 47.2706 21.1226 47.4146 20.8596 47.6786C20.6006 47.9376 20.4546 48.2936 20.4546 48.6596C20.4566 49.0266 20.6046 49.3836 20.8636 49.6396C21.1256 49.8996 21.4736 50.0436 21.8426 50.0436L46.9376 49.9996C46.8836 50.1416 46.8226 50.2786 46.7546 50.4096C46.2146 51.4466 45.2796 51.9506 43.8936 51.9526L35.9836 51.9666C35.2526 51.9666 34.8376 52.5136 34.7036 52.9826C34.5286 53.5956 34.7456 54.1956 35.2446 54.5046L44.7126 60.7906C44.8646 60.8926 45.0336 60.9626 45.2186 60.9996C45.3946 61.0336 45.5886 61.0316 45.7566 60.9966L53.6296 59.4086C53.8376 59.3656 54.0346 59.2756 54.1956 59.1506C54.3616 59.0246 54.4996 58.8576 54.5976 58.6626C54.6086 58.6406 55.7046 56.4456 56.9246 54.9246C57.1066 54.6946 57.2896 54.4896 57.4766 54.2986C57.7826 53.9926 58.4286 53.9236 59.2716 54.1046L55.5526 61.5776L43.8956 64.5126L30.0346 61.4586C29.9356 61.4376 29.8366 61.4266 29.7386 61.4266L21.8636 61.4396C21.4926 61.4416 21.1456 61.5856 20.8826 61.8496C20.6246 62.1096 20.4776 62.4676 20.4796 62.8286C20.4796 63.1946 20.6286 63.5526 20.8876 63.8096C21.1486 64.0706 21.4976 64.2156 21.8676 64.2156L29.5696 64.1976L43.6266 67.2946C43.7276 67.3156 43.8236 67.3266 43.9186 67.3266C44.0296 67.3266 44.1436 67.3126 44.2566 67.2846L56.8476 64.1136C57.0446 64.0636 57.2246 63.9746 57.3786 63.8486C57.5356 63.7236 57.6656 63.5626 57.7516 63.3856L62.4616 53.9266C62.6236 53.5956 62.6476 53.2196 62.5306 52.8716C62.4146 52.5216 62.1676 52.2366 61.8366 52.0696ZM53.4556 55.0516C53.0286 55.7326 52.6736 56.3656 52.4286 56.8196L51.4356 57.0196C51.9196 56.2926 52.3626 55.7266 52.7546 55.3336C52.9106 55.1776 53.1466 55.0826 53.4556 55.0516Z" fill="#0CC3BE"/>
<path d="M70.0466 38.1435L70.0446 38.1415C69.7826 37.8815 69.4346 37.7375 69.0626 37.7375C68.6906 37.7405 68.3416 37.8855 68.0826 38.1475L67.3046 38.9275L67.2966 34.4055C67.2966 34.0425 67.1486 33.6855 66.8876 33.4235C66.6256 33.1635 66.2766 33.0195 65.9046 33.0195C65.5346 33.0215 65.1876 33.1655 64.9256 33.4285C64.6636 33.6915 64.5196 34.0415 64.5216 34.4095L64.5306 38.9335L63.7456 38.1515C63.4866 37.8965 63.1416 37.7565 62.7706 37.7565C62.3996 37.7595 62.0526 37.9035 61.7916 38.1655C61.5336 38.4245 61.3906 38.7705 61.3876 39.1435C61.3876 39.5125 61.5306 39.8595 61.7916 40.1235L64.9446 43.2645C65.2066 43.5255 65.5556 43.6695 65.9256 43.6695C66.2966 43.6675 66.6446 43.5235 66.9066 43.2605L70.0516 40.1045C70.3076 39.8445 70.4546 39.4875 70.4546 39.1195C70.4516 38.7565 70.3036 38.4005 70.0466 38.1435Z" fill="#0CC3BE"/>
<path d="M64.9216 30.6666C65.1826 30.9266 65.5306 31.0706 65.8996 31.0706C66.2706 31.0706 66.6196 30.9256 66.8816 30.6636C67.1396 30.4056 67.2876 30.0476 67.2876 29.6806L67.2846 28.1066C67.2846 27.7426 67.1356 27.3846 66.8756 27.1256C66.6146 26.8646 66.2656 26.7206 65.8906 26.7206C65.5206 26.7236 65.1746 26.8676 64.9126 27.1296C64.6546 27.3886 64.5076 27.7466 64.5076 28.1116L64.5106 29.6846C64.5116 30.0506 64.6616 30.4086 64.9216 30.6666Z" fill="#0CC3BE"/>
<path d="M27.1506 43.3306C27.4126 43.5906 27.7606 43.7346 28.1296 43.7346C28.5006 43.7346 28.8506 43.5886 29.1126 43.3246L32.2586 40.1676C32.5166 39.9056 32.6566 39.5576 32.6536 39.1886C32.6506 38.8206 32.5066 38.4766 32.2446 38.2146C31.9856 37.9556 31.6396 37.8126 31.2666 37.8096C30.8996 37.8096 30.5536 37.9526 30.2866 38.2146L29.5116 38.9946L29.5036 34.4726C29.5036 34.1066 29.3546 33.7486 29.0956 33.4916C28.8346 33.2306 28.4846 33.0856 28.1116 33.0856C27.7406 33.0876 27.3926 33.2316 27.1326 33.4946C26.8726 33.7566 26.7286 34.1046 26.7286 34.4756L26.7376 38.9986L25.9526 38.2176C25.6936 37.9626 25.3486 37.8226 24.9776 37.8226C24.6066 37.8256 24.2596 37.9696 23.9976 38.2326C23.7406 38.4916 23.5976 38.8376 23.5946 39.2096C23.5946 39.5776 23.7366 39.9236 23.9986 40.1896L27.1506 43.3306Z" fill="#0CC3BE"/>
<path d="M27.1296 30.7326C27.3906 30.9926 27.7386 31.1366 28.1076 31.1366C28.4786 31.1366 28.8276 30.9916 29.0916 30.7276C29.3486 30.4686 29.4956 30.1116 29.4956 29.7466L29.4936 28.1716C29.4916 27.8046 29.3426 27.4466 29.0846 27.1926C28.8236 26.9306 28.4746 26.7866 28.1016 26.7866C27.7306 26.7886 27.3816 26.9336 27.1236 27.1956C26.8656 27.4526 26.7166 27.8106 26.7166 28.1766L26.7196 29.7506C26.7196 30.1166 26.8696 30.4746 27.1296 30.7326Z" fill="#0CC3BE"/>
</g>
<defs>
<clipPath id="clip0">
<rect width="50" height="50" fill="white" transform="translate(20.4546 20.4546)"/>
</clipPath>
</defs>
</svg>
