<svg width="90" height="90" viewBox="0 0 90 90" fill="none" xmlns="http://www.w3.org/2000/svg">
<circle cx="45" cy="45" r="45" fill="#6FC991" fill-opacity="0.2"/>
<g clip-path="url(#clip0)">
<path d="M70.4546 53.8126L70.4026 39.7456C70.3946 37.4576 68.5036 35.5656 66.1876 35.5276C65.0446 35.5096 63.9716 35.9356 63.1676 36.7286C62.3956 37.4906 61.9636 38.5036 61.9486 39.5866L61.5906 43.7316C59.2366 38.9626 55.3386 35.1146 50.4806 32.8266V29.2286L53.9906 21.9446H51.6606C51.5146 21.9446 51.4956 21.9446 51.1606 21.6166C50.7156 21.1826 49.9716 20.4546 48.6126 20.4546C47.2536 20.4546 46.5096 21.1826 46.0646 21.6176C45.7296 21.9456 45.7106 21.9456 45.5646 21.9456C45.4186 21.9456 45.3996 21.9456 45.0646 21.6176C44.6196 21.1826 43.8756 20.4546 42.5166 20.4546C41.1576 20.4546 40.4136 21.1826 39.9686 21.6176C39.6336 21.9456 39.6146 21.9456 39.4686 21.9456H37.1876L40.5186 29.2146V32.8236C35.6206 35.1056 31.6896 38.9706 29.3216 43.7666L28.9616 39.5876C28.9466 38.5046 28.5156 37.4916 27.7426 36.7296C26.9386 35.9366 25.8666 35.5116 24.7236 35.5286C22.4076 35.5666 20.5166 37.4576 20.5086 39.7456L20.4546 53.8126L27.5076 65.0826L25.1646 70.4516H36.3196L39.0096 65.2816L39.0406 65.1986C39.0796 65.0956 39.1156 64.9916 39.1496 64.8876C41.1386 65.6766 43.2786 66.0906 45.4326 66.0906C47.6016 66.0906 49.7536 65.6716 51.7546 64.8726C51.7906 64.9816 51.8286 65.0906 51.8686 65.1986L51.8996 65.2816L54.5896 70.4516H65.7446L63.4016 65.0836L70.4546 53.8126ZM43.4456 30.3586H47.5536V32.3106H43.4456V30.3586ZM42.0156 23.7106C42.3506 23.3826 42.3696 23.3826 42.5156 23.3826C42.6616 23.3826 42.6806 23.3826 43.0156 23.7106C43.4606 24.1456 44.2046 24.8736 45.5636 24.8736C46.9226 24.8736 47.6666 24.1456 48.1116 23.7106C48.4466 23.3826 48.4656 23.3826 48.6116 23.3826C48.7576 23.3826 48.7766 23.3826 49.1116 23.7106C49.2576 23.8526 49.4346 24.0266 49.6556 24.1956L48.0966 27.4306H42.9206L41.4476 24.2146C41.6796 24.0396 41.8646 23.8576 42.0156 23.7106ZM36.3286 64.0916L34.5426 67.5236H29.6366L30.8086 64.8386L23.3856 52.9776L23.4346 39.7566C23.4366 39.0516 24.0356 38.4686 24.7696 38.4566C25.1196 38.4496 25.4456 38.5776 25.6846 38.8146C25.9096 39.0366 26.0336 39.3346 26.0326 39.6526V39.7176L26.9106 49.9006C26.5826 50.3506 26.3426 50.8636 26.2126 51.4096C25.9546 52.4996 26.1396 53.6156 26.7346 54.5556L30.7316 61.3126L33.2516 59.8216L29.2416 53.0436L29.2146 52.9956C29.0416 52.7256 28.9876 52.4016 29.0626 52.0836C29.1446 51.7366 29.3656 51.4416 29.6836 51.2536C30.2856 50.8976 31.0636 51.0546 31.4286 51.6016L35.7296 58.8296L35.7566 58.8726C36.7566 60.4296 36.9636 62.3266 36.3286 64.0916ZM39.6066 61.9046C39.5786 60.2876 39.1136 58.6916 38.2326 57.3116L33.9286 50.0776L33.9016 50.0346C33.1706 48.8976 31.9796 48.2386 30.7156 48.1416C30.7336 48.0856 30.7506 48.0326 30.7686 47.9756C32.5886 42.2496 36.7766 37.6196 42.2786 35.2386H48.7156C54.2026 37.6426 58.3676 42.2856 60.1666 48.0206C60.1796 48.0616 60.1916 48.1006 60.2046 48.1406C58.9366 48.2346 57.7396 48.8946 57.0066 50.0346L52.6756 57.3116C51.7986 58.6846 51.3346 60.2736 51.3026 61.8836C49.4726 62.7226 47.4616 63.1636 45.4326 63.1636C43.4216 63.1636 41.4246 62.7306 39.6066 61.9046ZM56.3666 67.5236L54.5806 64.0916C53.9456 62.3266 54.1516 60.4286 55.1526 58.8726L59.4806 51.6006C59.8456 51.0536 60.6236 50.8966 61.2256 51.2526C61.5436 51.4406 61.7646 51.7356 61.8466 52.0826C61.9216 52.4016 61.8686 52.7256 61.6946 52.9956L57.6566 59.8196L60.1766 61.3106L64.1736 54.5536C64.7686 53.6136 64.9536 52.4976 64.6956 51.4076C64.5666 50.8616 64.3266 50.3486 63.9976 49.8986L64.8756 39.7156V39.6506C64.8746 39.3326 64.9986 39.0356 65.2236 38.8136C65.4626 38.5776 65.7896 38.4506 66.1386 38.4556C66.8726 38.4676 67.4716 39.0506 67.4736 39.7566L67.5226 52.9776L60.0996 64.8396L61.2716 67.5246L56.3666 67.5236Z" fill="#6FC991"/>
<path d="M44.3966 46.2616C44.3966 45.9136 44.7156 45.6236 45.7156 45.6236C46.5996 45.6236 47.5426 45.8696 48.5426 46.3776L49.5716 43.8986C48.7456 43.4346 47.7016 43.1596 46.6286 43.0576V41.5066H44.5846V43.0866C42.2076 43.4196 41.0186 44.7976 41.0186 46.4356C41.0186 50.2196 46.6286 49.1896 46.6286 50.4656C46.6286 50.8136 46.2806 51.0166 45.3096 51.0166C44.1936 51.0166 42.9176 50.6546 41.9606 50.0886L40.8586 52.5816C41.7286 53.1176 43.1346 53.5096 44.5846 53.5966V55.1336H46.6286V53.5246C48.8756 53.1336 50.0066 51.7706 50.0066 50.2046C50.0066 46.4646 44.3966 47.4796 44.3966 46.2616Z" fill="#6FC991"/>
</g>
<defs>
<clipPath id="clip0">
<rect width="50" height="50" fill="white" transform="translate(20.4546 20.4546)"/>
</clipPath>
</defs>
</svg>
