<svg width="90" height="90" viewBox="0 0 90 90" fill="none" xmlns="http://www.w3.org/2000/svg">
<circle cx="45" cy="45" r="45" fill="#E9656C" fill-opacity="0.2"/>
<g clip-path="url(#clip0)">
<path d="M65.893 40.9006C65.893 38.9786 64.967 37.1946 63.479 36.0686C64.206 34.3496 64.115 32.3416 63.154 30.6766C62.193 29.0126 60.5 27.9296 58.647 27.6996C58.417 25.8476 57.334 24.1536 55.67 23.1926C54.005 22.2316 51.997 22.1406 50.278 22.8676C49.153 21.3806 47.368 20.4546 45.446 20.4546C43.524 20.4546 41.74 21.3806 40.614 22.8686C38.895 22.1416 36.887 22.2326 35.222 23.1936C33.559 24.1546 32.476 25.8486 32.246 27.7006C30.394 27.9306 28.7 29.0136 27.739 30.6776C26.778 32.3416 26.687 34.3506 27.414 36.0696C25.926 37.1946 25 38.9796 25 40.9016C25 42.8236 25.926 44.6076 27.414 45.7336C26.687 47.4526 26.778 49.4606 27.739 51.1256C28.7 52.7896 30.394 53.8726 32.246 54.1026C32.476 55.9546 33.559 57.6486 35.223 58.6096C35.77 58.9256 36.354 59.1456 36.953 59.2746V68.9816C36.953 69.5036 37.229 69.9866 37.678 70.2516C38.128 70.5166 38.684 70.5236 39.14 70.2706L45.446 66.7776L51.752 70.2706C51.975 70.3936 52.221 70.4546 52.467 70.4546C52.726 70.4546 52.984 70.3866 53.215 70.2506C53.665 69.9856 53.94 69.5026 53.94 68.9806V59.2726C54.539 59.1426 55.123 58.9226 55.669 58.6076C57.333 57.6466 58.416 55.9536 58.646 54.1006C60.498 53.8706 62.192 52.7876 63.153 51.1236C64.114 49.4596 64.204 47.4506 63.478 45.7316C64.967 44.6076 65.893 42.8226 65.893 40.9006ZM50.993 66.4806L46.161 63.8036C45.717 63.5576 45.177 63.5576 44.733 63.8036L39.901 66.4806V59.1826C40.143 59.1146 40.382 59.0326 40.615 58.9336C41.74 60.4226 43.525 61.3476 45.447 61.3476C47.369 61.3476 49.153 60.4216 50.279 58.9336C50.512 59.0326 50.752 59.1146 50.994 59.1826L50.993 66.4806ZM60.928 43.8066C60.481 43.9726 60.143 44.3456 60.019 44.8056C59.896 45.2666 60.003 45.7576 60.306 46.1256C61.126 47.1186 61.244 48.5356 60.601 49.6506C59.957 50.7666 58.671 51.3716 57.401 51.1586C56.931 51.0796 56.452 51.2326 56.114 51.5696C55.777 51.9066 55.624 52.3856 55.703 52.8556C55.917 54.1256 55.311 55.4116 54.195 56.0556C53.08 56.6996 51.663 56.5816 50.67 55.7616C50.303 55.4576 49.811 55.3506 49.35 55.4746C48.89 55.5976 48.517 55.9366 48.351 56.3826C47.901 57.5896 46.733 58.4006 45.445 58.4006C44.157 58.4006 42.989 57.5896 42.539 56.3826C42.372 55.9356 42 55.5976 41.54 55.4746C41.414 55.4406 41.286 55.4246 41.159 55.4246C40.82 55.4246 40.488 55.5416 40.221 55.7616C39.228 56.5816 37.811 56.6996 36.696 56.0556C35.581 55.4116 34.975 54.1256 35.188 52.8556C35.267 52.3856 35.114 51.9066 34.777 51.5696C34.44 51.2326 33.96 51.0796 33.491 51.1586C32.221 51.3716 30.935 50.7666 30.291 49.6506C29.647 48.5346 29.765 47.1186 30.585 46.1256C30.889 45.7586 30.996 45.2666 30.872 44.8056C30.749 44.3456 30.41 43.9726 29.964 43.8066C28.757 43.3566 27.946 42.1886 27.946 40.9006C27.946 39.6126 28.757 38.4446 29.964 37.9946C30.411 37.8276 30.749 37.4556 30.872 36.9956C30.995 36.5346 30.888 36.0436 30.585 35.6756C29.765 34.6826 29.647 33.2656 30.29 32.1506C30.934 31.0346 32.22 30.4296 33.49 30.6426C33.96 30.7216 34.439 30.5686 34.776 30.2316C35.113 29.8946 35.266 29.4156 35.187 28.9456C34.973 27.6756 35.579 26.3896 36.695 25.7456C37.811 25.1016 39.227 25.2196 40.22 26.0396C40.587 26.3436 41.079 26.4506 41.54 26.3266C42.001 26.2036 42.373 25.8646 42.539 25.4186C42.989 24.2116 44.157 23.4016 45.445 23.4016C46.733 23.4016 47.901 24.2126 48.351 25.4196C48.518 25.8666 48.89 26.2046 49.35 26.3276C49.811 26.4506 50.302 26.3436 50.67 26.0406C51.663 25.2206 53.08 25.1026 54.195 25.7466C55.31 26.3906 55.916 27.6766 55.703 28.9466C55.624 29.4166 55.777 29.8956 56.114 30.2336C56.451 30.5706 56.931 30.7236 57.401 30.6446C58.671 30.4306 59.957 31.0366 60.601 32.1526C61.245 33.2686 61.127 34.6846 60.306 35.6776C60.002 36.0446 59.895 36.5366 60.019 36.9976C60.142 37.4586 60.481 37.8306 60.928 37.9966C62.135 38.4466 62.946 39.6146 62.946 40.9026C62.946 42.1886 62.135 43.3566 60.928 43.8066Z" fill="#E9656C"/>
<path d="M45.4459 27.4996C38.0559 27.4996 32.0439 33.5116 32.0439 40.9016C32.0439 48.2916 38.0559 54.3036 45.4459 54.3036C52.8359 54.3036 58.8479 48.2916 58.8479 40.9016C58.8479 33.5116 52.8359 27.4996 45.4459 27.4996ZM45.4459 51.3556C39.6809 51.3556 34.9909 46.6656 34.9909 40.9006C34.9909 35.1356 39.6809 30.4456 45.4459 30.4456C51.2109 30.4456 55.9009 35.1356 55.9009 40.9006C55.9009 46.6656 51.2109 51.3556 45.4459 51.3556Z" fill="#E9656C"/>
<path d="M51.4231 36.8226C50.8801 36.2166 49.9481 36.1656 49.3421 36.7086L43.6181 41.8406L41.7311 39.4036C41.2331 38.7596 40.3071 38.6426 39.6641 39.1406C39.0201 39.6386 38.9031 40.5646 39.4011 41.2076L42.2571 44.8976C42.5071 45.2216 42.8811 45.4256 43.2891 45.4626C43.3341 45.4666 43.3781 45.4686 43.4221 45.4686C43.7831 45.4686 44.1341 45.3356 44.4051 45.0926L51.3081 38.9036C51.9161 38.3606 51.9661 37.4286 51.4231 36.8226Z" fill="#E9656C"/>
</g>
<defs>
<clipPath id="clip0">
<rect width="50" height="50" fill="white" transform="translate(20.4546 20.4546)"/>
</clipPath>
</defs>
</svg>
