<svg width="90" height="90" viewBox="0 0 90 90" fill="none" xmlns="http://www.w3.org/2000/svg">
<circle cx="45" cy="45" r="45" fill="#70D6F9" fill-opacity="0.2"/>
<g clip-path="url(#clip0)">
<path d="M56.0546 39.7V33.6C56.0546 32.3 54.9546 31.2 53.6546 31.2H33.4546V26.4C33.4546 25.8 33.1546 25.3 32.6546 25.1C32.1546 24.9 31.5546 25 31.1546 25.4L20.8546 35.7C20.5546 36 20.4546 36.3 20.4546 36.7C20.4546 37.1 20.5546 37.4 20.8546 37.7L31.1546 48C31.4546 48.3 31.7546 48.4 32.1546 48.4C32.3546 48.4 32.5546 48.4 32.6546 48.3C33.1546 48.1 33.4546 47.6 33.4546 47V42.2H53.6546C54.9546 42.1 56.0546 41.1 56.0546 39.7ZM32.0546 33.9H53.2546V39.4H32.0546C31.2546 39.4 30.6546 40 30.6546 40.8V43.7L23.6546 36.7L30.6546 29.7V32.6C30.7546 33.3 31.3546 33.9 32.0546 33.9Z" fill="#70D6F9"/>
<path d="M70.0546 54.2L59.7546 43.9C59.3546 43.5 58.7546 43.4 58.2546 43.6C57.7546 43.8 57.4546 44.3 57.4546 44.9V49.7H37.2546C35.9546 49.7 34.8546 50.8 34.8546 52.1V58.3C34.8546 59.6 35.9546 60.7 37.2546 60.7H57.4546V65.5C57.4546 66.1 57.7546 66.6 58.2546 66.8C58.4546 66.9 58.5546 66.9 58.7546 66.9C59.1546 66.9 59.4546 66.8 59.7546 66.5L70.0546 56.2C70.3546 55.9 70.4546 55.6 70.4546 55.2C70.4546 54.8 70.3546 54.4 70.0546 54.2ZM58.8546 57.9H37.5546V52.4H58.7546C59.5546 52.4 60.1546 51.8 60.1546 51V48.1L67.1546 55.1L60.1546 62.1V59.2C60.1546 58.5 59.5546 57.9 58.8546 57.9Z" fill="#70D6F9"/>
</g>
<defs>
<clipPath id="clip0">
<rect width="50" height="50" fill="white" transform="translate(20.4546 20.4546)"/>
</clipPath>
</defs>
</svg>
