<svg width="90" height="90" viewBox="0 0 90 90" fill="none" xmlns="http://www.w3.org/2000/svg">
<circle cx="45" cy="45" r="45" fill="#E963A6" fill-opacity="0.2"/>
<g clip-path="url(#clip0)">
<path d="M53 48C50 48 47.5 50.5 47.5 53.5C47.5 56.5 50 59 53 59C56 59 58.5 56.5 58.5 53.5C58.4 50.5 56 48 53 48ZM53 56C51.6 56 50.5 54.9 50.5 53.5C50.5 52.1 51.6 51 53 51C54.4 51 55.5 52.1 55.5 53.5C55.5 54.9 54.4 56 53 56Z" fill="#E963A6"/>
<path d="M22.2 52.4C22.3 52.4 22.4 52.4 22.6 52.4C23.4 52.2 23.9 51.4 23.7 50.6C23.2 48.8 23 47 23 45.1C23 33 32.9 23.1 45 23.1C57.1 23 67 32.9 67 45C67 57.1 57.1 67 45 67C43.1 67 41.2 66.8 39.4 66.3C39.3 66.3 39.1 66.3 39 66.3C38.3 66.3 37.7 66.8 37.6 67.4C37.5 67.8 37.6 68.2 37.8 68.5C38 68.8 38.3 69.1 38.7 69.2C40.7 69.7 42.8 70 45 70C51.7 70 58 67.4 62.7 62.7C67.4 58 70 51.7 70 45C70 38.3 67.4 32 62.7 27.3C58 22.6 51.7 20 45 20C38.3 20 32 22.6 27.3 27.3C22.6 32 20 38.3 20 45C20 47.1 20.3 49.2 20.8 51.2C21 51.9 21.5 52.4 22.2 52.4Z" fill="#E963A6"/>
<path d="M27.4001 62.7C27.7001 63 28.1001 63.1 28.4001 63.1C28.8001 63.1 29.2001 62.9 29.4001 62.7L55.3001 36.9C55.6001 36.6 55.7001 36.2 55.7001 35.9C55.7001 35.5 55.5001 35.1 55.3001 34.9C55.0001 34.6 54.6001 34.5 54.3001 34.5C53.9001 34.5 53.5001 34.7 53.3001 34.9L27.4001 60.6C27.1001 60.9 27.0001 61.3 27.0001 61.6C27.0001 62 27.1001 62.4 27.4001 62.7Z" fill="#E963A6"/>
<path d="M42.5 36.5C42.5 33.5 40 31 37 31C34 31 31.5 33.5 31.5 36.5C31.5 39.5 34 42 37 42C40 42 42.5 39.5 42.5 36.5ZM34.5 36.5C34.5 35.1 35.6 34 37 34C38.4 34 39.5 35.1 39.5 36.5C39.5 37.9 38.4 39 37 39C35.6 39 34.5 37.9 34.5 36.5Z" fill="#E963A6"/>
<path d="M25.5 70H31C31.8 70 32.5 69.3 32.5 68.5C32.5 67.7 31.9 67 31 67H25.4C24.1 67 23 65.9 23 64.5V58.8C23 58 22.3 57.3 21.5 57.3C20.7 57.3 20 58 20 58.8V64.5C20 67.5 22.5 70 25.5 70Z" fill="#E963A6"/>
</g>
<defs>
<clipPath id="clip0">
<rect width="50" height="50" fill="white" transform="translate(20.4546 20.4546)"/>
</clipPath>
</defs>
</svg>
