<svg width="90" height="90" viewBox="0 0 90 90" fill="none" xmlns="http://www.w3.org/2000/svg">
<circle cx="45" cy="45" r="45" fill="#2D85CC" fill-opacity="0.2"/>
<g clip-path="url(#clip0)">
<path d="M63.5546 21.045C61.7546 21.745 59.7546 22.845 58.8546 23.745L51.3546 31.245L26.7546 27.445H26.6546L20.4546 33.645L40.9546 41.645L34.3546 48.245L25.0546 48.845L20.6546 53.245L30.7546 58.145L27.8546 61.045L29.8546 63.045L32.6546 60.145L37.5546 70.445L41.9546 66.045L42.4546 56.745L49.2546 49.945L57.2546 70.445L63.4546 64.245L59.5546 39.545L66.9546 32.145C67.8546 31.245 69.0546 29.245 69.6546 27.445C70.6546 24.745 70.4546 22.745 69.3546 21.545C68.2546 20.245 66.2546 20.145 63.5546 21.045ZM58.4546 65.345L51.5546 47.745L57.2546 42.045L60.5546 63.245L58.4546 65.345ZM27.6546 30.545L48.8546 33.845L43.1546 39.545L25.5546 32.645L27.6546 30.545ZM38.4546 65.545L34.8546 58.145L37.3546 55.545L35.3546 53.545L32.8546 56.045L25.4546 52.545L26.2546 51.745L35.5546 51.145L60.8546 25.845C61.3546 25.345 62.9546 24.345 64.5546 23.845C65.6546 23.445 66.3546 23.345 66.8546 23.345C67.1546 23.345 67.4546 23.445 67.5546 23.445C67.7546 23.645 67.8546 24.645 67.2546 26.345C66.6546 27.945 65.7546 29.445 65.2546 30.045L39.8546 55.345L39.3546 64.645L38.4546 65.545Z" fill="#2D85CC"/>
</g>
<defs>
<clipPath id="clip0">
<rect width="50" height="50" fill="white" transform="translate(20.4546 20.4546)"/>
</clipPath>
</defs>
</svg>
