<svg width="650" height="514" viewBox="0 0 650 514" fill="none" xmlns="http://www.w3.org/2000/svg">
<path fill-rule="evenodd" clip-rule="evenodd" d="M38.5272 403.034C8.7618 350.78 32.1423 287.406 28.1554 227.431C23.5318 157.877 -20.2626 85.0835 13.3288 23.967C47.6159 -38.4154 116.729 -59.9917 187.41 -69.3249C252.666 -77.9417 317.567 -42.4826 380.897 -24.5691C451.268 -4.66371 544.556 -28.3126 595.6 23.9669C649.028 78.6889 652.144 172.346 647.625 248.615C643.18 323.622 621.347 391.364 564.535 440.675C511.367 486.824 430.847 486.908 361.15 497.268C302.339 506.01 244.476 523.678 187.41 507.009C127.818 489.603 69.2124 456.903 38.5272 403.034Z" fill="white"/>
</svg>
