<svg width="155" height="52" viewBox="0 0 155 52" fill="none" xmlns="http://www.w3.org/2000/svg">
<path d="M65.9605 26.6669C65.9605 33.8847 60.2677 39.2034 53.2813 39.2034C46.2949 39.2034 40.6021 33.8847 40.6021 26.6669C40.6021 19.3982 46.2949 14.1304 53.2813 14.1304C60.2677 14.1304 65.9605 19.3982 65.9605 26.6669ZM60.4101 26.6669C60.4101 22.1565 57.1107 19.0704 53.2813 19.0704C49.4519 19.0704 46.1524 22.1565 46.1524 26.6669C46.1524 31.1321 49.4519 34.2634 53.2813 34.2634C57.1107 34.2634 60.4101 31.1265 60.4101 26.6669Z" fill="#EA4335"/>
<path d="M93.3133 26.6669C93.3133 33.8847 87.6204 39.2034 80.6341 39.2034C73.6477 39.2034 67.9548 33.8847 67.9548 26.6669C67.9548 19.4038 73.6477 14.1304 80.6341 14.1304C87.6204 14.1304 93.3133 19.3982 93.3133 26.6669ZM87.7629 26.6669C87.7629 22.1565 84.4635 19.0704 80.6341 19.0704C76.8046 19.0704 73.5052 22.1565 73.5052 26.6669C73.5052 31.1321 76.8046 34.2634 80.6341 34.2634C84.4635 34.2634 87.7629 31.1265 87.7629 26.6669Z" fill="#FBBC05"/>
<path d="M119.527 14.8878V37.3947C119.527 46.653 114.022 50.4343 107.514 50.4343C101.388 50.4343 97.7014 46.3704 96.311 43.0469L101.143 41.0517C102.004 43.0921 104.112 45.4999 107.509 45.4999C111.674 45.4999 114.256 42.9508 114.256 38.1521V36.3491H114.062C112.82 37.8695 110.426 39.1978 107.406 39.1978C101.086 39.1978 95.2966 33.7378 95.2966 26.7121C95.2966 19.6356 101.086 14.1304 107.406 14.1304C110.421 14.1304 112.814 15.4586 114.062 16.9338H114.256V14.8934H119.527V14.8878ZM114.649 26.7121C114.649 22.2978 111.68 19.0704 107.902 19.0704C104.072 19.0704 100.864 22.2978 100.864 26.7121C100.864 31.0812 104.072 34.2634 107.902 34.2634C111.68 34.2634 114.649 31.0812 114.649 26.7121Z" fill="#4285F4"/>
<path d="M128.217 1.69556V38.4347H122.803V1.69556H128.217Z" fill="#34A853"/>
<path d="M149.313 30.793L153.621 33.6417C152.23 35.6821 148.88 39.1978 143.09 39.1978C135.91 39.1978 130.548 33.6926 130.548 26.6613C130.548 19.2061 135.956 14.1248 142.469 14.1248C149.028 14.1248 152.236 19.3021 153.285 22.1L153.86 23.5243L136.964 30.4652C138.258 32.9804 140.269 34.2634 143.09 34.2634C145.917 34.2634 147.877 32.8843 149.313 30.793ZM136.052 26.2826L147.347 21.6308C146.726 20.0652 144.857 18.9743 142.657 18.9743C139.836 18.9743 135.91 21.4443 136.052 26.2826Z" fill="#EA4335"/>
<path d="M20.11 23.4056V18.0869H38.1801C38.3567 19.0139 38.4479 20.1104 38.4479 21.2974C38.4479 25.2878 37.3481 30.2221 33.8036 33.7378C30.356 37.2987 25.951 39.1978 20.1157 39.1978C9.29993 39.1978 0.205078 30.4595 0.205078 19.7317C0.205078 9.00388 9.29993 0.265625 20.1157 0.265625C26.0992 0.265625 30.3617 2.59432 33.5643 5.62954L29.7804 9.38258C27.4839 7.24606 24.3725 5.58432 20.11 5.58432C12.2119 5.58432 6.03467 11.8978 6.03467 19.7317C6.03467 27.5656 12.2119 33.8791 20.11 33.8791C25.233 33.8791 28.1507 31.8387 30.0198 29.9848C31.5356 28.4813 32.5328 26.3334 32.926 23.4L20.11 23.4056Z" fill="#4285F4"/>
</svg>
