<svg width="55" height="67" viewBox="0 0 55 67" fill="none" xmlns="http://www.w3.org/2000/svg">
<g opacity="0.15">
<path opacity="0.15" d="M54.5533 36.2875L38.3173 26.7894L10.0665 43.0255L26.3025 52.6048L54.5533 36.2875Z" fill="#1A50B2"/>
</g>
<path d="M28.4131 13.7194L14.1254 5.43896L0 13.6382V51.3059L14.2877 59.5051L28.4131 51.3871V13.7194Z" fill="url(#paint0_linear)"/>
<path opacity="0.5" d="M14.2877 59.5051V21.8374L28.4131 13.7194V51.3871L14.2877 59.5051Z" fill="black"/>
<path d="M14.2877 59.5051V41.8078C12.9889 41.889 11.69 40.8336 10.4723 38.317C8.36157 34.0145 4.38374 32.9591 0 33.4462V51.3059L14.2877 59.5051Z" fill="url(#paint1_linear)"/>
<path d="M28.4131 51.3871V29.4684C25.4094 29.3872 22.8117 30.2802 21.2692 33.4463C18.915 38.1547 16.5608 41.7267 14.2877 41.8078V59.5052L28.4131 51.3871Z" fill="url(#paint2_linear)"/>
<path opacity="0.3" d="M28.4131 51.3871V29.4684C25.4094 29.3872 22.8117 30.2802 21.2692 33.4463C18.915 38.1547 16.5608 41.7267 14.2877 41.8078V59.5052L28.4131 51.3871Z" fill="black"/>
<path opacity="0.3" d="M28.4131 13.7194L14.1254 5.43896L0 13.6382L14.2877 21.8374L28.4131 13.7194Z" fill="black"/>
<path opacity="0.3" d="M28.4131 13.7194L14.1254 5.43896L0 13.6382L14.2877 21.8374L28.4131 13.7194Z" fill="black"/>
<path d="M28.4132 13.7195L14.1254 13.6383L14.2878 21.8375L28.4132 13.7195Z" fill="#C8CDF0"/>
<path d="M21.5128 10.3098L20.9445 10.6345L14.2877 21.8374L14.856 21.5126L20.9445 11.1216L21.5128 10.7968L28.0072 13.9629L28.4131 13.7193L21.5128 10.3098Z" fill="#C8CDF0"/>
<path d="M7.38757 2.1106L14.1255 5.43899L28.4133 13.7194L21.513 10.3098L7.38757 2.1106Z" fill="url(#paint3_linear)"/>
<path opacity="0.5" d="M7.38757 2.1106L14.1255 5.43899L28.4133 13.7194L21.513 10.3098L7.38757 2.1106Z" fill="black"/>
<path d="M20.9445 10.6346L14.2878 21.8375L0 13.6383L6.81915 2.43536L20.9445 10.6346Z" fill="url(#paint4_linear)"/>
<path opacity="0.5" d="M20.9445 10.6346L14.2878 21.8375L0 13.6383L6.81915 2.43536L20.9445 10.6346Z" fill="white"/>
<path d="M7.38755 0L7.14399 0.162361L6.81927 0.324723V2.43541L20.9447 10.6346L21.2694 10.4723L21.5129 10.3099V8.19922L7.38755 0Z" fill="url(#paint5_linear)"/>
<path opacity="0.5" d="M7.14399 0.162361L6.81927 0.324723L20.9447 8.52394L21.2694 8.36158L21.5129 8.19922L7.38755 0L7.14399 0.162361Z" fill="white"/>
<path d="M20.9447 8.52382V10.6345L21.513 10.3098V8.1991L20.9447 8.52382Z" fill="#C8CDF0"/>
<g opacity="0.15">
<path opacity="0.15" d="M26.4648 64.1323C32.5534 67.6231 42.3762 67.6231 48.3835 64.1323C54.4721 60.6415 54.4721 54.9589 48.3835 51.4682C42.295 47.9774 32.4722 47.9774 26.4648 51.4682C20.3763 54.9589 20.3763 60.6415 26.4648 64.1323Z" fill="#1A50B2"/>
</g>
<path d="M46.354 55.9333C46.354 49.8448 40.7526 44.9739 33.7711 44.9739C26.7896 44.9739 21.1881 49.8448 21.1881 55.9333C21.1881 62.0218 26.7896 66.8926 33.7711 66.8926C40.7526 66.8926 46.354 61.9406 46.354 55.9333Z" fill="url(#paint6_linear)"/>
<path opacity="0.2" d="M33.8522 44.9739C33.5275 44.9739 33.2028 44.9739 32.7969 44.9739C38.6418 45.3798 43.2691 49.6012 43.2691 54.7968C43.2691 60.2358 38.1548 64.7008 31.9039 64.7008C27.6013 64.7008 23.9482 62.6713 21.9999 59.5864C23.7858 63.8078 28.4131 66.8115 33.8522 66.8115C40.8337 66.8115 46.4352 61.9406 46.4352 55.8521C46.354 49.8448 40.7525 44.9739 33.8522 44.9739Z" fill="black"/>
<path opacity="0.3" d="M28.6567 55.2025C29.8744 53.7412 29.9556 51.8741 28.9003 51.0623C27.8449 50.1693 26.059 50.6564 24.8413 52.1176C23.6235 53.5789 23.5424 55.446 24.5977 56.2578C25.653 57.1508 27.439 56.6637 28.6567 55.2025Z" fill="white"/>
<path opacity="0.2" d="M36.0441 48.7892C36.0441 49.2763 35.0699 49.601 33.8522 49.601C32.6345 49.601 31.6603 49.1951 31.6603 48.7892C31.6603 48.3021 32.6345 47.9774 33.8522 47.9774C35.0699 47.9774 36.0441 48.3833 36.0441 48.7892Z" fill="black"/>
<path d="M41.4831 39.7782C41.2396 39.3723 40.7525 39.2912 40.3466 39.5347C40.3466 39.5347 40.1031 39.6971 39.616 40.0218C39.3724 40.1841 39.1289 40.3465 38.8042 40.5089C38.4795 40.7524 38.1547 40.9959 37.83 41.3207C37.7488 41.4018 37.6676 41.483 37.5865 41.5642C37.5053 41.6454 37.4241 41.7266 37.3429 41.8077C37.1806 41.9701 37.0182 42.2136 36.8558 42.376C36.4499 42.7007 36.2064 43.1878 35.8817 43.6749C35.7193 43.9184 35.557 44.162 35.3946 44.4055C35.2323 44.6491 35.0699 44.8926 34.9887 45.1361C34.7452 45.7044 34.5016 46.1915 34.2581 46.7598C34.0957 47.328 33.8522 47.8963 33.771 48.4645C33.771 48.6269 33.6898 48.7081 33.6898 48.8704C33.6898 48.8704 33.6898 48.8704 33.6898 48.9516C33.6898 49.0328 33.8522 49.0328 34.0145 49.0328C34.1769 49.0328 34.3393 48.9516 34.3393 48.9516C34.3393 48.8704 34.4204 48.7893 34.4204 48.7081C34.5828 48.1398 34.8264 47.6527 35.0699 47.1657C35.3134 46.6786 35.6382 46.1915 35.8817 45.7044C36.0441 45.4609 36.2064 45.2173 36.3688 45.055C36.5311 44.8114 36.6935 44.6491 36.8558 44.4055C37.1806 43.9996 37.5053 43.5937 37.83 43.3502C37.9924 43.1878 38.1547 43.0255 38.3171 42.8631C38.3983 42.7819 38.4795 42.7007 38.5606 42.6196C38.6418 42.5384 38.723 42.5384 38.8042 42.4572C39.1289 42.2137 39.4536 42.0513 39.6972 41.8077C40.0219 41.6454 40.2654 41.5642 40.4278 41.4018C40.8337 41.1583 41.0772 41.0771 41.0772 41.0771L41.1584 40.9959C41.1584 40.9959 41.1584 40.9959 41.2396 40.9959C41.5643 40.6712 41.7267 40.1841 41.4831 39.7782Z" fill="url(#paint7_linear)"/>
<defs>
<linearGradient id="paint0_linear" x1="-0.0343393" y1="32.4852" x2="28.4026" y2="32.4852" gradientUnits="userSpaceOnUse">
<stop stop-color="#F0F2FE"/>
<stop offset="1" stop-color="#C8CDF0"/>
</linearGradient>
<linearGradient id="paint1_linear" x1="-0.366204" y1="33.5861" x2="14.5271" y2="59.3822" gradientUnits="userSpaceOnUse">
<stop stop-color="#59D8BC"/>
<stop offset="1" stop-color="#4584EC"/>
</linearGradient>
<linearGradient id="paint2_linear" x1="15.8987" y1="35.1017" x2="26.0695" y2="52.7182" gradientUnits="userSpaceOnUse">
<stop stop-color="#59D8BC"/>
<stop offset="1" stop-color="#4584EC"/>
</linearGradient>
<linearGradient id="paint3_linear" x1="7.4116" y1="7.90201" x2="28.4027" y2="7.90201" gradientUnits="userSpaceOnUse">
<stop stop-color="#F0F2FE"/>
<stop offset="1" stop-color="#C8CDF0"/>
</linearGradient>
<linearGradient id="paint4_linear" x1="7.19193" y1="17.7726" x2="13.731" y2="6.44665" gradientUnits="userSpaceOnUse">
<stop stop-color="#F0F2FE"/>
<stop offset="1" stop-color="#C8CDF0"/>
</linearGradient>
<linearGradient id="paint5_linear" x1="11.9301" y1="7.56731" x2="16.4399" y2="3.05766" gradientUnits="userSpaceOnUse">
<stop stop-color="#F0F2FE"/>
<stop offset="1" stop-color="#C8CDF0"/>
</linearGradient>
<linearGradient id="paint6_linear" x1="28.1333" y1="46.0695" x2="39.5116" y2="65.7771" gradientUnits="userSpaceOnUse">
<stop stop-color="#FDD2A7"/>
<stop offset="1" stop-color="#F83F76"/>
</linearGradient>
<linearGradient id="paint7_linear" x1="37.5964" y1="39.3876" x2="37.5964" y2="48.9504" gradientUnits="userSpaceOnUse">
<stop stop-color="#4BD6ED"/>
<stop offset="1" stop-color="#1A50B2"/>
</linearGradient>
</defs>
</svg>
