<svg width="307" height="379" viewBox="0 0 307 379" fill="none" xmlns="http://www.w3.org/2000/svg">
<path d="M302.444 375.759L298.918 377.752C296.465 379.132 293.092 378.978 289.413 376.832L14.0673 218.003C6.70838 213.71 0.575989 203.285 0.575989 194.699V11.8002C0.575989 7.50751 2.1091 4.4413 4.56207 3.06151L7.93487 1.06848C10.3878 -0.464625 13.7607 -0.464625 17.5934 1.83503L293.092 160.818C300.451 165.111 306.583 175.536 306.583 184.121V367.02C306.583 371.466 305.05 374.379 302.444 375.759Z" fill="url(#paint0_linear)"/>
<path opacity="0.7" d="M302.904 369.167V186.267C302.904 177.682 296.925 167.257 289.413 162.964L14.0673 3.98137C10.3879 1.83502 7.0151 1.68171 4.56213 3.06151L7.93493 1.06848C10.3879 -0.464625 13.7608 -0.464625 17.5935 1.83503L293.092 160.818C300.451 165.111 306.583 175.536 306.583 184.121V367.02C306.583 371.313 305.05 374.379 302.444 375.759L298.918 377.752C301.371 376.526 302.904 373.459 302.904 369.167Z" fill="black"/>
<path opacity="0.8" d="M67.8792 99.647C66.806 104.706 64.813 108.386 62.5134 110.225L50.7084 103.48C48.4088 99.0338 46.4157 93.0547 45.3426 86.7689L67.8792 99.647ZM67.8792 77.2637C66.806 70.8247 64.813 64.9989 62.5134 60.5529L50.7084 53.8072C48.4088 55.4936 46.4157 59.1731 45.3426 64.3857L67.8792 77.2637ZM88.4227 106.239V94.1278L73.2451 85.3892C73.3984 87.3822 73.5516 89.5285 73.5516 91.5216C73.5516 93.5146 73.3984 95.5076 73.2451 97.3474L88.4227 106.239ZM68.6458 82.9362L44.576 69.1383C44.4227 70.978 44.2694 72.971 44.2694 74.9641C44.2694 76.9571 44.4227 79.1034 44.576 81.0965L68.6458 94.8944C68.7991 93.0547 68.9523 91.0616 68.9523 89.0686C68.9523 87.0756 68.7991 84.9292 68.6458 82.9362ZM39.8234 72.2045C39.8234 70.2114 39.9767 68.2184 40.13 66.3787L24.9523 57.64V69.7515L40.13 78.4902C39.9767 76.3439 39.8234 74.3508 39.8234 72.2045ZM40.7433 84.0094L24.799 74.8107V82.4763C24.799 85.8491 27.0986 89.8352 30.0115 91.5216L45.1893 100.26C43.1962 95.3543 41.6631 89.8351 40.7433 84.0094ZM72.4785 79.87L88.4227 89.0686V81.4031C88.4227 78.0303 86.1231 74.0442 83.2103 72.3578L68.0325 63.6191C70.0255 68.525 71.5587 74.0442 72.4785 79.87ZM72.4785 102.253C71.5587 107.006 70.0255 110.839 68.0325 113.292L83.2103 122.03C86.1231 123.717 88.4227 122.337 88.4227 118.964V111.299L72.4785 102.253ZM40.7433 61.6261C41.6631 56.8734 43.1962 53.0407 45.1893 50.5877L30.0115 41.849C27.0986 40.1626 24.799 41.5424 24.799 44.9152V52.5807L40.7433 61.6261Z" fill="white"/>
<path opacity="0.8" d="M28.6318 133.682C28.3252 133.682 28.3253 133.835 28.3253 134.142V136.595C28.3253 136.902 28.4785 137.208 28.7852 137.515L31.5448 139.048V137.821C31.5448 137.515 31.6981 137.361 32.0047 137.515L34.4577 138.895C34.7643 139.048 34.9176 139.354 34.9176 139.814V144.26C34.9176 144.567 34.7643 144.72 34.4577 144.567L25.4124 139.354C25.1057 139.201 24.9524 138.895 24.9524 138.435V129.849C24.9524 129.236 25.1057 129.083 25.5656 129.083L31.5448 128.776V124.483C31.5448 123.717 31.2381 123.104 30.4716 122.797L29.2451 122.03C28.6319 121.57 28.1719 121.877 28.1719 122.644V124.943C28.1719 125.25 28.0186 125.25 27.712 125.097L25.1057 123.564C24.7991 123.41 24.6458 123.104 24.6458 122.95V119.884C24.6458 117.124 25.8723 116.511 28.3253 117.738L31.0848 119.424C33.3845 120.804 34.7643 122.95 34.7643 125.71V132.456C34.7643 133.069 34.611 133.069 34.151 133.222L28.6318 133.682ZM50.0953 139.968C50.0953 141.041 49.4821 141.501 48.5622 141.041C49.4821 141.807 50.0953 142.881 50.0953 143.954V149.32C50.0953 152.079 48.8688 152.692 46.4159 151.313L43.6563 149.626C41.3566 148.246 39.9768 146.1 39.9768 143.341V137.975C39.9768 136.902 40.5901 136.442 41.51 136.902C40.5901 136.288 39.9768 135.062 39.9768 133.989V128.623C39.9768 125.863 41.2033 125.25 43.6563 126.476L46.4159 128.01C48.7155 129.389 50.0953 131.536 50.0953 134.295V139.968ZM46.7225 133.529C46.7225 132.762 46.4159 132.149 45.6493 131.842L44.2695 131.076C43.6563 130.616 43.1963 130.922 43.1963 131.689V135.215C43.1963 135.982 43.503 136.595 44.2695 136.902L45.6493 137.668C46.2625 137.975 46.5692 137.821 46.5692 137.055V133.529H46.7225ZM46.7225 143.187C46.7225 142.421 46.4159 141.807 45.8026 141.501L44.4228 140.734C43.8096 140.428 43.3496 140.581 43.3496 141.348V144.874C43.3496 145.64 43.6563 146.253 44.4228 146.56L45.8026 147.327C46.4159 147.633 46.8758 147.48 46.7225 146.713V143.187ZM66.4995 152.539C66.8061 152.692 66.9594 152.999 66.9594 153.459V155.912C66.9594 156.219 66.8061 156.372 66.4995 156.219L65.4263 155.605V161.891C65.4263 162.198 65.273 162.351 64.9664 162.198L62.82 160.971C62.5134 160.818 62.3601 160.511 62.3601 160.051V153.766L55.1545 149.626C54.8479 149.473 54.6946 149.166 54.6946 148.706V146.1C54.6946 145.794 54.6947 145.64 54.848 145.487L61.2869 137.208C61.4402 137.055 61.5936 137.055 61.9002 137.208L64.5065 138.741C64.9664 139.048 65.1198 139.354 64.8131 139.661L58.5274 148.093L62.3601 150.24V146.713C62.3601 146.407 62.5134 146.253 62.82 146.407L64.9664 147.633C65.273 147.787 65.4263 148.093 65.4263 148.553V151.926L66.4995 152.539ZM74.4717 158.825C72.172 157.445 70.9456 155.452 70.9456 152.692V146.56C70.9456 143.954 72.172 143.187 74.4717 144.567L77.5379 146.253C79.8375 147.633 81.064 149.78 81.064 152.386V159.745C81.064 160.358 81.064 160.665 80.7574 161.125L77.2312 168.79C77.0779 168.943 76.9246 169.097 76.618 168.943L74.0118 167.41C73.7051 167.257 73.5518 166.797 73.7051 166.49L76.7713 159.898L74.4717 158.825ZM75.2382 148.86C74.625 148.553 74.165 148.706 74.165 149.473V153.766C74.165 154.532 74.4717 155.145 75.2382 155.452L76.618 156.219C77.2312 156.525 77.6912 156.372 77.6912 155.605V151.313C77.6912 150.546 77.3846 149.933 76.7713 149.626L75.2382 148.86ZM94.8619 160.511C94.8619 157.752 96.0885 157.138 98.5414 158.365L101.301 160.051C103.601 161.431 104.98 163.578 104.98 166.337V181.208C104.98 183.968 103.754 184.581 101.301 183.355L98.5414 181.668C96.2418 180.288 94.8619 178.142 94.8619 175.382V160.511ZM100.534 179.062C101.148 179.368 101.608 179.215 101.608 178.449V165.111C101.608 164.344 101.301 163.731 100.534 163.424L99.1546 162.504C98.5414 162.198 98.0814 162.351 98.0814 163.118V176.456C98.0814 177.222 98.3881 177.835 99.1546 178.142L100.534 179.062ZM109.886 169.097C109.886 166.337 111.113 165.724 113.566 166.95L116.325 168.637C118.625 170.017 120.005 172.163 120.005 174.922V189.794C120.005 192.553 118.778 193.166 116.325 191.94L113.566 190.254C111.266 188.874 109.886 186.727 109.886 183.968V169.097ZM115.559 187.801C116.172 188.107 116.632 187.954 116.632 187.187V173.849C116.632 173.083 116.325 172.47 115.559 172.163L114.179 171.396C113.566 171.09 113.106 171.243 113.106 172.01V185.348C113.106 186.114 113.412 186.727 114.179 187.034L115.559 187.801ZM124.911 177.835C124.911 175.076 126.137 174.463 128.59 175.689L131.35 177.375C133.649 178.755 135.029 180.902 135.029 183.661V198.532C135.029 201.292 133.803 201.905 131.35 200.679L128.59 198.992C126.291 197.612 124.911 195.466 124.911 192.706V177.835ZM130.737 196.386C131.35 196.693 131.81 196.539 131.81 195.773V182.435C131.81 181.668 131.503 181.055 130.89 180.748L129.357 179.828C128.744 179.522 128.284 179.675 128.284 180.442V193.78C128.284 194.546 128.59 195.159 129.357 195.466L130.737 196.386ZM139.935 186.574C139.935 183.814 141.162 183.048 143.615 184.428L146.374 186.114C148.674 187.494 150.054 189.64 150.054 192.4V207.271C150.054 210.031 148.827 210.644 146.374 209.264L143.615 207.578C141.315 206.198 139.935 204.051 139.935 201.292V186.574ZM145.761 205.125C146.374 205.585 146.834 205.278 146.834 204.511V191.173C146.834 190.407 146.528 189.794 145.914 189.487L144.381 188.72C143.768 188.26 143.308 188.567 143.308 189.334V202.672C143.308 203.438 143.615 204.051 144.381 204.358L145.761 205.125ZM167.224 212.33C164.925 210.95 163.698 208.804 163.698 206.198V200.065C163.698 197.459 164.925 196.693 167.224 198.072L170.291 199.759C172.59 201.139 173.817 203.132 173.817 205.891V213.403C173.817 214.017 173.817 214.323 173.51 214.783L169.984 222.449C169.831 222.602 169.677 222.755 169.371 222.602L166.765 221.069C166.458 220.916 166.305 220.456 166.305 220.149L169.371 213.557L167.224 212.33ZM167.991 202.365C167.378 202.058 167.071 202.212 167.071 202.978V207.271C167.071 208.038 167.378 208.651 167.991 208.957L169.371 209.724C169.984 210.031 170.444 209.877 170.444 209.111V204.818C170.444 204.051 170.137 203.438 169.524 203.132L167.991 202.365ZM188.688 210.49C189.148 210.644 189.148 211.104 188.995 211.41L181.636 229.194C181.482 229.501 181.329 229.501 181.022 229.348L178.416 227.815C178.109 227.661 177.956 227.201 177.956 226.895L184.089 211.87L178.109 208.497C177.803 208.344 177.65 208.038 177.65 207.731V204.818C177.65 204.511 177.803 204.511 178.109 204.511L188.688 210.49ZM202.946 228.274C202.946 229.348 202.332 229.808 201.413 229.501C202.332 230.114 202.946 231.341 202.946 232.414V237.78C202.946 240.539 201.719 241.153 199.266 239.773L196.507 238.24C194.207 236.86 192.827 234.714 192.827 231.954V226.588C192.827 225.515 193.441 225.055 194.36 225.362C193.441 224.748 192.827 223.522 192.827 222.449V217.083C192.827 214.323 194.054 213.71 196.507 215.09L199.266 216.623C201.566 218.003 202.946 220.149 202.946 222.909V228.274ZM199.573 221.835C199.573 221.069 199.266 220.456 198.5 220.149L197.12 219.382C196.507 218.923 196.047 219.229 196.047 219.996V223.522C196.047 224.288 196.353 224.902 197.12 225.208L198.5 225.975C199.113 226.281 199.573 226.128 199.573 225.362V221.835ZM199.573 231.494C199.573 230.727 199.266 230.114 198.5 229.808L197.12 229.041C196.507 228.581 196.047 228.888 196.047 229.654V233.18C196.047 233.947 196.353 234.56 197.12 234.867L198.5 235.633C199.113 235.94 199.42 235.787 199.42 235.02V231.494H199.573ZM217.97 236.86C217.97 237.933 217.357 238.393 216.437 237.933C217.357 238.7 217.97 239.773 217.97 240.846V246.212C217.97 248.971 216.744 249.585 214.291 248.205L211.378 246.518C209.078 245.139 207.852 243.146 207.852 240.386V239.466C207.852 239.16 208.005 239.006 208.312 239.16L210.765 240.539C211.071 240.693 211.225 240.999 211.225 241.459V242.686L213.984 244.372C214.291 244.525 214.444 244.525 214.444 244.065V239.926C214.444 239.16 214.137 238.546 213.371 238.24L210.458 236.553C210.151 236.4 209.998 236.093 209.998 235.633V233.027C209.998 232.72 210.151 232.567 210.458 232.72L213.371 234.407C213.984 234.714 214.291 234.56 214.291 233.794V229.654C214.291 229.348 214.137 229.041 213.831 228.734L211.071 227.048V228.274C211.071 228.581 210.918 228.734 210.611 228.581L208.158 227.201C207.852 227.048 207.698 226.741 207.698 226.281V225.055C207.698 222.602 208.925 221.989 211.225 223.215L214.137 224.902C216.437 226.281 217.817 228.428 217.817 231.187L217.97 236.86ZM236.827 238.393C237.134 238.546 237.287 238.853 237.287 239.16V261.39C237.287 261.696 237.134 261.849 236.827 261.696L234.221 260.163C233.914 260.01 233.761 259.703 233.761 259.396V241.153L232.228 240.539C231.921 240.386 231.768 240.079 231.768 239.773V237.013C231.768 236.707 231.921 236.553 232.228 236.707L236.827 238.393ZM242.5 245.752C242.5 242.992 243.726 242.379 246.026 243.606L248.786 245.292C251.085 246.672 252.465 248.818 252.465 251.578V266.449C252.465 269.208 251.239 269.975 248.786 268.595L246.026 266.909C243.726 265.529 242.347 263.383 242.347 260.623L242.5 245.752ZM248.326 264.302C248.939 264.609 249.399 264.456 249.399 263.689V250.351C249.399 249.585 249.092 248.971 248.326 248.665L246.792 247.898C246.179 247.592 245.719 247.745 245.719 248.511V261.849C245.719 262.616 246.026 263.229 246.792 263.536L248.326 264.302ZM262.43 253.111C262.737 253.264 262.89 253.571 262.89 253.877V276.107C262.89 276.414 262.737 276.414 262.43 276.261L259.824 274.728C259.517 274.574 259.364 274.268 259.364 273.961V255.717L257.831 255.104C257.524 254.95 257.371 254.644 257.371 254.337V251.578C257.371 251.271 257.524 251.118 257.831 251.271L262.43 253.111ZM268.103 260.47C268.103 257.71 269.329 257.097 271.782 258.323L274.542 260.01C276.841 261.39 278.221 263.536 278.221 266.295V281.167C278.221 283.926 276.995 284.539 274.542 283.313L271.782 281.626C269.482 280.247 268.103 278.1 268.103 275.341V260.47ZM273.928 279.174C274.542 279.48 275.002 279.327 275.002 278.56V265.222C275.002 264.456 274.695 263.842 273.928 263.536L272.395 262.769C271.782 262.309 271.322 262.616 271.322 263.383V276.721C271.322 277.487 271.629 278.1 272.242 278.407L273.928 279.174Z" fill="white"/>
<g opacity="0.99">
<g opacity="0.99">
<path opacity="0.99" d="M123.981 104.483L121.623 98.4936L119.012 97.0475L122.782 106.16V110.508L125.179 111.829V107.408L128.95 102.555L126.355 101.115L123.981 104.483ZM135.305 105.896C133.56 104.925 132.218 104.681 131.281 105.163C130.343 105.645 129.875 106.83 129.878 108.719C129.853 110.527 130.338 112.305 131.277 113.85C132.261 115.429 133.645 116.719 135.289 117.59C137.032 118.554 138.37 118.79 139.304 118.297C140.237 117.804 140.704 116.616 140.704 114.734C140.727 112.934 140.245 111.164 139.314 109.623C138.329 108.05 136.947 106.764 135.305 105.896ZM135.289 115.57C134.371 115.078 133.618 114.325 133.126 113.407C132.62 112.392 132.372 111.269 132.403 110.135C132.403 108.867 132.648 108.042 133.136 107.669C133.625 107.296 134.345 107.368 135.305 107.9C137.209 108.961 138.161 110.771 138.161 113.331C138.161 115.891 137.204 116.637 135.289 115.57ZM149.909 121.11C149.909 121.991 149.734 122.54 149.377 122.761C149.02 122.982 148.449 122.866 147.663 122.431C146.948 122.07 146.343 121.522 145.914 120.846C145.542 120.166 145.359 119.398 145.385 118.624V111.657L142.982 110.337V117.653C142.995 118.996 143.418 120.304 144.193 121.4C145.074 122.66 146.242 123.692 147.601 124.412C148.37 124.879 149.228 125.181 150.12 125.3C150.416 125.348 150.72 125.322 151.004 125.226C151.288 125.13 151.545 124.966 151.751 124.748C152.124 124.326 152.312 123.692 152.312 122.853V115.497L149.909 114.176V121.11ZM162.399 126.274C162.597 126.082 162.75 125.849 162.846 125.591C162.942 125.332 162.978 125.056 162.953 124.781C162.949 123.628 162.558 122.509 161.841 121.605C161.099 120.632 159.956 119.718 158.41 118.861L155.109 117.026V128.413L157.519 129.734V125.382L158.79 126.102L161.507 131.969L164.182 133.451C163.664 132.417 162.55 130.148 160.837 126.643C161.109 126.696 161.388 126.69 161.658 126.627C161.927 126.563 162.18 126.443 162.399 126.274ZM159.975 124.405C159.612 124.458 159.049 124.274 158.285 123.854L157.509 123.421V120.351L158.239 120.753C158.88 121.084 159.46 121.523 159.952 122.051C160.31 122.453 160.507 122.972 160.507 123.51C160.517 124.055 160.335 124.352 159.975 124.405ZM173.38 127.168L169.748 125.154V136.525L172.162 137.862V133.818L173.195 134.389C174.604 135.173 175.691 135.451 176.457 135.224C177.223 135 177.603 134.277 177.603 133.052C177.605 131.88 177.228 130.739 176.527 129.8C175.684 128.702 174.61 127.804 173.38 127.168ZM174.618 132.781C174.248 132.871 173.698 132.71 172.967 132.296L172.175 131.857V128.466L173.258 129.073C173.825 129.363 174.321 129.776 174.707 130.282C175.015 130.724 175.177 131.252 175.17 131.791C175.17 132.349 174.985 132.676 174.618 132.765V132.781ZM179.762 142.065L186.309 145.697V143.716L182.172 141.425V138.493L186.012 140.629V138.648L182.162 136.515V134.019L186.299 136.311V134.33L179.752 130.698L179.762 142.065ZM195.983 144.875C196.179 144.685 196.33 144.453 196.425 144.198C196.52 143.942 196.558 143.668 196.534 143.396C196.532 142.242 196.141 141.122 195.425 140.217C194.668 139.241 193.519 138.327 191.978 137.473L188.677 135.637V147.008L191.09 148.329V143.98L192.371 144.69L195.085 150.557L197.763 152.04C197.245 151.007 196.131 148.738 194.418 145.232C194.688 145.285 194.966 145.281 195.234 145.22C195.502 145.158 195.754 145.041 195.973 144.875H195.983ZM193.556 143.006C193.193 143.059 192.631 142.874 191.869 142.452L191.093 142.019V138.949L191.823 139.355C192.468 139.683 193.051 140.121 193.547 140.649C193.904 141.051 194.101 141.57 194.101 142.108C194.091 142.653 193.91 142.94 193.547 143.006H193.556ZM199.186 152.845L201.556 154.166V149.653L205.416 151.789V149.808L201.553 147.685V144.753L205.7 147.048V145.067L199.182 141.455L199.186 152.845ZM207.928 157.689L214.476 161.321V159.34L210.339 157.029V154.097L214.188 156.23V154.249L210.339 152.116V149.62L214.476 151.911V149.93L207.928 146.298V157.689ZM219.57 155.635C220.069 155.229 220.769 155.275 221.677 155.777C222.133 156.038 222.558 156.349 222.944 156.705C223.377 157.095 223.803 157.507 224.229 157.946L225.005 156.418C224.032 155.377 222.911 154.487 221.677 153.776C220.594 153.176 219.649 152.889 218.844 152.918C218.474 152.916 218.109 153.009 217.784 153.187C217.46 153.364 217.186 153.622 216.988 153.935C216.548 154.595 216.328 155.512 216.328 156.685C216.287 158.461 216.744 160.213 217.647 161.742C218.55 163.271 219.864 164.517 221.439 165.339C222.403 165.909 223.462 166.298 224.565 166.488V164.467C223.553 164.279 222.574 163.939 221.663 163.457C219.762 162.405 218.811 160.611 218.811 158.075C218.82 156.847 219.073 156.029 219.57 155.622V155.635ZM225.886 158.277L228.973 159.987V169.35L231.383 170.671V161.304L234.47 163.014V161.01L225.886 156.253V158.277ZM243.081 168.66C243.576 168.255 244.279 168.304 245.188 168.806C245.644 169.06 246.069 169.366 246.455 169.717C246.896 170.106 247.324 170.52 247.74 170.958L248.516 169.43C247.541 168.392 246.42 167.502 245.188 166.788C244.105 166.19 243.159 165.903 242.351 165.93C241.984 165.93 241.623 166.024 241.302 166.201C240.981 166.378 240.709 166.633 240.512 166.943C240.072 167.604 239.852 168.519 239.852 169.69C239.812 171.466 240.269 173.218 241.172 174.748C242.075 176.278 243.388 177.525 244.963 178.347C245.927 178.918 246.986 179.307 248.09 179.496V177.472C247.077 177.287 246.098 176.948 245.188 176.465C243.286 175.413 242.334 173.618 242.332 171.08C242.332 169.863 242.581 169.051 243.081 168.644V168.66ZM253.088 171.302L249.077 180.493L251.672 181.9L252.497 179.651L256.644 181.963L257.466 185.126L260.065 186.565L256.03 172.909L253.088 171.302ZM253.105 177.997C253.913 175.827 254.402 174.457 254.574 173.887C254.617 174.098 254.683 174.389 254.782 174.765C254.881 175.141 255.307 176.762 256.067 179.638L253.105 177.997ZM268.798 185.241C268.994 185.051 269.146 184.82 269.242 184.564C269.338 184.308 269.375 184.034 269.352 183.762C269.348 182.607 268.956 181.488 268.24 180.582C267.498 179.61 266.354 178.695 264.809 177.839L261.508 176.003V187.374L263.918 188.711V184.323L265.199 185.033L267.916 190.9L270.594 192.383C270.077 191.35 268.962 189.082 267.249 185.578C267.518 185.629 267.795 185.624 268.062 185.562C268.328 185.5 268.579 185.383 268.798 185.218V185.241ZM266.371 183.372C266.008 183.425 265.445 183.24 264.684 182.818L263.908 182.389V179.292L264.638 179.698C265.283 180.025 265.867 180.463 266.361 180.992C266.718 181.394 266.916 181.913 266.916 182.451C266.926 182.996 266.734 183.296 266.371 183.349V183.372ZM279.908 187.665C278.801 186.044 277.317 184.717 275.583 183.798L272.013 181.817V193.185L275.233 194.971C277.247 196.085 278.787 196.439 279.855 196.034C280.922 195.629 281.455 194.487 281.453 192.607C281.447 190.836 280.907 189.108 279.904 187.648L279.908 187.665ZM275.457 193.092L274.42 192.521V185.116L275.705 185.829C277.862 187.024 278.94 188.842 278.94 191.283C278.94 193.777 277.779 194.38 275.457 193.092Z" fill="white"/>
</g>
</g>
<path opacity="0.8" d="M29.245 191.02C28.0185 190.253 27.0986 190.867 27.0986 192.4C27.0986 193.933 28.0185 195.619 29.245 196.233C29.8582 196.692 30.6248 196.692 31.238 196.233L32.4645 198.532C31.5446 199.145 30.3182 198.992 29.0917 198.379C26.6387 196.999 24.799 193.933 24.799 191.173C24.799 188.567 26.6387 187.494 29.0917 189.027C30.3182 189.793 31.5446 191.02 32.3112 192.553L31.0847 193.473C30.7781 192.246 30.0115 191.327 29.245 191.02ZM39.8234 202.825L36.2972 200.832L35.684 202.212L33.5377 200.985L37.0638 193.626L39.2102 194.853L42.583 206.198L40.2833 204.971L39.8234 202.825ZM39.2102 200.525L38.137 196.539L37.0638 199.145L39.2102 200.525ZM49.3286 209.877L48.1021 206.658L46.569 205.738V208.344L44.4227 207.118V197.766L48.1021 199.912C50.2485 201.138 51.475 202.978 51.475 205.125C51.475 206.504 51.015 207.271 50.0952 207.271L51.7816 211.257L49.3286 209.877ZM46.569 203.745L48.1021 204.665C49.022 205.125 49.482 204.971 49.482 204.051C49.482 203.131 49.022 202.365 48.1021 201.905L46.569 200.985V203.745ZM61.7468 212.33C61.7468 215.09 59.907 216.01 57.3008 214.476L53.9279 212.483V203.132L57.454 205.125C60.0603 206.811 61.7468 209.571 61.7468 212.33ZM59.6004 211.257C59.6004 209.724 58.6805 208.037 57.454 207.271L56.0743 206.504V211.87L57.454 212.637C58.8338 213.403 59.6004 212.79 59.6004 211.257ZM66.0395 210.184V214.017L69.2589 215.856V212.023L71.4053 213.25V222.602L69.2589 221.375V217.849L66.0395 216.01V219.536L63.8931 218.309V208.957L66.0395 210.184ZM82.4437 224.288C82.4437 227.048 80.6039 227.968 78.1509 226.588C75.698 225.208 73.705 221.989 73.705 219.229C73.705 216.47 75.5447 215.55 77.9977 217.083C80.4506 218.463 82.4437 221.529 82.4437 224.288ZM75.8513 220.456C75.8513 221.989 76.9244 223.675 78.1509 224.442C79.3774 225.208 80.2973 224.442 80.2973 223.062C80.2973 221.529 79.3774 219.842 78.1509 219.229C76.7711 218.463 75.8513 219.076 75.8513 220.456ZM86.7364 222.142V229.348L90.1092 231.341V233.334L84.59 230.114V220.762L86.7364 222.142ZM99.921 234.407C99.921 237.166 98.0813 238.086 95.6283 236.553L92.2555 234.56V225.208L95.7816 227.201C98.2346 228.734 99.921 231.647 99.921 234.407ZM97.7747 233.18C97.7747 231.647 96.8548 229.961 95.6283 229.194L94.2485 228.428V233.794L95.6283 234.56C97.0081 235.48 97.7747 234.867 97.7747 233.18ZM108.506 234.713V236.706L104.214 234.253V235.94L108.046 238.086V240.079L104.214 237.933V239.619L108.506 242.072V244.065L102.067 240.386V231.034L108.506 234.713ZM116.019 248.358L114.792 245.139L113.259 244.219V246.825L111.113 245.598V236.247L114.792 238.393C116.938 239.619 118.165 241.612 118.165 243.605C118.165 244.985 117.705 245.752 116.785 245.752L118.472 249.738L116.019 248.358ZM113.259 242.226L114.792 243.145C115.712 243.605 116.172 243.452 116.172 242.532C116.172 241.612 115.712 240.846 114.792 240.386L113.259 239.466V242.226Z" fill="white"/>
<path d="M153.12 252.651L154.193 256.637L155.266 253.877L156.339 254.491L154.806 258.323L153.733 257.71L152.2 252.038L153.12 252.651ZM159.559 260.316L157.719 259.243L157.413 259.856L156.339 259.243L158.026 255.564L159.099 256.177L160.785 261.849L159.712 261.236L159.559 260.316ZM159.252 259.243L158.639 257.25L158.026 258.63L159.252 259.243ZM163.085 258.477V262.156L164.771 263.229V264.302L162.012 262.769V258.017L163.085 258.477ZM166.918 260.623V265.376L165.845 264.762V260.01L166.918 260.623ZM172.284 266.142C172.284 267.522 171.364 267.982 169.984 267.215L168.298 266.295V261.543L169.984 262.616C171.364 263.229 172.284 264.762 172.284 266.142ZM171.211 265.529C171.211 264.762 170.751 263.842 170.137 263.536L169.524 263.076V265.836L170.291 266.295C170.751 266.602 171.211 266.295 171.211 265.529ZM156.493 262.309V263.383L155.266 262.616V266.295L154.193 265.682V262.003L152.967 261.236V260.163L156.493 262.309ZM158.486 263.536V265.529L160.172 266.449V264.456L161.245 265.069V269.822L160.172 269.208V267.369L158.486 266.449V268.289L157.413 267.675V262.923L158.486 263.536ZM165.078 271.968L164.465 270.282L163.698 269.822V271.201L162.625 270.588V265.836L164.465 266.909C165.538 267.522 166.151 268.442 166.151 269.515C166.151 270.282 165.845 270.588 165.385 270.588L166.305 272.581L165.078 271.968ZM163.698 268.902L164.465 269.362C164.925 269.668 165.078 269.515 165.078 269.055C165.078 268.595 164.772 268.135 164.465 267.982L163.698 267.522V268.902ZM169.217 273.501C169.677 273.808 169.984 273.654 169.984 273.041V270.282L171.057 270.895V273.654C171.057 274.881 170.291 275.187 169.217 274.574C167.991 273.961 167.378 272.735 167.378 271.508V268.748L168.451 269.362V272.121C168.451 272.581 168.758 273.194 169.217 273.501Z" fill="white"/>
<path opacity="0.8" d="M179.949 267.522C180.102 267.522 180.102 267.675 180.102 267.828V279.787C180.102 279.94 180.102 279.94 179.949 279.94L178.569 279.173C178.416 279.02 178.416 279.02 178.416 278.867V269.055L177.649 268.748C177.496 268.748 177.343 268.442 177.343 268.288V266.755C177.343 266.602 177.496 266.449 177.649 266.602L179.949 267.522ZM182.862 271.508C182.862 269.975 183.475 269.668 184.855 270.435L186.388 271.355C187.615 272.121 188.381 273.194 188.381 274.727V282.7C188.381 284.233 187.768 284.539 186.388 283.773L184.855 282.853C183.629 282.086 182.862 281.013 182.862 279.48V271.508ZM186.081 281.473C186.388 281.626 186.541 281.626 186.541 281.166V273.961C186.541 273.501 186.388 273.194 186.081 273.041L185.315 272.581C185.008 272.428 184.702 272.428 184.702 272.888V280.093C184.702 280.553 184.855 280.86 185.162 281.013L186.081 281.473ZM196.66 277.18C196.813 277.334 196.967 277.487 196.813 277.64L192.521 288.219C192.521 288.372 192.367 288.372 192.214 288.219L190.987 287.452C190.834 287.299 190.681 287.146 190.834 286.992L195.127 276.414C195.127 276.261 195.28 276.261 195.433 276.414L196.66 277.18ZM199.42 281.013C199.42 279.633 200.033 279.173 201.413 279.94L202.946 280.86C204.172 281.626 204.939 282.7 204.939 284.233V292.205C204.939 293.585 204.325 294.045 202.946 293.278L201.413 292.358C200.186 291.592 199.42 290.518 199.42 288.985V281.013ZM202.486 290.978C202.792 291.132 202.946 291.132 202.946 290.672V283.466C202.946 283.006 202.792 282.7 202.486 282.546L201.719 282.086C201.413 281.933 201.259 281.933 201.259 282.393V289.599C201.259 290.058 201.413 290.365 201.719 290.518L202.486 290.978ZM210.918 290.212C212.144 290.978 212.758 292.052 212.758 293.431V296.651C212.758 298.031 212.144 298.491 210.918 297.724L209.385 296.804C208.158 296.038 207.545 294.964 207.545 293.585V289.599C207.545 289.292 207.545 289.139 207.698 288.832L209.538 284.693C209.538 284.539 209.691 284.539 209.845 284.693L211.224 285.459C211.378 285.612 211.531 285.766 211.378 285.919L209.691 289.445L210.918 290.212ZM210.458 295.578C210.764 295.731 210.918 295.731 210.918 295.271V292.971C210.918 292.511 210.764 292.205 210.458 292.052L209.691 291.592C209.385 291.438 209.231 291.438 209.231 291.898V294.198C209.231 294.658 209.385 294.964 209.691 295.118L210.458 295.578Z" fill="white"/>
<path opacity="0.8" d="M278.374 338.658C278.374 339.884 277.455 340.344 276.535 339.731L254.305 326.853C253.232 326.24 252.465 324.707 252.465 323.633V308.762C252.465 307.536 253.385 307.076 254.305 307.689L276.535 320.567C277.608 321.18 278.374 322.714 278.374 323.787V338.658Z" fill="white"/>
<path opacity="0.5" d="M249.245 321.794V306.923C249.245 306.156 249.399 305.543 249.705 304.93L230.695 293.891C229.622 293.278 228.855 293.738 228.855 294.964V309.836C228.855 311.062 229.775 312.442 230.695 313.055L249.705 324.093C249.399 323.327 249.245 322.56 249.245 321.794Z" fill="black"/>
<defs>
<linearGradient id="paint0_linear" x1="-39.5786" y1="77.8431" x2="346.858" y2="300.946" gradientUnits="userSpaceOnUse">
<stop stop-color="#59D8BC"/>
<stop offset="1" stop-color="#4584EC"/>
</linearGradient>
</defs>
</svg>
