<svg width="252" height="55" viewBox="0 0 252 55" fill="none" xmlns="http://www.w3.org/2000/svg">
<path d="M50.625 39.9375C50.625 42.4226 48.6101 44.4375 46.125 44.4375H7.875C5.38987 44.4375 3.375 42.4226 3.375 39.9375V15.1875C3.375 12.7024 5.38987 10.6875 7.875 10.6875H46.125C48.6101 10.6875 50.625 12.7024 50.625 15.1875V39.9375Z" fill="#3F51B5"/>
<path d="M33.75 16.3125C30.7663 16.3125 27.9048 17.4978 25.795 19.6075C23.6853 21.7173 22.5 24.5788 22.5 27.5625C22.5 30.5462 23.6853 33.4077 25.795 35.5175C27.9048 37.6272 30.7663 38.8125 33.75 38.8125C36.7337 38.8125 39.5952 37.6272 41.705 35.5175C43.8147 33.4077 45 30.5462 45 27.5625C45 24.5788 43.8147 21.7173 41.705 19.6075C39.5952 17.4978 36.7337 16.3125 33.75 16.3125Z" fill="#FFC107"/>
<path d="M24.7658 34.3125C24.2437 33.6184 23.7949 32.868 23.4427 32.0625H29.4334C29.7461 31.347 29.9914 30.5955 30.15 29.8125H22.7272C22.5787 29.0857 22.5 28.3343 22.5 27.5625H30.375C30.375 26.7907 30.2962 26.0393 30.1489 25.3125H22.7261C22.8859 24.5295 23.13 23.778 23.4427 23.0625H29.4334C29.0812 22.257 28.6335 21.5066 28.1104 20.8125H24.7658C25.2574 20.16 25.812 19.5503 26.4319 19.0181C24.4654 17.3351 21.9161 16.3125 19.125 16.3125C12.9116 16.3125 7.875 21.3491 7.875 27.5625C7.875 33.7759 12.9116 38.8125 19.125 38.8125C22.8026 38.8125 26.0573 37.0406 28.1092 34.3125H24.7658Z" fill="#FF3D00"/>
<path d="M116.625 39.9375C116.625 42.4226 114.61 44.4375 112.125 44.4375H73.875C71.3899 44.4375 69.375 42.4226 69.375 39.9375V15.1875C69.375 12.7024 71.3899 10.6875 73.875 10.6875H112.125C114.61 10.6875 116.625 12.7024 116.625 15.1875V39.9375Z" fill="#1976D2"/>
<path d="M91.0369 23.0625L88.6597 28.3309L86.2939 23.0625H83.262V30.6292L79.8836 23.0625H77.3254L73.875 30.9161H75.9169L76.6718 29.1634H80.5328L81.3 30.9161H85.1981V25.083L87.7845 30.9161H89.5429L92.1877 25.1842V30.9161H94.125V23.0625H91.0369ZM77.4019 27.4669L78.5561 24.7219L79.7554 27.4669H77.4019ZM108.618 26.9021L112.125 23.0827H109.631L107.388 25.5172L105.218 23.0625H97.5V30.9173H104.964L107.318 28.3174L109.613 30.9375H112.099L108.618 26.9021ZM103.944 29.268H99.4316V27.7144H103.749V26.226H99.4316V24.7545L104.195 24.768L106.1 26.9021L103.944 29.268Z" fill="white"/>
<path d="M248.625 39.375C248.625 41.85 246.6 43.875 244.125 43.875H205.875C203.4 43.875 201.375 41.85 201.375 39.375V14.625C201.375 12.15 203.4 10.125 205.875 10.125H244.125C246.6 10.125 248.625 12.15 248.625 14.625V39.375Z" fill="#E1E7EA"/>
<path d="M248.625 39.375C248.625 41.85 246.6 43.875 244.125 43.875H216C216 43.875 242.55 39.6 248.625 27V39.375ZM222.75 27C222.75 28.9125 224.212 30.375 226.125 30.375C228.038 30.375 229.5 28.9125 229.5 27C229.5 25.0875 228.038 23.625 226.125 23.625C224.212 23.625 222.75 25.0875 222.75 27Z" fill="#FF6D00"/>
<path d="M210.6 23.625H211.838V30.375H210.6V23.625ZM217.35 27C217.35 28.9125 218.813 30.375 220.725 30.375C221.288 30.375 221.738 30.2625 222.3 30.0375V28.575C221.85 29.025 221.4 29.25 220.725 29.25C219.488 29.25 218.587 28.35 218.587 27C218.587 25.7625 219.488 24.75 220.725 24.75C221.288 24.75 221.738 24.975 222.3 25.425V23.9625C221.738 23.7375 221.288 23.5125 220.725 23.5125C218.813 23.625 217.35 25.2 217.35 27ZM232.425 28.0125L230.625 23.625H229.275L232.087 30.375H232.762L235.575 23.625H234.225L232.425 28.0125ZM236.138 30.375H239.737V29.25H237.375V27.45H239.625V26.325H237.375V24.75H239.737V23.625H236.138V30.375ZM244.688 25.65C244.688 24.4125 243.9 23.625 242.438 23.625H240.525V30.375H241.763V27.675H241.875L243.675 30.375H245.25L243.225 27.5625C244.125 27.3375 244.688 26.6625 244.688 25.65ZM242.1 26.775H241.763V24.75H242.1C242.888 24.75 243.337 25.0875 243.337 25.7625C243.337 26.325 243 26.775 242.1 26.775ZM206.662 23.625H204.75V30.375H206.55C209.362 30.375 210.037 28.0125 210.037 27C210.15 24.975 208.687 23.625 206.662 23.625ZM206.325 29.25H205.987V24.75H206.438C208.125 24.75 208.8 25.875 208.8 27C208.8 27.45 208.688 29.25 206.325 29.25ZM215.213 26.2125C214.425 25.875 214.2 25.7625 214.2 25.425C214.2 24.975 214.65 24.75 215.1 24.75C215.438 24.75 215.775 24.8625 216.113 25.3125L216.788 24.4125C216.225 23.85 215.663 23.625 214.875 23.625C213.75 23.625 212.85 24.4125 212.85 25.5375C212.85 26.4375 213.3 26.8875 214.425 27.3375C215.1 27.5625 215.662 27.7875 215.662 28.35C215.662 28.9125 215.213 29.25 214.65 29.25C214.088 29.25 213.525 28.9125 213.3 28.35L212.512 29.1375C213.075 30.0375 213.75 30.375 214.762 30.375C216.112 30.375 217.012 29.475 217.012 28.2375C217.012 27.225 216.562 26.775 215.213 26.2125Z" fill="black"/>
<path d="M182.625 39.9375C182.625 42.4226 180.61 44.4375 178.125 44.4375H139.875C137.39 44.4375 135.375 42.4226 135.375 39.9375V15.1875C135.375 12.7024 137.39 10.6875 139.875 10.6875H178.125C180.61 10.6875 182.625 12.7024 182.625 15.1875V39.9375Z" fill="#1565C0"/>
<path d="M149.084 21.9375L146.13 30.7485C146.13 30.7485 145.38 27.0214 145.305 26.5534C143.624 22.716 141.142 22.9298 141.142 22.9298L144.067 34.3125V34.3103H147.623L152.54 21.9375H149.084ZM151.9 34.3125H155.13L157.083 21.9375H153.813L151.9 34.3125ZM174.759 21.9375H171.36L166.062 34.3125H169.27L169.932 32.5451H173.977L174.321 34.3125H177.261L174.759 21.9375ZM170.827 30.1815L172.586 25.5049L173.506 30.1815H170.827ZM161.665 25.5443C161.665 24.8625 162.225 24.3552 163.832 24.3552C164.876 24.3552 166.072 25.1134 166.072 25.1134L166.596 22.5158C166.596 22.5158 165.068 21.9364 163.569 21.9364C160.172 21.9364 158.421 23.5609 158.421 25.6174C158.421 29.3366 162.897 28.827 162.897 30.7373C162.897 31.0646 162.637 31.8218 160.773 31.8218C158.903 31.8218 157.669 31.1366 157.669 31.1366L157.112 33.6296C157.112 33.6296 158.308 34.3114 160.619 34.3114C162.935 34.3114 166.148 32.5789 166.148 30.0904C166.148 27.0968 161.665 26.8808 161.665 25.5443Z" fill="white"/>
<path d="M145.739 28.6257L144.652 23.2842C144.652 23.2842 144.16 22.1265 142.882 22.1265C141.604 22.1265 137.887 22.1265 137.887 22.1265C137.887 22.1265 144.256 24.0075 145.739 28.6257Z" fill="#FFC107"/>
</svg>
