<svg width="1440" height="724" viewBox="0 0 1440 724" fill="none" xmlns="http://www.w3.org/2000/svg">
<g clip-path="url(#clip0)">
<rect width="1440" height="724" fill="white"/>
<path d="M868.05 280.134V-61H1891V939.5C1891 939.5 1082.65 474.515 934.063 389.177C922.385 382.47 866.073 349.029 868.051 279.134" fill="#FF8C5A"/>
<g filter="url(#filter0_d)">
<path d="M751.051 121V0H1773.81V772C1773.81 772 965.615 315.3 817.051 230C805.375 223.3 749.074 189.868 751.051 120" fill="#343C4B"/>
</g>
<path opacity="0.349" d="M1089.05 158.5V0H2111.81V769.14C2111.81 769.14 1303.61 352.805 1155.05 267.5C1143.37 260.8 1087.07 227.368 1089.05 157.5" fill="#404857"/>
</g>
<defs>
<filter id="filter0_d" x="727" y="-20" width="1070.81" height="820" filterUnits="userSpaceOnUse" color-interpolation-filters="sRGB">
<feFlood flood-opacity="0" result="BackgroundImageFix"/>
<feColorMatrix in="SourceAlpha" type="matrix" values="0 0 0 0 0 0 0 0 0 0 0 0 0 0 0 0 0 0 127 0"/>
<feOffset dy="4"/>
<feGaussianBlur stdDeviation="12"/>
<feColorMatrix type="matrix" values="0 0 0 0 0 0 0 0 0 0 0 0 0 0 0 0 0 0 0.1 0"/>
<feBlend mode="normal" in2="BackgroundImageFix" result="effect1_dropShadow"/>
<feBlend mode="normal" in="SourceGraphic" in2="effect1_dropShadow" result="shape"/>
</filter>
<clipPath id="clip0">
<rect width="1440" height="724" fill="white"/>
</clipPath>
</defs>
</svg>
