<svg width="556" height="506" viewBox="0 0 556 506" fill="none" xmlns="http://www.w3.org/2000/svg">
<g filter="url(#filter0_d)">
<path d="M187.087 448.78C147.109 448.78 107.305 440.077 76.8875 422.495C47.3387 405.435 31 382.631 31 358.434C31 334.237 47.3387 311.433 76.8875 294.373C137.723 259.209 236.625 259.209 297.286 294.373C326.835 311.433 343.174 334.237 343.174 358.434C343.174 382.631 326.835 405.435 297.286 422.495C266.869 440.077 226.891 448.78 187.087 448.78ZM187.087 269.132C147.457 269.132 107.653 277.836 77.4089 295.417C48.2078 312.303 32.2167 334.759 32.2167 358.434C32.2167 382.283 48.2078 404.565 77.4089 421.45C137.897 456.44 236.277 456.44 296.765 421.45C325.966 404.565 341.957 382.108 341.957 358.434C341.957 334.585 325.966 312.303 296.765 295.417C266.521 277.836 226.717 269.132 187.087 269.132Z" fill="#EBEBEB"/>
<path opacity="0.5" d="M187.087 422.843C248.62 422.843 298.503 394.006 298.503 358.434C298.503 322.862 248.62 294.025 187.087 294.025C125.553 294.025 75.6706 322.862 75.6706 358.434C75.6706 394.006 125.553 422.843 187.087 422.843Z" fill="#13247A"/>
<path d="M226.441 119.787L112.417 53.6372C110.505 52.5927 108.941 52.4186 107.551 53.1149L99.7288 57.641L104.769 60.7744L104.769 328.507C104.769 334.077 108.072 340.518 112.244 342.955L225.05 408.235L223.486 413.979L231.308 409.453C232.872 408.583 233.915 406.494 233.915 403.361L233.915 134.061C233.915 128.491 230.612 122.05 226.441 119.787Z" fill="url(#paint0_linear)"/>
<path d="M218.619 413.631L104.422 347.656C100.251 345.219 96.948 338.778 96.948 333.207L96.948 63.9078C96.948 58.3373 100.251 55.9002 104.422 58.1632L218.619 124.139C222.791 126.576 226.094 133.017 226.094 138.587L226.094 407.887C226.094 413.457 222.617 416.069 218.619 413.631Z" fill="url(#paint1_linear)"/>
<path d="M226.094 408.061L96.948 333.381L96.948 63.7338L226.094 138.588L226.094 408.061Z" fill="#0F65B2"/>
<path opacity="0.4" d="M205.41 413.283L90.17 346.611C85.8246 344.174 83.2173 339.474 83.2173 334.426L83.2173 80.9675C83.2173 77.4859 87.0413 75.2229 90.17 76.9637L205.41 143.636C209.756 146.073 212.363 150.773 212.363 155.821L212.363 409.453C212.363 412.935 208.539 415.024 205.41 413.283Z" fill="white"/>
<path d="M207.669 414.502C206.8 414.502 205.931 414.328 205.062 413.805L89.8215 347.133C85.3023 344.522 82.5212 339.648 82.5212 334.6L82.5212 80.9675C82.5212 79.0526 83.3903 77.4859 85.1285 76.6155C86.6928 75.7451 88.6048 75.7451 90.1692 76.6155L205.583 143.288C210.102 145.899 212.883 150.773 212.883 155.821L212.883 409.453C212.883 411.368 212.014 412.935 210.276 413.805C209.407 414.154 208.538 414.502 207.669 414.502ZM87.7357 76.7896C87.0405 76.7896 86.3452 76.9637 85.6499 77.3118C84.4332 78.0081 83.5641 79.4008 83.5641 80.7934L83.5641 334.426C83.5641 339.3 86.1714 343.652 90.343 346.089L205.583 412.761C206.8 413.457 208.364 413.457 209.755 412.761C210.971 412.065 211.841 410.672 211.841 409.279L211.841 155.821C211.841 150.947 209.233 146.595 205.062 144.158L89.8215 77.4859C89.1263 76.9637 88.431 76.7896 87.7357 76.7896Z" fill="white"/>
<path d="M169.951 102.553L152.917 92.6307C152.395 92.2826 151.874 91.4122 151.874 90.5418C151.874 89.8455 152.395 89.4973 152.917 89.6714L169.951 99.5938C170.472 99.942 170.994 100.812 170.994 101.683C170.994 102.553 170.646 102.901 169.951 102.553Z" fill="#0063AD"/>
<path opacity="0.2" d="M177.077 255.568C179.337 256.961 181.249 255.568 181.249 252.435V158.78C181.249 155.647 179.337 151.991 177.077 150.599L83.564 96.4603C83.3902 97.5048 83.2163 98.7233 83.2163 99.7678L83.2163 201.081L177.077 255.568Z" fill="#041860"/>
<path d="M164.91 158.432L29.1596 79.9229C28.1167 79.2266 27.0738 79.2266 26.3786 79.7489L24.2928 80.9674C24.2928 80.9674 24.8142 80.9674 25.1618 81.1415C24.988 81.6637 24.8142 82.36 24.8142 83.2304L24.8142 176.885C24.8142 180.018 26.7262 183.674 28.9858 185.066L164.91 263.402C165.084 263.576 165.432 263.576 165.605 263.75V264.794L167.691 263.576C168.56 263.053 169.082 261.835 169.082 260.094V166.614C169.082 163.481 167.344 159.825 164.91 158.432Z" fill="white"/>
<path d="M162.998 264.446L27.2476 186.111C24.988 184.718 23.076 181.063 23.076 177.929L23.076 84.2749C23.076 81.1415 24.988 79.7489 27.2476 81.1415L162.998 159.651C165.258 161.044 167.17 164.699 167.17 167.833V261.487C167.17 264.446 165.258 265.839 162.998 264.446Z" fill="url(#paint2_linear)"/>
<path d="M122.499 164.525V151.121L125.28 152.688C125.801 153.036 126.323 153.384 126.67 153.732C127.018 154.08 127.366 154.428 127.713 154.951C128.061 155.299 128.235 155.821 128.409 156.343C128.582 156.866 128.582 157.562 128.582 158.084C128.582 159.651 128.061 160.347 126.844 159.825C127.539 160.347 128.061 161.043 128.409 161.74C128.756 162.436 128.93 163.306 128.93 164.351C128.93 165.569 128.582 166.44 128.061 166.788C127.539 167.136 126.67 166.962 125.627 166.44L122.499 164.525ZM124.585 157.736L125.28 158.084C125.975 158.432 126.323 158.606 126.497 158.432C126.67 158.258 126.844 157.736 126.844 157.04C126.844 156.691 126.844 156.343 126.67 155.995C126.67 155.647 126.497 155.473 126.323 155.299C126.149 155.125 125.975 154.951 125.801 154.777C125.628 154.603 125.28 154.428 124.932 154.254L124.585 154.08V157.736ZM124.585 164.003L125.28 164.525C125.975 164.873 126.323 165.047 126.67 164.699C126.844 164.525 127.018 164.003 127.018 163.306C127.018 162.436 126.844 161.914 126.67 161.392C126.323 160.869 125.975 160.347 125.28 159.999L124.585 159.651V164.003Z" fill="white"/>
<path d="M129.799 168.703L132.232 156.692L134.492 157.91L136.752 172.707L134.84 171.488L134.318 168.181L132.232 166.962L131.711 169.747L129.799 168.703ZM132.58 165.57L134.144 166.44L133.449 160.521L132.58 165.57Z" fill="white"/>
<path d="M137.795 173.229V159.825L139.185 160.695L141.966 169.921V162.436L143.705 163.481V176.885L142.314 176.014L139.533 166.44V174.448L137.795 173.229Z" fill="white"/>
<path d="M145.616 177.755V164.351L147.702 165.569V171.314L149.962 166.788L152.047 168.007L149.788 172.707L152.221 181.585L150.135 180.366L148.224 172.881L147.876 173.577V178.974L145.616 177.755Z" fill="white"/>
<path d="M60.4466 185.937L34.7218 170.966V167.484L60.4466 182.455V185.937Z" fill="white"/>
<path d="M92.0813 204.215L66.3565 189.244V185.763L92.0813 200.733V204.215Z" fill="white"/>
<path d="M123.889 222.493L97.9908 207.522V204.041L123.889 219.012V222.493Z" fill="white"/>
<path d="M155.524 240.771L129.799 225.801V222.493L155.524 237.29V240.771Z" fill="white"/>
<path opacity="0.2" d="M162.998 159.651L27.2476 81.1415C24.988 79.7489 23.076 81.1415 23.076 84.2749L23.076 177.929C23.076 178.451 23.076 179.148 23.2498 179.67C30.5501 174.448 59.7512 158.258 115.894 189.244C136.23 200.559 153.438 198.993 167.17 191.681V167.659C167.17 164.525 165.258 160.869 162.998 159.651Z" fill="white"/>
<path opacity="0.2" d="M79.2186 154.777C98.3384 152.34 114.156 146.421 127.366 139.11L27.2476 81.1415C24.988 79.7489 23.076 81.1415 23.076 84.2749L23.076 173.925C32.9835 166.092 50.1913 158.606 79.2186 154.777Z" fill="white"/>
<path d="M492.676 334.697L421.083 293.078C406.85 284.884 393.48 283.59 383.345 289.412C373.209 295.234 367.603 307.526 367.603 323.915V329.091C368.034 329.522 368.681 329.738 369.112 330.169V323.915C369.112 308.173 374.288 296.313 383.992 290.922C393.48 285.315 406.419 286.609 420.004 294.588L491.598 336.207C492.03 336.423 492.461 336.207 492.676 335.991C493.108 335.344 493.108 334.913 492.676 334.697Z" fill="white"/>
<path d="M269.485 285.099V124.013C269.485 91.6659 246.842 52.4186 218.808 36.2452C205.223 28.2664 192.284 26.9725 182.58 32.5793C172.876 38.186 167.485 50.0465 167.485 65.7885V77.0021C167.916 77.4333 168.563 78.0803 168.994 78.5116V65.7885C168.994 50.4778 174.17 39.2643 183.227 33.8732C192.5 28.482 204.791 29.7759 217.946 37.3235C245.548 53.2812 267.975 92.0972 267.975 124.013V285.315C267.975 312.055 283.717 343.754 305.066 362.731C305.066 362.084 305.066 361.222 305.066 360.575C284.58 341.598 269.485 310.976 269.485 285.099Z" fill="white"/>
<path d="M305.281 361.869C305.281 361.869 287.167 343.323 280.051 328.012C272.935 312.702 269.269 298.469 269.269 285.962C269.053 273.239 269.053 164.77 269.053 164.77C269.053 164.77 269.916 119.7 267.975 112.584C265.818 105.683 261.29 67.7295 224.199 40.5583C187.108 13.3871 168.563 42.7148 168.778 58.0255C168.994 73.3363 168.778 83.2559 168.778 83.2559C168.778 83.2559 189.049 99.6449 196.812 123.15C204.575 146.655 205.222 142.558 205.438 166.063C205.653 189.569 205.653 308.173 205.653 308.173C205.653 308.173 203.928 329.091 209.104 345.048C214.279 361.006 223.552 379.12 234.765 390.765C245.763 402.41 262.152 416.211 277.247 414.917C292.343 413.623 302.478 408.017 305.497 384.08V361.869H305.281Z" fill="white"/>
<path d="M182.58 32.5794L120.043 68.592L168.779 83.2558L182.58 32.5794Z" fill="white"/>
<path d="M367.819 329.091V336.423C364.368 333.835 347.979 322.622 332.453 323.268C314.986 323.915 309.163 339.873 309.163 339.873C309.163 339.873 305.066 351.734 305.282 357.34C305.282 358.203 305.282 359.497 305.497 360.575L305.282 360.359C305.282 361.006 305.282 361.869 305.282 362.516C305.497 362.516 305.497 362.731 305.713 362.731C305.929 368.123 305.929 374.161 305.929 374.161C305.929 374.161 306.144 384.727 304.635 391.843C301.831 404.566 291.265 411.683 290.402 412.761L354.664 375.886H354.88L355.096 375.67L355.527 375.454C364.8 369.632 369.975 358.203 369.975 342.892V330.169C368.897 329.738 368.25 329.522 367.819 329.091Z" fill="url(#paint3_linear)"/>
<path d="M317.789 327.365L383.561 289.412C383.561 289.412 394.774 283.59 408.36 288.549C421.945 293.509 492.893 335.991 492.893 335.991L429.493 372.435C429.493 372.435 355.743 326.719 347.117 324.562C329.218 320.034 317.789 327.365 317.789 327.365Z" fill="white"/>
<path d="M167.485 81.9619C164.897 79.5898 152.821 68.8076 135.138 66.2198C115.083 63.2008 106.889 86.4904 106.889 86.4904C106.889 86.4904 104.517 98.5665 104.732 105.898C104.732 113.015 105.163 139.108 105.163 139.108L168.347 102.664C168.563 102.448 168.779 102.232 168.779 102.017V83.4714C168.347 82.8245 167.916 82.6088 167.485 81.9619Z" fill="url(#paint4_linear)"/>
<path d="M277.679 415.78C270.779 415.78 263.015 413.408 255.036 408.879C227.218 392.921 204.791 353.674 204.791 321.759V160.456C204.791 128.757 182.364 89.9407 154.977 73.983C141.823 66.4355 129.531 65.1416 120.259 70.5327C110.986 75.9238 106.026 87.1373 106.026 102.448V138.461C106.026 138.892 105.595 139.323 105.164 139.323C104.517 139.108 104.085 138.676 104.085 138.245V102.232C104.085 86.4904 109.476 74.6299 119.18 69.0232C128.884 63.4164 141.823 64.7103 155.624 72.4735C183.658 88.6468 206.301 127.894 206.301 160.241V321.543C206.301 353.027 228.512 391.627 255.899 407.369C269.053 414.917 281.129 416.211 290.402 410.82C299.675 405.429 304.635 394.215 304.635 379.12V360.143C304.635 343.754 310.241 331.463 320.377 325.64C330.512 319.818 343.882 321.112 358.115 329.306L429.709 370.926C430.14 371.141 430.14 371.572 429.924 372.004C429.709 372.435 429.277 372.435 428.846 372.219L357.036 331.031C343.451 323.052 330.512 321.759 321.024 327.365C311.535 332.972 306.144 344.617 306.144 360.359V379.336C306.144 395.078 300.753 406.723 291.049 412.329C287.167 414.486 282.639 415.78 277.679 415.78Z" fill="url(#paint5_linear)"/>
<path d="M221.611 195.822V190L228.296 186.334V191.941L221.611 195.822Z" fill="#DDE1ED"/>
<path d="M240.373 174.258V168.651L253.096 161.319V166.926L240.373 174.258Z" fill="#DDE1ED"/>
<path d="M222.258 173.18V167.357L253.095 149.674V155.497L222.258 173.18Z" fill="#DDE1ED"/>
<path d="M233.04 189.137V183.531L258.702 168.651V174.474L233.04 189.137Z" fill="#DDE1ED"/>
<path d="M222.258 184.824V179.002L234.981 171.886V177.493L222.258 184.824Z" fill="#DDE1ED"/>
<path d="M229.806 251.243V256.85L222.043 261.378V255.556L229.806 251.243Z" fill="#DDE1ED"/>
<path d="M244.039 243.048V248.655L236.06 253.184V247.577L244.039 243.048Z" fill="#DDE1ED"/>
<path d="M252.449 227.522V233.129L222.258 250.596V244.774L252.449 227.522Z" fill="#DDE1ED"/>
<path d="M237.353 209.408V203.801L252.449 195.175V200.782L237.353 209.408Z" fill="#DDE1ED"/>
<path d="M222.043 218.249V212.642L229.806 208.114V213.936L222.043 218.249Z" fill="#DDE1ED"/>
<path d="M222.043 229.031V223.209L236.707 214.799V220.406L222.043 229.031Z" fill="#DDE1ED"/>
<path d="M242.745 216.955V211.349L252.449 205.742V211.349L242.745 216.955Z" fill="#DDE1ED"/>
<path d="M237.353 275.611V270.004L252.449 261.378V266.985L237.353 275.611Z" fill="#DDE1ED"/>
<path d="M222.043 284.668V278.845L229.806 274.532V280.139L222.043 284.668Z" fill="#DDE1ED"/>
<path d="M222.043 295.234V289.628L236.707 281.002V286.609L222.043 295.234Z" fill="#DDE1ED"/>
<path d="M242.745 283.158V277.551L252.449 271.945V277.767L242.745 283.158Z" fill="#DDE1ED"/>
<path d="M400.381 336.422L395.421 333.619L402.106 329.737L407.066 332.541L400.381 336.422Z" fill="#DDE1ED"/>
<path d="M409.869 320.249L404.909 317.446L417.632 310.114L422.592 312.917L409.869 320.249Z" fill="#DDE1ED"/>
<path d="M381.835 324.993L376.876 321.974L407.497 304.291L412.457 307.095L381.835 324.993Z" fill="#DDE1ED"/>
<path d="M411.81 329.953L406.85 326.934L432.512 312.27L437.472 315.073L411.81 329.953Z" fill="#DDE1ED"/>
<path d="M391.755 330.816L387.011 327.797L399.518 320.68L404.478 323.484L391.755 330.816Z" fill="#DDE1ED"/>
<path d="M185.052 148.082V185.295C185.052 186.097 185.568 186.843 186.542 187.474L217.447 205.306C219.684 206.567 223.583 206.452 226.105 204.962C227.539 204.101 228.284 203.069 228.227 202.037V164.825L185.052 148.082Z" fill="#59BDEF"/>
<path d="M217.448 168.093L186.543 150.261C184.307 149 184.593 146.706 187.173 145.273C189.754 143.782 193.653 143.61 195.831 144.929L226.736 162.761C228.973 164.022 228.686 166.316 226.106 167.749C223.583 169.24 219.684 169.355 217.448 168.093Z" fill="#88D7FF"/>
<path d="M220.544 165.685C219.053 165.685 217.849 164.481 217.849 162.99V146.477C217.849 140.858 213.721 133.691 208.847 130.881L201.737 126.81C199.845 125.721 198.182 125.491 197.093 126.065C196.004 126.695 195.373 128.301 195.373 130.422V146.936C195.373 148.427 194.169 149.631 192.678 149.631C191.187 149.631 190.098 148.484 190.098 146.993V130.48C190.098 126.294 191.646 123.083 194.455 121.478C197.265 119.815 200.82 120.102 204.432 122.166L211.542 126.237C218.079 130.021 223.239 138.908 223.239 146.477V162.99C223.239 164.481 222.035 165.685 220.544 165.685Z" fill="#59BDEF"/>
<path d="M341.177 295.35L300.01 271.626C298.964 271.103 297.743 270.754 296.522 270.579C296.522 270.579 296.522 270.579 296.347 270.579C296.173 270.579 295.824 270.579 295.649 270.579C295.475 270.579 295.475 270.579 295.3 270.579C295.126 270.579 294.777 270.579 294.603 270.754C294.428 270.754 294.428 270.754 294.254 270.754C294.079 270.754 293.731 270.928 293.556 270.928C293.382 270.928 293.382 270.928 293.207 270.928C292.858 271.103 292.684 271.103 292.335 271.277L261.809 289.244L232.678 306.165L229.887 306.513V309.13V309.479C230.061 310.177 230.584 310.874 231.631 311.572L272.624 335.121C273.67 335.644 274.891 335.993 276.112 336.168C276.112 336.168 276.112 336.168 276.287 336.168C276.461 336.168 276.81 336.168 276.985 336.168C277.159 336.168 277.159 336.168 277.333 336.168C277.508 336.168 277.857 336.168 278.031 335.993C278.206 335.993 278.206 335.993 278.38 335.993C278.555 335.993 278.903 335.819 279.078 335.819C279.252 335.819 279.252 335.819 279.427 335.819C279.776 335.644 279.95 335.644 280.299 335.47L341.526 300.059C342.573 299.536 342.922 298.838 342.922 297.966V295.524L341.177 295.35Z" fill="white"/>
<path d="M231.283 304.42L261.984 286.628L309.43 314.189L280.125 332.679C278.032 333.9 274.718 333.726 272.624 332.504L231.632 308.781C229.364 307.56 229.189 305.641 231.283 304.42Z" fill="url(#paint6_linear)"/>
<path d="M292.51 269.01L261.809 286.802L309.081 314.014L341.352 297.268C343.446 296.047 343.271 294.128 341.003 292.907L300.011 269.184C297.917 267.963 294.603 267.789 292.51 269.01Z" fill="url(#paint7_linear)"/>
<path d="M342.922 294.826C343.096 295.699 342.573 296.571 341.526 297.094L280.125 332.679C279.078 333.377 277.508 333.551 276.113 333.551L280.125 297.268L342.922 294.826Z" fill="url(#paint8_linear)"/>
<path d="M229.888 306.864C229.713 305.992 230.236 305.119 231.283 304.596L292.51 269.185C293.557 268.488 295.127 268.313 296.522 268.313L292.51 304.596L229.888 306.864Z" fill="url(#paint9_linear)"/>
<path d="M276.636 318.026C276.462 318.026 276.462 318.026 276.287 318.026H275.589C274.368 317.852 273.322 317.503 272.45 316.98L231.283 293.256C230.41 292.733 229.713 292.035 229.538 291.337H229.364L229.189 290.814V290.64C229.189 290.465 229.189 290.291 229.189 290.116C229.189 289.942 229.189 289.942 229.189 289.942C229.189 289.768 229.364 289.593 229.364 289.419C229.364 289.244 229.364 289.244 229.538 289.244C229.713 289.07 229.887 288.895 229.887 288.721L230.061 288.547C230.41 288.198 230.585 288.023 230.934 287.849L292.161 252.264C292.51 252.089 292.859 251.915 293.208 251.74H293.382C293.731 251.566 293.905 251.566 294.254 251.566H294.429C294.778 251.391 295.126 251.391 295.301 251.391H295.475C295.824 251.391 296.173 251.391 296.347 251.391H297.22C298.441 251.566 299.487 251.915 300.36 252.438L341.527 276.161C342.399 276.685 343.097 277.383 343.271 278.08H343.445L343.62 278.778V278.952C343.62 279.127 343.62 279.301 343.62 279.476C343.62 279.65 343.62 279.65 343.62 279.65C343.62 279.825 343.445 279.999 343.445 280.174C343.445 280.348 343.445 280.348 343.271 280.348C343.097 280.522 342.922 280.697 342.922 280.871L342.573 281.046C342.399 281.22 342.05 281.395 341.701 281.569L280.474 317.154C280.125 317.329 279.776 317.503 279.427 317.677H279.253C278.904 317.852 278.729 317.852 278.38 317.852H278.206C277.857 317.852 277.508 318.026 277.334 318.026H277.159C276.985 318.026 276.811 318.026 276.636 318.026ZM278.032 316.631L278.38 317.154L278.206 316.456C278.38 316.456 278.555 316.282 278.904 316.282L279.427 316.805L279.253 316.108C279.602 315.933 279.776 315.933 279.95 315.759L341.178 280.348C341.352 280.174 341.527 280.174 341.701 279.999L342.224 280.348L341.701 279.825C341.875 279.65 341.875 279.65 341.875 279.476C342.05 279.301 342.05 279.127 342.05 279.127C342.05 278.952 342.05 278.778 342.05 278.778C341.875 278.255 341.527 277.731 340.654 277.208L299.662 253.659C298.964 253.136 297.743 252.787 296.522 252.787H296.173C295.999 252.787 295.824 252.787 295.65 252.787H295.301C295.126 252.787 294.952 252.787 294.603 252.787L294.254 252.264L294.429 252.961C294.254 252.961 294.08 253.136 293.731 253.136L293.208 252.613L293.556 253.136C293.208 253.31 293.033 253.31 292.859 253.485L231.631 288.895C231.457 289.07 231.283 289.07 231.108 289.244C230.934 289.419 230.759 289.593 230.759 289.593C230.585 289.768 230.585 289.942 230.585 289.942C230.585 290.116 230.585 290.291 230.585 290.291C230.759 290.814 231.108 291.337 231.98 291.861L272.973 315.933C273.845 316.456 274.892 316.805 276.113 316.805H276.287C276.462 316.805 276.636 316.805 276.811 316.805H277.159C277.508 316.631 277.683 316.631 278.032 316.631Z" fill="white"/>
<path opacity="0.4" d="M342.224 280.522C342.398 280.348 342.398 280.174 342.573 280.174V279.999C342.573 279.825 342.747 279.65 342.747 279.65V279.476C342.747 279.301 342.747 279.127 342.747 279.127C342.573 278.429 342.05 277.731 341.003 277.034L300.01 252.961C298.964 252.438 297.743 252.089 296.522 251.915C296.522 251.915 296.522 251.915 296.347 251.915C296.173 251.915 295.824 251.915 295.649 251.915C295.475 251.915 295.475 251.915 295.3 251.915C295.126 251.915 294.777 251.915 294.603 252.089C294.428 252.089 294.428 252.089 294.254 252.089C294.079 252.089 293.731 252.264 293.556 252.264C293.382 252.264 293.382 252.264 293.207 252.264C292.858 252.438 292.684 252.438 292.335 252.613L272.1 264.649L261.809 270.58L231.282 288.372C230.933 288.547 230.759 288.721 230.584 288.895C230.584 288.895 230.584 289.07 230.41 289.07C230.236 289.244 230.236 289.419 230.061 289.419V289.593C230.061 289.768 229.887 289.942 229.887 289.942V290.116C229.887 290.291 229.887 290.465 229.887 290.465C230.061 291.163 230.584 291.861 231.631 292.559L272.798 316.282C273.845 316.805 275.066 317.154 276.287 317.329C276.287 317.329 276.287 317.329 276.461 317.329C276.636 317.329 276.985 317.329 277.159 317.329C277.333 317.329 277.333 317.329 277.508 317.329C277.682 317.329 278.031 317.329 278.206 317.154C278.38 317.154 278.38 317.154 278.555 317.154C278.729 317.154 279.078 316.98 279.252 316.98C279.427 316.98 279.427 316.98 279.601 316.98C279.95 316.805 280.124 316.805 280.473 316.631L341.526 281.046C341.701 280.871 341.875 280.697 342.224 280.522Z" fill="white"/>
<path d="M269.342 292.949L212.678 232.021L155.84 227.321C155.84 227.321 146.801 304.264 212.504 385.907C278.38 380.336 269.342 292.949 269.342 292.949Z" fill="url(#paint10_linear)"/>
<path d="M155.84 227.321L143.151 234.632L199.815 239.333L212.678 231.847L155.84 227.321Z" fill="url(#paint11_linear)"/>
<path d="M256.479 300.26L199.815 239.332L176.524 236.895L143.151 234.632C143.151 234.632 134.113 311.575 199.815 393.218C265.691 387.821 256.479 300.26 256.479 300.26Z" fill="url(#paint12_linear)"/>
<path d="M256.479 300.26L199.815 239.333L143.151 234.807C144.715 233.936 144.715 233.936 144.715 233.936L202.249 238.636L258.913 299.564C258.913 299.564 266.561 372.677 217.544 389.562C263.953 371.11 256.479 300.26 256.479 300.26Z" fill="white"/>
<path opacity="0.2" d="M249.7 301.13L198.772 246.296L177.74 244.207L147.67 242.118C147.67 242.118 139.501 311.401 198.598 384.688C257.87 379.814 249.7 301.13 249.7 301.13Z" fill="white"/>
<path d="M230.42 306.215L198.336 271.684L185.086 270.369L166.143 269.053C166.143 269.053 160.996 312.683 198.227 358.834C235.567 355.764 230.42 306.215 230.42 306.215Z" fill="#2852AE"/>
<path d="M304.84 227.254L300.866 223.28L310.58 213.566L300.719 203.852L304.84 199.878L318.528 213.566L304.84 227.254ZM302.338 223.28L304.693 225.635L316.762 213.566L304.693 201.497L302.338 203.852L312.052 213.566L302.338 223.28Z" fill="white"/>
<path opacity="0.5" d="M289.828 200.614L286.59 203.852L296.304 213.566L286.59 223.28L289.828 226.518L299.542 216.804L302.78 213.566L289.828 200.614Z" fill="#7BDAFF"/>
</g>
<defs>
<filter id="filter0_d" x="0.0759888" y="0.148071" width="555.924" height="505.632" filterUnits="userSpaceOnUse" color-interpolation-filters="sRGB">
<feFlood flood-opacity="0" result="BackgroundImageFix"/>
<feColorMatrix in="SourceAlpha" type="matrix" values="0 0 0 0 0 0 0 0 0 0 0 0 0 0 0 0 0 0 127 0"/>
<feOffset dx="20" dy="14"/>
<feGaussianBlur stdDeviation="21.5"/>
<feColorMatrix type="matrix" values="0 0 0 0 0.0901961 0 0 0 0 0.239216 0 0 0 0 0.478431 0 0 0 0.1 0"/>
<feBlend mode="normal" in2="BackgroundImageFix" result="effect1_dropShadow"/>
<feBlend mode="normal" in="SourceGraphic" in2="effect1_dropShadow" result="shape"/>
</filter>
<linearGradient id="paint0_linear" x1="99.7724" y1="233.376" x2="448.25" y2="233.376" gradientUnits="userSpaceOnUse">
<stop stop-color="#3A9BD5"/>
<stop offset="0.522" stop-color="#3088C8"/>
<stop offset="1" stop-color="#297BBF"/>
</linearGradient>
<linearGradient id="paint1_linear" x1="71.2944" y1="120.343" x2="306.89" y2="240.78" gradientUnits="userSpaceOnUse">
<stop stop-color="#59BDEF"/>
<stop offset="1" stop-color="#7BDAFF"/>
</linearGradient>
<linearGradient id="paint2_linear" x1="23.0445" y1="172.819" x2="167.193" y2="172.819" gradientUnits="userSpaceOnUse">
<stop stop-color="#7BDAFF"/>
<stop offset="1" stop-color="#59BDEF"/>
</linearGradient>
<linearGradient id="paint3_linear" x1="359.002" y1="340.746" x2="287.253" y2="379.355" gradientUnits="userSpaceOnUse">
<stop stop-color="#59BDEF"/>
<stop offset="1" stop-color="#7BDAFF"/>
</linearGradient>
<linearGradient id="paint4_linear" x1="138.117" y1="95.2773" x2="55.683" y2="122.979" gradientUnits="userSpaceOnUse">
<stop stop-color="#59BDEF"/>
<stop offset="1" stop-color="#7BDAFF"/>
</linearGradient>
<linearGradient id="paint5_linear" x1="104.085" y1="240.641" x2="429.733" y2="240.641" gradientUnits="userSpaceOnUse">
<stop stop-color="#59BDEF"/>
<stop offset="1" stop-color="#7BDAFF"/>
</linearGradient>
<linearGradient id="paint6_linear" x1="275.939" y1="356.261" x2="275.824" y2="305.394" gradientUnits="userSpaceOnUse">
<stop offset="0.7677" stop-color="#59BDEF"/>
<stop offset="0.8452" stop-color="#55B8EB"/>
<stop offset="0.9318" stop-color="#49ABE1"/>
<stop offset="1" stop-color="#3A9BD5"/>
</linearGradient>
<linearGradient id="paint7_linear" x1="382.169" y1="294.642" x2="294.168" y2="294.375" gradientUnits="userSpaceOnUse">
<stop offset="0.7677" stop-color="#59BDEF"/>
<stop offset="0.8452" stop-color="#55B8EB"/>
<stop offset="0.9318" stop-color="#49ABE1"/>
<stop offset="1" stop-color="#3A9BD5"/>
</linearGradient>
<linearGradient id="paint8_linear" x1="359.425" y1="343.002" x2="323.286" y2="280.599" gradientUnits="userSpaceOnUse">
<stop offset="0.7677" stop-color="#3A9BD5"/>
<stop offset="0.8386" stop-color="#3896D2"/>
<stop offset="0.9179" stop-color="#3189C9"/>
<stop offset="1" stop-color="#2573BA"/>
</linearGradient>
<linearGradient id="paint9_linear" x1="278.263" y1="268.89" x2="267.196" y2="325.269" gradientUnits="userSpaceOnUse">
<stop stop-color="#7BDAFF"/>
<stop offset="1" stop-color="#59BDEF"/>
</linearGradient>
<linearGradient id="paint10_linear" x1="196.199" y1="291.838" x2="366.703" y2="344.08" gradientUnits="userSpaceOnUse">
<stop stop-color="#2573BA"/>
<stop offset="0.907" stop-color="#0364AE"/>
<stop offset="1" stop-color="#0063AD"/>
</linearGradient>
<linearGradient id="paint11_linear" x1="212.6" y1="233.312" x2="143.146" y2="233.312" gradientUnits="userSpaceOnUse">
<stop stop-color="#0063AD"/>
<stop offset="1" stop-color="#2573BA"/>
</linearGradient>
<linearGradient id="paint12_linear" x1="142.717" y1="283.278" x2="256.969" y2="283.278" gradientUnits="userSpaceOnUse">
<stop stop-color="#7BDAFF"/>
<stop offset="1" stop-color="#59BDEF"/>
</linearGradient>
</defs>
</svg>
