<svg width="542" height="516" viewBox="0 0 542 516" fill="none" xmlns="http://www.w3.org/2000/svg">
<g filter="url(#filter0_d)">
<path d="M319.768 482C270.68 482 221.805 471.317 184.455 449.738C148.173 428.8 128.111 400.812 128.111 371.114C128.111 341.416 148.173 313.427 184.455 292.489C259.155 249.331 380.595 249.331 455.081 292.489C491.364 313.427 511.426 341.416 511.426 371.114C511.426 400.812 491.364 428.8 455.081 449.738C417.732 471.317 368.643 482 319.768 482ZM319.768 261.51C271.107 261.51 222.232 272.192 185.096 293.771C149.24 314.496 129.605 342.057 129.605 371.114C129.605 400.384 149.24 427.732 185.096 448.456C259.368 491.401 380.168 491.401 454.441 448.456C490.297 427.732 509.932 400.171 509.932 371.114C509.932 341.843 490.297 314.496 454.441 293.771C417.305 272.192 368.43 261.51 319.768 261.51Z" fill="#EBEBEB"/>
<path opacity="0.5" d="M319.768 449.866C395.194 449.866 456.339 414.583 456.339 371.06C456.339 327.537 395.194 292.255 319.768 292.255C244.342 292.255 183.198 327.537 183.198 371.06C183.198 414.583 244.342 449.866 319.768 449.866Z" fill="#13247A"/>
<path d="M307.997 246.337V107.52C307.997 79.8149 288.501 45.8069 264.461 32.0277C252.734 25.2848 241.594 24.1121 233.238 28.9494C224.883 33.7868 220.192 43.9013 220.192 57.5338V67.2085C220.632 67.6483 221.072 68.088 221.511 68.5278V57.5338C221.511 44.4876 225.909 34.6663 233.825 30.1221C241.74 25.5779 252.295 26.604 263.728 33.2004C287.329 46.833 306.678 80.2547 306.678 107.52V246.191C306.678 269.205 320.164 296.47 338.634 312.887C338.634 312.301 338.634 311.715 338.634 311.128C320.897 294.857 307.997 268.618 307.997 246.337Z" fill="#D4ECFF"/>
<path d="M220.046 71.4596C217.847 69.4073 207.439 60.1724 192.194 57.827C175.044 55.1884 167.861 75.2708 167.861 75.2708C167.861 75.2708 165.809 85.6784 165.955 91.8351C165.955 97.9917 166.542 120.419 166.542 120.419L220.925 89.0499C221.072 88.9033 221.365 88.7568 221.365 88.4636V72.6322C220.925 72.1925 220.485 72.0459 220.046 71.4596Z" fill="#173D7A"/>
<path d="M181.493 58.7065L233.091 28.9494L232.945 29.6824C240.86 24.5518 252.881 23.9655 269.005 35.839C300.961 59.2928 304.772 91.835 306.385 97.9917C307.997 104.148 307.411 142.847 307.411 142.847C307.411 142.847 307.557 236.223 307.557 247.07C307.704 257.918 310.782 270.084 316.939 283.277C323.096 296.47 338.78 312.448 338.78 312.448V331.504C336.288 352.026 327.493 356.863 314.593 358.036C304.039 358.916 292.899 351.44 283.957 343.231C284.25 343.524 284.543 343.817 284.543 343.817V362.874C282.051 383.396 273.256 388.233 260.356 389.406C247.31 390.578 233.385 378.705 223.856 368.59C214.328 358.476 206.266 343.084 201.868 329.305C197.471 315.379 198.937 297.496 198.937 297.496C198.937 297.496 198.79 195.472 198.79 175.243C198.644 155.16 198.057 158.678 191.461 138.45C184.425 117.927 166.981 103.709 166.981 103.709L125.057 91.2487L181.493 58.7065Z" fill="white"/>
<path d="M271.351 387.354C272.084 386.327 281.319 380.171 283.664 369.323C284.983 363.313 284.837 354.078 284.837 354.078C284.837 354.078 284.837 348.948 284.69 344.257C284.543 344.111 284.543 344.11 284.397 343.964C284.397 343.378 284.397 342.791 284.397 342.205C284.543 342.351 284.543 342.351 284.69 342.498C284.69 341.472 284.543 340.446 284.543 339.566C284.25 334.729 287.915 324.468 287.915 324.468C287.915 324.468 292.899 310.689 307.997 310.102C321.337 309.663 335.409 319.191 338.487 321.39V315.233C338.634 315.38 338.927 315.526 339.074 315.673C339.074 314.793 339.074 313.914 339.074 313.181C338.927 313.034 338.927 313.034 338.78 312.888C338.78 312.301 338.78 311.715 338.78 311.129C338.927 311.275 338.927 311.275 339.074 311.422C339.074 310.396 338.927 309.369 338.927 308.49C338.634 303.653 342.299 293.392 342.299 293.392C342.299 293.392 347.283 279.612 362.381 279.026C375.72 278.586 389.793 288.114 392.871 290.313V284.157C393.311 284.45 393.75 284.743 394.19 285.036V295.884C394.19 309.076 389.793 319.044 381.73 323.882L381.437 324.028C381.291 324.028 381.291 324.175 381.144 324.175H380.997L325.734 355.984C325.734 355.984 325.734 355.984 325.734 355.837L271.351 387.354Z" fill="#173D7A"/>
<path d="M295.831 313.474L295.244 313.767C295.244 313.914 295.391 313.767 295.831 313.474Z" fill="#D4ECFF"/>
<path d="M165.808 102.682C163.61 100.63 153.202 91.3952 137.957 89.0498C120.806 86.4113 113.624 106.494 113.624 106.494C113.624 106.494 111.571 116.901 111.718 123.058C111.718 129.215 112.304 151.642 112.304 151.642L166.688 120.273C166.835 120.126 167.128 119.98 167.128 119.686V103.855C166.688 103.415 166.248 103.122 165.808 102.682Z" fill="#173D7A"/>
<path d="M256.399 204.12L265.487 198.843C266.367 198.403 267.1 197.084 267.1 195.911C267.1 194.739 266.513 194.299 265.634 194.739L256.545 200.016C255.666 200.456 254.933 201.775 254.933 202.948C254.933 204.12 255.666 204.56 256.399 204.12Z" fill="#5793CE"/>
<path d="M237.196 215.261L250.682 207.492C251.562 207.052 252.294 205.733 252.294 204.56C252.294 203.387 251.708 202.948 250.829 203.387L237.343 211.156C236.463 211.596 235.73 212.915 235.73 214.088C235.584 215.261 236.316 215.847 237.196 215.261Z" fill="#5793CE"/>
<path d="M257.425 169.526L274.869 159.411C275.749 158.972 276.481 157.652 276.481 156.48C276.481 155.307 275.895 154.867 275.016 155.307L257.718 165.275C256.839 165.715 256.106 167.034 256.106 168.206C255.959 169.379 256.692 169.966 257.425 169.526Z" fill="#5793CE"/>
<path d="M268.858 179.933L274.575 176.709C275.455 176.269 276.188 174.95 276.188 173.777C276.188 172.604 275.601 172.164 274.722 172.604L269.005 175.829C268.125 176.269 267.393 177.588 267.393 178.761C267.393 179.933 267.979 180.373 268.858 179.933Z" fill="#5793CE"/>
<path d="M270.618 195.911L274.282 193.859C275.162 193.419 275.895 192.1 275.895 190.927C275.895 189.755 275.308 189.315 274.429 189.755L270.764 191.807C269.885 192.247 269.152 193.566 269.152 194.739C269.152 195.911 269.738 196.498 270.618 195.911Z" fill="#5793CE"/>
<path d="M247.75 192.1L262.995 183.305C263.875 182.865 264.608 181.546 264.608 180.373C264.608 179.201 264.021 178.761 263.142 179.201L247.897 187.996C247.017 188.436 246.284 189.755 246.284 190.927C246.284 192.1 246.871 192.687 247.75 192.1Z" fill="#5793CE"/>
<path d="M248.19 183.305L274.722 168.06C275.602 167.62 276.335 166.301 276.335 165.128C276.335 163.956 275.748 163.516 274.869 163.956L248.337 179.201C247.457 179.64 246.724 180.96 246.724 182.132C246.724 183.305 247.457 183.745 248.19 183.305Z" fill="#5793CE"/>
<path d="M259.184 194.006L274.429 185.211C275.308 184.771 276.041 183.452 276.041 182.279C276.041 181.106 275.455 180.666 274.575 181.106L259.33 189.901C258.451 190.341 257.718 191.66 257.718 192.833C257.718 194.006 258.451 194.446 259.184 194.006Z" fill="#5793CE"/>
<path d="M236.17 198.843L241.74 195.618C242.62 195.179 243.353 193.859 243.353 192.687C243.353 191.514 242.766 191.074 241.887 191.514L236.316 194.739C235.437 195.179 234.704 196.498 234.704 197.67C234.704 198.697 235.437 199.283 236.17 198.843Z" fill="#5793CE"/>
<path d="M252.001 155.6L261.089 150.323C261.969 149.883 262.702 148.564 262.702 147.391C262.702 146.219 262.116 145.779 261.236 146.219L252.148 151.496C251.268 151.935 250.535 153.255 250.535 154.427C250.389 155.6 251.122 156.04 252.001 155.6Z" fill="#5793CE"/>
<path d="M230.307 168.06L243.793 160.291C244.672 159.851 245.405 158.532 245.405 157.359C245.405 156.187 244.819 155.747 243.939 156.187L230.453 163.956C229.574 164.395 228.841 165.715 228.841 166.887C228.694 168.06 229.427 168.646 230.307 168.06Z" fill="#5793CE"/>
<path d="M256.399 204.12L265.487 198.843C266.367 198.403 267.1 197.084 267.1 195.911C267.1 194.739 266.513 194.299 265.634 194.739L256.545 200.016C255.666 200.456 254.933 201.775 254.933 202.948C254.933 204.12 255.666 204.56 256.399 204.12Z" fill="#5793CE"/>
<path d="M237.196 215.261L250.682 207.492C251.562 207.052 252.295 205.733 252.295 204.56C252.295 203.387 251.708 202.948 250.829 203.387L237.343 211.156C236.463 211.596 235.73 212.915 235.73 214.088C235.584 215.261 236.317 215.847 237.196 215.261Z" fill="#5793CE"/>
<path d="M276.921 149.737L282.638 146.512C283.517 146.072 284.25 144.753 284.25 143.58C284.25 142.407 283.664 141.968 282.784 142.407L277.068 145.632C276.188 146.072 275.455 147.391 275.455 148.564C275.308 149.737 276.041 150.176 276.921 149.737Z" fill="#5793CE"/>
<path d="M257.425 169.526L274.869 159.411C275.749 158.972 276.481 157.652 276.481 156.48C276.481 155.307 275.895 154.867 275.016 155.307L257.718 165.275C256.839 165.715 256.106 167.034 256.106 168.206C255.959 169.379 256.692 169.966 257.425 169.526Z" fill="#5793CE"/>
<path d="M268.859 179.933L274.576 176.709C275.455 176.269 276.188 174.95 276.188 173.777C276.188 172.604 275.602 172.164 274.722 172.604L269.005 175.829C268.126 176.269 267.393 177.588 267.393 178.761C267.393 179.933 267.979 180.373 268.859 179.933Z" fill="#5793CE"/>
<path d="M230.453 236.223L245.698 227.427C246.578 226.988 247.311 225.668 247.311 224.496C247.311 223.323 246.724 222.883 245.845 223.323L230.6 232.118C229.72 232.558 228.987 233.877 228.987 235.05C228.841 236.223 229.574 236.662 230.453 236.223Z" fill="#5793CE"/>
<path d="M270.618 195.911L274.282 193.859C275.162 193.419 275.895 192.1 275.895 190.927C275.895 189.755 275.308 189.315 274.429 189.755L270.764 191.807C269.885 192.247 269.152 193.566 269.152 194.739C269.152 195.911 269.738 196.498 270.618 195.911Z" fill="#5793CE"/>
<path d="M269.445 213.648L273.989 211.01C274.869 210.57 275.602 209.251 275.602 208.078C275.602 206.905 275.015 206.466 274.136 206.905L269.592 209.544C268.712 209.984 267.979 211.303 267.979 212.476C267.979 213.648 268.565 214.088 269.445 213.648Z" fill="#5793CE"/>
<path d="M251.855 223.909L263.728 217.02C264.608 216.58 265.341 215.261 265.341 214.088C265.341 212.915 264.754 212.476 263.875 212.915L252.001 219.805C251.122 220.245 250.389 221.564 250.389 222.737C250.389 223.763 250.975 224.349 251.855 223.909Z" fill="#5793CE"/>
<path d="M265.341 224.642L273.989 219.659C274.869 219.219 275.602 217.899 275.602 216.727C275.602 215.554 275.015 215.114 274.136 215.554L265.487 220.538C264.608 220.978 263.875 222.297 263.875 223.47C263.728 224.496 264.461 225.082 265.341 224.642Z" fill="#5793CE"/>
<path d="M247.75 192.1L262.995 183.305C263.875 182.865 264.608 181.546 264.608 180.373C264.608 179.201 264.021 178.761 263.142 179.201L247.897 187.996C247.017 188.436 246.284 189.755 246.284 190.927C246.284 192.1 246.871 192.687 247.75 192.1Z" fill="#5793CE"/>
<path d="M248.19 183.305L274.722 168.06C275.602 167.62 276.335 166.301 276.335 165.128C276.335 163.956 275.748 163.516 274.869 163.956L248.337 179.201C247.457 179.64 246.724 180.96 246.724 182.132C246.724 183.305 247.457 183.745 248.19 183.305Z" fill="#5793CE"/>
<path d="M259.184 194.006L274.429 185.211C275.309 184.771 276.042 183.452 276.042 182.279C276.042 181.106 275.455 180.666 274.576 181.106L259.331 189.901C258.451 190.341 257.718 191.66 257.718 192.833C257.718 194.006 258.451 194.446 259.184 194.006Z" fill="#5793CE"/>
<path d="M236.17 198.843L241.74 195.618C242.62 195.179 243.353 193.859 243.353 192.687C243.353 191.514 242.766 191.074 241.887 191.514L236.317 194.739C235.437 195.179 234.704 196.498 234.704 197.67C234.704 198.697 235.437 199.283 236.17 198.843Z" fill="#5793CE"/>
<path d="M255.959 212.915L274.136 202.361C275.015 201.921 275.748 200.602 275.748 199.429C275.748 198.257 275.162 197.817 274.282 198.257L256.106 208.811C255.226 209.251 254.493 210.57 254.493 211.743C254.347 212.915 255.08 213.502 255.959 212.915Z" fill="#5793CE"/>
<path d="M269.299 145.632L282.785 137.863C283.664 137.423 284.397 136.104 284.397 134.931C284.397 133.759 283.811 133.319 282.931 133.759L269.445 141.528C268.566 141.968 267.833 143.287 267.833 144.46C267.833 145.632 268.419 146.072 269.299 145.632Z" fill="#5793CE"/>
<path d="M265.78 232.851L281.318 223.909C282.198 223.47 282.931 222.15 282.931 220.978C282.931 219.805 282.345 219.365 281.465 219.805L265.927 228.747C265.047 229.187 264.314 230.506 264.314 231.678C264.314 232.851 264.901 233.291 265.78 232.851Z" fill="#5793CE"/>
<path d="M258.598 285.769L267.686 280.492C268.565 280.052 269.298 278.733 269.298 277.56C269.298 276.387 268.712 275.948 267.832 276.387L258.744 281.665C257.865 282.104 257.132 283.424 257.132 284.596C257.132 285.769 257.718 286.209 258.598 285.769Z" fill="#5793CE"/>
<path d="M239.248 296.909L252.734 289.14C253.614 288.701 254.347 287.381 254.347 286.209C254.347 285.036 253.76 284.596 252.881 285.036L239.395 292.805C238.515 293.245 237.782 294.564 237.782 295.737C237.782 296.909 238.369 297.349 239.248 296.909Z" fill="#5793CE"/>
<path d="M259.624 251.028L276.921 241.06C277.801 240.62 278.533 239.301 278.533 238.128C278.533 236.956 277.947 236.516 277.068 236.956L259.77 246.924C258.891 247.363 258.158 248.683 258.158 249.855C258.158 251.028 258.744 251.614 259.624 251.028Z" fill="#5793CE"/>
<path d="M271.057 261.582L276.774 258.357C277.654 257.917 278.387 256.598 278.387 255.425C278.387 254.253 277.8 253.813 276.921 254.253L271.204 257.478C270.324 257.917 269.592 259.237 269.592 260.409C269.445 261.435 270.178 262.022 271.057 261.582Z" fill="#5793CE"/>
<path d="M272.816 277.56L276.481 275.508C277.361 275.068 278.094 273.749 278.094 272.576C278.094 271.404 277.507 270.964 276.628 271.404L272.963 273.456C272.083 273.895 271.351 275.215 271.351 276.387C271.204 277.56 271.937 278 272.816 277.56Z" fill="#5793CE"/>
<path d="M249.949 273.749L265.194 264.954C266.074 264.514 266.807 263.195 266.807 262.022C266.807 260.849 266.22 260.409 265.341 260.849L250.096 269.644C249.216 270.084 248.483 271.403 248.483 272.576C248.337 273.749 249.07 274.189 249.949 273.749Z" fill="#5793CE"/>
<path d="M250.389 264.954L276.921 249.709C277.801 249.269 278.533 247.95 278.533 246.777C278.533 245.604 277.947 245.165 277.068 245.604L250.535 260.849C249.656 261.289 248.923 262.608 248.923 263.781C248.923 264.954 249.509 265.393 250.389 264.954Z" fill="#5793CE"/>
<path d="M261.383 275.655L276.628 266.859C277.507 266.42 278.24 265.1 278.24 263.928C278.24 262.755 277.654 262.315 276.774 262.755L261.529 271.55C260.65 271.99 259.917 273.309 259.917 274.482C259.917 275.655 260.503 276.094 261.383 275.655Z" fill="#5793CE"/>
<path d="M238.369 280.345L243.939 277.12C244.819 276.681 245.552 275.361 245.552 274.189C245.552 273.016 244.965 272.576 244.086 273.016L238.515 276.241C237.636 276.681 236.903 278 236.903 279.173C236.903 280.345 237.489 280.932 238.369 280.345Z" fill="#5793CE"/>
<path d="M284.279 260.109V121.292C284.279 93.5868 264.783 59.5787 240.743 45.7996C229.016 39.0566 217.875 37.8839 209.52 42.7213C201.165 47.5586 196.474 57.6731 196.474 71.3056V80.9803C196.914 81.4201 197.353 81.8598 197.793 82.2996V71.3056C197.793 58.2594 202.191 48.4381 210.106 43.8939C218.022 39.3498 228.576 40.3759 240.01 46.9723C263.61 60.6048 282.96 94.0265 282.96 121.292V259.962C282.96 282.977 296.446 310.242 314.916 326.659C314.916 326.073 314.916 325.487 314.916 324.9C297.179 308.629 284.279 282.39 284.279 260.109Z" fill="white"/>
<path d="M196.327 85.2314C194.128 83.1792 183.721 73.9442 168.476 71.5988C151.325 68.9603 144.142 89.0426 144.142 89.0426C144.142 89.0426 142.09 99.4503 142.237 105.607C142.237 111.764 142.823 134.191 142.823 134.191L197.207 102.822C197.353 102.675 197.646 102.529 197.646 102.235V86.4041C197.207 85.9643 196.767 85.8177 196.327 85.2314Z" fill="#173D7A"/>
<path d="M157.775 72.4783L209.373 42.7212L209.227 43.4542C217.142 38.3237 229.163 37.7373 245.287 49.6108C277.243 73.0647 281.054 105.607 282.667 111.763C284.279 117.92 283.693 156.619 283.693 156.619C283.693 156.619 283.839 249.995 283.839 260.842C283.986 271.689 287.064 283.856 293.221 297.049C299.378 310.242 315.062 326.22 315.062 326.22V345.276C312.57 365.798 303.775 370.635 290.875 371.808C280.321 372.688 269.181 365.212 260.239 357.003C260.532 357.296 260.825 357.589 260.825 357.589V376.645C258.333 397.167 249.538 402.005 236.638 403.177C223.592 404.35 209.667 392.477 200.138 382.362C190.61 372.248 182.548 356.856 178.15 343.077C173.753 329.151 175.219 311.268 175.219 311.268C175.219 311.268 175.072 209.244 175.072 189.015C174.926 168.932 174.339 172.45 167.743 152.221C160.707 131.699 143.263 117.48 143.263 117.48L101.339 105.021L157.775 72.4783Z" fill="white"/>
<path d="M247.633 401.125C248.366 400.099 257.601 393.943 259.946 383.095C261.265 377.085 261.119 367.85 261.119 367.85C261.119 367.85 261.119 362.72 260.972 358.029C260.825 357.882 260.825 357.882 260.679 357.736C260.679 357.149 260.679 356.563 260.679 355.977C260.825 356.123 260.825 356.123 260.972 356.27C260.972 355.244 260.825 354.218 260.825 353.338C260.532 348.501 264.197 338.24 264.197 338.24C264.197 338.24 269.181 324.461 284.279 323.874C297.619 323.434 311.691 332.963 314.769 335.161V329.005C314.916 329.151 315.209 329.298 315.356 329.445C315.356 328.565 315.356 327.685 315.356 326.953C315.209 326.806 315.209 326.806 315.062 326.659C315.062 326.073 315.062 325.487 315.062 324.9C315.209 325.047 315.209 325.047 315.356 325.193C315.356 324.167 315.209 323.141 315.209 322.262C314.916 317.424 318.581 307.163 318.581 307.163C318.581 307.163 323.564 293.384 338.663 292.798C352.002 292.358 366.075 301.886 369.153 304.085V297.928C369.593 298.222 370.032 298.515 370.472 298.808V309.655C370.472 322.848 366.075 332.816 358.012 337.653L357.719 337.8C357.573 337.8 357.573 337.947 357.426 337.947H357.279L302.016 369.756C302.016 369.756 302.016 369.756 302.016 369.609L247.633 401.125Z" fill="#173D7A"/>
<path d="M272.113 327.246L271.526 327.539C271.526 327.685 271.673 327.539 272.113 327.246Z" fill="#D4ECFF"/>
<path d="M142.09 116.454C139.891 114.402 129.484 105.167 114.239 102.822C97.0881 100.183 89.9053 120.265 89.9053 120.265C89.9053 120.265 87.8531 130.673 87.9997 136.83C87.9997 142.986 88.5861 165.414 88.5861 165.414L142.97 134.045C143.116 133.898 143.409 133.751 143.409 133.458V117.627C142.97 117.187 142.53 116.894 142.09 116.454Z" fill="#173D7A"/>
<path d="M232.697 120.52L245.505 113.083C246.744 112.464 247.777 110.604 247.777 108.952C247.777 107.299 246.951 106.679 245.711 107.299L232.903 114.736C231.664 115.356 230.631 117.215 230.631 118.868C230.424 120.52 231.457 121.14 232.697 120.52Z" fill="#5793CE"/>
<path d="M202.122 138.08L221.128 127.131C222.368 126.511 223.401 124.652 223.401 122.999C223.401 121.347 222.574 120.727 221.335 121.347L202.329 132.296C201.089 132.916 200.057 134.775 200.057 136.428C199.85 138.08 200.883 138.907 202.122 138.08Z" fill="#5793CE"/>
<path d="M238.894 188.9L251.703 181.463C252.942 180.843 253.975 178.984 253.975 177.331C253.975 175.679 253.149 175.059 251.909 175.679L239.101 183.116C237.861 183.735 236.829 185.595 236.829 187.247C236.829 188.9 237.861 189.52 238.894 188.9Z" fill="#5793CE"/>
<path d="M211.832 204.6L230.837 193.651C232.077 193.032 233.11 191.172 233.11 189.52C233.11 187.867 232.284 187.247 231.044 187.867L212.038 198.816C210.799 199.436 209.766 201.295 209.766 202.948C209.559 204.6 210.592 205.427 211.832 204.6Z" fill="#5793CE"/>
<path d="M267.816 112.257L275.873 107.712C277.113 107.092 278.146 105.233 278.146 103.58C278.146 101.928 277.319 101.308 276.08 101.928L268.023 106.473C266.784 107.092 265.751 108.952 265.751 110.604C265.544 112.257 266.577 112.877 267.816 112.257Z" fill="#5793CE"/>
<path d="M240.34 140.146L264.924 125.891C266.163 125.272 267.196 123.412 267.196 121.76C267.196 120.107 266.37 119.487 265.13 120.107L240.753 134.155C239.514 134.775 238.481 136.634 238.481 138.287C238.274 139.939 239.307 140.766 240.34 140.146Z" fill="#5793CE"/>
<path d="M256.454 154.813L264.511 150.269C265.751 149.649 266.783 147.79 266.783 146.137C266.783 144.484 265.957 143.864 264.718 144.484L256.661 149.029C255.421 149.649 254.388 151.508 254.388 153.161C254.388 154.813 255.215 155.433 256.454 154.813Z" fill="#5793CE"/>
<path d="M202.329 234.142L223.813 221.747C225.053 221.127 226.086 219.268 226.086 217.615C226.086 215.963 225.26 215.343 224.02 215.963L202.535 228.358C201.296 228.977 200.263 230.837 200.263 232.489C200.056 234.142 201.089 234.762 202.329 234.142Z" fill="#5793CE"/>
<path d="M258.933 177.331L264.098 174.439C265.337 173.819 266.37 171.96 266.37 170.307C266.37 168.655 265.544 168.035 264.304 168.655L259.14 171.547C257.9 172.167 256.867 174.026 256.867 175.678C256.867 177.331 257.694 178.158 258.933 177.331Z" fill="#5793CE"/>
<path d="M257.28 202.328L263.685 198.61C264.924 197.99 265.957 196.131 265.957 194.478C265.957 192.825 265.131 192.205 263.891 192.825L257.487 196.544C256.248 197.163 255.215 199.023 255.215 200.675C255.215 202.328 256.041 202.948 257.28 202.328Z" fill="#5793CE"/>
<path d="M232.49 216.789L249.223 207.08C250.463 206.46 251.496 204.6 251.496 202.948C251.496 201.295 250.67 200.675 249.43 201.295L232.697 211.005C231.457 211.624 230.424 213.484 230.424 215.136C230.424 216.582 231.25 217.409 232.49 216.789Z" fill="#5793CE"/>
<path d="M251.496 217.822L263.685 210.798C264.924 210.178 265.957 208.319 265.957 206.666C265.957 205.014 265.131 204.394 263.891 205.014L251.703 212.038C250.463 212.657 249.43 214.517 249.43 216.169C249.224 217.615 250.257 218.442 251.496 217.822Z" fill="#5793CE"/>
<path d="M226.706 171.96L248.191 159.565C249.43 158.945 250.463 157.086 250.463 155.433C250.463 153.781 249.637 153.161 248.397 153.781L226.912 166.176C225.673 166.795 224.64 168.655 224.64 170.307C224.64 171.96 225.466 172.786 226.706 171.96Z" fill="#5793CE"/>
<path d="M227.326 159.565L264.718 138.08C265.957 137.46 266.99 135.601 266.99 133.948C266.99 132.296 266.164 131.676 264.924 132.296L227.532 153.781C226.293 154.4 225.26 156.26 225.26 157.912C225.26 159.565 226.293 160.185 227.326 159.565Z" fill="#5793CE"/>
<path d="M242.82 174.646L264.304 162.251C265.544 161.631 266.577 159.772 266.577 158.119C266.577 156.466 265.751 155.846 264.511 156.466L243.026 168.861C241.787 169.481 240.754 171.34 240.754 172.993C240.754 174.646 241.787 175.265 242.82 174.646Z" fill="#5793CE"/>
<path d="M210.386 181.463L218.236 176.918C219.475 176.298 220.508 174.439 220.508 172.786C220.508 171.134 219.682 170.514 218.442 171.134L210.592 175.679C209.353 176.298 208.32 178.158 208.32 179.81C208.32 181.256 209.353 182.083 210.386 181.463Z" fill="#5793CE"/>
<path d="M238.275 201.295L263.891 186.421C265.131 185.801 266.164 183.942 266.164 182.289C266.164 180.637 265.337 180.017 264.098 180.637L238.481 195.511C237.242 196.131 236.209 197.99 236.209 199.643C236.002 201.295 237.035 202.122 238.275 201.295Z" fill="#5793CE"/>
<path d="M257.074 106.473L276.08 95.5235C277.319 94.9037 278.352 93.0445 278.352 91.3918C278.352 89.7391 277.526 89.1194 276.286 89.7391L257.28 100.688C256.041 101.308 255.008 103.167 255.008 104.82C255.008 106.473 255.834 107.092 257.074 106.473Z" fill="#5793CE"/>
<path d="M252.116 229.391L274.014 216.789C275.253 216.169 276.286 214.31 276.286 212.657C276.286 211.004 275.46 210.385 274.22 211.004L252.322 223.606C251.083 224.226 250.05 226.085 250.05 227.738C250.05 229.391 250.876 230.01 252.116 229.391Z" fill="#5793CE"/>
<path d="M234.88 299.541L243.968 294.264C244.847 293.824 245.58 292.505 245.58 291.332C245.58 290.159 244.994 289.72 244.114 290.159L235.026 295.436C234.147 295.876 233.414 297.195 233.414 298.368C233.414 299.541 234 299.981 234.88 299.541Z" fill="#5793CE"/>
<path d="M215.53 310.681L229.016 302.912C229.895 302.472 230.628 301.153 230.628 299.98C230.628 298.808 230.042 298.368 229.163 298.808L215.677 306.577C214.797 307.017 214.064 308.336 214.064 309.509C214.064 310.681 214.65 311.121 215.53 310.681Z" fill="#5793CE"/>
<path d="M235.906 264.8L253.203 254.832C254.082 254.392 254.815 253.073 254.815 251.9C254.815 250.728 254.229 250.288 253.35 250.728L236.052 260.695C235.173 261.135 234.44 262.454 234.44 263.627C234.44 264.8 235.026 265.386 235.906 264.8Z" fill="#5793CE"/>
<path d="M247.339 275.354L253.056 272.129C253.936 271.689 254.668 270.37 254.668 269.197C254.668 268.025 254.082 267.585 253.203 268.025L247.486 271.249C246.606 271.689 245.873 273.009 245.873 274.181C245.727 275.207 246.46 275.794 247.339 275.354Z" fill="#5793CE"/>
<path d="M249.098 291.332L252.763 289.28C253.643 288.84 254.375 287.521 254.375 286.348C254.375 285.175 253.789 284.736 252.91 285.175L249.245 287.228C248.365 287.667 247.632 288.987 247.632 290.159C247.486 291.332 248.219 291.772 249.098 291.332Z" fill="#5793CE"/>
<path d="M226.231 287.521L241.476 278.725C242.355 278.286 243.088 276.966 243.088 275.794C243.088 274.621 242.502 274.181 241.623 274.621L226.378 283.416C225.498 283.856 224.765 285.175 224.765 286.348C224.618 287.521 225.351 287.96 226.231 287.521Z" fill="#5793CE"/>
<path d="M226.671 278.726L253.203 263.481C254.082 263.041 254.815 261.722 254.815 260.549C254.815 259.376 254.229 258.936 253.35 259.376L226.817 274.621C225.938 275.061 225.205 276.38 225.205 277.553C225.205 278.726 225.791 279.165 226.671 278.726Z" fill="#5793CE"/>
<path d="M237.665 289.426L252.91 280.631C253.789 280.191 254.522 278.872 254.522 277.699C254.522 276.527 253.936 276.087 253.056 276.527L237.811 285.322C236.932 285.762 236.199 287.081 236.199 288.254C236.199 289.426 236.785 289.866 237.665 289.426Z" fill="#5793CE"/>
<path d="M214.651 294.117L220.221 290.892C221.101 290.452 221.833 289.133 221.833 287.96C221.833 286.788 221.247 286.348 220.368 286.788L214.797 290.013C213.918 290.452 213.185 291.772 213.185 292.944C213.185 294.117 213.771 294.703 214.651 294.117Z" fill="#5793CE"/>
<path d="M430.64 309.631C430.391 309.523 430.141 309.414 430.141 309.414C429.002 308.622 428.548 306.94 429.698 305.66C430.273 305.021 430.491 304.522 431.175 303.632C431.967 302.494 433.649 302.039 434.928 303.19C436.208 304.34 436.522 305.664 435.371 306.943C434.796 307.583 434.47 308.331 433.895 308.971C433.211 309.86 431.638 310.066 430.64 309.631Z" fill="url(#paint0_linear)"/>
<path d="M437.523 299.274C437.273 299.166 437.273 299.166 437.024 299.057C435.885 298.265 435.43 296.583 436.223 295.444C438.134 292.419 440.044 289.393 441.706 286.259C442.498 285.12 443.93 284.557 445.427 285.208C446.566 286.001 447.379 287.542 446.478 288.93C444.816 292.064 442.797 295.339 440.886 298.365C440.202 299.254 438.77 299.817 437.523 299.274Z" fill="url(#paint1_linear)"/>
<path d="M448.315 279.938C448.066 279.829 448.066 279.829 448.315 279.938C446.819 279.286 446.364 277.604 446.907 276.357C447.558 274.86 448.101 273.613 448.753 272.117C466.597 231.814 467.301 189.984 451.004 153.808C436.365 121.322 409.137 97.3013 374.408 85.7414C373.052 85.4478 372.239 83.9069 372.641 82.3016C372.935 80.9457 374.476 80.1329 376.081 80.5351C412.416 92.4972 440.923 117.668 455.985 151.229C472.705 188.479 471.847 232.023 453.71 273.681C453.058 275.178 452.407 276.675 451.505 278.063C450.995 279.917 449.313 280.372 448.315 279.938Z" fill="url(#paint2_linear)"/>
<path d="M351.825 80.3601C350.827 79.9256 349.906 78.6343 350.091 77.5278C350.384 76.172 351.784 75.0011 353.14 75.2947C357.316 75.926 361.384 76.8067 365.452 77.6875C366.807 77.9811 367.62 79.5219 367.327 80.8778C367.033 82.2336 365.492 83.0465 364.136 82.7529C360.318 81.9807 356.359 80.8505 352.432 80.3278C352.324 80.5773 352.074 80.4687 351.825 80.3601Z" fill="url(#paint3_linear)"/>
<path d="M338.83 78.8565C337.832 78.4221 337.16 77.2393 337.236 76.3823C337.28 74.9179 338.68 73.747 340.036 74.0405C340.893 74.1169 341.75 74.1933 342.607 74.2697C344.072 74.3138 345.242 75.7138 344.949 77.0697C344.905 78.5341 343.505 79.705 342.149 79.4114C341.292 79.335 340.435 79.2587 339.578 79.1823C339.329 79.0737 339.079 78.9651 338.83 78.8565Z" fill="url(#paint4_linear)"/>
<path d="M264.63 89.931L307.343 44.0744L350.055 40.6679C350.055 40.6679 356.868 98.5782 307.343 160.026C257.686 155.833 264.63 89.931 264.63 89.931Z" fill="url(#paint5_linear)"/>
<path d="M350.055 40.5369L359.75 46.1707L316.907 49.5772L307.343 44.0744L350.055 40.5369Z" fill="url(#paint6_linear)"/>
<path d="M274.195 95.4337L316.907 49.5771L334.463 47.7429L359.619 46.0396C359.619 46.0396 366.432 103.95 316.907 165.398C267.382 161.336 274.195 95.4337 274.195 95.4337Z" fill="url(#paint7_linear)"/>
<path d="M274.195 95.4339L316.907 49.5773L359.619 46.1708C358.44 45.5157 358.44 45.5157 358.44 45.5157L315.072 49.0532L272.36 94.9098C272.36 94.9098 266.595 149.938 303.543 162.647C268.692 148.759 274.195 95.4339 274.195 95.4339Z" fill="white"/>
<path opacity="0.2" d="M279.436 96.2199L317.824 54.949L333.677 53.3767L356.344 51.8045C356.344 51.8045 362.502 103.95 317.955 159.109C273.278 155.44 279.436 96.2199 279.436 96.2199Z" fill="white"/>
<path d="M334.549 89.6644C335.754 90.8999 335.754 92.9026 334.549 94.1374L316.91 122.242C315.705 123.477 313.752 123.477 312.546 122.242L302.693 112.141C301.487 110.906 301.487 108.903 302.693 107.668C303.897 106.433 305.851 106.433 307.056 107.668L314.728 115.533L330.185 89.6644C331.391 88.4296 333.344 88.4296 334.549 89.6644Z" fill="white"/>
<path d="M410.683 312.713L207.827 430.936C205.357 432.418 202.393 432.418 199.923 430.936L34.773 333.789C29.6686 330.825 29.6686 323.416 34.773 320.452L233.842 204.699C236.148 203.381 239.111 203.381 241.581 204.699L410.518 299.211C415.787 302.175 415.952 309.585 410.683 312.713Z" fill="url(#paint8_linear)"/>
<path d="M174.091 258.321L389.776 133.836C392.47 132.296 395.163 131.911 397.088 132.874L397.472 133.066L404.591 136.337L396.895 140.185C396.895 140.377 396.895 140.377 396.895 140.57V317.774C396.895 326.625 391.315 337.015 384.581 340.863L174.668 462.078L173.513 471.89L165.817 468.235C163.316 466.696 161.777 463.425 161.777 458.615V281.41C161.777 272.559 167.356 262.169 174.091 258.321Z" fill="#173D7A"/>
<path d="M174.091 258.321L389.776 133.836C392.47 132.296 395.163 131.911 397.088 132.874L397.472 133.066L404.591 136.337L396.895 140.185C396.895 140.377 396.895 140.377 396.895 140.57V257.359L298.769 334.898L165.432 267.749C167.741 263.709 170.627 260.245 174.091 258.321Z" fill="#396CAA"/>
<path d="M170.435 261.208L191.6 270.058L175.63 282.372L162.354 276.792C163.509 270.828 166.587 265.056 170.435 261.208Z" fill="#274F89"/>
<path d="M181.017 470.929L396.895 346.635C403.629 342.787 409.209 332.397 409.209 323.547V146.342C409.209 137.491 403.822 133.451 396.895 137.299L181.21 261.785C174.475 265.633 168.896 276.023 168.896 284.873V462.078C168.896 470.929 174.283 474.969 181.017 470.929Z" fill="#D4ECFF"/>
<path d="M188.329 457.845L389.776 341.633C395.933 337.977 400.936 328.549 400.936 320.468V158.271C400.936 150.19 395.933 146.534 389.776 149.998L188.329 266.21C182.172 269.866 177.169 279.293 177.169 287.374V449.572C176.977 457.653 181.979 461.501 188.329 457.845Z" fill="white"/>
<path d="M188.329 457.845L389.776 341.633C395.933 337.977 400.936 328.549 400.936 320.468V158.271C400.936 150.19 395.933 146.534 389.776 149.998L188.329 266.21C182.172 269.866 177.169 279.293 177.169 287.374V449.572C176.977 457.653 181.979 461.501 188.329 457.845Z" fill="white"/>
<path d="M296.78 244.012L310.569 235.969C311.718 235.107 312.867 233.384 312.867 231.66C312.867 229.936 312.005 229.075 310.569 229.936L296.78 237.98C295.631 238.842 294.482 240.565 294.482 242.289C294.482 244.012 295.631 244.587 296.78 244.012Z" fill="#5793CE"/>
<path d="M264.031 262.971L284.14 251.193C285.289 250.331 286.438 248.608 286.438 246.884C286.438 245.161 285.576 244.299 284.14 245.161L264.031 256.939C262.882 257.8 261.733 259.524 261.733 261.248C262.02 262.684 262.882 263.546 264.031 262.971Z" fill="#5793CE"/>
<path d="M303.674 316.978L317.463 308.934C318.612 308.072 319.761 306.349 319.761 304.625C319.761 302.902 318.899 302.04 317.463 302.902L303.674 310.945C302.525 311.807 301.376 313.531 301.376 315.254C301.376 316.978 302.238 317.84 303.674 316.978Z" fill="#5793CE"/>
<path d="M274.373 333.926L294.481 322.149C295.631 321.287 296.78 319.563 296.78 317.84C296.78 316.116 295.918 315.254 294.481 316.116L274.373 327.894C273.224 328.756 272.075 330.479 272.075 332.203C272.362 333.926 273.224 334.501 274.373 333.926Z" fill="#5793CE"/>
<path d="M334.412 235.107L343.029 230.224C344.179 229.362 345.328 227.638 345.328 225.915C345.328 224.191 344.466 223.329 343.029 224.191L334.412 229.075C333.262 229.936 332.113 231.66 332.113 233.384C332.113 235.107 333.262 235.969 334.412 235.107Z" fill="#5793CE"/>
<path d="M305.11 264.695L331.252 249.47C332.401 248.608 333.55 246.884 333.55 245.161C333.55 243.437 332.688 242.575 331.252 243.437L305.11 258.662C303.961 259.524 302.812 261.248 302.812 262.971C302.812 264.695 303.961 265.557 305.11 264.695Z" fill="#5793CE"/>
<path d="M322.346 280.495L330.964 275.611C332.113 274.749 333.262 273.026 333.262 271.302C333.262 269.579 332.401 268.717 330.964 269.579L322.346 274.462C321.197 275.324 320.048 277.047 320.048 278.771C320.048 280.495 321.197 281.356 322.346 280.495Z" fill="#5793CE"/>
<path d="M264.319 365.526L287.3 352.312C288.449 351.45 289.598 349.726 289.598 348.003C289.598 346.279 288.736 345.417 287.3 346.279L264.319 359.493C263.169 360.355 262.02 362.079 262.02 363.802C262.02 365.239 263.169 366.101 264.319 365.526Z" fill="#5793CE"/>
<path d="M324.932 304.625L330.39 301.465C331.539 300.603 332.688 298.88 332.688 297.156C332.688 295.432 331.826 294.571 330.39 295.432L324.932 298.592C323.783 299.454 322.634 301.178 322.634 302.901C322.634 304.625 323.783 305.487 324.932 304.625Z" fill="#5793CE"/>
<path d="M323.208 331.341L330.103 327.319C331.252 326.457 332.401 324.734 332.401 323.01C332.401 321.286 331.539 320.424 330.103 321.286L323.208 325.308C322.059 326.17 320.91 327.893 320.91 329.617C320.91 331.341 322.059 332.202 323.208 331.341Z" fill="#5793CE"/>
<path d="M296.78 346.854L314.877 336.512C316.026 335.65 317.176 333.927 317.176 332.203C317.176 330.48 316.314 329.618 314.877 330.48L296.78 340.821C295.631 341.683 294.482 343.407 294.482 345.13C294.482 346.854 295.343 347.428 296.78 346.854Z" fill="#5793CE"/>
<path d="M316.888 348.002L329.815 340.534C330.964 339.672 332.114 337.948 332.114 336.225C332.114 334.501 331.252 333.639 329.815 334.501L316.888 341.97C315.739 342.832 314.59 344.555 314.59 346.279C314.59 348.002 315.739 348.577 316.888 348.002Z" fill="#5793CE"/>
<path d="M244.784 376.729L253.115 371.845C254.264 370.984 255.413 369.26 255.413 367.536C255.413 365.813 254.552 364.951 253.115 365.813L244.784 370.696C243.635 371.558 242.486 373.282 242.486 375.005C242.486 376.729 243.348 377.591 244.784 376.729Z" fill="#5793CE"/>
<path d="M290.46 298.88L313.441 285.665C314.59 284.804 315.739 283.08 315.739 281.356C315.739 279.633 314.877 278.771 313.441 279.633L290.46 292.847C289.311 293.709 288.162 295.432 288.162 297.156C288.162 298.88 289.311 299.741 290.46 298.88Z" fill="#5793CE"/>
<path d="M291.322 285.665L331.252 262.684C332.401 261.822 333.55 260.099 333.55 258.375C333.55 256.651 332.688 255.79 331.252 256.651L291.322 279.633C290.173 280.494 289.024 282.218 289.024 283.942C289.024 285.665 289.885 286.527 291.322 285.665Z" fill="#5793CE"/>
<path d="M307.983 301.752L330.964 288.538C332.113 287.676 333.262 285.952 333.262 284.229C333.262 282.505 332.401 281.643 330.964 282.505L307.983 295.719C306.834 296.581 305.685 298.305 305.685 300.028C305.685 301.752 306.547 302.614 307.983 301.752Z" fill="#5793CE"/>
<path d="M273.224 308.933L281.554 304.05C282.704 303.188 283.853 301.465 283.853 299.741C283.853 298.017 282.991 297.156 281.554 298.017L273.224 302.901C272.075 303.763 270.926 305.486 270.926 307.21C270.926 308.934 271.787 309.795 273.224 308.933Z" fill="#5793CE"/>
<path d="M202.556 298.305L251.679 269.866C252.828 269.004 253.977 267.28 253.977 265.557C253.977 263.833 253.115 262.971 251.679 263.833L202.556 292.273C201.407 293.134 200.258 294.858 200.258 296.582C200.258 298.305 201.12 299.167 202.556 298.305Z" fill="#5793CE"/>
<path d="M302.812 330.479L330.39 314.68C331.539 313.818 332.688 312.094 332.688 310.371C332.688 308.647 331.826 307.785 330.39 308.647L302.812 324.447C301.663 325.309 300.514 327.032 300.514 328.756C300.514 330.479 301.663 331.054 302.812 330.479Z" fill="#5793CE"/>
<path d="M322.921 228.787L343.029 217.009C344.179 216.147 345.328 214.424 345.328 212.7C345.328 210.976 344.466 210.115 343.029 210.976L322.921 222.754C321.772 223.616 320.623 225.34 320.623 227.063C320.623 228.787 321.772 229.649 322.921 228.787Z" fill="#5793CE"/>
<path d="M317.75 360.355L341.306 346.854C342.455 345.992 343.604 344.269 343.604 342.545C343.604 340.821 342.742 339.96 341.306 340.821L317.75 354.323C316.601 355.185 315.452 356.908 315.452 358.632C315.452 360.355 316.314 361.217 317.75 360.355Z" fill="#5793CE"/>
<path d="M398 165V327.01C398 331.255 395.286 334.792 391.573 336.349L177 459.114C179.999 457.275 181.999 454.162 181.999 450.483V288.473C181.999 284.653 184.141 281.398 187.283 279.7L198.994 279.559L398 165Z" fill="white"/>
<path d="M196.276 297.812V315.923L350.707 225.781V207.812L196.276 297.812Z" fill="#5793CE"/>
<path opacity="0.5" d="M196.276 333.892V351.862L352.135 260.167V242.198L196.276 333.892Z" fill="#173D7A" fill-opacity="0.2"/>
<path opacity="0.5" d="M196.276 369.832V387.801L349.643 297.799V279.829L196.276 369.832Z" fill="#173D7A" fill-opacity="0.2"/>
<path opacity="0.5" d="M196.276 405.771V423.882L351.071 333.88V315.91L196.276 405.771Z" fill="#173D7A" fill-opacity="0.2"/>
<path d="M371.43 201.228V210.85L362.432 215.66V206.039L371.43 201.228ZM375.429 194.861L358.433 203.916V221.886L375.429 212.831V194.861Z" fill="#5793CE"/>
<path d="M358.433 203.351L370.002 213.114L382.856 186.937L368.288 206.605L358.433 203.351Z" fill="#15A373"/>
<g opacity="0.4">
<path d="M371.43 237.167V246.789L362.432 251.6V241.978L371.43 237.167ZM375.429 230.942L358.433 239.997V257.967L375.429 248.911V230.942Z" fill="#5793CE"/>
</g>
<g opacity="0.4">
<path d="M371.43 273.248V282.87L362.432 287.681V278.059L371.43 273.248ZM375.429 266.881L358.433 275.937V293.906L375.429 284.851V266.881Z" fill="#5793CE"/>
</g>
<g opacity="0.4">
<path d="M371.43 309.188V318.809L362.432 323.62V313.998L371.43 309.188ZM375.429 302.82L358.433 311.876V329.846L375.429 320.79V302.82Z" fill="#5793CE"/>
</g>
<path d="M260.387 321.704L431.825 222.556C433.142 221.676 434.459 221.676 435.337 222.336L437.971 223.875C437.971 223.875 437.313 223.875 436.874 224.095C437.093 224.754 437.313 225.633 437.313 226.733V345.008C437.313 348.965 434.898 353.582 432.045 355.34L260.387 454.269C260.168 454.489 259.729 454.489 259.509 454.709V456.028L256.875 454.489C255.777 453.829 255.119 452.291 255.119 450.092L255.119 332.037C255.119 328.08 257.314 323.463 260.387 321.704Z" fill="white"/>
<path d="M262.802 455.588L434.24 356.66C437.093 354.901 439.508 350.284 439.508 346.327V228.052C439.508 224.095 437.093 222.336 434.24 224.095L262.802 323.244C259.948 325.002 257.534 329.619 257.534 333.576V451.851C257.534 455.588 259.948 457.347 262.802 455.588Z" fill="url(#paint9_linear)"/>
<path d="M393.048 342.486L425.535 323.58V319.183L393.048 338.09V342.486Z" fill="white"/>
<path d="M353.097 365.569L385.584 346.663V342.266L353.097 361.173V365.569Z" fill="white"/>
<path d="M312.926 388.653L345.633 369.747V365.35L312.926 384.256V388.653Z" fill="white"/>
<path d="M272.975 411.736L305.463 392.83V388.653L272.975 407.34V411.736Z" fill="white"/>
<path opacity="0.2" d="M262.802 323.244L434.24 224.095C437.093 222.336 439.508 224.095 439.508 228.052V346.327C439.508 346.986 439.508 347.866 439.289 348.525C430.069 341.93 393.191 321.485 322.289 360.617C296.606 374.906 274.875 372.928 257.534 363.694V333.356C257.534 329.399 259.948 324.782 262.802 323.244Z" fill="white"/>
<path d="M284.561 352.168L331.736 324.45V312.929L284.561 340.428V352.168Z" fill="white"/>
<path opacity="0.8" d="M401.865 279.403C402.422 282.028 403.456 283.937 404.65 284.892L410.775 281.392C411.969 279.085 413.003 275.982 413.56 272.72L401.865 279.403ZM401.865 267.788C402.422 264.447 403.456 261.424 404.65 259.117L410.775 255.616C411.969 256.492 413.003 258.401 413.56 261.106L401.865 267.788ZM391.205 282.824V276.539L399.081 272.004C399.001 273.039 398.922 274.152 398.922 275.187C398.922 276.221 399.001 277.255 399.081 278.21L391.205 282.824ZM401.468 270.732L413.957 263.572C414.037 264.526 414.116 265.561 414.116 266.595C414.116 267.629 414.037 268.743 413.957 269.777L401.468 276.937C401.388 275.982 401.308 274.948 401.308 273.914C401.308 272.879 401.388 271.766 401.468 270.732ZM416.424 265.163C416.424 264.129 416.344 263.094 416.264 262.14L424.14 257.605V263.89L416.264 268.424C416.344 267.311 416.424 266.277 416.424 265.163ZM415.946 271.288L424.22 266.515V270.493C424.22 272.243 423.026 274.311 421.515 275.187L413.639 279.721C414.673 277.175 415.469 274.311 415.946 271.288ZM399.479 269.14L391.205 273.914V269.936C391.205 268.186 392.398 266.117 393.91 265.242L401.786 260.708C400.752 263.254 399.956 266.117 399.479 269.14ZM399.479 280.755C399.956 283.221 400.752 285.21 401.786 286.483L393.91 291.018C392.398 291.893 391.205 291.177 391.205 289.427V285.449L399.479 280.755ZM415.946 259.674C415.469 257.208 414.673 255.219 413.639 253.946L421.515 249.411C423.026 248.536 424.22 249.252 424.22 251.002V254.98L415.946 259.674Z" fill="white"/>
<path opacity="0.8" d="M272.076 436.174C272.076 436.81 272.554 437.049 273.031 436.731L284.566 430.048C285.123 429.73 285.521 428.935 285.521 428.378V420.661C285.521 420.025 285.043 419.786 284.566 420.104L273.031 426.787C272.474 427.105 272.076 427.9 272.076 428.457V436.174Z" fill="white"/>
<path opacity="0.5" d="M287.191 427.423V419.707C287.191 419.309 287.112 418.991 286.953 418.672L296.817 412.945C297.374 412.626 297.772 412.865 297.772 413.501V421.218C297.772 421.855 297.294 422.571 296.817 422.889L286.953 428.617C287.112 428.219 287.191 427.821 287.191 427.423Z" fill="black"/>
<path opacity="0.2" d="M368.606 317.088C344.46 314.01 324.484 306.536 307.801 297.302L434.24 224.095C437.093 222.336 439.508 224.095 439.508 228.052V341.271C426.996 331.378 405.264 321.924 368.606 317.088Z" fill="white"/>
<path d="M388.437 410.202L389.788 412.325C390.946 410.202 393.069 408.272 395.964 406.535C406.194 400.551 422.6 400.551 432.83 406.342C435.725 407.886 437.655 409.816 439.006 411.939L440.55 410.009V414.641C440.743 418.501 438.234 422.555 433.023 425.643C422.793 431.626 406.387 431.626 396.157 425.836C391.139 422.941 388.437 419.08 388.437 415.22V410.202Z" fill="#F4A856"/>
<path d="M396.157 420.818C406.387 426.608 422.986 426.608 433.022 420.625C443.252 414.641 443.059 405.183 433.022 399.2C422.793 393.41 406.194 393.41 396.157 399.393C386.12 405.376 385.927 415.027 396.157 420.818Z" fill="#FCCC6B"/>
<path d="M396.157 420.818C406.387 426.608 422.986 426.608 433.022 420.625C443.252 414.641 443.059 405.183 433.022 399.2C422.793 393.41 406.194 393.41 396.157 399.393C386.12 405.376 385.927 415.027 396.157 420.818Z" fill="url(#paint10_radial)"/>
<path d="M414.493 422.941C420.284 422.941 425.881 421.59 430.32 419.081C434.567 416.571 436.883 413.29 436.883 409.816C436.883 406.342 434.567 403.06 430.32 400.744C421.635 395.726 407.738 395.919 399.052 400.937C394.806 403.446 392.49 406.728 392.49 410.202C392.49 413.676 394.806 416.957 399.052 419.274C403.298 421.783 408.896 422.941 414.493 422.941ZM414.686 397.656C420.284 397.656 425.688 398.814 429.934 401.323C433.988 403.639 436.304 406.728 436.304 410.009C436.304 413.29 434.181 416.378 430.127 418.888C421.635 423.906 407.931 423.906 399.245 419.081C395.192 416.764 392.876 413.676 392.876 410.395C392.876 407.114 394.999 404.026 399.052 401.516C403.491 399.007 409.089 397.656 414.686 397.656Z" fill="#F4A856"/>
<path d="M399.052 419.08C407.545 423.906 421.442 423.906 430.127 418.887C438.62 413.869 438.62 405.955 430.127 400.937C421.635 396.112 407.738 396.112 399.052 401.13C390.559 406.148 390.559 414.255 399.052 419.08Z" fill="url(#paint11_radial)"/>
<path d="M429.934 402.095C421.442 397.27 407.545 397.27 398.859 402.288C394.806 404.604 392.683 407.693 392.49 410.781C392.297 407.307 394.42 403.832 398.859 401.323C407.352 396.305 421.249 396.305 429.934 401.13C434.373 403.639 436.69 407.114 436.304 410.588C436.304 407.5 434.18 404.411 429.934 402.095Z" fill="#F4A856"/>
<path d="M396.157 419.852C406.387 425.643 422.986 425.643 433.023 419.659C437.848 416.764 440.357 413.097 440.55 409.43C440.743 413.483 438.234 417.536 433.023 420.624C422.793 426.608 406.387 426.608 396.157 420.817C390.753 417.729 388.244 413.676 388.437 409.623C388.63 413.483 391.139 417.15 396.157 419.852Z" fill="#FCE586"/>
<path d="M383.997 403.833L385.348 405.956C386.506 403.833 388.629 401.902 391.524 400.165C401.754 394.182 418.16 394.182 428.39 399.972C431.285 401.516 433.215 403.447 434.566 405.57L436.11 403.64V408.272C436.303 412.132 433.794 416.185 428.583 419.274C418.353 425.257 401.947 425.257 391.717 419.467C386.699 416.571 383.997 412.711 383.997 408.851V403.833Z" fill="#F4A856"/>
<path d="M391.717 414.448C401.947 420.239 418.546 420.239 428.583 414.255C438.812 408.272 438.619 398.814 428.583 392.831C418.353 387.04 401.754 387.04 391.717 393.024C381.294 399.007 381.488 408.658 391.717 414.448Z" fill="#FCCC6B"/>
<path d="M391.717 414.448C401.947 420.239 418.546 420.239 428.583 414.255C438.812 408.272 438.619 398.814 428.583 392.831C418.353 387.04 401.754 387.04 391.717 393.024C381.294 399.007 381.488 408.658 391.717 414.448Z" fill="url(#paint12_radial)"/>
<path d="M410.054 416.572C415.844 416.572 421.442 415.22 425.881 412.711C430.127 410.202 432.443 406.921 432.443 403.447C432.443 399.972 430.127 396.691 425.881 394.375C417.195 389.357 403.298 389.55 394.613 394.568C390.366 397.077 388.05 400.358 388.05 403.833C388.05 407.307 390.366 410.588 394.613 412.904C398.859 415.413 404.263 416.572 410.054 416.572ZM410.247 391.287C415.844 391.287 421.249 392.445 425.495 394.954C429.548 397.27 431.864 400.358 431.864 403.64C431.864 406.921 429.741 410.009 425.688 412.518C417.195 417.537 403.491 417.537 394.806 412.711C390.752 410.395 388.436 407.307 388.436 404.026C388.436 400.744 390.559 397.656 394.613 395.147C398.859 392.445 404.649 391.287 410.247 391.287Z" fill="#F4A856"/>
<path d="M394.612 412.711C403.105 417.537 417.002 417.537 425.687 412.518C434.18 407.5 434.18 399.586 425.687 394.568C417.195 389.743 403.298 389.743 394.612 394.761C385.927 399.779 385.927 407.886 394.612 412.711Z" fill="url(#paint13_radial)"/>
<path d="M425.495 395.726C417.002 390.901 403.105 390.901 394.42 395.919C390.366 398.235 388.243 401.323 388.05 404.412C387.857 400.937 389.98 397.463 394.42 394.954C402.912 389.936 416.809 389.936 425.495 394.761C429.934 397.27 432.25 400.744 431.864 404.219C431.671 401.13 429.548 398.042 425.495 395.726Z" fill="#F4A856"/>
<path d="M391.717 413.483C401.947 419.274 418.546 419.274 428.583 413.29C433.408 410.395 435.917 406.728 436.11 403.061C436.303 407.114 433.794 411.167 428.583 414.255C418.353 420.239 401.947 420.239 391.717 414.449C386.313 411.36 383.804 407.307 383.997 403.254C384.19 407.114 386.699 410.588 391.717 413.483Z" fill="#FCE586"/>
<path d="M349.448 435.68L350.799 437.803C351.957 435.68 354.08 433.75 356.975 432.012C367.205 426.029 383.611 426.029 393.841 431.819C396.736 433.364 398.666 435.294 400.017 437.417L401.561 435.487V440.119C401.754 443.979 399.245 448.033 394.034 451.121C383.804 457.104 367.398 457.104 357.168 451.314C352.15 448.419 349.448 444.558 349.448 440.698V435.68Z" fill="#F4A856"/>
<path d="M349.636 435.694C349.599 427.38 361.234 420.587 375.625 420.522C390.016 420.458 401.712 427.146 401.75 435.46C401.787 443.775 390.151 450.568 375.76 450.632C361.37 450.697 349.673 444.009 349.636 435.694Z" fill="#FCCC6B"/>
<path d="M357.168 446.295C367.398 452.086 383.997 452.086 394.034 446.102C404.263 440.119 404.07 430.661 394.034 424.678C383.804 418.888 367.205 418.888 357.168 424.871C346.938 430.854 346.938 440.505 357.168 446.295Z" fill="url(#paint14_radial)"/>
<path d="M375.504 448.419C381.295 448.419 386.892 447.068 391.331 444.558C395.578 442.049 397.894 438.768 397.894 435.294C397.894 431.82 395.578 428.538 391.331 426.222C382.646 421.204 368.749 421.397 360.063 426.415C355.817 428.924 353.501 432.206 353.501 435.68C353.501 439.154 355.817 442.435 360.063 444.751C364.31 447.261 369.907 448.419 375.504 448.419ZM375.697 423.134C381.295 423.134 386.699 424.292 390.945 426.801C394.999 429.117 397.315 432.206 397.315 435.487C397.315 438.768 395.192 441.856 391.138 444.365C382.646 449.384 368.942 449.384 360.256 444.558C356.203 442.242 353.887 439.154 353.887 435.873C353.887 432.592 356.01 429.503 360.063 426.994C364.503 424.292 370.1 423.134 375.697 423.134Z" fill="#F4A856"/>
<path d="M360.256 444.559C368.749 449.384 382.646 449.384 391.331 444.366C399.824 439.347 399.824 431.434 391.331 426.415C382.839 421.59 368.942 421.59 360.256 426.608C351.571 431.627 351.571 439.733 360.256 444.559Z" fill="url(#paint15_radial)"/>
<path d="M391.139 427.573C382.646 422.748 368.749 422.748 360.063 427.766C356.01 430.082 353.887 433.171 353.694 436.259C353.501 432.785 355.624 429.31 360.063 426.801C368.556 421.783 382.453 421.783 391.139 426.608C395.578 429.117 397.894 432.592 397.508 436.066C397.315 432.978 395.192 429.889 391.139 427.573Z" fill="#F4A856"/>
<path d="M357.168 445.331C367.398 451.121 383.997 451.121 394.034 445.138C398.859 442.242 401.368 438.575 401.561 434.908C401.754 438.961 399.245 443.014 394.034 446.103C383.804 452.086 367.398 452.086 357.168 446.296C351.764 443.207 349.255 439.154 349.448 435.101C349.834 438.768 352.343 442.435 357.168 445.331Z" fill="#FCE586"/>
<path d="M401.754 444.751L403.106 446.874C404.264 444.751 406.387 442.821 409.282 441.084C419.512 435.101 435.918 435.101 446.148 440.891C449.043 442.435 450.973 444.365 452.324 446.488L453.868 444.558V449.191C454.061 453.051 451.552 457.104 446.341 460.192C436.111 466.176 419.705 466.176 409.475 460.385C404.457 457.49 401.754 453.63 401.754 449.77V444.751Z" fill="#F4A856"/>
<path d="M401.864 444.629C401.826 436.315 413.462 429.522 427.853 429.457C442.244 429.393 453.94 436.081 453.977 444.395C454.014 452.71 442.379 459.503 427.988 459.567C413.597 459.632 401.901 452.944 401.864 444.629Z" fill="#FCCC6B"/>
<path d="M409.475 455.367C419.705 461.157 436.304 461.157 446.341 455.174C456.57 449.19 456.377 439.733 446.341 433.749C436.111 427.959 419.512 427.959 409.475 433.942C399.245 439.926 399.245 449.576 409.475 455.367Z" fill="url(#paint16_radial)"/>
<path d="M427.811 457.49C433.602 457.49 439.199 456.139 443.638 453.63C447.885 451.121 450.201 447.839 450.201 444.365C450.201 440.891 447.885 437.61 443.638 435.294C434.953 430.275 421.056 430.468 412.37 435.487C408.124 437.996 405.808 441.277 405.808 444.751C405.808 448.225 408.124 451.507 412.37 453.823C416.616 456.332 422.214 457.49 427.811 457.49ZM428.004 432.205C433.602 432.205 439.006 433.363 443.252 435.873C447.305 438.189 449.622 441.277 449.622 444.558C449.622 447.839 447.498 450.928 443.445 453.437C434.953 458.455 421.249 458.455 412.563 453.63C408.51 451.314 406.194 448.225 406.194 444.944C406.194 441.663 408.317 438.575 412.563 436.066C416.809 433.363 422.407 432.205 428.004 432.205Z" fill="#F4A856"/>
<path d="M412.37 453.63C420.862 458.455 434.759 458.455 443.445 453.437C451.938 448.419 451.938 440.505 443.445 435.487C434.952 430.661 421.055 430.661 412.37 435.68C403.877 440.698 403.877 448.805 412.37 453.63Z" fill="url(#paint17_radial)"/>
<path d="M443.445 436.645C434.953 431.819 421.056 431.819 412.37 436.838C408.317 439.154 406.194 442.242 406.001 445.33C405.808 441.856 407.931 438.382 412.37 435.873C420.863 430.854 434.76 430.854 443.445 435.68C447.884 438.189 450.201 441.663 449.815 445.137C449.622 442.049 447.498 438.961 443.445 436.645Z" fill="#F4A856"/>
<path d="M409.475 454.402C419.705 460.192 436.304 460.192 446.341 454.209C451.166 451.314 453.675 447.647 453.868 443.979C454.061 448.033 451.552 452.086 446.341 455.174C436.111 461.157 419.705 461.157 409.475 455.367C404.071 452.279 401.561 448.226 401.754 444.172C401.947 447.84 404.65 451.507 409.475 454.402Z" fill="#FCE586"/>
<path d="M377.048 435.101L378.4 437.224C379.558 435.101 381.681 433.171 384.576 431.434C394.806 425.45 411.212 425.45 421.441 431.241C424.337 432.785 426.267 434.715 427.618 436.838L429.162 434.908V439.54C429.355 443.401 426.846 447.454 421.635 450.542C411.405 456.526 394.999 456.526 384.769 450.735C379.751 447.84 377.048 443.98 377.048 440.119V435.101Z" fill="#F4A856"/>
<path d="M377.193 435.033C377.156 426.718 388.792 419.926 403.182 419.861C417.573 419.797 429.269 426.485 429.307 434.799C429.344 443.114 417.708 449.907 403.317 449.971C388.927 450.036 377.23 443.348 377.193 435.033Z" fill="#FCCC6B"/>
<path d="M384.769 445.717C394.998 451.507 411.598 451.507 421.634 445.524C431.864 439.54 431.864 430.083 421.634 424.099C411.405 418.309 394.805 418.309 384.769 424.292C374.539 430.276 374.539 439.926 384.769 445.717Z" fill="url(#paint18_radial)"/>
<path d="M403.105 447.84C408.895 447.84 414.493 446.489 418.932 443.98C423.178 441.47 425.495 438.189 425.495 434.715C425.495 431.241 423.178 427.96 418.932 425.643C410.247 420.625 396.35 420.818 387.664 425.836C383.418 428.346 381.102 431.627 381.102 435.101C381.102 438.575 383.418 441.856 387.664 444.173C391.91 446.682 397.508 447.84 403.105 447.84ZM403.298 422.555C408.895 422.555 414.3 423.713 418.546 426.222C422.599 428.539 424.916 431.627 424.916 434.908C424.916 438.189 422.792 441.277 418.739 443.787C410.247 448.805 396.543 448.805 387.857 443.98C383.804 441.663 381.488 438.575 381.488 435.294C381.488 432.013 383.611 428.925 387.664 426.415C392.103 423.713 397.701 422.555 403.298 422.555Z" fill="#F4A856"/>
<path d="M387.664 443.98C396.157 448.805 410.054 448.805 418.739 443.787C427.232 438.768 427.232 430.855 418.739 425.836C410.247 421.011 396.35 421.011 387.664 426.029C379.172 431.048 379.172 439.154 387.664 443.98Z" fill="url(#paint19_radial)"/>
<path d="M418.739 426.994C410.247 422.169 396.35 422.169 387.664 427.187C383.611 429.504 381.488 432.592 381.295 435.68C381.102 432.206 383.225 428.732 387.664 426.222C396.157 421.204 410.054 421.204 418.739 426.029C423.178 428.539 425.495 432.013 425.109 435.487C424.916 432.399 422.792 429.311 418.739 426.994Z" fill="#F4A856"/>
<path d="M384.769 444.752C394.999 450.542 411.598 450.542 421.635 444.559C426.46 441.663 428.969 437.996 429.162 434.329C429.355 438.382 426.846 442.435 421.635 445.524C411.405 451.507 394.999 451.507 384.769 445.717C379.365 442.628 376.855 438.575 377.048 434.522C377.241 438.382 379.944 441.856 384.769 444.752Z" fill="#FCE586"/>
<path d="M370.293 429.89L371.644 432.013C372.802 429.89 374.926 427.959 377.821 426.222C388.051 420.239 404.457 420.239 414.686 426.029C417.582 427.573 419.512 429.503 420.863 431.627L422.407 429.696V434.329C422.6 438.189 420.091 442.242 414.879 445.331C404.65 451.314 388.244 451.314 378.014 445.524C372.995 442.628 370.293 438.768 370.293 434.908V429.89Z" fill="#F4A856"/>
<path d="M378.014 440.505C388.243 446.296 404.843 446.296 414.879 440.312C425.109 434.329 425.109 424.871 414.879 418.888C404.65 413.097 388.05 413.097 378.014 419.081C367.784 425.064 367.784 434.715 378.014 440.505Z" fill="#FCCC6B"/>
<path d="M378.014 440.505C388.243 446.296 404.843 446.296 414.879 440.312C425.109 434.329 425.109 424.871 414.879 418.888C404.65 413.097 388.05 413.097 378.014 419.081C367.784 425.064 367.784 434.715 378.014 440.505Z" fill="url(#paint20_radial)"/>
<path d="M396.35 442.628C402.14 442.628 407.738 441.277 412.177 438.768C416.423 436.259 418.74 432.978 418.74 429.504C418.74 426.029 416.423 422.748 412.177 420.432C403.491 415.414 389.594 415.607 380.909 420.625C376.663 423.134 374.346 426.415 374.346 429.89C374.346 433.364 376.663 436.645 380.909 438.961C385.155 441.47 390.753 442.628 396.35 442.628ZM396.543 417.344C402.14 417.344 407.545 418.502 411.791 421.011C415.844 423.327 418.16 426.415 418.16 429.697C418.16 432.978 416.037 436.066 411.984 438.575C403.491 443.594 389.787 443.594 381.102 438.768C377.049 436.452 374.732 433.364 374.732 430.083C374.732 426.801 376.856 423.713 380.909 421.204C385.348 418.502 390.946 417.344 396.543 417.344Z" fill="#F4A856"/>
<path d="M380.909 438.768C389.402 443.594 403.298 443.594 411.984 438.575C420.477 433.557 420.477 425.643 411.984 420.625C403.491 415.8 389.595 415.8 380.909 420.818C372.416 425.836 372.416 433.943 380.909 438.768Z" fill="url(#paint21_radial)"/>
<path d="M411.984 421.783C403.491 416.958 389.594 416.958 380.909 421.976C376.855 424.292 374.732 427.38 374.539 430.469C374.346 426.994 376.469 423.52 380.909 421.011C389.401 415.993 403.298 415.993 411.984 420.818C416.423 423.327 418.739 426.801 418.353 430.276C418.16 427.187 416.037 424.099 411.984 421.783Z" fill="#F4A856"/>
<path d="M378.014 439.54C388.244 445.331 404.843 445.331 414.879 439.347C419.705 436.452 422.214 432.785 422.407 429.118C422.6 433.171 420.091 437.224 414.879 440.312C404.65 446.296 388.244 446.296 378.014 440.505C372.609 437.417 370.1 433.364 370.293 429.311C370.486 433.171 373.188 436.645 378.014 439.54Z" fill="#FCE586"/>
<path d="M366.626 419.852L367.977 421.976C369.135 419.852 371.258 417.922 374.153 416.185C384.383 410.202 400.789 410.202 411.019 415.992C413.914 417.536 415.844 419.466 417.195 421.59L418.739 419.659V424.292C418.932 428.152 416.423 432.205 411.212 435.294C400.982 441.277 384.576 441.277 374.346 435.487C369.328 432.591 366.626 428.731 366.626 424.871V419.852Z" fill="#F4A856"/>
<path d="M366.844 419.875C366.807 411.561 378.443 404.768 392.833 404.703C407.224 404.639 418.92 411.327 418.958 419.641C418.995 427.956 407.359 434.749 392.969 434.813C378.578 434.878 366.882 428.19 366.844 419.875Z" fill="#FCCC6B"/>
<path d="M374.346 430.468C384.576 436.259 401.175 436.259 411.212 430.275C421.441 424.292 421.248 414.834 411.212 408.851C400.982 403.06 384.383 403.06 374.346 409.044C364.116 415.027 364.116 424.678 374.346 430.468Z" fill="url(#paint22_radial)"/>
<path d="M392.683 432.591C398.473 432.591 404.07 431.24 408.51 428.731C412.756 426.222 415.072 422.941 415.072 419.467C415.072 415.992 412.756 412.711 408.51 410.395C399.824 405.377 385.927 405.57 377.242 410.588C372.995 413.097 370.679 416.378 370.679 419.853C370.679 423.327 372.995 426.608 377.242 428.924C381.488 431.433 387.085 432.591 392.683 432.591ZM392.876 407.307C398.473 407.307 403.877 408.465 408.124 410.974C412.177 413.29 414.493 416.378 414.493 419.66C414.493 422.941 412.37 426.029 408.317 428.538C399.824 433.556 386.12 433.556 377.435 428.731C373.381 426.415 371.065 423.327 371.065 420.046C371.065 416.764 373.188 413.676 377.242 411.167C381.681 408.465 387.278 407.307 392.876 407.307Z" fill="#F4A856"/>
<path d="M377.434 428.731C385.927 433.556 399.824 433.556 408.509 428.538C417.002 423.519 417.002 415.606 408.509 410.588C400.017 405.762 386.12 405.762 377.434 410.781C368.749 415.799 368.749 423.905 377.434 428.731Z" fill="url(#paint23_radial)"/>
<path d="M408.317 411.746C399.824 406.921 385.927 406.921 377.242 411.939C373.188 414.255 371.065 417.343 370.872 420.432C370.679 416.957 372.802 413.483 377.242 410.974C385.734 405.956 399.631 405.956 408.317 410.781C412.756 413.29 415.072 416.764 414.686 420.239C414.493 417.15 412.37 414.062 408.317 411.746Z" fill="#F4A856"/>
<path d="M374.346 429.503C384.576 435.293 401.175 435.293 411.212 429.31C416.037 426.415 418.546 422.748 418.739 419.08C418.932 423.134 416.423 427.187 411.212 430.275C400.982 436.259 384.576 436.259 374.346 430.468C368.942 427.38 366.433 423.327 366.626 419.273C367.012 423.134 369.521 426.608 374.346 429.503Z" fill="#FCE586"/>
<path d="M348.675 423.906L350.606 425.643C351.378 423.327 352.922 421.011 355.431 418.695C364.117 410.781 380.33 407.307 391.524 410.974C394.613 411.939 396.929 413.483 398.666 415.22L399.824 412.904L400.789 417.343C401.754 421.204 400.017 425.643 395.578 429.503C386.892 437.417 370.679 440.891 359.484 437.224C353.887 435.487 350.606 432.205 349.834 428.345L348.675 423.906Z" fill="#F4A856"/>
<path d="M358.326 432.784C369.521 436.452 385.734 432.978 394.42 425.064C403.105 417.15 401.175 407.886 389.981 404.219C378.786 400.551 362.573 404.025 353.887 411.939C345.201 419.853 347.132 429.117 358.326 432.784Z" fill="#FCCC6B"/>
<path d="M358.326 432.784C369.521 436.452 385.734 432.978 394.42 425.064C403.105 417.15 401.175 407.886 389.981 404.219C378.786 400.551 362.573 404.025 353.887 411.939C345.201 419.853 347.132 429.117 358.326 432.784Z" fill="url(#paint24_radial)"/>
<path d="M376.662 431.24C382.259 430.082 387.664 427.573 391.331 424.292C394.998 421.011 396.542 417.343 395.77 414.062C394.998 410.588 392.103 408.079 387.471 406.535C378.013 403.446 364.309 406.342 356.975 413.097C353.307 416.378 351.763 420.046 352.535 423.327C353.307 426.801 356.203 429.31 360.835 430.854C365.467 432.205 371.258 432.398 376.662 431.24ZM371.837 406.342C377.241 405.184 382.839 405.184 387.471 406.728C391.91 408.079 394.805 410.781 395.384 414.062C396.156 417.343 394.612 420.818 391.138 423.906C383.804 430.468 370.293 433.363 361.028 430.275C356.589 428.924 353.694 426.222 353.114 422.941C352.342 419.659 353.886 416.185 357.361 413.097C361.028 409.816 366.239 407.5 371.837 406.342Z" fill="#F4A856"/>
<path d="M360.835 430.468C370.293 433.556 383.804 430.661 391.138 423.906C398.473 417.343 396.736 409.43 387.471 406.342C378.014 403.253 364.503 406.149 357.168 412.904C349.834 419.659 351.571 427.573 360.835 430.468Z" fill="url(#paint25_radial)"/>
<path d="M387.664 407.5C378.207 404.411 364.696 407.307 357.361 414.062C353.887 417.15 352.343 420.625 352.922 423.713C351.957 420.432 353.308 416.571 357.168 413.097C364.503 406.535 378.013 403.639 387.471 406.535C392.489 408.079 395.192 411.167 395.771 414.448C394.806 411.553 392.103 409.044 387.664 407.5Z" fill="#F4A856"/>
<path d="M358.133 431.819C369.328 435.487 385.541 432.012 394.226 424.099C398.473 420.239 400.21 416.185 399.631 412.518C400.789 416.378 399.052 420.818 394.419 425.064C385.734 432.978 369.521 436.452 358.326 432.785C352.536 430.854 349.061 427.38 348.482 423.52C349.64 426.994 352.729 430.082 358.133 431.819Z" fill="#FCE586"/>
<path d="M393.455 359.826L393.648 362.335C395.771 361.177 398.473 360.405 401.947 360.405C413.721 360.212 428.197 368.318 434.181 378.548C435.918 381.443 436.69 383.952 436.883 386.461L439.199 385.496L436.883 389.55C434.953 393.024 430.899 395.147 424.916 395.34C413.142 395.533 398.666 387.427 392.683 377.197C389.595 372.178 389.401 367.546 391.139 364.072L393.455 359.826Z" fill="#F4A856"/>
<path d="M394.999 372.757C400.982 382.794 415.458 390.901 427.232 390.901C439.006 390.708 443.638 382.408 437.655 372.371C431.671 362.335 417.195 354.228 405.421 354.228C393.648 354.421 389.015 362.721 394.999 372.757Z" fill="#FCCC6B"/>
<path d="M394.999 372.757C400.982 382.794 415.458 390.901 427.232 390.901C439.006 390.708 443.638 382.408 437.655 372.371C431.671 362.335 417.195 354.228 405.421 354.228C393.648 354.421 389.015 362.721 394.999 372.757Z" fill="url(#paint26_radial)"/>
<path d="M409.861 383.759C414.879 386.654 420.477 388.198 425.495 388.198C430.32 388.198 433.987 386.461 435.725 383.373C437.462 380.285 437.076 376.425 434.566 372.178C429.548 363.686 417.195 356.737 407.352 356.93C402.526 356.93 398.859 358.667 397.122 361.756C395.385 364.844 395.771 368.704 398.28 372.95C400.789 377.197 405.035 380.864 409.861 383.759ZM422.6 361.756C427.425 364.458 431.671 368.318 433.987 372.371C436.304 376.425 436.883 380.285 435.146 383.18C433.601 386.075 430.127 387.619 425.302 387.812C415.458 388.005 403.491 381.25 398.473 372.757C396.157 368.704 395.578 364.844 397.315 361.949C398.859 359.053 402.333 357.509 407.159 357.316C412.177 357.316 417.581 359.053 422.6 361.756Z" fill="#F4A856"/>
<path d="M398.473 372.757C403.491 381.25 415.651 388.005 425.495 388.005C435.339 387.812 439.392 380.864 434.18 372.371C429.162 363.879 417.002 357.123 407.159 357.123C397.315 357.316 393.455 364.265 398.473 372.757Z" fill="url(#paint27_radial)"/>
<path d="M433.794 373.143C428.776 364.651 416.616 357.895 406.773 357.895C402.14 357.895 398.666 359.632 397.122 362.142C398.666 359.053 402.14 357.123 407.352 356.93C417.195 356.737 429.355 363.686 434.373 372.178C437.076 376.618 437.269 380.671 435.339 383.566C436.497 380.864 436.111 377.197 433.794 373.143Z" fill="#F4A856"/>
<path d="M395.385 371.986C401.368 382.022 415.844 390.129 427.618 390.129C433.216 390.129 437.269 388.199 439.199 384.917C437.462 388.585 433.216 390.901 427.039 390.901C415.265 391.094 400.789 382.987 394.806 372.758C391.718 367.546 391.525 362.721 393.648 359.247C392.104 362.721 392.683 367.16 395.385 371.986Z" fill="#FCE586"/>
</g>
<defs>
<filter id="filter0_d" x="0.944824" y="7.62939e-06" width="540.481" height="516" filterUnits="userSpaceOnUse" color-interpolation-filters="sRGB">
<feFlood flood-opacity="0" result="BackgroundImageFix"/>
<feColorMatrix in="SourceAlpha" type="matrix" values="0 0 0 0 0 0 0 0 0 0 0 0 0 0 0 0 0 0 127 0"/>
<feOffset dy="4"/>
<feGaussianBlur stdDeviation="15"/>
<feColorMatrix type="matrix" values="0 0 0 0 0 0 0 0 0 0 0 0 0 0 0 0 0 0 0.1 0"/>
<feBlend mode="normal" in2="BackgroundImageFix" result="effect1_dropShadow"/>
<feBlend mode="normal" in="SourceGraphic" in2="effect1_dropShadow" result="shape"/>
</filter>
<linearGradient id="paint0_linear" x1="503.935" y1="56.6564" x2="470.637" y2="172.785" gradientUnits="userSpaceOnUse">
<stop stop-color="#FCEE21"/>
<stop offset="0.3761" stop-color="#90F4E1"/>
<stop offset="1" stop-color="#069EFC"/>
</linearGradient>
<linearGradient id="paint1_linear" x1="508.557" y1="57.9736" x2="475.259" y2="174.106" gradientUnits="userSpaceOnUse">
<stop stop-color="#FCEE21"/>
<stop offset="0.3761" stop-color="#90F4E1"/>
<stop offset="1" stop-color="#069EFC"/>
</linearGradient>
<linearGradient id="paint2_linear" x1="453.034" y1="42.0572" x2="419.736" y2="158.187" gradientUnits="userSpaceOnUse">
<stop stop-color="#FCEE21"/>
<stop offset="0.3761" stop-color="#90F4E1"/>
<stop offset="1" stop-color="#069EFC"/>
</linearGradient>
<linearGradient id="paint3_linear" x1="375.902" y1="19.942" x2="342.605" y2="136.071" gradientUnits="userSpaceOnUse">
<stop stop-color="#FCEE21"/>
<stop offset="0.3761" stop-color="#90F4E1"/>
<stop offset="1" stop-color="#069EFC"/>
</linearGradient>
<linearGradient id="paint4_linear" x1="358.743" y1="15.0213" x2="325.445" y2="131.152" gradientUnits="userSpaceOnUse">
<stop stop-color="#FCEE21"/>
<stop offset="0.3761" stop-color="#90F4E1"/>
<stop offset="1" stop-color="#069EFC"/>
</linearGradient>
<linearGradient id="paint5_linear" x1="319.712" y1="89.1448" x2="191.223" y2="128.573" gradientUnits="userSpaceOnUse">
<stop stop-color="#2573BA"/>
<stop offset="0.907" stop-color="#0364AE"/>
<stop offset="1" stop-color="#0063AD"/>
</linearGradient>
<linearGradient id="paint6_linear" x1="307.349" y1="45.0955" x2="359.702" y2="45.0955" gradientUnits="userSpaceOnUse">
<stop stop-color="#0063AD"/>
<stop offset="1" stop-color="#2573BA"/>
</linearGradient>
<linearGradient id="paint7_linear" x1="360.025" y1="82.7016" x2="273.905" y2="82.7016" gradientUnits="userSpaceOnUse">
<stop stop-color="#7BDAFF"/>
<stop offset="1" stop-color="#59BDEF"/>
</linearGradient>
<linearGradient id="paint8_linear" x1="274.671" y1="400.991" x2="175.021" y2="238.599" gradientUnits="userSpaceOnUse">
<stop stop-color="#43AADE" stop-opacity="0.15"/>
<stop offset="1" stop-color="white" stop-opacity="0"/>
</linearGradient>
<linearGradient id="paint9_linear" x1="439.548" y1="339.874" x2="257.504" y2="339.874" gradientUnits="userSpaceOnUse">
<stop stop-color="#7BDAFF"/>
<stop offset="1" stop-color="#59BDEF"/>
</linearGradient>
<radialGradient id="paint10_radial" cx="0" cy="0" r="1" gradientUnits="userSpaceOnUse" gradientTransform="translate(429.674 401.503) rotate(-162.926) scale(37.3056)">
<stop stop-color="#FCE586"/>
<stop offset="0.2273" stop-color="#FCDB7B"/>
<stop offset="0.6161" stop-color="#FCD06F"/>
<stop offset="1" stop-color="#FCCC6B"/>
</radialGradient>
<radialGradient id="paint11_radial" cx="0" cy="0" r="1" gradientUnits="userSpaceOnUse" gradientTransform="translate(402.576 428.111) rotate(-162.926) scale(88.7442)">
<stop stop-color="#FCE586"/>
<stop offset="0.2273" stop-color="#FCDB7B"/>
<stop offset="0.6161" stop-color="#FCD06F"/>
<stop offset="1" stop-color="#FCCC6B"/>
</radialGradient>
<radialGradient id="paint12_radial" cx="0" cy="0" r="1" gradientUnits="userSpaceOnUse" gradientTransform="translate(425.189 395.103) rotate(-162.926) scale(37.3058)">
<stop stop-color="#FCE586"/>
<stop offset="0.2273" stop-color="#FCDB7B"/>
<stop offset="0.6161" stop-color="#FCD06F"/>
<stop offset="1" stop-color="#FCCC6B"/>
</radialGradient>
<radialGradient id="paint13_radial" cx="0" cy="0" r="1" gradientUnits="userSpaceOnUse" gradientTransform="translate(398.092 421.711) rotate(-162.926) scale(88.7442)">
<stop stop-color="#FCE586"/>
<stop offset="0.2273" stop-color="#FCDB7B"/>
<stop offset="0.6161" stop-color="#FCD06F"/>
<stop offset="1" stop-color="#FCCC6B"/>
</radialGradient>
<radialGradient id="paint14_radial" cx="0" cy="0" r="1" gradientUnits="userSpaceOnUse" gradientTransform="translate(390.765 426.914) rotate(-162.926) scale(37.3055)">
<stop stop-color="#FCE586"/>
<stop offset="0.2273" stop-color="#FCDB7B"/>
<stop offset="0.6161" stop-color="#FCD06F"/>
<stop offset="1" stop-color="#FCCC6B"/>
</radialGradient>
<radialGradient id="paint15_radial" cx="0" cy="0" r="1" gradientUnits="userSpaceOnUse" gradientTransform="translate(363.668 453.522) rotate(-162.926) scale(88.7442)">
<stop stop-color="#FCE586"/>
<stop offset="0.2273" stop-color="#FCDB7B"/>
<stop offset="0.6161" stop-color="#FCD06F"/>
<stop offset="1" stop-color="#FCCC6B"/>
</radialGradient>
<radialGradient id="paint16_radial" cx="0" cy="0" r="1" gradientUnits="userSpaceOnUse" gradientTransform="translate(443.005 435.974) rotate(-162.926) scale(37.3056)">
<stop stop-color="#FCE586"/>
<stop offset="0.2273" stop-color="#FCDB7B"/>
<stop offset="0.6161" stop-color="#FCD06F"/>
<stop offset="1" stop-color="#FCCC6B"/>
</radialGradient>
<radialGradient id="paint17_radial" cx="0" cy="0" r="1" gradientUnits="userSpaceOnUse" gradientTransform="translate(415.907 462.582) rotate(-162.926) scale(88.7442)">
<stop stop-color="#FCE586"/>
<stop offset="0.2273" stop-color="#FCDB7B"/>
<stop offset="0.6161" stop-color="#FCD06F"/>
<stop offset="1" stop-color="#FCCC6B"/>
</radialGradient>
<radialGradient id="paint18_radial" cx="0" cy="0" r="1" gradientUnits="userSpaceOnUse" gradientTransform="translate(418.289 426.369) rotate(-162.926) scale(37.3056)">
<stop stop-color="#FCE586"/>
<stop offset="0.2273" stop-color="#FCDB7B"/>
<stop offset="0.6161" stop-color="#FCD06F"/>
<stop offset="1" stop-color="#FCCC6B"/>
</radialGradient>
<radialGradient id="paint19_radial" cx="0" cy="0" r="1" gradientUnits="userSpaceOnUse" gradientTransform="translate(391.192 452.976) rotate(-162.926) scale(88.7444)">
<stop stop-color="#FCE586"/>
<stop offset="0.2273" stop-color="#FCDB7B"/>
<stop offset="0.6161" stop-color="#FCD06F"/>
<stop offset="1" stop-color="#FCCC6B"/>
</radialGradient>
<radialGradient id="paint20_radial" cx="0" cy="0" r="1" gradientUnits="userSpaceOnUse" gradientTransform="translate(411.533 421.148) rotate(-162.926) scale(37.3056)">
<stop stop-color="#FCE586"/>
<stop offset="0.2273" stop-color="#FCDB7B"/>
<stop offset="0.6161" stop-color="#FCD06F"/>
<stop offset="1" stop-color="#FCCC6B"/>
</radialGradient>
<radialGradient id="paint21_radial" cx="0" cy="0" r="1" gradientUnits="userSpaceOnUse" gradientTransform="translate(384.436 447.756) rotate(-162.926) scale(88.7444)">
<stop stop-color="#FCE586"/>
<stop offset="0.2273" stop-color="#FCDB7B"/>
<stop offset="0.6161" stop-color="#FCD06F"/>
<stop offset="1" stop-color="#FCCC6B"/>
</radialGradient>
<radialGradient id="paint22_radial" cx="0" cy="0" r="1" gradientUnits="userSpaceOnUse" gradientTransform="translate(407.954 411.105) rotate(-162.926) scale(37.3056)">
<stop stop-color="#FCE586"/>
<stop offset="0.2273" stop-color="#FCDB7B"/>
<stop offset="0.6161" stop-color="#FCD06F"/>
<stop offset="1" stop-color="#FCCC6B"/>
</radialGradient>
<radialGradient id="paint23_radial" cx="0" cy="0" r="1" gradientUnits="userSpaceOnUse" gradientTransform="translate(380.857 437.713) rotate(-162.926) scale(88.7441)">
<stop stop-color="#FCE586"/>
<stop offset="0.2273" stop-color="#FCDB7B"/>
<stop offset="0.6161" stop-color="#FCD06F"/>
<stop offset="1" stop-color="#FCCC6B"/>
</radialGradient>
<radialGradient id="paint24_radial" cx="0" cy="0" r="1" gradientUnits="userSpaceOnUse" gradientTransform="translate(387.242 407.005) rotate(-174.739) scale(37.3056)">
<stop stop-color="#FCE586"/>
<stop offset="0.2273" stop-color="#FCDB7B"/>
<stop offset="0.6161" stop-color="#FCD06F"/>
<stop offset="1" stop-color="#FCCC6B"/>
</radialGradient>
<radialGradient id="paint25_radial" cx="0" cy="0" r="1" gradientUnits="userSpaceOnUse" gradientTransform="translate(366.166 438.596) rotate(-174.739) scale(88.7442)">
<stop stop-color="#FCE586"/>
<stop offset="0.2273" stop-color="#FCDB7B"/>
<stop offset="0.6161" stop-color="#FCD06F"/>
<stop offset="1" stop-color="#FCCC6B"/>
</radialGradient>
<radialGradient id="paint26_radial" cx="0" cy="0" r="1" gradientUnits="userSpaceOnUse" gradientTransform="translate(433.724 372.489) rotate(-133.383) scale(37.3058)">
<stop stop-color="#FCE586"/>
<stop offset="0.2273" stop-color="#FCDB7B"/>
<stop offset="0.6161" stop-color="#FCD06F"/>
<stop offset="1" stop-color="#FCCC6B"/>
</radialGradient>
<radialGradient id="paint27_radial" cx="0" cy="0" r="1" gradientUnits="userSpaceOnUse" gradientTransform="translate(397.03 382.277) rotate(-133.383) scale(88.7439)">
<stop stop-color="#FCE586"/>
<stop offset="0.2273" stop-color="#FCDB7B"/>
<stop offset="0.6161" stop-color="#FCD06F"/>
<stop offset="1" stop-color="#FCCC6B"/>
</radialGradient>
</defs>
</svg>
