<svg width="92" height="92" viewBox="0 0 92 92" fill="none" xmlns="http://www.w3.org/2000/svg">
<path d="M92 46C92 71.3 71.3 92 46 92C20.7 92 3.05176e-05 71.3 3.05176e-05 46C3.05176e-05 20.7 20.7 0 46 0C71.3 0 92 20.7 92 46Z" fill="#FFF3F1"/>
<path d="M50.5999 52.9H41.3999V20.7H50.5999V52.9ZM41.3999 66.7C41.3999 64.17 43.4699 62.1 45.9999 62.1C48.5299 62.1 50.5999 64.17 50.5999 66.7C50.5999 69.23 48.5299 71.3001 45.9999 71.3001C43.4699 71.3001 41.3999 69.23 41.3999 66.7Z" fill="#FDA586"/>
</svg>
