<svg width="92" height="92" viewBox="0 0 92 92" fill="none" xmlns="http://www.w3.org/2000/svg">
<path d="M92 46C92 71.4012 71.4012 92 46 92C20.5988 92 3.05176e-05 71.4012 3.05176e-05 46C3.05176e-05 20.5988 20.5988 0 46 0C71.4012 0 92 20.5988 92 46Z" fill="#E6FAFF"/>
<path d="M45.4437 62.4335C43.7716 62.4335 42.3893 62.9717 41.3106 64.0688C40.2319 65.1567 39.6937 66.539 39.6937 68.2203C39.6937 69.874 40.2227 71.2402 41.2761 72.3166C42.3364 73.3953 43.721 73.9335 45.4529 73.9335C47.1779 73.9335 48.5625 73.3953 49.6228 72.3166C50.6739 71.2379 51.2052 69.8717 51.2052 68.2203C51.2052 66.5413 50.667 65.1567 49.5883 64.0688C48.5165 62.9901 47.1043 62.4335 45.4437 62.4335H45.4437ZM57.9235 24.3478C55.129 21.9121 51.2121 20.7 46.1613 20.7C41.1565 20.7 37.2028 21.9857 34.3117 24.5456C31.5724 26.9721 30.1165 30.3048 29.9371 34.5H29.9003V36.7999H40.2503L40.2687 35.1831C40.3147 33.2879 40.8713 31.7952 41.9316 30.7188C42.9827 29.6308 44.4018 29.0926 46.1636 29.0926C49.8827 29.0926 51.7342 31.0959 51.7342 35.1117C51.7342 36.4412 51.3846 37.7084 50.6647 38.9021C49.954 40.0981 48.5165 41.6506 46.3614 43.5642C44.204 45.4686 42.7228 47.4098 41.9132 49.3763C41.0967 51.3428 40.6919 54.1741 40.6919 57.4976H49.8459L49.9908 55.1447C50.2507 52.8172 51.2857 50.7955 53.1004 49.0612L56.003 46.3219C58.257 44.1392 59.8486 42.152 60.7479 40.3649C61.6564 38.5686 62.1141 36.6642 62.1141 34.6517C62.1003 30.215 60.7088 26.7834 57.9235 24.3477L57.9235 24.3478Z" fill="#8BDBED"/>
</svg>
