<svg width="70" height="38" viewBox="0 0 70 38" fill="none" xmlns="http://www.w3.org/2000/svg">
<path d="M7.65157 0V37.0906H0V0H7.65157Z" fill="#343C4B"/>
<path d="M20.5319 14.1659V27.0806C20.5319 29.9108 21.8283 31.3259 24.4211 31.3259C27.0139 31.3259 28.3103 29.9108 28.3103 27.0806V14.1659H35.9619V28.6446C35.9619 31.743 34.9896 34.0667 33.045 35.6159C31.1285 37.165 28.2539 37.9396 24.4211 37.9396C20.5883 37.9396 17.6995 37.165 15.7549 35.6159C13.8385 34.0667 12.8803 31.743 12.8803 28.6446V14.1659H20.5319Z" fill="#343C4B"/>
<path d="M57.5192 21.584C56.1946 20.6307 54.8559 20.154 53.5032 20.154C52.7704 20.154 52.08 20.2881 51.4318 20.5562C50.8118 20.8243 50.2622 21.2116 49.7831 21.7181C49.304 22.1948 48.9235 22.7757 48.6417 23.4609C48.3881 24.1163 48.2612 24.8611 48.2612 25.6953C48.2612 26.4996 48.3881 27.2444 48.6417 27.9296C48.9235 28.5851 49.2899 29.166 49.7408 29.6725C50.2199 30.1491 50.7836 30.5215 51.4318 30.7896C52.08 31.0578 52.7704 31.1918 53.5032 31.1918C54.9405 31.1918 56.2792 30.6705 57.5192 29.6278V36.5096C55.631 37.3736 53.8414 37.8056 52.1504 37.8056C50.5722 37.8056 49.0644 37.5225 47.6271 36.9565C46.218 36.3905 44.9639 35.5861 43.8647 34.5434C42.7938 33.4709 41.9342 32.2047 41.286 30.7449C40.6378 29.2554 40.3137 27.6019 40.3137 25.7847C40.3137 23.9674 40.6238 22.3139 41.2438 20.8243C41.8638 19.305 42.7093 18.009 43.7802 16.9365C44.8511 15.8342 46.1194 14.9852 47.5849 14.3894C49.0785 13.7637 50.6708 13.4509 52.3618 13.4509C54.2218 13.4509 55.941 13.868 57.5192 14.7022V21.584Z" fill="#343C4B"/>
<path d="M69.5349 14.1659V37.0906H61.8833V14.1659H69.5349Z" fill="#343C4B"/>
<ellipse cx="65.5601" cy="5.46743" rx="4.43989" ry="4.69338" fill="#FF8976"/>
</svg>
