<svg width="16" height="16" viewBox="0 0 16 16" fill="none" xmlns="http://www.w3.org/2000/svg">
<path d="M13.9348 2.01713H12.3646V0.972692C12.3646 0.816764 12.3027 0.667223 12.1924 0.556965C12.0822 0.446707 11.9326 0.384766 11.7767 0.384766C11.6201 0.384755 11.4699 0.446474 11.3585 0.556538C11.2472 0.666601 11.1837 0.816131 11.1819 0.972692V2.00329H4.81151V0.972692C4.80969 0.816131 4.74622 0.666601 4.63486 0.556538C4.5235 0.446474 4.37324 0.384755 4.21667 0.384766C4.06074 0.384766 3.9112 0.446707 3.80094 0.556965C3.69068 0.667223 3.62874 0.816764 3.62874 0.972692V2.00329H2.05863C1.61469 2.00329 1.18894 2.17964 0.875029 2.49356C0.561118 2.80747 0.384766 3.23322 0.384766 3.67716V13.9417C0.384766 14.3856 0.561118 14.8114 0.875029 15.1253C1.18894 15.4392 1.61469 15.6155 2.05863 15.6155H13.9348C14.1542 15.6155 14.3716 15.5722 14.5743 15.488C14.777 15.4038 14.961 15.2804 15.1159 15.1249C15.2708 14.9693 15.3934 14.7848 15.4768 14.5817C15.5602 14.3787 15.6026 14.1612 15.6017 13.9417V3.69099C15.6026 3.4715 15.5602 3.254 15.4768 3.05095C15.3934 2.84791 15.2708 2.66333 15.1159 2.50781C14.961 2.35228 14.777 2.22888 14.5743 2.14468C14.3716 2.06047 14.1542 2.01713 13.9348 2.01713ZM1.56754 6.97647H14.4189V13.9417C14.4199 14.0058 14.408 14.0695 14.3841 14.1291C14.3602 14.1886 14.3246 14.2428 14.2796 14.2885C14.2345 14.3342 14.1809 14.3705 14.1217 14.3953C14.0625 14.42 13.9989 14.4328 13.9348 14.4328H2.05863C1.92838 14.4328 1.80347 14.381 1.71137 14.2889C1.61928 14.1968 1.56754 14.0719 1.56754 13.9417V6.97647ZM4.21667 4.81843C4.37324 4.81844 4.5235 4.75672 4.63486 4.64666C4.74622 4.53659 4.80969 4.38706 4.81151 4.2305V3.1999H11.1819V4.2305C11.1837 4.38706 11.2472 4.53659 11.3585 4.64666C11.4699 4.75672 11.6201 4.81844 11.7767 4.81843C11.9326 4.81843 12.0822 4.75649 12.1924 4.64623C12.3027 4.53597 12.3646 4.38643 12.3646 4.2305V3.1999H13.9348C13.9989 3.19989 14.0625 3.21264 14.1217 3.2374C14.1809 3.26217 14.2345 3.29845 14.2796 3.34415C14.3246 3.38984 14.3602 3.44404 14.3841 3.50358C14.408 3.56312 14.4199 3.62683 14.4189 3.69099V5.76603H1.56754V3.69099C1.56754 3.56075 1.61928 3.43583 1.71137 3.34374C1.80347 3.25164 1.92838 3.1999 2.05863 3.1999H3.62874V4.2305C3.62874 4.38643 3.69068 4.53597 3.80094 4.64623C3.9112 4.75649 4.06074 4.81843 4.21667 4.81843Z" fill="#FF8976"/>
</svg>
