<svg width="16" height="13" viewBox="0 0 16 13" fill="none" xmlns="http://www.w3.org/2000/svg">
<path fill-rule="evenodd" clip-rule="evenodd" d="M15.6155 10.7732V2.42774C15.6155 1.51315 14.8825 0.769343 13.9753 0.769343H2.025C1.1178 0.769343 0.384766 1.51315 0.384766 2.42774V10.7732C0.384766 11.7482 1.17158 12.5386 2.14216 12.5386H13.8581C14.8287 12.5386 15.6155 11.7482 15.6155 10.7732ZM14.4439 3.22364C14.2607 3.15859 14.0635 3.12319 13.8581 3.12319H2.14216C1.93676 3.12319 1.73959 3.15859 1.55636 3.22364V2.42774C1.55636 2.16051 1.76751 1.94627 2.025 1.94627H13.9753C14.2328 1.94627 14.4439 2.16051 14.4439 2.42774V3.22364ZM14.4439 4.88858V10.7732C14.4439 11.0982 14.1817 11.3617 13.8581 11.3617H2.14216C1.81863 11.3617 1.55636 11.0982 1.55636 10.7732V4.88858C1.55636 4.56358 1.81863 4.30011 2.14216 4.30011H13.8581C14.1817 4.30011 14.4439 4.56358 14.4439 4.88858Z" fill="#FF8976"/>
<path d="M9.12709 5.6155H8.57722C8.57722 5.29687 8.31893 5.03857 8.0003 5.03857C7.68167 5.03857 7.42338 5.29687 7.42338 5.61553C6.78983 5.61985 6.27758 6.13477 6.27758 6.76934V7.34679C6.27758 7.98404 6.79417 8.50064 7.43142 8.50064H8.57723V9.07704H7.36985C7.27718 8.89346 7.08909 8.76546 6.86912 8.75989C6.55059 8.75181 6.28584 9.00348 6.27776 9.32201L6.26972 9.63934C6.2615 9.96359 6.52211 10.2309 6.84646 10.2309H7.4234C7.42611 10.5472 7.68336 10.8028 8.0003 10.8028C8.31724 10.8028 8.57449 10.5472 8.57723 10.2309C9.21448 10.2309 9.73107 9.71429 9.73107 9.07704V8.50064C9.73107 7.86339 9.21448 7.34679 8.57723 7.34679H7.43142V6.76934H8.64358C8.74654 6.92713 8.92464 7.03141 9.12709 7.03141C9.44572 7.03141 9.70401 6.77311 9.70401 6.45449V6.19242C9.70401 5.87379 9.44572 5.6155 9.12709 5.6155Z" fill="#FF8976"/>
</svg>
