<svg width="18" height="18" viewBox="0 0 18 18" fill="none" xmlns="http://www.w3.org/2000/svg">
<path d="M16.6913 6.60472C16.5715 6.26356 16.3231 5.98278 15.999 5.82241C15.4445 5.56176 14.8437 5.41406 14.2316 5.38791C13.6195 5.36177 13.0083 5.45769 12.4336 5.6701L11.3051 6.07856L7.94745 4.43087C7.80323 4.372 7.64168 4.372 7.49745 4.43087L5.47592 5.17164C5.37769 5.20619 5.29086 5.26709 5.22492 5.34768C5.15899 5.42827 5.11649 5.52544 5.10207 5.62856C5.08838 5.73248 5.10302 5.83816 5.14446 5.93443C5.18589 6.03071 5.25257 6.11399 5.33745 6.17548L7.27592 7.5601L4.60361 8.52933L3.55822 7.68471C3.48296 7.62059 3.39191 7.57779 3.29451 7.56075C3.19712 7.5437 3.09694 7.55304 3.00438 7.58779L1.92438 7.98241C1.85321 8.00815 1.78783 8.04771 1.73199 8.0988C1.67615 8.14988 1.63095 8.2115 1.59899 8.2801C1.54383 8.42025 1.54383 8.5761 1.59899 8.71625L2.2913 10.6063C2.40493 10.9249 2.58103 11.2176 2.80928 11.4672C3.03754 11.7169 3.31335 11.9185 3.62053 12.0601C3.9272 12.2046 4.25943 12.2869 4.59807 12.3023C4.93671 12.3178 5.27506 12.266 5.59361 12.1501L7.98207 11.2778L7.47669 13.2578C7.4605 13.3411 7.46276 13.427 7.48332 13.5094C7.50387 13.5918 7.54222 13.6687 7.59567 13.7347C7.64911 13.8007 7.71636 13.8541 7.79268 13.8914C7.86901 13.9286 7.95256 13.9486 8.03746 13.9501C8.10165 13.9606 8.16711 13.9606 8.2313 13.9501L10.2321 13.1539C10.3054 13.1267 10.3725 13.0851 10.4296 13.0316C10.4866 12.9781 10.5325 12.9138 10.5644 12.8424L11.8936 9.79625L15.8675 8.35625C16.2064 8.22978 16.4823 7.97569 16.6363 7.64836C16.7902 7.32102 16.81 6.94643 16.6913 6.60472ZM8.57745 7.06164L6.92284 5.8501L7.65669 5.53856L9.78899 6.59779L8.57745 7.06164ZM9.33899 10.4886C9.36695 10.3879 9.36621 10.2813 9.33685 10.181C9.3075 10.0807 9.25069 9.99061 9.17284 9.92087C9.06617 9.82591 8.92795 9.77408 8.78515 9.77548C8.71878 9.7728 8.65263 9.78461 8.5913 9.8101L5.18515 11.077C4.82619 11.2067 4.43055 11.1893 4.08438 11.0286C3.91331 10.9495 3.7597 10.8371 3.63252 10.6981C3.50533 10.559 3.40712 10.396 3.34361 10.2186L2.85899 8.86856L3.08745 8.78548L4.15361 9.60933C4.23189 9.67043 4.32437 9.71072 4.42242 9.72646C4.52047 9.7422 4.62091 9.73286 4.71438 9.69933L12.8075 6.7501C13.2404 6.58956 13.7011 6.51727 14.1624 6.53749C14.6237 6.5577 15.0764 6.67 15.4936 6.86779C15.5212 6.88048 15.5459 6.89871 15.5661 6.92133C15.5864 6.94396 15.6017 6.97051 15.6113 6.99933C15.6235 7.02777 15.6298 7.05839 15.6298 7.08933C15.6298 7.12027 15.6235 7.15089 15.6113 7.17933C15.5841 7.23551 15.5373 7.27982 15.4798 7.30395L11.2775 8.83394C11.2053 8.85978 11.1392 8.90014 11.0832 8.95254C11.0272 9.00493 10.9826 9.06824 10.9521 9.13856L9.61592 12.1847L8.84746 12.4616L9.33899 10.4886Z" fill="#FF8976"/>
</svg>
