<svg width="16" height="14" viewBox="0 0 16 14" fill="none" xmlns="http://www.w3.org/2000/svg">
<path d="M6.1308 6.54281C6.98772 6.54651 7.81121 6.21058 8.42103 5.60854C9.03085 5.00651 9.37733 4.1874 9.38465 3.33051C9.38465 2.46753 9.04183 1.6399 8.43162 1.02969C7.8214 0.419475 6.99377 0.0766602 6.1308 0.0766602C5.26783 0.0766602 4.4402 0.419475 3.82998 1.02969C3.21977 1.6399 2.87695 2.46753 2.87695 3.33051C2.88427 4.1874 3.23075 5.00651 3.84057 5.60854C4.45039 6.21058 5.27388 6.54651 6.1308 6.54281ZM4.05388 3.33051C4.04147 2.9173 4.15266 2.5098 4.37321 2.16015C4.59375 1.81051 4.91362 1.53463 5.29187 1.36784C5.67012 1.20104 6.08954 1.15092 6.49644 1.22388C6.90334 1.29684 7.27921 1.48957 7.57594 1.7774C7.87267 2.06523 8.07675 2.43506 8.16207 2.83955C8.24739 3.24404 8.21006 3.66479 8.05486 4.04794C7.89966 4.43109 7.63366 4.75921 7.29089 4.9903C6.94812 5.22139 6.54419 5.34494 6.1308 5.34512C5.59217 5.34881 5.07403 5.13885 4.68992 4.76123C4.30581 4.38361 4.08705 3.86912 4.08157 3.33051H4.05388Z" fill="#FF8976"/>
<path d="M8.78246 7.49808H3.47938C2.6635 7.49439 1.87947 7.8145 1.29932 8.38817C0.719162 8.96183 0.390258 9.74221 0.384766 10.5581L0.384766 12.7112C0.38476 12.7899 0.400387 12.8679 0.43074 12.9406C0.461092 13.0133 0.505568 13.0792 0.56159 13.1346C0.617612 13.19 0.684066 13.2337 0.757103 13.2632C0.830139 13.2927 0.908306 13.3075 0.987073 13.3065H11.2748C11.3535 13.3075 11.4317 13.2927 11.5047 13.2632C11.5778 13.2337 11.6442 13.19 11.7002 13.1346C11.7563 13.0792 11.8007 13.0133 11.8311 12.9406C11.8615 12.8679 11.8771 12.7899 11.8771 12.7112V10.5581C11.8716 9.74221 11.5427 8.96183 10.9625 8.38817C10.3824 7.8145 9.59834 7.49439 8.78246 7.49808ZM10.6655 10.5581V12.1158H1.58938V10.5581C1.59486 10.0611 1.79662 9.58637 2.15067 9.23751C2.50472 8.88865 2.98234 8.69391 3.47938 8.69577H8.78246C9.27885 8.69393 9.75575 8.88888 10.1087 9.23793C10.4616 9.58699 10.6619 10.0617 10.6655 10.5581Z" fill="#FF8976"/>
<path d="M15.6159 6.09946C15.6195 6.01701 15.6053 5.93476 15.5742 5.85831C15.5431 5.78185 15.496 5.71298 15.4359 5.65638L12.9436 3.19177C12.829 3.08216 12.6765 3.021 12.5178 3.021C12.3592 3.021 12.2067 3.08216 12.0921 3.19177C12.0355 3.24662 11.9906 3.31226 11.9599 3.3848C11.9292 3.45735 11.9134 3.53531 11.9134 3.61407C11.9134 3.69284 11.9292 3.7708 11.9599 3.84335C11.9906 3.91589 12.0355 3.98153 12.0921 4.03638L13.539 5.50408H9.71745C9.55955 5.50408 9.40811 5.5668 9.29645 5.67846C9.1848 5.79012 9.12207 5.94155 9.12207 6.09946C9.12207 6.25737 9.1848 6.4088 9.29645 6.52046C9.40811 6.63212 9.55955 6.69484 9.71745 6.69484H13.539L12.0782 8.13484C12.0217 8.1897 11.9768 8.25534 11.9461 8.32788C11.9154 8.40042 11.8996 8.47839 11.8996 8.55715C11.8996 8.63592 11.9154 8.71388 11.9461 8.78642C11.9768 8.85896 12.0217 8.92461 12.0782 8.97946C12.1338 9.03707 12.2005 9.08275 12.2743 9.1137C12.3481 9.14465 12.4274 9.16022 12.5075 9.15946C12.5864 9.16009 12.6647 9.14444 12.7374 9.11347C12.81 9.0825 12.8755 9.03688 12.9298 8.97946L15.4221 6.52177C15.4823 6.47513 15.5319 6.41611 15.5675 6.34869C15.5966 6.28314 15.613 6.21267 15.6159 6.141C15.6159 6.141 15.6159 6.11331 15.6159 6.09946Z" fill="#FF8976"/>
</svg>
