<svg width="72" height="42" viewBox="0 0 72 42" fill="none" xmlns="http://www.w3.org/2000/svg">
<rect width="72" height="42" rx="5" fill="white"/>
<rect x="0.5" y="0.5" width="71" height="41" rx="4.5" stroke="black" stroke-opacity="0.06"/>
<path d="M19.375 6.99995H52.6249C55.0412 6.99995 56.9999 8.9587 56.9999 11.3749V30.625C56.9999 33.0412 55.0412 34.9999 52.6249 34.9999H19.375C16.9587 35 15 33.0413 15 30.625V11.375C15 8.9587 16.9587 6.99995 19.375 6.99995Z" fill="#2196F3"/>
<path d="M57 12.25H15V19.2499H57V12.25Z" fill="#455A64"/>
<path d="M28.125 26.25H21.125C20.6418 26.25 20.25 25.8582 20.25 25.375C20.25 24.8917 20.6418 24.4999 21.125 24.4999H28.125C28.6082 24.4999 29 24.8917 29 25.375C29 25.8582 28.6082 26.25 28.125 26.25Z" fill="#FAFAFA"/>
<path d="M33.375 29.75H21.125C20.6418 29.75 20.25 29.3582 20.25 28.875C20.25 28.3918 20.6418 28 21.125 28H33.375C33.8582 28 34.25 28.3918 34.25 28.875C34.25 29.3582 33.8582 29.75 33.375 29.75Z" fill="#FAFAFA"/>
</svg>
