<svg width="27" height="27" viewBox="0 0 27 27" fill="none" xmlns="http://www.w3.org/2000/svg">
<rect width="27" height="27" rx="5" fill="#0062FF"/>
<path d="M10.7885 20.9998C8.40725 20.9861 6.4375 16.1251 6.4375 13.6495C6.4375 9.60566 9.47109 8.72035 10.6402 8.72035C11.1671 8.72035 11.7297 8.92725 12.2259 9.11035C12.5729 9.23807 12.9318 9.36991 13.1314 9.36991C13.2508 9.36991 13.5324 9.25775 13.7809 9.15935C14.311 8.94832 14.9707 8.68604 15.7388 8.68604C15.7402 8.68604 15.742 8.68604 15.7433 8.68604C16.3169 8.68604 18.056 8.81191 19.1015 10.382L19.3464 10.7501L18.9939 11.016C18.4904 11.396 17.5717 12.089 17.5717 13.4619C17.5717 15.0878 18.6122 15.7132 19.112 16.0139C19.3327 16.1467 19.5611 16.2835 19.5611 16.5829C19.5611 16.7784 18.001 20.9756 15.7356 20.9756C15.1812 20.9756 14.7894 20.809 14.4438 20.662C14.094 20.5133 13.7923 20.3851 13.2938 20.3851C13.0412 20.3851 12.7216 20.5046 12.3833 20.6314C11.9211 20.8039 11.3978 20.9998 10.8041 20.9998H10.7885Z" fill="white"/>
<path d="M15.9786 5C16.0376 7.12737 14.5161 8.60325 12.9965 8.51069C12.7461 6.81297 14.516 5 15.9786 5Z" fill="white"/>
</svg>
