<svg width="40" height="40" viewBox="0 0 40 40" fill="none" xmlns="http://www.w3.org/2000/svg">
<rect width="40" height="40" rx="5" fill="#3DD598"/>
<g clip-path="url(#clip0)">
<path d="M26.7805 28.7181C26.7805 29.2531 26.9702 29.7095 27.3483 30.0876C27.7264 30.4661 28.1832 30.6554 28.7184 30.6554C29.2528 30.6554 29.7096 30.4661 30.0877 30.0876C30.4662 29.7095 30.6555 29.2531 30.6555 28.7181C30.6555 28.1831 30.4664 27.7267 30.0877 27.3482C29.7096 26.9701 29.2528 26.7808 28.7184 26.7808C28.1832 26.7808 27.7264 26.9701 27.3483 27.3482C26.9702 27.7267 26.7805 28.1831 26.7805 28.7181Z" fill="white"/>
<path d="M32.3049 11.5694C32.1131 11.3776 31.8862 11.2818 31.6238 11.2818H13.4464C13.4361 11.2112 13.4135 11.0826 13.3782 10.896C13.3428 10.7092 13.3152 10.5605 13.295 10.4494C13.2747 10.3387 13.237 10.2049 13.1814 10.0485C13.1259 9.89204 13.0603 9.76831 12.9847 9.67772C12.9092 9.58664 12.8083 9.50866 12.6821 9.44287C12.556 9.37751 12.4122 9.34464 12.2508 9.34464H8.3762C8.11368 9.34464 7.88668 9.4407 7.69499 9.63218C7.50325 9.82387 7.40735 10.051 7.40735 10.3133C7.40735 10.5756 7.50325 10.8027 7.69499 10.9944C7.88684 11.1861 8.11389 11.2819 8.3762 11.2819H11.4635L14.1423 23.7384C14.1222 23.7787 14.0188 23.9703 13.832 24.3135C13.6454 24.6568 13.4966 24.9568 13.3857 25.2141C13.2747 25.4717 13.2192 25.6708 13.2192 25.812C13.2192 26.0743 13.3151 26.3014 13.5068 26.4934C13.6987 26.6846 13.9257 26.7808 14.188 26.7808H15.1567H28.7179H29.686C29.9483 26.7808 30.1754 26.6846 30.367 26.4934C30.5589 26.3015 30.6547 26.0744 30.6547 25.812C30.6547 25.5497 30.5589 25.3225 30.367 25.131C30.1754 24.9394 29.9483 24.8432 29.686 24.8432H15.7618C16.0041 24.3588 16.1252 24.0363 16.1252 23.8748C16.1252 23.7736 16.1126 23.6625 16.0873 23.5417C16.062 23.4209 16.0318 23.287 15.9965 23.1405C15.9611 22.9946 15.9385 22.8861 15.9285 22.8153L31.7301 20.9689C31.9821 20.9384 32.1891 20.8303 32.3505 20.6434C32.512 20.4569 32.5925 20.2425 32.5925 20.0002V12.2508C32.5924 11.9885 32.4968 11.7614 32.3049 11.5694Z" fill="white"/>
<path d="M13.2191 28.7181C13.2191 29.2531 13.4082 29.7095 13.7867 30.0876C14.1652 30.4661 14.6216 30.6554 15.1565 30.6554C15.6912 30.6554 16.1478 30.4661 16.5261 30.0876C16.9046 29.7095 17.0939 29.2531 17.0939 28.7181C17.0939 28.1831 16.9047 27.7267 16.5261 27.3482C16.1478 26.9701 15.6912 26.7808 15.1565 26.7808C14.6217 26.7808 14.165 26.9701 13.7867 27.3482C13.4084 27.7267 13.2191 28.1831 13.2191 28.7181Z" fill="white"/>
</g>
<defs>
<clipPath id="clip0">
<rect width="25.1852" height="25.1852" fill="white" transform="translate(7.40735 7.40741)"/>
</clipPath>
</defs>
</svg>
