<svg width="40" height="40" viewBox="0 0 40 40" fill="none" xmlns="http://www.w3.org/2000/svg">
<rect width="40" height="40" rx="5" fill="#7BDAFF"/>
<g clip-path="url(#clip0)">
<path d="M31.8557 20.3317C31.5961 19.8702 30.9903 19.6971 30.5 19.9856L27.2115 21.8894L26.375 22.3798V26.9374L27.1538 27.3989C27.1827 27.3989 27.1827 27.4278 27.2115 27.4278L30.4423 29.3028C30.5865 29.4181 30.7884 29.4758 30.9903 29.4758C31.5384 29.4758 31.9711 29.0431 31.9711 28.4951V24.6297L31.9999 20.8221C31.9999 20.649 31.9711 20.4759 31.8557 20.3317Z" fill="white"/>
<path d="M12.6443 18.8606C15.2116 18.8606 17.2885 16.7837 17.2885 14.2164C17.2885 11.6491 15.2116 9.57224 12.6443 9.57224C10.0771 9.57224 8.00017 11.6491 8.00017 14.2164C7.97132 16.7837 10.0771 18.8606 12.6443 18.8606ZM12.6443 12.3126C13.7116 12.3126 14.5482 13.178 14.5482 14.2164C14.5482 15.2837 13.6828 16.1202 12.6443 16.1202C11.6059 16.1202 10.7405 15.2549 10.7405 14.2164C10.7117 13.1491 11.5771 12.3126 12.6443 12.3126Z" fill="white"/>
<path d="M24.4134 19.1202C23.6634 19.4952 22.8269 19.7259 21.9326 19.7259C20.8365 19.7259 19.7981 19.4086 18.9327 18.8317H15.6443C14.7789 19.4086 13.7404 19.7259 12.6443 19.7259C11.7501 19.7259 10.9136 19.524 10.1636 19.1202C9.50011 19.4952 9.03857 20.2452 9.03857 21.0528V28.0912C9.03857 29.3893 10.1059 30.4277 11.3751 30.4277H23.2307C24.5288 30.4277 25.5672 29.3604 25.5672 28.0912V21.0528C25.5384 20.2452 25.0768 19.4952 24.4134 19.1202Z" fill="white"/>
<path d="M21.9328 18.8606C24.5 18.8606 26.5769 16.7837 26.5769 14.2164C26.5769 11.6491 24.5 9.57224 21.9328 9.57224C19.3655 9.57224 17.2886 11.6491 17.2886 14.2164C17.2886 16.7837 19.3655 18.8606 21.9328 18.8606ZM21.9328 12.3126C23.0001 12.3126 23.8366 13.178 23.8366 14.2164C23.8366 15.2837 22.9712 16.1202 21.9328 16.1202C20.8943 16.1202 20.0289 15.2549 20.0289 14.2164C20.0289 13.1491 20.8655 12.3126 21.9328 12.3126Z" fill="white"/>
</g>
<defs>
<clipPath id="clip0">
<rect width="24" height="24" fill="white" transform="translate(8 8)"/>
</clipPath>
</defs>
</svg>
