<svg width="40" height="40" viewBox="0 0 40 40" fill="none" xmlns="http://www.w3.org/2000/svg">
<rect width="40" height="40" rx="5" fill="#404857"/>
<path d="M26.8093 9.30259C26.7087 9.41999 26.5633 9.48707 26.4068 9.48707C26.2502 9.48707 26.0993 9.41999 25.9931 9.30259L24.8023 8L23.6115 9.297C23.6003 9.30818 23.5892 9.31936 23.578 9.33054C23.3544 9.53739 22.9966 9.52621 22.7897 9.297L21.5989 8L20.4082 9.297C20.397 9.30818 20.3858 9.31936 20.3746 9.33054C20.151 9.53739 19.7932 9.52621 19.5864 9.297L18.3956 8L17.2048 9.297C17.1936 9.30818 17.1824 9.31936 17.1713 9.33054C16.9476 9.53739 16.5899 9.52621 16.383 9.297L15.1922 8L14.0015 9.30259C13.8952 9.41999 13.7443 9.48707 13.5878 9.48707C13.4312 9.48707 13.2859 9.41999 13.1852 9.30259L12.5647 8.61495V31.3906L13.1852 30.6974C13.2859 30.58 13.4312 30.5129 13.5878 30.5129C13.7443 30.5129 13.8952 30.58 14.0015 30.6974L15.1922 32L16.3886 30.703C16.3998 30.6918 16.411 30.6806 16.4221 30.6695C16.6458 30.4626 17.0036 30.4738 17.2104 30.703L18.4012 32L19.592 30.703C19.6031 30.6918 19.6143 30.6806 19.6255 30.6695C19.8491 30.4626 20.2069 30.4738 20.4138 30.703L21.6045 32L22.7953 30.703C22.8065 30.6918 22.8177 30.6806 22.8288 30.6695C23.0525 30.4626 23.4103 30.4738 23.6171 30.703L24.8079 32L25.9987 30.6974C26.1049 30.58 26.2558 30.5129 26.4124 30.5129C26.5689 30.5129 26.7142 30.58 26.8149 30.6974L27.4354 31.385V8.60936L26.8093 9.30259ZM19.4354 12.4892V12.137C19.4354 11.8295 19.687 11.5779 19.9945 11.5779C20.3019 11.5779 20.5535 11.8295 20.5535 12.137V12.4892C21.3082 12.7296 21.817 13.434 21.817 14.2222C21.817 14.5297 21.5654 14.7813 21.2579 14.7813C20.9504 14.7813 20.6989 14.5297 20.6989 14.2222C20.6989 14.2166 20.6989 14.2166 20.6989 14.2166C20.6989 13.8253 20.3802 13.5066 19.9945 13.5122C19.6087 13.5178 19.2957 13.8253 19.2957 14.2166C19.2957 14.608 19.6087 14.921 20.0001 14.921C20.7883 14.921 21.4927 15.4298 21.7331 16.1845C22.0406 17.1405 21.5151 18.1691 20.5591 18.4766V18.8344C20.5591 19.1419 20.3075 19.3934 20.0001 19.3934C19.6926 19.3934 19.441 19.1419 19.441 18.8344V18.4766C18.6863 18.2306 18.1776 17.5318 18.1776 16.7435C18.1776 16.4361 18.4291 16.1845 18.7366 16.1845C19.0441 16.1845 19.2957 16.4361 19.2957 16.7435C19.2957 17.1349 19.6143 17.4479 20.0001 17.4479C20.0056 17.4479 20.0056 17.4479 20.0056 17.4535C20.397 17.4479 20.7101 17.1349 20.7045 16.7435C20.6989 16.3522 20.3802 16.0391 19.9945 16.0447C19.2062 16.0447 18.5018 15.5304 18.2614 14.7813C17.9539 13.8253 18.4794 12.7966 19.4354 12.4892ZM17.5514 22.4626H22.4487C22.7562 22.4626 23.0077 22.7142 23.0077 23.0217C23.0077 23.3291 22.7562 23.5807 22.4487 23.5807H17.5514C17.2439 23.5807 16.9924 23.3291 16.9924 23.0217C16.9924 22.7142 17.2439 22.4626 17.5514 22.4626ZM24.7799 28.2208H15.2202C14.9127 28.2208 14.6611 27.9693 14.6611 27.6618C14.6611 27.3543 14.9127 27.1027 15.2202 27.1027H24.7799C25.0874 27.1027 25.339 27.3543 25.339 27.6618C25.339 27.9693 25.0874 28.2208 24.7799 28.2208ZM24.7799 25.8728H15.2202C14.9127 25.8728 14.6611 25.6212 14.6611 25.3138C14.6611 25.0063 14.9127 24.7547 15.2202 24.7547H24.7799C25.0874 24.7547 25.339 25.0063 25.339 25.3138C25.339 25.6212 25.0874 25.8728 24.7799 25.8728Z" fill="white"/>
</svg>
