<svg width="40" height="40" viewBox="0 0 40 40" fill="none" xmlns="http://www.w3.org/2000/svg">
<rect width="40" height="40" rx="5" fill="#044877"/>
<g clip-path="url(#clip0)">
<path d="M27.6851 31.1112H10.0925C9.42875 31.1112 8.88879 30.5712 8.88879 29.9075V27.8704C8.88879 27.2067 9.42875 26.6667 10.0925 26.6667H27.6851C28.3488 26.6667 28.8888 27.2067 28.8888 27.8704V29.9075C28.8888 30.5712 28.3488 31.1112 27.6851 31.1112Z" fill="white"/>
<path d="M15.7869 13.3334H21.9906C22.1184 13.3334 22.2221 13.2297 22.2221 13.1019V10.6019C22.2221 10.4741 22.1184 10.3704 21.9906 10.3704H15.7869C15.6591 10.3704 15.5554 10.4741 15.5554 10.6019V13.1019C15.5554 13.2297 15.6591 13.3334 15.7869 13.3334Z" fill="white"/>
<path d="M17.037 21.111C17.037 22.1322 17.8677 22.9629 18.8888 22.9629C19.91 22.9629 20.7407 22.1322 20.7407 21.111C20.7407 20.509 19.9029 19.1787 19.0734 18.0795C18.9811 17.9572 18.7969 17.9572 18.7047 18.0795C17.8752 19.1794 17.037 20.5102 17.037 21.111Z" fill="white"/>
<path d="M29.22 11.5597L26.6665 10.283V9.53709C26.6665 8.36094 25.713 7.40746 24.5369 7.40746H13.2406C12.0644 7.40746 11.111 8.36094 11.111 9.53709V24.9538C11.111 25.0816 11.2146 25.1852 11.3424 25.1852H26.435C26.5629 25.1852 26.6665 25.0816 26.6665 24.9538V24.315L28.6024 21.6533C29.2743 20.7292 29.6295 19.637 29.6295 18.4945V12.2223C29.6295 11.9417 29.471 11.6852 29.22 11.5597ZM18.8887 24.4445C17.0508 24.4445 15.5554 22.9491 15.5554 21.1112C15.5554 20.3528 16.023 19.3121 16.9841 17.9292C17.6466 16.9764 18.2999 16.2153 18.3272 16.1834C18.4679 16.02 18.673 15.926 18.8887 15.926C19.1045 15.926 19.3096 16.02 19.4503 16.1834C19.4776 16.2153 20.1309 16.9764 20.7934 17.9292C21.7545 19.3121 22.2221 20.3528 22.2221 21.1112C22.2221 22.9491 20.7267 24.4445 18.8887 24.4445ZM23.7036 13.6112C23.7036 14.2751 23.1637 14.8149 22.4999 14.8149H15.2776C14.6137 14.8149 14.0739 14.2751 14.0739 13.6112V10.0926C14.0739 9.42876 14.6137 8.88894 15.2776 8.88894H22.4999C23.1637 8.88894 23.7036 9.42876 23.7036 10.0926V13.6112ZM28.148 18.4945C28.148 19.3218 27.8908 20.1128 27.4043 20.7819L26.6665 21.7963V11.9394L28.148 12.6801V18.4945Z" fill="white"/>
</g>
<defs>
<clipPath id="clip0">
<rect width="23.7037" height="23.7037" fill="white" transform="translate(7.40735 7.40746)"/>
</clipPath>
</defs>
</svg>
