<svg width="27" height="27" viewBox="0 0 27 27" fill="none" xmlns="http://www.w3.org/2000/svg">
<rect width="27" height="27" rx="5" fill="#FF974A"/>
<g clip-path="url(#clip0)">
<path d="M21.8918 13.6417C21.6971 13.2956 21.2428 13.1658 20.875 13.3821L18.4087 14.81L17.7813 15.1778V18.596L18.3654 18.9422C18.3871 18.9422 18.3871 18.9638 18.4087 18.9638L20.8318 20.37C20.9399 20.4566 21.0914 20.4998 21.2428 20.4998C21.6539 20.4998 21.9784 20.1753 21.9784 19.7643V16.8653L22 14.0095C22 13.8797 21.9784 13.7499 21.8918 13.6417Z" fill="white"/>
<path d="M7.48329 12.5385C9.40874 12.5385 10.9664 10.9809 10.9664 9.0554C10.9664 7.12994 9.40874 5.57227 7.48329 5.57227C5.55783 5.57227 4.00016 7.12994 4.00016 9.0554C3.97852 10.9809 5.55783 12.5385 7.48329 12.5385ZM7.48329 7.62753C8.28376 7.62753 8.91115 8.27656 8.91115 9.0554C8.91115 9.85587 8.26212 10.4833 7.48329 10.4833C6.70445 10.4833 6.05542 9.83423 6.05542 9.0554C6.03379 8.25493 6.68282 7.62753 7.48329 7.62753Z" fill="white"/>
<path d="M16.3101 12.7329C15.7476 13.0142 15.1202 13.1873 14.4495 13.1873C13.6274 13.1873 12.8486 12.9493 12.1996 12.5166H9.73326C9.08423 12.9493 8.30539 13.1873 7.48328 13.1873C6.81262 13.1873 6.18522 13.0358 5.62273 12.7329C5.12514 13.0142 4.77899 13.5767 4.77899 14.1824V19.4612C4.77899 20.4348 5.57946 21.2136 6.53137 21.2136H15.4231C16.3966 21.2136 17.1755 20.4131 17.1755 19.4612V14.1824C17.1538 13.5767 16.8077 13.0142 16.3101 12.7329Z" fill="white"/>
<path d="M14.4496 12.5385C16.3751 12.5385 17.9328 10.9809 17.9328 9.0554C17.9328 7.12994 16.3751 5.57227 14.4496 5.57227C12.5242 5.57227 10.9665 7.12994 10.9665 9.0554C10.9665 10.9809 12.5242 12.5385 14.4496 12.5385ZM14.4496 7.62753C15.2501 7.62753 15.8775 8.27656 15.8775 9.0554C15.8775 9.85587 15.2285 10.4833 14.4496 10.4833C13.6708 10.4833 13.0218 9.83423 13.0218 9.0554C13.0218 8.25493 13.6492 7.62753 14.4496 7.62753Z" fill="white"/>
</g>
<defs>
<clipPath id="clip0">
<rect width="18" height="18" fill="white" transform="translate(4 4)"/>
</clipPath>
</defs>
</svg>
