<svg width="27" height="27" viewBox="0 0 27 27" fill="none" xmlns="http://www.w3.org/2000/svg">
<rect width="27" height="27" rx="5" fill="#044877"/>
<g clip-path="url(#clip0)">
<g clip-path="url(#clip1)">
<path d="M21.5291 17.5495H19.9919V9.74814C19.9919 8.51431 18.9884 7.51074 17.7545 7.51074C17.2729 7.51074 8.68116 7.51074 8.23776 7.51074C7.00393 7.51074 6.00037 8.51431 6.00037 9.74814V15.474C6.72034 14.6326 7.78915 14.0987 8.98063 14.0987C11.3279 14.0987 13.158 16.16 12.8738 18.4907H13.5295V12.777C13.5295 12.2258 13.9367 11.7772 14.4373 11.7772H17.0763C17.577 11.7772 17.9842 12.2258 17.9842 12.777V18.4894C17.9842 18.4925 17.8378 18.4907 21.0585 18.4907V20.0278C21.0585 20.2876 21.2694 20.4984 21.5291 20.4984C21.7889 20.4984 21.9997 20.2876 21.9997 20.0278V18.0201C21.9997 17.7603 21.7889 17.5495 21.5291 17.5495ZM11.459 12.4988C11.459 12.7585 11.2481 12.9693 10.9884 12.9693H8.47869C8.21894 12.9693 8.00812 12.7585 8.00812 12.4988V9.98907C8.00812 9.72931 8.21894 9.5185 8.47869 9.5185H10.9884C11.2481 9.5185 11.459 9.72931 11.459 9.98907V12.4988Z" fill="white"/>
<path d="M11.9504 18.2682C12.0951 16.5317 10.722 15.0391 8.98063 15.0391C7.33731 15.0391 6.00037 16.376 6.00037 18.0193C6.00037 19.6626 7.33731 20.9996 8.98063 20.9996C10.541 20.9996 11.8238 19.7944 11.9504 18.2682Z" fill="white"/>
<path d="M8.94928 10.459H10.5178V12.0275H8.94928V10.459Z" fill="white"/>
<path d="M14.4819 12.7178C14.4644 12.7578 14.4706 12.3764 14.4706 18.4901H17.0431C17.0431 12.3825 17.0493 12.7578 17.0318 12.7178H14.4819Z" fill="white"/>
<path d="M16.5098 6.34369C16.5098 5.60302 15.9074 5.00069 15.1668 5.00069C14.8413 5.00069 14.4453 4.96963 14.0314 5.32381C13.7965 5.12273 13.4918 5.00069 13.159 5.00069C12.8336 5.00069 12.4375 4.96963 12.0237 5.32381C11.6107 4.97042 11.2114 5.00069 10.8884 5.00069C10.1477 5.00069 9.54535 5.60302 9.54535 6.34369V6.56925H16.5098V6.34369Z" fill="white"/>
</g>
</g>
<defs>
<clipPath id="clip0">
<rect width="16" height="16" fill="white" transform="translate(5 5)"/>
</clipPath>
<clipPath id="clip1">
<rect width="16" height="16" fill="white" transform="translate(6 5)"/>
</clipPath>
</defs>
</svg>
