<svg width="27" height="27" viewBox="0 0 27 27" fill="none" xmlns="http://www.w3.org/2000/svg">
<rect width="27" height="27" rx="5" fill="#FF8976"/>
<path d="M5 17.0107C5 17.1747 5.11495 17.3035 5.27899 17.3035H5.72442C6.02372 16.6433 6.70514 16.1437 7.49636 16.1437C8.28761 16.1437 8.96888 16.6433 9.26834 17.3035H15.0581V14.9346H5V17.0107Z" fill="white"/>
<path d="M7.49634 16.7695C6.77119 16.7695 6.18335 17.3574 6.18335 18.0825C6.18335 18.8077 6.77119 19.3955 7.49634 19.3955C8.22115 19.3947 8.80852 18.8073 8.80934 18.0825C8.80934 17.3574 8.2215 16.7695 7.49634 16.7695Z" fill="white"/>
<path d="M20.8289 13.9695L19.5784 13.4199H15.6794V17.3034H16.4363C16.7357 16.6432 17.417 16.1436 18.2082 16.1436C18.9994 16.1436 19.6808 16.6432 19.9801 17.3034H20.7208C20.8848 17.3034 20.9998 17.1746 20.9998 17.0106V14.252C21.0039 14.1323 20.9369 14.0215 20.8289 13.9695Z" fill="white"/>
<path d="M18.2928 11.1807C18.1368 10.8814 17.8252 10.6959 17.4878 10.7013H15.6794V12.7983H19.1324L18.2928 11.1807Z" fill="white"/>
<path d="M14.1663 8.60449H5.88713C5.38776 8.60449 5 9.01559 5 9.51497V14.3132H15.0581V9.51497C15.0581 9.51357 15.0582 9.51217 15.0582 9.51077C15.0622 9.01427 14.6629 8.60849 14.1663 8.60449Z" fill="white"/>
<path d="M18.2082 16.7695C17.483 16.7696 16.8952 17.3574 16.8952 18.0826C16.8952 18.8077 17.4831 19.3956 18.2082 19.3955C18.933 19.3947 19.5204 18.8073 19.5212 18.0825V18.0825C19.5212 17.3574 18.9333 16.7695 18.2082 16.7695Z" fill="white"/>
</svg>
