<svg width="27" height="27" viewBox="0 0 27 27" fill="none" xmlns="http://www.w3.org/2000/svg">
<rect width="27" height="27" rx="5" fill="#3DD598"/>
<g clip-path="url(#clip0)">
<path d="M21.7542 10.1963L13.6006 5.60594C13.5092 5.55453 13.3978 5.55453 13.3064 5.60594L5.15271 10.1963C5.05838 10.2494 4.99997 10.3493 5 10.4576V20.9093C5 20.9591 5.0404 20.9995 5.09023 20.9995H6.88934C6.93916 20.9995 6.97956 20.9591 6.97956 20.9093V12.0391H19.9274V20.9093C19.9274 20.9592 19.9678 20.9996 20.0176 20.9996H21.8167C21.8665 20.9996 21.907 20.9592 21.907 20.9093V10.4575C21.907 10.3493 21.8486 10.2494 21.7542 10.1963Z" fill="white"/>
<path d="M18.5238 18.1973H16.3224C16.1568 18.1973 16.0226 18.3315 16.0226 18.497V20.6985C16.0226 20.8641 16.1569 20.9983 16.3224 20.9983H18.5238C18.6894 20.9983 18.8236 20.8641 18.8236 20.6985V18.497C18.8236 18.3315 18.6894 18.1973 18.5238 18.1973Z" fill="white"/>
<path d="M14.5541 18.1973H12.3527C12.1871 18.1973 12.0529 18.3315 12.0529 18.497V20.6985C12.0529 20.8641 12.1871 20.9983 12.3527 20.9983H14.5541C14.7197 20.9983 14.8539 20.8641 14.8539 20.6985V18.497C14.854 18.3315 14.7197 18.1973 14.5541 18.1973Z" fill="white"/>
<path d="M10.5844 18.1973H8.38296C8.21741 18.1973 8.08319 18.3315 8.08319 18.497V20.6985C8.08319 20.8641 8.21745 20.9983 8.38296 20.9983H10.5844C10.7499 20.9983 10.8842 20.8641 10.8842 20.6985V18.497C10.8842 18.3315 10.7499 18.1973 10.5844 18.1973Z" fill="white"/>
<path d="M18.5238 14.1475H16.3224C16.1568 14.1475 16.0226 14.2817 16.0226 14.4472V16.6487C16.0226 16.8143 16.1569 16.9485 16.3224 16.9485H18.5238C18.6894 16.9485 18.8236 16.8143 18.8236 16.6487V14.4472C18.8236 14.2816 18.6894 14.1475 18.5238 14.1475Z" fill="white"/>
<path d="M14.5541 14.1475H12.3527C12.1871 14.1475 12.0529 14.2817 12.0529 14.4472V16.6487C12.0529 16.8143 12.1871 16.9485 12.3527 16.9485H14.5541C14.7197 16.9485 14.8539 16.8143 14.8539 16.6487V14.4472C14.854 14.2816 14.7197 14.1475 14.5541 14.1475Z" fill="white"/>
<path d="M10.5844 14.1475H8.38296C8.21741 14.1475 8.08319 14.2817 8.08319 14.4472V16.6487C8.08319 16.8143 8.21745 16.9485 8.38296 16.9485H10.5844C10.7499 16.9485 10.8842 16.8143 10.8842 16.6487V14.4472C10.8842 14.2816 10.7499 14.1475 10.5844 14.1475Z" fill="white"/>
</g>
<defs>
<clipPath id="clip0">
<rect width="17" height="17" fill="white" transform="translate(5 5)"/>
</clipPath>
</defs>
</svg>
